0, 0, Header, 1, 2, 220
1, 0, Start_track
1, 0, Tempo, 500000
1, 0, Time_signature, 4, 2, 24, 8
1, 1, End_track
2, 0, Start_track
2, 0, Program_c, 0, 4
2, 2014, Note_on_c, 0, 38, 58
2, 2121, Note_on_c, 0, 38, 0
2, 3450, Note_on_c, 0, 62, 66
2, 3716, Note_on_c, 0, 69, 84
2, 3864, Note_on_c, 0, 62, 0
2, 3885, Note_on_c, 0, 69, 0
2, 3961, Note_on_c, 0, 69, 43
2, 4053, Note_on_c, 0, 62, 75
2, 4125, Note_on_c, 0, 69, 0
2, 4176, Note_on_c, 0, 62, 0
2, 4217, Note_on_c, 0, 60, 80
2, 4401, Note_on_c, 0, 60, 0
2, 4462, Note_on_c, 0, 60, 47
2, 4565, Note_on_c, 0, 60, 0
2, 4590, Note_on_c, 0, 62, 93
2, 4953, Note_on_c, 0, 62, 0
2, 5019, Note_on_c, 0, 62, 69
2, 5244, Note_on_c, 0, 62, 0
2, 5331, Note_on_c, 0, 62, 62
2, 6082, Note_on_c, 0, 62, 0
2, 6548, Note_on_c, 0, 62, 76
2, 6752, Note_on_c, 0, 69, 66
2, 6788, Note_on_c, 0, 62, 0
2, 6849, Note_on_c, 0, 69, 0
2, 6849, Note_on_c, 0, 69, 86
2, 6967, Note_on_c, 0, 69, 0
2, 7110, Note_on_c, 0, 62, 78
2, 7121, Note_on_c, 0, 69, 52
2, 7177, Note_on_c, 0, 60, 79
2, 7182, Note_on_c, 0, 62, 0
2, 7182, Note_on_c, 0, 69, 0
2, 7442, Note_on_c, 0, 60, 0
2, 7652, Note_on_c, 0, 62, 101
2, 7872, Note_on_c, 0, 62, 0
2, 7872, Note_on_c, 0, 62, 83
2, 9037, Note_on_c, 0, 62, 0
2, 9277, Note_on_c, 0, 45, 50
2, 9298, Note_on_c, 0, 60, 74
2, 9349, Note_on_c, 0, 45, 0
2, 9369, Note_on_c, 0, 62, 102
2, 9374, Note_on_c, 0, 60, 0
2, 9436, Note_on_c, 0, 62, 0
2, 9436, Note_on_c, 0, 62, 70
2, 9794, Note_on_c, 0, 69, 76
2, 9881, Note_on_c, 0, 69, 0
2, 9957, Note_on_c, 0, 69, 53
2, 10014, Note_on_c, 0, 62, 0
2, 10146, Note_on_c, 0, 62, 60
2, 10284, Note_on_c, 0, 69, 0
2, 10320, Note_on_c, 0, 62, 0
2, 10335, Note_on_c, 0, 60, 82
2, 10407, Note_on_c, 0, 60, 0
2, 10407, Note_on_c, 0, 60, 101
2, 10535, Note_on_c, 0, 60, 0
2, 10535, Note_on_c, 0, 60, 60
2, 10602, Note_on_c, 0, 62, 83
2, 10714, Note_on_c, 0, 60, 0
2, 11031, Note_on_c, 0, 69, 47
2, 11102, Note_on_c, 0, 62, 0
2, 11312, Note_on_c, 0, 69, 0
2, 11537, Note_on_c, 0, 69, 64
2, 11695, Note_on_c, 0, 62, 39
2, 11803, Note_on_c, 0, 62, 0
2, 12253, Note_on_c, 0, 69, 0
2, 12661, Note_on_c, 0, 86, 51
2, 12666, Note_on_c, 0, 62, 92
2, 12743, Note_on_c, 0, 86, 0
2, 12815, Note_on_c, 0, 67, 79
2, 12820, Note_on_c, 0, 62, 0
2, 12876, Note_on_c, 0, 67, 0
2, 12881, Note_on_c, 0, 69, 59
2, 13019, Note_on_c, 0, 69, 0
2, 13019, Note_on_c, 0, 69, 62
2, 13229, Note_on_c, 0, 62, 72
2, 13290, Note_on_c, 0, 69, 0
2, 13295, Note_on_c, 0, 60, 67
2, 13301, Note_on_c, 0, 62, 0
2, 13418, Note_on_c, 0, 60, 0
2, 13418, Note_on_c, 0, 60, 90
2, 13607, Note_on_c, 0, 60, 0
2, 13607, Note_on_c, 0, 60, 62
2, 13668, Note_on_c, 0, 62, 86
2, 13796, Note_on_c, 0, 60, 0
2, 14057, Note_on_c, 0, 62, 0
2, 14057, Note_on_c, 0, 62, 64
2, 15514, Note_on_c, 0, 62, 0
2, 15892, Note_on_c, 0, 65, 78
2, 16398, Note_on_c, 0, 65, 0
2, 16505, Note_on_c, 0, 67, 73
2, 16782, Note_on_c, 0, 67, 0
2, 16879, Note_on_c, 0, 69, 93
2, 17073, Note_on_c, 0, 69, 0
2, 17400, Note_on_c, 0, 65, 79
2, 17508, Note_on_c, 0, 65, 0
2, 17508, Note_on_c, 0, 65, 78
2, 17651, Note_on_c, 0, 65, 0
2, 17651, Note_on_c, 0, 65, 79
2, 18029, Note_on_c, 0, 65, 0
2, 18034, Note_on_c, 0, 67, 59
2, 18340, Note_on_c, 0, 67, 0
2, 18407, Note_on_c, 0, 69, 105
2, 20247, Note_on_c, 0, 69, 0
2, 20288, Note_on_c, 0, 72, 74
2, 20298, Note_on_c, 0, 84, 45
2, 20370, Note_on_c, 0, 84, 0
2, 20385, Note_on_c, 0, 72, 0
2, 20416, Note_on_c, 0, 86, 76
2, 20426, Note_on_c, 0, 74, 69
2, 21597, Note_on_c, 0, 86, 0
2, 21637, Note_on_c, 0, 74, 0
2, 22174, Note_on_c, 0, 72, 75
2, 22266, Note_on_c, 0, 72, 0
2, 22287, Note_on_c, 0, 74, 76
2, 22476, Note_on_c, 0, 74, 0
2, 22639, Note_on_c, 0, 74, 58
2, 22644, Note_on_c, 0, 86, 60
2, 22870, Note_on_c, 0, 86, 0
2, 22905, Note_on_c, 0, 74, 0
2, 23411, Note_on_c, 0, 77, 88
2, 23841, Note_on_c, 0, 77, 0
2, 23846, Note_on_c, 0, 76, 72
2, 23912, Note_on_c, 0, 76, 0
2, 23912, Note_on_c, 0, 76, 97
2, 24020, Note_on_c, 0, 76, 0
2, 24020, Note_on_c, 0, 76, 94
2, 24720, Note_on_c, 0, 76, 0
2, 24746, Note_on_c, 0, 74, 76
2, 24858, Note_on_c, 0, 74, 0
2, 25175, Note_on_c, 0, 72, 82
2, 25236, Note_on_c, 0, 72, 0
2, 25236, Note_on_c, 0, 72, 87
2, 25354, Note_on_c, 0, 72, 0
2, 25354, Note_on_c, 0, 74, 78
2, 25533, Note_on_c, 0, 74, 0
2, 25701, Note_on_c, 0, 74, 82
2, 25727, Note_on_c, 0, 86, 53
2, 25844, Note_on_c, 0, 86, 0
2, 25890, Note_on_c, 0, 74, 0
2, 26192, Note_on_c, 0, 74, 57
2, 26392, Note_on_c, 0, 74, 0
2, 26458, Note_on_c, 0, 77, 87
2, 26504, Note_on_c, 0, 74, 57
2, 26739, Note_on_c, 0, 74, 0
2, 26836, Note_on_c, 0, 77, 0
2, 26908, Note_on_c, 0, 76, 36
2, 26984, Note_on_c, 0, 76, 0
2, 26989, Note_on_c, 0, 76, 86
2, 27066, Note_on_c, 0, 76, 0
2, 27158, Note_on_c, 0, 76, 85
2, 27853, Note_on_c, 0, 75, 87
2, 27853, Note_on_c, 0, 76, 0
2, 27945, Note_on_c, 0, 75, 0
2, 28002, Note_on_c, 0, 76, 47
2, 28221, Note_on_c, 0, 76, 0
2, 28319, Note_on_c, 0, 72, 75
2, 28400, Note_on_c, 0, 72, 0
2, 28702, Note_on_c, 0, 74, 74
2, 28978, Note_on_c, 0, 86, 40
2, 28999, Note_on_c, 0, 74, 0
2, 29039, Note_on_c, 0, 81, 63
2, 29075, Note_on_c, 0, 86, 0
2, 29193, Note_on_c, 0, 86, 47
2, 29264, Note_on_c, 0, 86, 0
2, 29274, Note_on_c, 0, 74, 85
2, 29504, Note_on_c, 0, 74, 0
2, 29504, Note_on_c, 0, 74, 89
2, 29622, Note_on_c, 0, 81, 0
2, 29806, Note_on_c, 0, 82, 99
2, 29811, Note_on_c, 0, 74, 0
2, 29908, Note_on_c, 0, 74, 49
2, 30026, Note_on_c, 0, 81, 82
2, 30026, Note_on_c, 0, 82, 0
2, 30159, Note_on_c, 0, 74, 0
2, 30414, Note_on_c, 0, 69, 96
2, 30470, Note_on_c, 0, 81, 0
2, 30516, Note_on_c, 0, 69, 0
2, 30516, Note_on_c, 0, 69, 86
2, 30701, Note_on_c, 0, 69, 0
2, 30701, Note_on_c, 0, 69, 78
2, 31298, Note_on_c, 0, 69, 0
2, 31416, Note_on_c, 0, 69, 43
2, 31503, Note_on_c, 0, 69, 0
2, 31651, Note_on_c, 0, 74, 93
2, 31738, Note_on_c, 0, 74, 0
2, 31738, Note_on_c, 0, 74, 74
2, 32101, Note_on_c, 0, 81, 62
2, 32167, Note_on_c, 0, 74, 0
2, 32331, Note_on_c, 0, 74, 84
2, 32561, Note_on_c, 0, 74, 0
2, 32561, Note_on_c, 0, 74, 68
2, 32853, Note_on_c, 0, 81, 0
2, 32858, Note_on_c, 0, 82, 84
2, 33174, Note_on_c, 0, 81, 69
2, 33174, Note_on_c, 0, 82, 0
2, 33231, Note_on_c, 0, 74, 0
2, 33466, Note_on_c, 0, 69, 91
2, 33686, Note_on_c, 0, 81, 0
2, 33798, Note_on_c, 0, 69, 0
2, 33798, Note_on_c, 0, 69, 92
2, 33951, Note_on_c, 0, 69, 0
2, 33951, Note_on_c, 0, 70, 72
2, 34033, Note_on_c, 0, 70, 0
2, 34038, Note_on_c, 0, 69, 90
2, 34187, Note_on_c, 0, 69, 0
2, 34187, Note_on_c, 0, 69, 79
2, 34636, Note_on_c, 0, 69, 0
2, 34693, Note_on_c, 0, 69, 49
2, 34769, Note_on_c, 0, 69, 0
2, 34790, Note_on_c, 0, 69, 38
2, 34928, Note_on_c, 0, 69, 0
2, 35362, Note_on_c, 0, 69, 50
2, 35429, Note_on_c, 0, 69, 0
2, 36441, Note_on_c, 0, 62, 80
2, 36512, Note_on_c, 0, 62, 0
2, 36584, Note_on_c, 0, 69, 52
2, 36594, Note_on_c, 0, 62, 43
2, 36666, Note_on_c, 0, 62, 0
2, 36707, Note_on_c, 0, 69, 0
2, 36707, Note_on_c, 0, 69, 65
2, 36860, Note_on_c, 0, 62, 85
2, 36957, Note_on_c, 0, 69, 0
2, 36978, Note_on_c, 0, 60, 56
2, 36978, Note_on_c, 0, 62, 0
2, 37070, Note_on_c, 0, 60, 0
2, 37070, Note_on_c, 0, 60, 85
2, 37305, Note_on_c, 0, 60, 0
2, 37305, Note_on_c, 0, 60, 77
2, 37371, Note_on_c, 0, 62, 83
2, 37417, Note_on_c, 0, 60, 0
2, 37484, Note_on_c, 0, 62, 0
2, 37484, Note_on_c, 0, 62, 97
2, 37668, Note_on_c, 0, 62, 0
2, 37668, Note_on_c, 0, 63, 38
2, 37755, Note_on_c, 0, 62, 80
2, 37755, Note_on_c, 0, 63, 0
2, 38966, Note_on_c, 0, 62, 0
2, 39503, Note_on_c, 0, 62, 65
2, 39564, Note_on_c, 0, 62, 0
2, 39636, Note_on_c, 0, 69, 53
2, 39718, Note_on_c, 0, 69, 0
2, 39718, Note_on_c, 0, 69, 94
2, 39794, Note_on_c, 0, 69, 0
2, 39794, Note_on_c, 0, 69, 58
2, 39942, Note_on_c, 0, 62, 78
2, 40014, Note_on_c, 0, 69, 0
2, 40029, Note_on_c, 0, 62, 0
2, 40075, Note_on_c, 0, 69, 57
2, 40172, Note_on_c, 0, 69, 0
2, 40193, Note_on_c, 0, 60, 75
2, 40367, Note_on_c, 0, 60, 0
2, 40367, Note_on_c, 0, 60, 67
2, 40484, Note_on_c, 0, 60, 0
2, 40581, Note_on_c, 0, 62, 82
2, 40592, Note_on_c, 0, 74, 48
2, 40776, Note_on_c, 0, 74, 0
2, 40816, Note_on_c, 0, 62, 0
2, 40898, Note_on_c, 0, 74, 44
2, 40934, Note_on_c, 0, 57, 84
2, 40960, Note_on_c, 0, 74, 0
2, 40995, Note_on_c, 0, 62, 52
2, 41093, Note_on_c, 0, 62, 0
2, 41333, Note_on_c, 0, 74, 53
2, 41359, Note_on_c, 0, 62, 53
2, 41394, Note_on_c, 0, 74, 0
2, 41558, Note_on_c, 0, 62, 0
2, 41680, Note_on_c, 0, 74, 44
2, 41757, Note_on_c, 0, 62, 48
2, 41762, Note_on_c, 0, 74, 0
2, 41793, Note_on_c, 0, 57, 0
2, 41854, Note_on_c, 0, 57, 40
2, 41854, Note_on_c, 0, 62, 0
2, 42008, Note_on_c, 0, 57, 0
2, 42146, Note_on_c, 0, 69, 42
2, 42151, Note_on_c, 0, 60, 86
2, 42212, Note_on_c, 0, 69, 0
2, 42274, Note_on_c, 0, 62, 84
2, 42279, Note_on_c, 0, 60, 0
2, 42350, Note_on_c, 0, 62, 0
2, 42350, Note_on_c, 0, 62, 43
2, 42468, Note_on_c, 0, 65, 94
2, 42498, Note_on_c, 0, 62, 0
2, 42667, Note_on_c, 0, 65, 0
2, 42718, Note_on_c, 0, 69, 87
2, 42795, Note_on_c, 0, 69, 0
2, 42867, Note_on_c, 0, 69, 79
2, 42933, Note_on_c, 0, 69, 0
2, 43061, Note_on_c, 0, 65, 80
2, 43137, Note_on_c, 0, 65, 0
2, 43286, Note_on_c, 0, 72, 82
2, 43367, Note_on_c, 0, 72, 0
2, 43490, Note_on_c, 0, 69, 88
2, 43602, Note_on_c, 0, 69, 0
2, 43607, Note_on_c, 0, 70, 80
2, 43689, Note_on_c, 0, 69, 82
2, 43689, Note_on_c, 0, 70, 0
2, 43704, Note_on_c, 0, 81, 62
2, 44727, Note_on_c, 0, 81, 0
2, 44850, Note_on_c, 0, 69, 0
2, 44932, Note_on_c, 0, 69, 39
2, 45044, Note_on_c, 0, 81, 46
2, 45110, Note_on_c, 0, 69, 0
2, 45121, Note_on_c, 0, 81, 0
2, 45545, Note_on_c, 0, 62, 67
2, 45760, Note_on_c, 0, 69, 60
2, 45770, Note_on_c, 0, 62, 0
2, 45979, Note_on_c, 0, 69, 0
2, 46046, Note_on_c, 0, 69, 47
2, 46112, Note_on_c, 0, 62, 84
2, 46184, Note_on_c, 0, 60, 88
2, 46194, Note_on_c, 0, 62, 0
2, 46286, Note_on_c, 0, 69, 0
2, 46306, Note_on_c, 0, 60, 0
2, 46306, Note_on_c, 0, 60, 57
2, 46537, Note_on_c, 0, 60, 0
2, 46552, Note_on_c, 0, 62, 75
2, 46624, Note_on_c, 0, 62, 0
2, 46690, Note_on_c, 0, 62, 45
2, 46777, Note_on_c, 0, 62, 0
2, 46843, Note_on_c, 0, 62, 63
2, 46981, Note_on_c, 0, 62, 0
2, 47906, Note_on_c, 0, 81, 40
2, 48054, Note_on_c, 0, 81, 0
2, 48275, Note_on_c, 0, 69, 54
2, 48448, Note_on_c, 0, 69, 0
2, 48786, Note_on_c, 0, 65, 70
2, 48898, Note_on_c, 0, 65, 0
2, 48955, Note_on_c, 0, 65, 43
2, 49154, Note_on_c, 0, 65, 0
2, 49154, Note_on_c, 0, 65, 43
2, 49271, Note_on_c, 0, 65, 0
2, 49409, Note_on_c, 0, 67, 71
2, 49542, Note_on_c, 0, 67, 0
2, 49542, Note_on_c, 0, 67, 70
2, 49731, Note_on_c, 0, 67, 0
2, 49731, Note_on_c, 0, 67, 46
2, 49792, Note_on_c, 0, 69, 95
2, 49865, Note_on_c, 0, 67, 0
2, 50033, Note_on_c, 0, 69, 0
2, 50324, Note_on_c, 0, 65, 30
2, 50391, Note_on_c, 0, 65, 0
2, 50396, Note_on_c, 0, 65, 60
2, 50503, Note_on_c, 0, 65, 0
2, 50503, Note_on_c, 0, 65, 62
2, 50651, Note_on_c, 0, 65, 0
2, 50651, Note_on_c, 0, 65, 76
2, 50928, Note_on_c, 0, 67, 85
2, 50933, Note_on_c, 0, 65, 0
2, 51076, Note_on_c, 0, 67, 0
2, 51076, Note_on_c, 0, 67, 56
2, 51316, Note_on_c, 0, 69, 102
2, 51393, Note_on_c, 0, 67, 0
2, 53151, Note_on_c, 0, 69, 0
2, 53233, Note_on_c, 0, 69, 46
2, 53243, Note_on_c, 0, 86, 52
2, 53248, Note_on_c, 0, 74, 74
2, 53341, Note_on_c, 0, 69, 0
2, 54132, Note_on_c, 0, 74, 0
2, 54215, Note_on_c, 0, 69, 52
2, 54271, Note_on_c, 0, 86, 0
2, 54276, Note_on_c, 0, 69, 0
2, 54332, Note_on_c, 0, 72, 75
2, 54404, Note_on_c, 0, 72, 0
2, 54429, Note_on_c, 0, 74, 88
2, 54649, Note_on_c, 0, 74, 0
2, 54700, Note_on_c, 0, 85, 39
2, 54766, Note_on_c, 0, 85, 0
2, 54771, Note_on_c, 0, 74, 82
2, 54782, Note_on_c, 0, 86, 50
2, 54955, Note_on_c, 0, 86, 0
2, 54971, Note_on_c, 0, 74, 0
2, 55268, Note_on_c, 0, 86, 53
2, 55283, Note_on_c, 0, 74, 56
2, 55329, Note_on_c, 0, 86, 0
2, 55446, Note_on_c, 0, 74, 0
2, 55548, Note_on_c, 0, 77, 91
2, 55988, Note_on_c, 0, 77, 0
2, 56050, Note_on_c, 0, 76, 91
2, 56898, Note_on_c, 0, 74, 79
2, 56960, Note_on_c, 0, 74, 0
2, 57307, Note_on_c, 0, 72, 95
2, 57373, Note_on_c, 0, 76, 0
2, 57491, Note_on_c, 0, 72, 0
2, 57547, Note_on_c, 0, 74, 59
2, 57649, Note_on_c, 0, 74, 0
2, 57818, Note_on_c, 0, 86, 39
2, 57823, Note_on_c, 0, 74, 72
2, 57885, Note_on_c, 0, 86, 0
2, 58023, Note_on_c, 0, 74, 0
2, 58247, Note_on_c, 0, 74, 48
2, 58334, Note_on_c, 0, 74, 0
2, 58339, Note_on_c, 0, 74, 60
2, 58493, Note_on_c, 0, 74, 0
2, 58590, Note_on_c, 0, 74, 51
2, 58600, Note_on_c, 0, 77, 96
2, 58759, Note_on_c, 0, 74, 0
2, 58841, Note_on_c, 0, 74, 58
2, 58984, Note_on_c, 0, 74, 0
2, 59019, Note_on_c, 0, 76, 88
2, 59019, Note_on_c, 0, 77, 0
2, 59116, Note_on_c, 0, 76, 0
2, 59116, Note_on_c, 0, 76, 69
2, 59275, Note_on_c, 0, 76, 0
2, 59275, Note_on_c, 0, 76, 98
2, 60082, Note_on_c, 0, 76, 0
2, 60174, Note_on_c, 0, 76, 56
2, 60256, Note_on_c, 0, 76, 0
2, 60446, Note_on_c, 0, 72, 69
2, 60594, Note_on_c, 0, 72, 0
2, 60650, Note_on_c, 0, 74, 51
2, 60722, Note_on_c, 0, 74, 0
2, 60829, Note_on_c, 0, 74, 83
2, 61135, Note_on_c, 0, 74, 0
2, 61181, Note_on_c, 0, 81, 78
2, 61422, Note_on_c, 0, 74, 81
2, 61621, Note_on_c, 0, 81, 0
2, 61642, Note_on_c, 0, 74, 0
2, 61642, Note_on_c, 0, 74, 64
2, 61677, Note_on_c, 0, 81, 48
2, 61815, Note_on_c, 0, 81, 0
2, 61948, Note_on_c, 0, 82, 96
2, 62173, Note_on_c, 0, 82, 0
2, 62179, Note_on_c, 0, 81, 90
2, 62362, Note_on_c, 0, 74, 0
2, 62444, Note_on_c, 0, 81, 0
2, 62444, Note_on_c, 0, 81, 64
2, 62541, Note_on_c, 0, 81, 0
2, 62567, Note_on_c, 0, 69, 77
2, 63160, Note_on_c, 0, 81, 54
2, 63277, Note_on_c, 0, 81, 0
2, 63298, Note_on_c, 0, 69, 0
2, 63809, Note_on_c, 0, 81, 48
2, 63819, Note_on_c, 0, 74, 88
2, 63932, Note_on_c, 0, 81, 0
2, 64192, Note_on_c, 0, 74, 0
2, 64243, Note_on_c, 0, 81, 64
2, 64254, Note_on_c, 0, 74, 67
2, 64259, Note_on_c, 0, 93, 56
2, 64427, Note_on_c, 0, 93, 0
2, 64694, Note_on_c, 0, 74, 0
2, 64699, Note_on_c, 0, 74, 97
2, 64775, Note_on_c, 0, 81, 0
2, 64837, Note_on_c, 0, 81, 40
2, 64964, Note_on_c, 0, 74, 0
2, 64990, Note_on_c, 0, 81, 0
2, 64995, Note_on_c, 0, 82, 99
2, 65061, Note_on_c, 0, 74, 55
2, 65235, Note_on_c, 0, 81, 88
2, 65235, Note_on_c, 0, 82, 0
2, 65563, Note_on_c, 0, 81, 0
2, 65573, Note_on_c, 0, 74, 0
2, 65614, Note_on_c, 0, 69, 87
2, 65813, Note_on_c, 0, 69, 0
2, 65895, Note_on_c, 0, 69, 90
2, 66094, Note_on_c, 0, 69, 0
2, 66099, Note_on_c, 0, 69, 96
2, 66437, Note_on_c, 0, 69, 0
2, 66437, Note_on_c, 0, 69, 62
2, 66575, Note_on_c, 0, 81, 39
2, 66677, Note_on_c, 0, 81, 0
2, 66932, Note_on_c, 0, 69, 0
2, 67091, Note_on_c, 0, 69, 49
2, 67336, Note_on_c, 0, 69, 0
2, 68471, Note_on_c, 0, 62, 92
2, 68849, Note_on_c, 0, 62, 0
2, 68869, Note_on_c, 0, 69, 76
2, 69079, Note_on_c, 0, 62, 70
2, 69166, Note_on_c, 0, 69, 0
2, 69243, Note_on_c, 0, 69, 46
2, 69289, Note_on_c, 0, 62, 0
2, 69289, Note_on_c, 0, 62, 100
2, 69452, Note_on_c, 0, 69, 0
2, 69544, Note_on_c, 0, 62, 0
2, 69631, Note_on_c, 0, 70, 88
2, 69692, Note_on_c, 0, 82, 40
2, 69789, Note_on_c, 0, 82, 0
2, 69846, Note_on_c, 0, 69, 92
2, 69846, Note_on_c, 0, 70, 0
2, 70056, Note_on_c, 0, 81, 42
2, 70280, Note_on_c, 0, 81, 0
2, 70669, Note_on_c, 0, 81, 46
2, 70802, Note_on_c, 0, 81, 0
2, 71395, Note_on_c, 0, 69, 0
2, 71553, Note_on_c, 0, 62, 104
2, 71814, Note_on_c, 0, 62, 0
2, 71835, Note_on_c, 0, 67, 83
2, 71896, Note_on_c, 0, 69, 74
2, 71901, Note_on_c, 0, 67, 0
2, 72182, Note_on_c, 0, 62, 75
2, 72279, Note_on_c, 0, 69, 0
2, 72356, Note_on_c, 0, 62, 0
2, 72356, Note_on_c, 0, 62, 97
2, 72366, Note_on_c, 0, 69, 48
2, 72555, Note_on_c, 0, 69, 0
2, 72586, Note_on_c, 0, 62, 0
2, 72658, Note_on_c, 0, 70, 100
2, 72790, Note_on_c, 0, 82, 39
2, 72852, Note_on_c, 0, 82, 0
2, 72903, Note_on_c, 0, 69, 79
2, 72903, Note_on_c, 0, 70, 0
2, 74304, Note_on_c, 0, 69, 0
2, 74620, Note_on_c, 0, 72, 77
2, 74692, Note_on_c, 0, 72, 0
2, 74702, Note_on_c, 0, 86, 53
2, 74707, Note_on_c, 0, 74, 75
2, 75003, Note_on_c, 0, 74, 0
2, 75024, Note_on_c, 0, 69, 76
2, 75024, Note_on_c, 0, 86, 0
2, 75116, Note_on_c, 0, 81, 46
2, 75229, Note_on_c, 0, 81, 0
2, 75234, Note_on_c, 0, 81, 58
2, 75356, Note_on_c, 0, 81, 0
2, 75367, Note_on_c, 0, 69, 0
2, 75448, Note_on_c, 0, 84, 55
2, 75459, Note_on_c, 0, 72, 78
2, 75719, Note_on_c, 0, 84, 0
2, 75729, Note_on_c, 0, 72, 0
2, 75750, Note_on_c, 0, 70, 77
2, 75760, Note_on_c, 0, 82, 47
2, 75995, Note_on_c, 0, 70, 0
2, 76005, Note_on_c, 0, 82, 0
2, 76052, Note_on_c, 0, 69, 83
2, 76062, Note_on_c, 0, 81, 48
2, 77135, Note_on_c, 0, 81, 0
2, 77197, Note_on_c, 0, 69, 0
2, 77738, Note_on_c, 0, 74, 75
2, 77743, Note_on_c, 0, 86, 66
2, 78459, Note_on_c, 0, 86, 0
2, 78474, Note_on_c, 0, 74, 0
2, 78490, Note_on_c, 0, 76, 94
2, 79119, Note_on_c, 0, 76, 0
2, 79175, Note_on_c, 0, 74, 84
2, 79272, Note_on_c, 0, 86, 49
2, 80018, Note_on_c, 0, 86, 0
2, 80171, Note_on_c, 0, 86, 38
2, 80309, Note_on_c, 0, 86, 0
2, 80381, Note_on_c, 0, 86, 55
2, 80519, Note_on_c, 0, 86, 0
2, 80555, Note_on_c, 0, 74, 0
2, 81010, Note_on_c, 0, 69, 72
2, 81076, Note_on_c, 0, 69, 0
2, 81127, Note_on_c, 0, 72, 67
2, 81194, Note_on_c, 0, 72, 0
2, 81219, Note_on_c, 0, 74, 84
2, 81455, Note_on_c, 0, 74, 0
2, 81577, Note_on_c, 0, 74, 75
2, 81577, Note_on_c, 0, 86, 65
2, 81771, Note_on_c, 0, 86, 0
2, 81787, Note_on_c, 0, 74, 0
2, 82068, Note_on_c, 0, 74, 76
2, 82149, Note_on_c, 0, 74, 0
2, 82268, Note_on_c, 0, 75, 74
2, 82329, Note_on_c, 0, 75, 0
2, 82344, Note_on_c, 0, 77, 85
2, 82768, Note_on_c, 0, 76, 76
2, 82768, Note_on_c, 0, 77, 0
2, 82850, Note_on_c, 0, 76, 0
2, 82855, Note_on_c, 0, 76, 101
2, 83652, Note_on_c, 0, 76, 0
2, 83852, Note_on_c, 0, 76, 58
2, 84062, Note_on_c, 0, 76, 0
2, 84118, Note_on_c, 0, 72, 86
2, 84266, Note_on_c, 0, 72, 0
2, 84292, Note_on_c, 0, 74, 73
2, 84481, Note_on_c, 0, 74, 0
2, 84639, Note_on_c, 0, 74, 86
2, 84649, Note_on_c, 0, 86, 46
2, 84808, Note_on_c, 0, 86, 0
2, 84834, Note_on_c, 0, 74, 0
2, 85140, Note_on_c, 0, 74, 57
2, 85222, Note_on_c, 0, 74, 0
2, 85390, Note_on_c, 0, 77, 94
2, 85892, Note_on_c, 0, 76, 81
2, 85892, Note_on_c, 0, 77, 0
2, 85999, Note_on_c, 0, 76, 0
2, 85999, Note_on_c, 0, 77, 71
2, 86065, Note_on_c, 0, 77, 0
2, 86070, Note_on_c, 0, 76, 97
2, 86796, Note_on_c, 0, 76, 0
2, 87277, Note_on_c, 0, 72, 86
2, 87409, Note_on_c, 0, 72, 0
2, 87461, Note_on_c, 0, 74, 65
2, 87553, Note_on_c, 0, 74, 0
2, 87655, Note_on_c, 0, 62, 78
2, 87895, Note_on_c, 0, 62, 0
2, 87987, Note_on_c, 0, 69, 86
2, 88079, Note_on_c, 0, 81, 46
2, 88146, Note_on_c, 0, 81, 0
2, 88186, Note_on_c, 0, 69, 0
2, 88227, Note_on_c, 0, 62, 71
2, 88227, Note_on_c, 0, 74, 63
2, 88442, Note_on_c, 0, 62, 0
2, 88442, Note_on_c, 0, 62, 83
2, 88442, Note_on_c, 0, 74, 0
2, 88442, Note_on_c, 0, 74, 70
2, 88662, Note_on_c, 0, 62, 0
2, 88667, Note_on_c, 0, 74, 0
2, 88739, Note_on_c, 0, 70, 86
2, 88739, Note_on_c, 0, 82, 45
2, 88856, Note_on_c, 0, 82, 0
2, 88958, Note_on_c, 0, 69, 74
2, 88958, Note_on_c, 0, 70, 0
2, 88963, Note_on_c, 0, 81, 40
2, 89152, Note_on_c, 0, 81, 0
2, 89189, Note_on_c, 0, 69, 0
2, 89373, Note_on_c, 0, 69, 71
2, 89444, Note_on_c, 0, 69, 0
2, 89449, Note_on_c, 0, 69, 63
2, 89659, Note_on_c, 0, 69, 0
2, 89659, Note_on_c, 0, 69, 81
2, 89884, Note_on_c, 0, 69, 0
2, 89955, Note_on_c, 0, 69, 71
2, 89955, Note_on_c, 0, 81, 47
2, 90109, Note_on_c, 0, 81, 0
2, 90134, Note_on_c, 0, 69, 0
2, 90574, Note_on_c, 0, 62, 83
2, 90973, Note_on_c, 0, 62, 0
2, 91044, Note_on_c, 0, 69, 85
2, 91044, Note_on_c, 0, 81, 42
2, 91192, Note_on_c, 0, 81, 0
2, 91249, Note_on_c, 0, 69, 0
2, 91269, Note_on_c, 0, 62, 79
2, 91279, Note_on_c, 0, 74, 55
2, 91427, Note_on_c, 0, 74, 0
2, 91494, Note_on_c, 0, 62, 0
2, 91494, Note_on_c, 0, 62, 88
2, 91499, Note_on_c, 0, 74, 66
2, 91724, Note_on_c, 0, 74, 0
2, 91734, Note_on_c, 0, 62, 0
2, 91796, Note_on_c, 0, 70, 86
2, 91862, Note_on_c, 0, 82, 52
2, 91964, Note_on_c, 0, 70, 0
2, 91975, Note_on_c, 0, 82, 0
2, 92026, Note_on_c, 0, 69, 76
2, 92036, Note_on_c, 0, 81, 47
2, 92184, Note_on_c, 0, 69, 0
2, 92271, Note_on_c, 0, 81, 0
2, 92424, Note_on_c, 0, 69, 69
2, 92701, Note_on_c, 0, 69, 0
2, 92701, Note_on_c, 0, 69, 87
2, 92884, Note_on_c, 0, 69, 0
2, 92884, Note_on_c, 0, 69, 95
2, 92956, Note_on_c, 0, 74, 57
2, 92966, Note_on_c, 0, 69, 0
2, 92966, Note_on_c, 0, 69, 90
2, 93365, Note_on_c, 0, 69, 0
2, 93365, Note_on_c, 0, 69, 74
2, 93416, Note_on_c, 0, 86, 40
2, 93431, Note_on_c, 0, 74, 0
2, 93497, Note_on_c, 0, 86, 0
2, 93570, Note_on_c, 0, 69, 0
2, 93723, Note_on_c, 0, 74, 50
2, 93738, Note_on_c, 0, 69, 51
2, 93881, Note_on_c, 0, 69, 0
2, 93958, Note_on_c, 0, 69, 48
2, 94137, Note_on_c, 0, 69, 0
2, 94193, Note_on_c, 0, 74, 0
2, 94536, Note_on_c, 0, 69, 60
2, 94888, Note_on_c, 0, 69, 0
2, 95031, Note_on_c, 0, 69, 44
2, 95108, Note_on_c, 0, 69, 0
2, 95261, Note_on_c, 0, 69, 80
2, 95261, Note_on_c, 0, 74, 50
2, 95399, Note_on_c, 0, 74, 0
2, 95466, Note_on_c, 0, 69, 0
2, 96325, Note_on_c, 0, 69, 79
2, 96391, Note_on_c, 0, 69, 0
2, 96432, Note_on_c, 0, 72, 65
2, 96498, Note_on_c, 0, 72, 0
2, 96529, Note_on_c, 0, 74, 71
2, 96784, Note_on_c, 0, 74, 0
2, 96881, Note_on_c, 0, 74, 65
2, 96892, Note_on_c, 0, 86, 55
2, 97025, Note_on_c, 0, 86, 0
2, 97153, Note_on_c, 0, 74, 0
2, 98144, Note_on_c, 0, 74, 49
2, 98221, Note_on_c, 0, 74, 0
2, 98222, End_track
0, 0, End_of_file
