0, 0, Header, 1, 2, 220
1, 0, Start_track
1, 0, Tempo, 500000
1, 0, Time_signature, 4, 2, 24, 8
1, 1, End_track
2, 0, Start_track
2, 0, Program_c, 0, 4
2, 2014, Pitch_bend_c, 0, 10923
2, 2014, Note_on_c, 0, 38, 58
2, 2019, Pitch_bend_c, 0, 10923
2, 2025, Pitch_bend_c, 0, 10923
2, 2030, Pitch_bend_c, 0, 10923
2, 2035, Pitch_bend_c, 0, 10923
2, 2041, Pitch_bend_c, 0, 10923
2, 2046, Pitch_bend_c, 0, 9557
2, 2051, Pitch_bend_c, 0, 9557
2, 2057, Pitch_bend_c, 0, 9557
2, 2062, Pitch_bend_c, 0, 9557
2, 2067, Pitch_bend_c, 0, 9557
2, 2073, Pitch_bend_c, 0, 9557
2, 2078, Pitch_bend_c, 0, 9557
2, 2084, Pitch_bend_c, 0, 9557
2, 2089, Pitch_bend_c, 0, 9557
2, 2094, Pitch_bend_c, 0, 10923
2, 2100, Pitch_bend_c, 0, 10923
2, 2105, Pitch_bend_c, 0, 10923
2, 2110, Pitch_bend_c, 0, 10923
2, 2116, Pitch_bend_c, 0, 10923
2, 2121, Pitch_bend_c, 0, 10923
2, 2121, Note_on_c, 0, 38, 0
2, 3450, Note_on_c, 0, 62, 66
2, 3716, Note_on_c, 0, 69, 84
2, 3864, Note_on_c, 0, 62, 0
2, 3885, Note_on_c, 0, 69, 0
2, 3961, Note_on_c, 0, 69, 43
2, 4053, Note_on_c, 0, 62, 75
2, 4125, Note_on_c, 0, 69, 0
2, 4176, Note_on_c, 0, 62, 0
2, 4217, Pitch_bend_c, 0, 10923
2, 4217, Note_on_c, 0, 60, 80
2, 4222, Pitch_bend_c, 0, 10923
2, 4227, Pitch_bend_c, 0, 9557
2, 4232, Pitch_bend_c, 0, 9557
2, 4237, Pitch_bend_c, 0, 9557
2, 4242, Pitch_bend_c, 0, 9557
2, 4247, Pitch_bend_c, 0, 9557
2, 4253, Pitch_bend_c, 0, 9557
2, 4258, Pitch_bend_c, 0, 8192
2, 4263, Pitch_bend_c, 0, 8192
2, 4268, Pitch_bend_c, 0, 8192
2, 4273, Pitch_bend_c, 0, 9557
2, 4278, Pitch_bend_c, 0, 10923
2, 4283, Pitch_bend_c, 0, 10923
2, 4288, Pitch_bend_c, 0, 10923
2, 4294, Pitch_bend_c, 0, 10923
2, 4299, Pitch_bend_c, 0, 10923
2, 4304, Pitch_bend_c, 0, 10923
2, 4309, Pitch_bend_c, 0, 8192
2, 4314, Pitch_bend_c, 0, 6827
2, 4319, Pitch_bend_c, 0, 6827
2, 4324, Pitch_bend_c, 0, 8192
2, 4329, Pitch_bend_c, 0, 10923
2, 4335, Pitch_bend_c, 0, 10923
2, 4340, Pitch_bend_c, 0, 10923
2, 4345, Pitch_bend_c, 0, 10923
2, 4350, Pitch_bend_c, 0, 10923
2, 4355, Pitch_bend_c, 0, 10923
2, 4360, Pitch_bend_c, 0, 10923
2, 4365, Pitch_bend_c, 0, 9557
2, 4370, Pitch_bend_c, 0, 9557
2, 4376, Pitch_bend_c, 0, 9557
2, 4381, Pitch_bend_c, 0, 9557
2, 4386, Pitch_bend_c, 0, 9557
2, 4391, Pitch_bend_c, 0, 9557
2, 4396, Pitch_bend_c, 0, 9557
2, 4401, Pitch_bend_c, 0, 10923
2, 4401, Note_on_c, 0, 60, 0
2, 4462, Pitch_bend_c, 0, 10923
2, 4462, Note_on_c, 0, 60, 47
2, 4468, Pitch_bend_c, 0, 10923
2, 4473, Pitch_bend_c, 0, 10923
2, 4479, Pitch_bend_c, 0, 10923
2, 4484, Pitch_bend_c, 0, 10923
2, 4489, Pitch_bend_c, 0, 10923
2, 4495, Pitch_bend_c, 0, 10923
2, 4500, Pitch_bend_c, 0, 10923
2, 4505, Pitch_bend_c, 0, 10923
2, 4511, Pitch_bend_c, 0, 9557
2, 4516, Pitch_bend_c, 0, 9557
2, 4522, Pitch_bend_c, 0, 9557
2, 4527, Pitch_bend_c, 0, 9557
2, 4532, Pitch_bend_c, 0, 9557
2, 4538, Pitch_bend_c, 0, 10923
2, 4543, Pitch_bend_c, 0, 10923
2, 4548, Pitch_bend_c, 0, 10923
2, 4554, Pitch_bend_c, 0, 10923
2, 4559, Pitch_bend_c, 0, 9557
2, 4565, Pitch_bend_c, 0, 10923
2, 4565, Note_on_c, 0, 60, 0
2, 4590, Pitch_bend_c, 0, 9557
2, 4590, Note_on_c, 0, 62, 93
2, 4595, Pitch_bend_c, 0, 9557
2, 4601, Pitch_bend_c, 0, 9557
2, 4606, Pitch_bend_c, 0, 9557
2, 4611, Pitch_bend_c, 0, 9557
2, 4616, Pitch_bend_c, 0, 9557
2, 4621, Pitch_bend_c, 0, 9557
2, 4626, Pitch_bend_c, 0, 9557
2, 4632, Pitch_bend_c, 0, 9557
2, 4637, Pitch_bend_c, 0, 9557
2, 4642, Pitch_bend_c, 0, 9557
2, 4647, Pitch_bend_c, 0, 9557
2, 4652, Pitch_bend_c, 0, 9557
2, 4658, Pitch_bend_c, 0, 9557
2, 4663, Pitch_bend_c, 0, 9557
2, 4668, Pitch_bend_c, 0, 9557
2, 4673, Pitch_bend_c, 0, 9557
2, 4678, Pitch_bend_c, 0, 9557
2, 4683, Pitch_bend_c, 0, 9557
2, 4689, Pitch_bend_c, 0, 9557
2, 4694, Pitch_bend_c, 0, 9557
2, 4699, Pitch_bend_c, 0, 9557
2, 4704, Pitch_bend_c, 0, 9557
2, 4709, Pitch_bend_c, 0, 9557
2, 4715, Pitch_bend_c, 0, 9557
2, 4720, Pitch_bend_c, 0, 9557
2, 4725, Pitch_bend_c, 0, 9557
2, 4730, Pitch_bend_c, 0, 9557
2, 4735, Pitch_bend_c, 0, 9557
2, 4740, Pitch_bend_c, 0, 9557
2, 4746, Pitch_bend_c, 0, 9557
2, 4751, Pitch_bend_c, 0, 9557
2, 4756, Pitch_bend_c, 0, 9557
2, 4761, Pitch_bend_c, 0, 9557
2, 4766, Pitch_bend_c, 0, 9557
2, 4772, Pitch_bend_c, 0, 9557
2, 4777, Pitch_bend_c, 0, 9557
2, 4782, Pitch_bend_c, 0, 9557
2, 4787, Pitch_bend_c, 0, 8192
2, 4792, Pitch_bend_c, 0, 8192
2, 4797, Pitch_bend_c, 0, 8192
2, 4803, Pitch_bend_c, 0, 9557
2, 4808, Pitch_bend_c, 0, 9557
2, 4813, Pitch_bend_c, 0, 9557
2, 4818, Pitch_bend_c, 0, 9557
2, 4823, Pitch_bend_c, 0, 12288
2, 4829, Pitch_bend_c, 0, 12288
2, 4834, Pitch_bend_c, 0, 12288
2, 4839, Pitch_bend_c, 0, 12288
2, 4844, Pitch_bend_c, 0, 8192
2, 4849, Pitch_bend_c, 0, 8192
2, 4854, Pitch_bend_c, 0, 8192
2, 4860, Pitch_bend_c, 0, 8192
2, 4865, Pitch_bend_c, 0, 8192
2, 4870, Pitch_bend_c, 0, 9557
2, 4875, Pitch_bend_c, 0, 9557
2, 4880, Pitch_bend_c, 0, 9557
2, 4885, Pitch_bend_c, 0, 9557
2, 4891, Pitch_bend_c, 0, 9557
2, 4896, Pitch_bend_c, 0, 9557
2, 4901, Pitch_bend_c, 0, 9557
2, 4906, Pitch_bend_c, 0, 9557
2, 4911, Pitch_bend_c, 0, 9557
2, 4917, Pitch_bend_c, 0, 9557
2, 4922, Pitch_bend_c, 0, 9557
2, 4927, Pitch_bend_c, 0, 9557
2, 4932, Pitch_bend_c, 0, 9557
2, 4937, Pitch_bend_c, 0, 9557
2, 4942, Pitch_bend_c, 0, 9557
2, 4948, Pitch_bend_c, 0, 9557
2, 4953, Pitch_bend_c, 0, 9557
2, 4953, Note_on_c, 0, 62, 0
2, 5019, Pitch_bend_c, 0, 9557
2, 5019, Note_on_c, 0, 62, 69
2, 5024, Pitch_bend_c, 0, 9557
2, 5030, Pitch_bend_c, 0, 9557
2, 5035, Pitch_bend_c, 0, 9557
2, 5040, Pitch_bend_c, 0, 9557
2, 5045, Pitch_bend_c, 0, 9557
2, 5051, Pitch_bend_c, 0, 9557
2, 5056, Pitch_bend_c, 0, 9557
2, 5061, Pitch_bend_c, 0, 9557
2, 5066, Pitch_bend_c, 0, 9557
2, 5072, Pitch_bend_c, 0, 9557
2, 5077, Pitch_bend_c, 0, 9557
2, 5082, Pitch_bend_c, 0, 9557
2, 5087, Pitch_bend_c, 0, 9557
2, 5092, Pitch_bend_c, 0, 9557
2, 5098, Pitch_bend_c, 0, 9557
2, 5103, Pitch_bend_c, 0, 9557
2, 5108, Pitch_bend_c, 0, 9557
2, 5113, Pitch_bend_c, 0, 9557
2, 5119, Pitch_bend_c, 0, 9557
2, 5124, Pitch_bend_c, 0, 9557
2, 5129, Pitch_bend_c, 0, 9557
2, 5134, Pitch_bend_c, 0, 9557
2, 5139, Pitch_bend_c, 0, 9557
2, 5145, Pitch_bend_c, 0, 9557
2, 5150, Pitch_bend_c, 0, 9557
2, 5155, Pitch_bend_c, 0, 9557
2, 5160, Pitch_bend_c, 0, 9557
2, 5166, Pitch_bend_c, 0, 9557
2, 5171, Pitch_bend_c, 0, 9557
2, 5176, Pitch_bend_c, 0, 9557
2, 5181, Pitch_bend_c, 0, 9557
2, 5187, Pitch_bend_c, 0, 9557
2, 5192, Pitch_bend_c, 0, 9557
2, 5197, Pitch_bend_c, 0, 9557
2, 5202, Pitch_bend_c, 0, 9557
2, 5207, Pitch_bend_c, 0, 9557
2, 5213, Pitch_bend_c, 0, 9557
2, 5218, Pitch_bend_c, 0, 9557
2, 5223, Pitch_bend_c, 0, 9557
2, 5228, Pitch_bend_c, 0, 8192
2, 5234, Pitch_bend_c, 0, 8192
2, 5239, Pitch_bend_c, 0, 8192
2, 5244, Pitch_bend_c, 0, 8192
2, 5244, Note_on_c, 0, 62, 0
2, 5331, Pitch_bend_c, 0, 10923
2, 5331, Note_on_c, 0, 62, 62
2, 5337, Pitch_bend_c, 0, 10923
2, 5342, Pitch_bend_c, 0, 10923
2, 5347, Pitch_bend_c, 0, 10923
2, 5352, Pitch_bend_c, 0, 10923
2, 5357, Pitch_bend_c, 0, 10923
2, 5362, Pitch_bend_c, 0, 10923
2, 5367, Pitch_bend_c, 0, 9557
2, 5373, Pitch_bend_c, 0, 9557
2, 5378, Pitch_bend_c, 0, 9557
2, 5383, Pitch_bend_c, 0, 9557
2, 5388, Pitch_bend_c, 0, 9557
2, 5393, Pitch_bend_c, 0, 9557
2, 5398, Pitch_bend_c, 0, 9557
2, 5403, Pitch_bend_c, 0, 9557
2, 5409, Pitch_bend_c, 0, 9557
2, 5414, Pitch_bend_c, 0, 9557
2, 5419, Pitch_bend_c, 0, 9557
2, 5424, Pitch_bend_c, 0, 9557
2, 5429, Pitch_bend_c, 0, 9557
2, 5434, Pitch_bend_c, 0, 9557
2, 5439, Pitch_bend_c, 0, 9557
2, 5445, Pitch_bend_c, 0, 9557
2, 5450, Pitch_bend_c, 0, 9557
2, 5455, Pitch_bend_c, 0, 9557
2, 5460, Pitch_bend_c, 0, 9557
2, 5465, Pitch_bend_c, 0, 9557
2, 5470, Pitch_bend_c, 0, 9557
2, 5475, Pitch_bend_c, 0, 9557
2, 5481, Pitch_bend_c, 0, 9557
2, 5486, Pitch_bend_c, 0, 9557
2, 5491, Pitch_bend_c, 0, 9557
2, 5496, Pitch_bend_c, 0, 9557
2, 5501, Pitch_bend_c, 0, 9557
2, 5506, Pitch_bend_c, 0, 9557
2, 5511, Pitch_bend_c, 0, 9557
2, 5517, Pitch_bend_c, 0, 9557
2, 5522, Pitch_bend_c, 0, 9557
2, 5527, Pitch_bend_c, 0, 9557
2, 5532, Pitch_bend_c, 0, 9557
2, 5537, Pitch_bend_c, 0, 9557
2, 5542, Pitch_bend_c, 0, 9557
2, 5547, Pitch_bend_c, 0, 9557
2, 5553, Pitch_bend_c, 0, 9557
2, 5558, Pitch_bend_c, 0, 9557
2, 5563, Pitch_bend_c, 0, 9557
2, 5568, Pitch_bend_c, 0, 9557
2, 5573, Pitch_bend_c, 0, 9557
2, 5578, Pitch_bend_c, 0, 9557
2, 5583, Pitch_bend_c, 0, 9557
2, 5589, Pitch_bend_c, 0, 10923
2, 5594, Pitch_bend_c, 0, 10923
2, 5599, Pitch_bend_c, 0, 12288
2, 5604, Pitch_bend_c, 0, 12288
2, 5609, Pitch_bend_c, 0, 10923
2, 5614, Pitch_bend_c, 0, 10923
2, 5619, Pitch_bend_c, 0, 10923
2, 5625, Pitch_bend_c, 0, 8192
2, 5630, Pitch_bend_c, 0, 8192
2, 5635, Pitch_bend_c, 0, 8192
2, 5640, Pitch_bend_c, 0, 9557
2, 5645, Pitch_bend_c, 0, 9557
2, 5650, Pitch_bend_c, 0, 9557
2, 5655, Pitch_bend_c, 0, 9557
2, 5661, Pitch_bend_c, 0, 9557
2, 5666, Pitch_bend_c, 0, 9557
2, 5671, Pitch_bend_c, 0, 9557
2, 5676, Pitch_bend_c, 0, 9557
2, 5681, Pitch_bend_c, 0, 9557
2, 5686, Pitch_bend_c, 0, 9557
2, 5691, Pitch_bend_c, 0, 9557
2, 5697, Pitch_bend_c, 0, 9557
2, 5702, Pitch_bend_c, 0, 9557
2, 5707, Pitch_bend_c, 0, 9557
2, 5712, Pitch_bend_c, 0, 8192
2, 5717, Pitch_bend_c, 0, 8192
2, 5722, Pitch_bend_c, 0, 8192
2, 5727, Pitch_bend_c, 0, 9557
2, 5733, Pitch_bend_c, 0, 9557
2, 5738, Pitch_bend_c, 0, 9557
2, 5743, Pitch_bend_c, 0, 9557
2, 5748, Pitch_bend_c, 0, 9557
2, 5753, Pitch_bend_c, 0, 9557
2, 5758, Pitch_bend_c, 0, 9557
2, 5763, Pitch_bend_c, 0, 9557
2, 5769, Pitch_bend_c, 0, 9557
2, 5774, Pitch_bend_c, 0, 9557
2, 5779, Pitch_bend_c, 0, 9557
2, 5784, Pitch_bend_c, 0, 9557
2, 5789, Pitch_bend_c, 0, 9557
2, 5794, Pitch_bend_c, 0, 9557
2, 5799, Pitch_bend_c, 0, 9557
2, 5805, Pitch_bend_c, 0, 9557
2, 5810, Pitch_bend_c, 0, 9557
2, 5815, Pitch_bend_c, 0, 9557
2, 5820, Pitch_bend_c, 0, 9557
2, 5825, Pitch_bend_c, 0, 9557
2, 5830, Pitch_bend_c, 0, 9557
2, 5835, Pitch_bend_c, 0, 9557
2, 5841, Pitch_bend_c, 0, 9557
2, 5846, Pitch_bend_c, 0, 9557
2, 5851, Pitch_bend_c, 0, 9557
2, 5856, Pitch_bend_c, 0, 9557
2, 5861, Pitch_bend_c, 0, 9557
2, 5866, Pitch_bend_c, 0, 9557
2, 5871, Pitch_bend_c, 0, 9557
2, 5877, Pitch_bend_c, 0, 9557
2, 5882, Pitch_bend_c, 0, 9557
2, 5887, Pitch_bend_c, 0, 9557
2, 5892, Pitch_bend_c, 0, 9557
2, 5897, Pitch_bend_c, 0, 9557
2, 5902, Pitch_bend_c, 0, 9557
2, 5907, Pitch_bend_c, 0, 9557
2, 5913, Pitch_bend_c, 0, 9557
2, 5918, Pitch_bend_c, 0, 9557
2, 5923, Pitch_bend_c, 0, 9557
2, 5928, Pitch_bend_c, 0, 9557
2, 5933, Pitch_bend_c, 0, 9557
2, 5938, Pitch_bend_c, 0, 9557
2, 5944, Pitch_bend_c, 0, 9557
2, 5949, Pitch_bend_c, 0, 9557
2, 5954, Pitch_bend_c, 0, 10923
2, 5959, Pitch_bend_c, 0, 10923
2, 5964, Pitch_bend_c, 0, 10923
2, 5969, Pitch_bend_c, 0, 9557
2, 5974, Pitch_bend_c, 0, 9557
2, 5980, Pitch_bend_c, 0, 9557
2, 5985, Pitch_bend_c, 0, 9557
2, 5990, Pitch_bend_c, 0, 9557
2, 5995, Pitch_bend_c, 0, 9557
2, 6000, Pitch_bend_c, 0, 9557
2, 6005, Pitch_bend_c, 0, 9557
2, 6010, Pitch_bend_c, 0, 9557
2, 6016, Pitch_bend_c, 0, 10923
2, 6021, Pitch_bend_c, 0, 10923
2, 6026, Pitch_bend_c, 0, 10923
2, 6031, Pitch_bend_c, 0, 10923
2, 6036, Pitch_bend_c, 0, 10923
2, 6041, Pitch_bend_c, 0, 10923
2, 6046, Pitch_bend_c, 0, 10923
2, 6052, Pitch_bend_c, 0, 9557
2, 6057, Pitch_bend_c, 0, 9557
2, 6062, Pitch_bend_c, 0, 9557
2, 6067, Pitch_bend_c, 0, 9557
2, 6072, Pitch_bend_c, 0, 9557
2, 6077, Pitch_bend_c, 0, 9557
2, 6082, Pitch_bend_c, 0, 9557
2, 6082, Note_on_c, 0, 62, 0
2, 6548, Note_on_c, 0, 62, 76
2, 6752, Note_on_c, 0, 69, 66
2, 6788, Note_on_c, 0, 62, 0
2, 6849, Pitch_bend_c, 0, 9557
2, 6849, Note_on_c, 0, 69, 0
2, 6849, Note_on_c, 0, 69, 86
2, 6855, Pitch_bend_c, 0, 9557
2, 6860, Pitch_bend_c, 0, 9557
2, 6865, Pitch_bend_c, 0, 9557
2, 6871, Pitch_bend_c, 0, 9557
2, 6876, Pitch_bend_c, 0, 9557
2, 6881, Pitch_bend_c, 0, 9557
2, 6887, Pitch_bend_c, 0, 9557
2, 6892, Pitch_bend_c, 0, 9557
2, 6897, Pitch_bend_c, 0, 9557
2, 6903, Pitch_bend_c, 0, 9557
2, 6908, Pitch_bend_c, 0, 9557
2, 6913, Pitch_bend_c, 0, 9557
2, 6919, Pitch_bend_c, 0, 9557
2, 6924, Pitch_bend_c, 0, 9557
2, 6929, Pitch_bend_c, 0, 9557
2, 6935, Pitch_bend_c, 0, 9557
2, 6940, Pitch_bend_c, 0, 9557
2, 6945, Pitch_bend_c, 0, 9557
2, 6951, Pitch_bend_c, 0, 8192
2, 6956, Pitch_bend_c, 0, 8192
2, 6961, Pitch_bend_c, 0, 8192
2, 6967, Pitch_bend_c, 0, 6827
2, 6967, Note_on_c, 0, 69, 0
2, 7110, Note_on_c, 0, 62, 78
2, 7121, Note_on_c, 0, 69, 52
2, 7177, Note_on_c, 0, 60, 79
2, 7182, Note_on_c, 0, 62, 0
2, 7182, Note_on_c, 0, 69, 0
2, 7442, Note_on_c, 0, 60, 0
2, 7652, Pitch_bend_c, 0, 9557
2, 7652, Note_on_c, 0, 62, 101
2, 7657, Pitch_bend_c, 0, 9557
2, 7662, Pitch_bend_c, 0, 9557
2, 7667, Pitch_bend_c, 0, 9557
2, 7672, Pitch_bend_c, 0, 9557
2, 7677, Pitch_bend_c, 0, 9557
2, 7683, Pitch_bend_c, 0, 9557
2, 7688, Pitch_bend_c, 0, 9557
2, 7693, Pitch_bend_c, 0, 9557
2, 7698, Pitch_bend_c, 0, 9557
2, 7703, Pitch_bend_c, 0, 9557
2, 7708, Pitch_bend_c, 0, 9557
2, 7713, Pitch_bend_c, 0, 9557
2, 7718, Pitch_bend_c, 0, 9557
2, 7723, Pitch_bend_c, 0, 9557
2, 7729, Pitch_bend_c, 0, 9557
2, 7734, Pitch_bend_c, 0, 9557
2, 7739, Pitch_bend_c, 0, 9557
2, 7744, Pitch_bend_c, 0, 9557
2, 7749, Pitch_bend_c, 0, 9557
2, 7754, Pitch_bend_c, 0, 9557
2, 7759, Pitch_bend_c, 0, 9557
2, 7764, Pitch_bend_c, 0, 9557
2, 7770, Pitch_bend_c, 0, 9557
2, 7775, Pitch_bend_c, 0, 9557
2, 7780, Pitch_bend_c, 0, 9557
2, 7785, Pitch_bend_c, 0, 9557
2, 7790, Pitch_bend_c, 0, 9557
2, 7795, Pitch_bend_c, 0, 9557
2, 7800, Pitch_bend_c, 0, 9557
2, 7805, Pitch_bend_c, 0, 9557
2, 7811, Pitch_bend_c, 0, 9557
2, 7816, Pitch_bend_c, 0, 9557
2, 7821, Pitch_bend_c, 0, 9557
2, 7826, Pitch_bend_c, 0, 8192
2, 7831, Pitch_bend_c, 0, 8192
2, 7836, Pitch_bend_c, 0, 8192
2, 7841, Pitch_bend_c, 0, 9557
2, 7846, Pitch_bend_c, 0, 9557
2, 7852, Pitch_bend_c, 0, 9557
2, 7857, Pitch_bend_c, 0, 9557
2, 7862, Pitch_bend_c, 0, 10923
2, 7867, Pitch_bend_c, 0, 10923
2, 7872, Pitch_bend_c, 0, 12288
2, 7872, Pitch_bend_c, 0, 12288
2, 7872, Note_on_c, 0, 62, 0
2, 7872, Note_on_c, 0, 62, 83
2, 7877, Pitch_bend_c, 0, 10923
2, 7882, Pitch_bend_c, 0, 9557
2, 7887, Pitch_bend_c, 0, 8192
2, 7892, Pitch_bend_c, 0, 8192
2, 7898, Pitch_bend_c, 0, 8192
2, 7903, Pitch_bend_c, 0, 9557
2, 7908, Pitch_bend_c, 0, 9557
2, 7913, Pitch_bend_c, 0, 9557
2, 7918, Pitch_bend_c, 0, 10923
2, 7923, Pitch_bend_c, 0, 10923
2, 7928, Pitch_bend_c, 0, 10923
2, 7933, Pitch_bend_c, 0, 10923
2, 7938, Pitch_bend_c, 0, 10923
2, 7944, Pitch_bend_c, 0, 10923
2, 7949, Pitch_bend_c, 0, 8192
2, 7954, Pitch_bend_c, 0, 8192
2, 7959, Pitch_bend_c, 0, 8192
2, 7964, Pitch_bend_c, 0, 8192
2, 7969, Pitch_bend_c, 0, 8192
2, 7974, Pitch_bend_c, 0, 9557
2, 7979, Pitch_bend_c, 0, 9557
2, 7984, Pitch_bend_c, 0, 10923
2, 7990, Pitch_bend_c, 0, 10923
2, 7995, Pitch_bend_c, 0, 9557
2, 8000, Pitch_bend_c, 0, 9557
2, 8005, Pitch_bend_c, 0, 9557
2, 8010, Pitch_bend_c, 0, 9557
2, 8015, Pitch_bend_c, 0, 9557
2, 8020, Pitch_bend_c, 0, 9557
2, 8025, Pitch_bend_c, 0, 9557
2, 8030, Pitch_bend_c, 0, 9557
2, 8036, Pitch_bend_c, 0, 9557
2, 8041, Pitch_bend_c, 0, 9557
2, 8046, Pitch_bend_c, 0, 9557
2, 8051, Pitch_bend_c, 0, 9557
2, 8056, Pitch_bend_c, 0, 9557
2, 8061, Pitch_bend_c, 0, 9557
2, 8066, Pitch_bend_c, 0, 9557
2, 8071, Pitch_bend_c, 0, 9557
2, 8076, Pitch_bend_c, 0, 10923
2, 8082, Pitch_bend_c, 0, 10923
2, 8087, Pitch_bend_c, 0, 10923
2, 8092, Pitch_bend_c, 0, 10923
2, 8097, Pitch_bend_c, 0, 10923
2, 8102, Pitch_bend_c, 0, 9557
2, 8107, Pitch_bend_c, 0, 9557
2, 8112, Pitch_bend_c, 0, 9557
2, 8117, Pitch_bend_c, 0, 8192
2, 8122, Pitch_bend_c, 0, 8192
2, 8128, Pitch_bend_c, 0, 8192
2, 8133, Pitch_bend_c, 0, 8192
2, 8138, Pitch_bend_c, 0, 8192
2, 8143, Pitch_bend_c, 0, 9557
2, 8148, Pitch_bend_c, 0, 9557
2, 8153, Pitch_bend_c, 0, 9557
2, 8158, Pitch_bend_c, 0, 9557
2, 8163, Pitch_bend_c, 0, 9557
2, 8168, Pitch_bend_c, 0, 9557
2, 8174, Pitch_bend_c, 0, 8192
2, 8179, Pitch_bend_c, 0, 8192
2, 8184, Pitch_bend_c, 0, 8192
2, 8189, Pitch_bend_c, 0, 8192
2, 8194, Pitch_bend_c, 0, 9557
2, 8199, Pitch_bend_c, 0, 9557
2, 8204, Pitch_bend_c, 0, 9557
2, 8209, Pitch_bend_c, 0, 9557
2, 8214, Pitch_bend_c, 0, 9557
2, 8220, Pitch_bend_c, 0, 9557
2, 8225, Pitch_bend_c, 0, 9557
2, 8230, Pitch_bend_c, 0, 9557
2, 8235, Pitch_bend_c, 0, 9557
2, 8240, Pitch_bend_c, 0, 9557
2, 8245, Pitch_bend_c, 0, 9557
2, 8250, Pitch_bend_c, 0, 9557
2, 8255, Pitch_bend_c, 0, 9557
2, 8260, Pitch_bend_c, 0, 9557
2, 8266, Pitch_bend_c, 0, 9557
2, 8271, Pitch_bend_c, 0, 9557
2, 8276, Pitch_bend_c, 0, 9557
2, 8281, Pitch_bend_c, 0, 9557
2, 8286, Pitch_bend_c, 0, 9557
2, 8291, Pitch_bend_c, 0, 9557
2, 8296, Pitch_bend_c, 0, 9557
2, 8301, Pitch_bend_c, 0, 9557
2, 8306, Pitch_bend_c, 0, 9557
2, 8312, Pitch_bend_c, 0, 9557
2, 8317, Pitch_bend_c, 0, 9557
2, 8322, Pitch_bend_c, 0, 9557
2, 8327, Pitch_bend_c, 0, 9557
2, 8332, Pitch_bend_c, 0, 9557
2, 8337, Pitch_bend_c, 0, 9557
2, 8342, Pitch_bend_c, 0, 9557
2, 8347, Pitch_bend_c, 0, 8192
2, 8352, Pitch_bend_c, 0, 8192
2, 8358, Pitch_bend_c, 0, 8192
2, 8363, Pitch_bend_c, 0, 9557
2, 8368, Pitch_bend_c, 0, 9557
2, 8373, Pitch_bend_c, 0, 9557
2, 8378, Pitch_bend_c, 0, 9557
2, 8383, Pitch_bend_c, 0, 9557
2, 8388, Pitch_bend_c, 0, 9557
2, 8393, Pitch_bend_c, 0, 9557
2, 8398, Pitch_bend_c, 0, 9557
2, 8404, Pitch_bend_c, 0, 9557
2, 8409, Pitch_bend_c, 0, 9557
2, 8414, Pitch_bend_c, 0, 9557
2, 8419, Pitch_bend_c, 0, 9557
2, 8424, Pitch_bend_c, 0, 9557
2, 8429, Pitch_bend_c, 0, 9557
2, 8434, Pitch_bend_c, 0, 9557
2, 8439, Pitch_bend_c, 0, 9557
2, 8444, Pitch_bend_c, 0, 9557
2, 8450, Pitch_bend_c, 0, 9557
2, 8455, Pitch_bend_c, 0, 9557
2, 8460, Pitch_bend_c, 0, 9557
2, 8465, Pitch_bend_c, 0, 9557
2, 8470, Pitch_bend_c, 0, 9557
2, 8475, Pitch_bend_c, 0, 9557
2, 8480, Pitch_bend_c, 0, 9557
2, 8485, Pitch_bend_c, 0, 9557
2, 8490, Pitch_bend_c, 0, 9557
2, 8496, Pitch_bend_c, 0, 9557
2, 8501, Pitch_bend_c, 0, 9557
2, 8506, Pitch_bend_c, 0, 9557
2, 8511, Pitch_bend_c, 0, 9557
2, 8516, Pitch_bend_c, 0, 9557
2, 8521, Pitch_bend_c, 0, 9557
2, 8526, Pitch_bend_c, 0, 9557
2, 8531, Pitch_bend_c, 0, 9557
2, 8536, Pitch_bend_c, 0, 9557
2, 8542, Pitch_bend_c, 0, 9557
2, 8547, Pitch_bend_c, 0, 9557
2, 8552, Pitch_bend_c, 0, 9557
2, 8557, Pitch_bend_c, 0, 9557
2, 8562, Pitch_bend_c, 0, 9557
2, 8567, Pitch_bend_c, 0, 9557
2, 8572, Pitch_bend_c, 0, 9557
2, 8577, Pitch_bend_c, 0, 9557
2, 8582, Pitch_bend_c, 0, 9557
2, 8588, Pitch_bend_c, 0, 9557
2, 8593, Pitch_bend_c, 0, 9557
2, 8598, Pitch_bend_c, 0, 9557
2, 8603, Pitch_bend_c, 0, 9557
2, 8608, Pitch_bend_c, 0, 9557
2, 8613, Pitch_bend_c, 0, 9557
2, 8618, Pitch_bend_c, 0, 9557
2, 8623, Pitch_bend_c, 0, 9557
2, 8628, Pitch_bend_c, 0, 9557
2, 8634, Pitch_bend_c, 0, 9557
2, 8639, Pitch_bend_c, 0, 9557
2, 8644, Pitch_bend_c, 0, 9557
2, 8649, Pitch_bend_c, 0, 9557
2, 8654, Pitch_bend_c, 0, 9557
2, 8659, Pitch_bend_c, 0, 9557
2, 8664, Pitch_bend_c, 0, 9557
2, 8669, Pitch_bend_c, 0, 9557
2, 8674, Pitch_bend_c, 0, 9557
2, 8680, Pitch_bend_c, 0, 9557
2, 8685, Pitch_bend_c, 0, 9557
2, 8690, Pitch_bend_c, 0, 9557
2, 8695, Pitch_bend_c, 0, 9557
2, 8700, Pitch_bend_c, 0, 9557
2, 8705, Pitch_bend_c, 0, 9557
2, 8710, Pitch_bend_c, 0, 9557
2, 8715, Pitch_bend_c, 0, 9557
2, 8720, Pitch_bend_c, 0, 9557
2, 8726, Pitch_bend_c, 0, 9557
2, 8731, Pitch_bend_c, 0, 9557
2, 8736, Pitch_bend_c, 0, 9557
2, 8741, Pitch_bend_c, 0, 8192
2, 8746, Pitch_bend_c, 0, 8192
2, 8751, Pitch_bend_c, 0, 8192
2, 8756, Pitch_bend_c, 0, 9557
2, 8761, Pitch_bend_c, 0, 9557
2, 8766, Pitch_bend_c, 0, 9557
2, 8772, Pitch_bend_c, 0, 9557
2, 8777, Pitch_bend_c, 0, 9557
2, 8782, Pitch_bend_c, 0, 9557
2, 8787, Pitch_bend_c, 0, 9557
2, 8792, Pitch_bend_c, 0, 9557
2, 8797, Pitch_bend_c, 0, 9557
2, 8802, Pitch_bend_c, 0, 9557
2, 8807, Pitch_bend_c, 0, 9557
2, 8812, Pitch_bend_c, 0, 9557
2, 8818, Pitch_bend_c, 0, 9557
2, 8823, Pitch_bend_c, 0, 9557
2, 8828, Pitch_bend_c, 0, 9557
2, 8833, Pitch_bend_c, 0, 9557
2, 8838, Pitch_bend_c, 0, 9557
2, 8843, Pitch_bend_c, 0, 9557
2, 8848, Pitch_bend_c, 0, 9557
2, 8853, Pitch_bend_c, 0, 9557
2, 8858, Pitch_bend_c, 0, 9557
2, 8864, Pitch_bend_c, 0, 9557
2, 8869, Pitch_bend_c, 0, 9557
2, 8874, Pitch_bend_c, 0, 9557
2, 8879, Pitch_bend_c, 0, 9557
2, 8884, Pitch_bend_c, 0, 9557
2, 8889, Pitch_bend_c, 0, 9557
2, 8894, Pitch_bend_c, 0, 9557
2, 8899, Pitch_bend_c, 0, 9557
2, 8904, Pitch_bend_c, 0, 9557
2, 8910, Pitch_bend_c, 0, 9557
2, 8915, Pitch_bend_c, 0, 9557
2, 8920, Pitch_bend_c, 0, 9557
2, 8925, Pitch_bend_c, 0, 9557
2, 8930, Pitch_bend_c, 0, 9557
2, 8935, Pitch_bend_c, 0, 9557
2, 8940, Pitch_bend_c, 0, 9557
2, 8945, Pitch_bend_c, 0, 9557
2, 8950, Pitch_bend_c, 0, 9557
2, 8956, Pitch_bend_c, 0, 9557
2, 8961, Pitch_bend_c, 0, 9557
2, 8966, Pitch_bend_c, 0, 9557
2, 8971, Pitch_bend_c, 0, 9557
2, 8976, Pitch_bend_c, 0, 9557
2, 8981, Pitch_bend_c, 0, 9557
2, 8986, Pitch_bend_c, 0, 9557
2, 8991, Pitch_bend_c, 0, 9557
2, 8996, Pitch_bend_c, 0, 10923
2, 9002, Pitch_bend_c, 0, 10923
2, 9007, Pitch_bend_c, 0, 10923
2, 9012, Pitch_bend_c, 0, 9557
2, 9017, Pitch_bend_c, 0, 9557
2, 9022, Pitch_bend_c, 0, 9557
2, 9027, Pitch_bend_c, 0, 9557
2, 9032, Pitch_bend_c, 0, 9557
2, 9037, Pitch_bend_c, 0, 9557
2, 9037, Note_on_c, 0, 62, 0
2, 9277, Note_on_c, 0, 45, 50
2, 9298, Note_on_c, 0, 60, 74
2, 9349, Note_on_c, 0, 45, 0
2, 9369, Note_on_c, 0, 62, 102
2, 9374, Note_on_c, 0, 60, 0
2, 9436, Note_on_c, 0, 62, 0
2, 9436, Note_on_c, 0, 62, 70
2, 9794, Note_on_c, 0, 69, 76
2, 9881, Note_on_c, 0, 69, 0
2, 9957, Note_on_c, 0, 69, 53
2, 10014, Note_on_c, 0, 62, 0
2, 10146, Note_on_c, 0, 62, 60
2, 10284, Note_on_c, 0, 69, 0
2, 10320, Note_on_c, 0, 62, 0
2, 10335, Pitch_bend_c, 0, 9557
2, 10335, Note_on_c, 0, 60, 82
2, 10341, Pitch_bend_c, 0, 9557
2, 10346, Pitch_bend_c, 0, 9557
2, 10352, Pitch_bend_c, 0, 9557
2, 10357, Pitch_bend_c, 0, 9557
2, 10363, Pitch_bend_c, 0, 8192
2, 10368, Pitch_bend_c, 0, 8192
2, 10374, Pitch_bend_c, 0, 8192
2, 10379, Pitch_bend_c, 0, 8192
2, 10385, Pitch_bend_c, 0, 9557
2, 10390, Pitch_bend_c, 0, 10923
2, 10396, Pitch_bend_c, 0, 10923
2, 10401, Pitch_bend_c, 0, 10923
2, 10407, Pitch_bend_c, 0, 10923
2, 10407, Pitch_bend_c, 0, 10923
2, 10407, Note_on_c, 0, 60, 0
2, 10407, Note_on_c, 0, 60, 101
2, 10412, Pitch_bend_c, 0, 10923
2, 10417, Pitch_bend_c, 0, 8192
2, 10422, Pitch_bend_c, 0, 9557
2, 10427, Pitch_bend_c, 0, 9557
2, 10433, Pitch_bend_c, 0, 9557
2, 10438, Pitch_bend_c, 0, 10923
2, 10443, Pitch_bend_c, 0, 10923
2, 10448, Pitch_bend_c, 0, 10923
2, 10453, Pitch_bend_c, 0, 10923
2, 10458, Pitch_bend_c, 0, 10923
2, 10463, Pitch_bend_c, 0, 9557
2, 10468, Pitch_bend_c, 0, 9557
2, 10474, Pitch_bend_c, 0, 9557
2, 10479, Pitch_bend_c, 0, 9557
2, 10484, Pitch_bend_c, 0, 9557
2, 10489, Pitch_bend_c, 0, 9557
2, 10494, Pitch_bend_c, 0, 9557
2, 10499, Pitch_bend_c, 0, 9557
2, 10504, Pitch_bend_c, 0, 9557
2, 10510, Pitch_bend_c, 0, 9557
2, 10515, Pitch_bend_c, 0, 9557
2, 10520, Pitch_bend_c, 0, 9557
2, 10525, Pitch_bend_c, 0, 9557
2, 10530, Pitch_bend_c, 0, 8192
2, 10535, Pitch_bend_c, 0, 8192
2, 10535, Note_on_c, 0, 60, 0
2, 10535, Note_on_c, 0, 60, 60
2, 10602, Note_on_c, 0, 62, 83
2, 10714, Note_on_c, 0, 60, 0
2, 11031, Note_on_c, 0, 69, 47
2, 11102, Note_on_c, 0, 62, 0
2, 11312, Note_on_c, 0, 69, 0
2, 11537, Note_on_c, 0, 69, 64
2, 11695, Note_on_c, 0, 62, 39
2, 11803, Note_on_c, 0, 62, 0
2, 12253, Note_on_c, 0, 69, 0
2, 12661, Note_on_c, 0, 86, 51
2, 12666, Note_on_c, 0, 62, 92
2, 12743, Note_on_c, 0, 86, 0
2, 12815, Note_on_c, 0, 67, 79
2, 12820, Note_on_c, 0, 62, 0
2, 12876, Note_on_c, 0, 67, 0
2, 12881, Pitch_bend_c, 0, 9557
2, 12881, Note_on_c, 0, 69, 59
2, 12886, Pitch_bend_c, 0, 9557
2, 12892, Pitch_bend_c, 0, 9557
2, 12897, Pitch_bend_c, 0, 9557
2, 12902, Pitch_bend_c, 0, 9557
2, 12908, Pitch_bend_c, 0, 9557
2, 12913, Pitch_bend_c, 0, 9557
2, 12918, Pitch_bend_c, 0, 9557
2, 12923, Pitch_bend_c, 0, 9557
2, 12929, Pitch_bend_c, 0, 9557
2, 12934, Pitch_bend_c, 0, 9557
2, 12939, Pitch_bend_c, 0, 9557
2, 12945, Pitch_bend_c, 0, 9557
2, 12950, Pitch_bend_c, 0, 9557
2, 12955, Pitch_bend_c, 0, 9557
2, 12961, Pitch_bend_c, 0, 9557
2, 12966, Pitch_bend_c, 0, 1365
2, 12971, Pitch_bend_c, 0, 1365
2, 12977, Pitch_bend_c, 0, 1365
2, 12982, Pitch_bend_c, 0, 1365
2, 12987, Pitch_bend_c, 0, 1365
2, 12992, Pitch_bend_c, 0, 1365
2, 12998, Pitch_bend_c, 0, 9557
2, 13003, Pitch_bend_c, 0, 9557
2, 13008, Pitch_bend_c, 0, 8192
2, 13014, Pitch_bend_c, 0, 8192
2, 13019, Pitch_bend_c, 0, 8192
2, 13019, Note_on_c, 0, 69, 0
2, 13019, Note_on_c, 0, 69, 62
2, 13229, Note_on_c, 0, 62, 72
2, 13290, Note_on_c, 0, 69, 0
2, 13295, Note_on_c, 0, 60, 67
2, 13301, Note_on_c, 0, 62, 0
2, 13418, Pitch_bend_c, 0, 10923
2, 13418, Note_on_c, 0, 60, 0
2, 13418, Note_on_c, 0, 60, 90
2, 13423, Pitch_bend_c, 0, 10923
2, 13428, Pitch_bend_c, 0, 10923
2, 13434, Pitch_bend_c, 0, 10923
2, 13439, Pitch_bend_c, 0, 10923
2, 13444, Pitch_bend_c, 0, 8192
2, 13449, Pitch_bend_c, 0, 8192
2, 13455, Pitch_bend_c, 0, 8192
2, 13460, Pitch_bend_c, 0, 8192
2, 13465, Pitch_bend_c, 0, 8192
2, 13471, Pitch_bend_c, 0, 9557
2, 13476, Pitch_bend_c, 0, 10923
2, 13481, Pitch_bend_c, 0, 10923
2, 13486, Pitch_bend_c, 0, 10923
2, 13492, Pitch_bend_c, 0, 10923
2, 13497, Pitch_bend_c, 0, 10923
2, 13502, Pitch_bend_c, 0, 8192
2, 13507, Pitch_bend_c, 0, 8192
2, 13513, Pitch_bend_c, 0, 8192
2, 13518, Pitch_bend_c, 0, 8192
2, 13523, Pitch_bend_c, 0, 9557
2, 13528, Pitch_bend_c, 0, 10923
2, 13534, Pitch_bend_c, 0, 10923
2, 13539, Pitch_bend_c, 0, 10923
2, 13544, Pitch_bend_c, 0, 10923
2, 13549, Pitch_bend_c, 0, 9557
2, 13555, Pitch_bend_c, 0, 9557
2, 13560, Pitch_bend_c, 0, 9557
2, 13565, Pitch_bend_c, 0, 9557
2, 13570, Pitch_bend_c, 0, 9557
2, 13576, Pitch_bend_c, 0, 9557
2, 13581, Pitch_bend_c, 0, 9557
2, 13586, Pitch_bend_c, 0, 9557
2, 13591, Pitch_bend_c, 0, 9557
2, 13597, Pitch_bend_c, 0, 9557
2, 13602, Pitch_bend_c, 0, 9557
2, 13607, Pitch_bend_c, 0, 9557
2, 13607, Note_on_c, 0, 60, 0
2, 13607, Note_on_c, 0, 60, 62
2, 13668, Note_on_c, 0, 62, 86
2, 13796, Note_on_c, 0, 60, 0
2, 14057, Pitch_bend_c, 0, 10923
2, 14057, Note_on_c, 0, 62, 0
2, 14057, Note_on_c, 0, 62, 64
2, 14062, Pitch_bend_c, 0, 9557
2, 14067, Pitch_bend_c, 0, 9557
2, 14072, Pitch_bend_c, 0, 9557
2, 14078, Pitch_bend_c, 0, 9557
2, 14083, Pitch_bend_c, 0, 9557
2, 14088, Pitch_bend_c, 0, 9557
2, 14093, Pitch_bend_c, 0, 9557
2, 14098, Pitch_bend_c, 0, 9557
2, 14103, Pitch_bend_c, 0, 10923
2, 14108, Pitch_bend_c, 0, 9557
2, 14113, Pitch_bend_c, 0, 9557
2, 14118, Pitch_bend_c, 0, 9557
2, 14124, Pitch_bend_c, 0, 9557
2, 14129, Pitch_bend_c, 0, 9557
2, 14134, Pitch_bend_c, 0, 9557
2, 14139, Pitch_bend_c, 0, 9557
2, 14144, Pitch_bend_c, 0, 9557
2, 14149, Pitch_bend_c, 0, 12288
2, 14154, Pitch_bend_c, 0, 12288
2, 14159, Pitch_bend_c, 0, 12288
2, 14164, Pitch_bend_c, 0, 13653
2, 14170, Pitch_bend_c, 0, 13653
2, 14175, Pitch_bend_c, 0, 13653
2, 14180, Pitch_bend_c, 0, 13653
2, 14185, Pitch_bend_c, 0, 12288
2, 14190, Pitch_bend_c, 0, 12288
2, 14195, Pitch_bend_c, 0, 12288
2, 14200, Pitch_bend_c, 0, 12288
2, 14205, Pitch_bend_c, 0, 9557
2, 14210, Pitch_bend_c, 0, 10923
2, 14216, Pitch_bend_c, 0, 9557
2, 14221, Pitch_bend_c, 0, 9557
2, 14226, Pitch_bend_c, 0, 9557
2, 14231, Pitch_bend_c, 0, 9557
2, 14236, Pitch_bend_c, 0, 9557
2, 14241, Pitch_bend_c, 0, 9557
2, 14246, Pitch_bend_c, 0, 9557
2, 14251, Pitch_bend_c, 0, 9557
2, 14256, Pitch_bend_c, 0, 10923
2, 14262, Pitch_bend_c, 0, 10923
2, 14267, Pitch_bend_c, 0, 10923
2, 14272, Pitch_bend_c, 0, 10923
2, 14277, Pitch_bend_c, 0, 10923
2, 14282, Pitch_bend_c, 0, 9557
2, 14287, Pitch_bend_c, 0, 9557
2, 14292, Pitch_bend_c, 0, 9557
2, 14297, Pitch_bend_c, 0, 9557
2, 14302, Pitch_bend_c, 0, 9557
2, 14308, Pitch_bend_c, 0, 9557
2, 14313, Pitch_bend_c, 0, 9557
2, 14318, Pitch_bend_c, 0, 9557
2, 14323, Pitch_bend_c, 0, 9557
2, 14328, Pitch_bend_c, 0, 9557
2, 14333, Pitch_bend_c, 0, 9557
2, 14338, Pitch_bend_c, 0, 9557
2, 14343, Pitch_bend_c, 0, 9557
2, 14348, Pitch_bend_c, 0, 9557
2, 14354, Pitch_bend_c, 0, 9557
2, 14359, Pitch_bend_c, 0, 10923
2, 14364, Pitch_bend_c, 0, 10923
2, 14369, Pitch_bend_c, 0, 10923
2, 14374, Pitch_bend_c, 0, 10923
2, 14379, Pitch_bend_c, 0, 10923
2, 14384, Pitch_bend_c, 0, 10923
2, 14389, Pitch_bend_c, 0, 9557
2, 14394, Pitch_bend_c, 0, 8192
2, 14400, Pitch_bend_c, 0, 8192
2, 14405, Pitch_bend_c, 0, 8192
2, 14410, Pitch_bend_c, 0, 8192
2, 14415, Pitch_bend_c, 0, 8192
2, 14420, Pitch_bend_c, 0, 8192
2, 14425, Pitch_bend_c, 0, 9557
2, 14430, Pitch_bend_c, 0, 9557
2, 14435, Pitch_bend_c, 0, 9557
2, 14440, Pitch_bend_c, 0, 9557
2, 14445, Pitch_bend_c, 0, 9557
2, 14451, Pitch_bend_c, 0, 9557
2, 14456, Pitch_bend_c, 0, 8192
2, 14461, Pitch_bend_c, 0, 8192
2, 14466, Pitch_bend_c, 0, 8192
2, 14471, Pitch_bend_c, 0, 9557
2, 14476, Pitch_bend_c, 0, 10923
2, 14481, Pitch_bend_c, 0, 10923
2, 14486, Pitch_bend_c, 0, 10923
2, 14491, Pitch_bend_c, 0, 10923
2, 14497, Pitch_bend_c, 0, 10923
2, 14502, Pitch_bend_c, 0, 9557
2, 14507, Pitch_bend_c, 0, 9557
2, 14512, Pitch_bend_c, 0, 9557
2, 14517, Pitch_bend_c, 0, 9557
2, 14522, Pitch_bend_c, 0, 9557
2, 14527, Pitch_bend_c, 0, 9557
2, 14532, Pitch_bend_c, 0, 9557
2, 14537, Pitch_bend_c, 0, 9557
2, 14543, Pitch_bend_c, 0, 9557
2, 14548, Pitch_bend_c, 0, 9557
2, 14553, Pitch_bend_c, 0, 9557
2, 14558, Pitch_bend_c, 0, 9557
2, 14563, Pitch_bend_c, 0, 9557
2, 14568, Pitch_bend_c, 0, 9557
2, 14573, Pitch_bend_c, 0, 9557
2, 14578, Pitch_bend_c, 0, 9557
2, 14583, Pitch_bend_c, 0, 9557
2, 14589, Pitch_bend_c, 0, 9557
2, 14594, Pitch_bend_c, 0, 9557
2, 14599, Pitch_bend_c, 0, 9557
2, 14604, Pitch_bend_c, 0, 9557
2, 14609, Pitch_bend_c, 0, 9557
2, 14614, Pitch_bend_c, 0, 9557
2, 14619, Pitch_bend_c, 0, 9557
2, 14624, Pitch_bend_c, 0, 9557
2, 14629, Pitch_bend_c, 0, 9557
2, 14635, Pitch_bend_c, 0, 9557
2, 14640, Pitch_bend_c, 0, 9557
2, 14645, Pitch_bend_c, 0, 9557
2, 14650, Pitch_bend_c, 0, 9557
2, 14655, Pitch_bend_c, 0, 10923
2, 14660, Pitch_bend_c, 0, 9557
2, 14665, Pitch_bend_c, 0, 9557
2, 14670, Pitch_bend_c, 0, 9557
2, 14675, Pitch_bend_c, 0, 9557
2, 14681, Pitch_bend_c, 0, 9557
2, 14686, Pitch_bend_c, 0, 9557
2, 14691, Pitch_bend_c, 0, 9557
2, 14696, Pitch_bend_c, 0, 9557
2, 14701, Pitch_bend_c, 0, 9557
2, 14706, Pitch_bend_c, 0, 9557
2, 14711, Pitch_bend_c, 0, 9557
2, 14716, Pitch_bend_c, 0, 9557
2, 14721, Pitch_bend_c, 0, 9557
2, 14727, Pitch_bend_c, 0, 9557
2, 14732, Pitch_bend_c, 0, 9557
2, 14737, Pitch_bend_c, 0, 9557
2, 14742, Pitch_bend_c, 0, 9557
2, 14747, Pitch_bend_c, 0, 9557
2, 14752, Pitch_bend_c, 0, 10923
2, 14757, Pitch_bend_c, 0, 10923
2, 14762, Pitch_bend_c, 0, 10923
2, 14767, Pitch_bend_c, 0, 10923
2, 14773, Pitch_bend_c, 0, 10923
2, 14778, Pitch_bend_c, 0, 6827
2, 14783, Pitch_bend_c, 0, 6827
2, 14788, Pitch_bend_c, 0, 6827
2, 14793, Pitch_bend_c, 0, 10923
2, 14798, Pitch_bend_c, 0, 9557
2, 14803, Pitch_bend_c, 0, 9557
2, 14808, Pitch_bend_c, 0, 9557
2, 14813, Pitch_bend_c, 0, 9557
2, 14819, Pitch_bend_c, 0, 9557
2, 14824, Pitch_bend_c, 0, 9557
2, 14829, Pitch_bend_c, 0, 9557
2, 14834, Pitch_bend_c, 0, 9557
2, 14839, Pitch_bend_c, 0, 9557
2, 14844, Pitch_bend_c, 0, 9557
2, 14849, Pitch_bend_c, 0, 9557
2, 14854, Pitch_bend_c, 0, 10923
2, 14859, Pitch_bend_c, 0, 9557
2, 14865, Pitch_bend_c, 0, 9557
2, 14870, Pitch_bend_c, 0, 9557
2, 14875, Pitch_bend_c, 0, 9557
2, 14880, Pitch_bend_c, 0, 9557
2, 14885, Pitch_bend_c, 0, 9557
2, 14890, Pitch_bend_c, 0, 9557
2, 14895, Pitch_bend_c, 0, 9557
2, 14900, Pitch_bend_c, 0, 9557
2, 14905, Pitch_bend_c, 0, 9557
2, 14911, Pitch_bend_c, 0, 8192
2, 14916, Pitch_bend_c, 0, 8192
2, 14921, Pitch_bend_c, 0, 8192
2, 14926, Pitch_bend_c, 0, 8192
2, 14931, Pitch_bend_c, 0, 9557
2, 14936, Pitch_bend_c, 0, 9557
2, 14941, Pitch_bend_c, 0, 9557
2, 14946, Pitch_bend_c, 0, 9557
2, 14951, Pitch_bend_c, 0, 9557
2, 14957, Pitch_bend_c, 0, 9557
2, 14962, Pitch_bend_c, 0, 9557
2, 14967, Pitch_bend_c, 0, 9557
2, 14972, Pitch_bend_c, 0, 9557
2, 14977, Pitch_bend_c, 0, 9557
2, 14982, Pitch_bend_c, 0, 9557
2, 14987, Pitch_bend_c, 0, 9557
2, 14992, Pitch_bend_c, 0, 9557
2, 14997, Pitch_bend_c, 0, 9557
2, 15003, Pitch_bend_c, 0, 9557
2, 15008, Pitch_bend_c, 0, 9557
2, 15013, Pitch_bend_c, 0, 9557
2, 15018, Pitch_bend_c, 0, 9557
2, 15023, Pitch_bend_c, 0, 9557
2, 15028, Pitch_bend_c, 0, 9557
2, 15033, Pitch_bend_c, 0, 9557
2, 15038, Pitch_bend_c, 0, 9557
2, 15043, Pitch_bend_c, 0, 9557
2, 15049, Pitch_bend_c, 0, 8192
2, 15054, Pitch_bend_c, 0, 10923
2, 15059, Pitch_bend_c, 0, 9557
2, 15064, Pitch_bend_c, 0, 9557
2, 15069, Pitch_bend_c, 0, 9557
2, 15074, Pitch_bend_c, 0, 9557
2, 15079, Pitch_bend_c, 0, 9557
2, 15084, Pitch_bend_c, 0, 9557
2, 15089, Pitch_bend_c, 0, 9557
2, 15095, Pitch_bend_c, 0, 10923
2, 15100, Pitch_bend_c, 0, 10923
2, 15105, Pitch_bend_c, 0, 10923
2, 15110, Pitch_bend_c, 0, 10923
2, 15115, Pitch_bend_c, 0, 10923
2, 15120, Pitch_bend_c, 0, 10923
2, 15125, Pitch_bend_c, 0, 10923
2, 15130, Pitch_bend_c, 0, 10923
2, 15135, Pitch_bend_c, 0, 10923
2, 15141, Pitch_bend_c, 0, 9557
2, 15146, Pitch_bend_c, 0, 9557
2, 15151, Pitch_bend_c, 0, 10923
2, 15156, Pitch_bend_c, 0, 10923
2, 15161, Pitch_bend_c, 0, 10923
2, 15166, Pitch_bend_c, 0, 10923
2, 15171, Pitch_bend_c, 0, 10923
2, 15176, Pitch_bend_c, 0, 10923
2, 15181, Pitch_bend_c, 0, 10923
2, 15187, Pitch_bend_c, 0, 10923
2, 15192, Pitch_bend_c, 0, 10923
2, 15197, Pitch_bend_c, 0, 10923
2, 15202, Pitch_bend_c, 0, 10923
2, 15207, Pitch_bend_c, 0, 9557
2, 15212, Pitch_bend_c, 0, 9557
2, 15217, Pitch_bend_c, 0, 9557
2, 15222, Pitch_bend_c, 0, 9557
2, 15227, Pitch_bend_c, 0, 9557
2, 15232, Pitch_bend_c, 0, 9557
2, 15238, Pitch_bend_c, 0, 9557
2, 15243, Pitch_bend_c, 0, 9557
2, 15248, Pitch_bend_c, 0, 9557
2, 15253, Pitch_bend_c, 0, 9557
2, 15258, Pitch_bend_c, 0, 9557
2, 15263, Pitch_bend_c, 0, 9557
2, 15268, Pitch_bend_c, 0, 9557
2, 15273, Pitch_bend_c, 0, 9557
2, 15278, Pitch_bend_c, 0, 9557
2, 15284, Pitch_bend_c, 0, 9557
2, 15289, Pitch_bend_c, 0, 9557
2, 15294, Pitch_bend_c, 0, 9557
2, 15299, Pitch_bend_c, 0, 9557
2, 15304, Pitch_bend_c, 0, 9557
2, 15309, Pitch_bend_c, 0, 9557
2, 15314, Pitch_bend_c, 0, 9557
2, 15319, Pitch_bend_c, 0, 9557
2, 15324, Pitch_bend_c, 0, 9557
2, 15330, Pitch_bend_c, 0, 9557
2, 15335, Pitch_bend_c, 0, 8192
2, 15340, Pitch_bend_c, 0, 8192
2, 15345, Pitch_bend_c, 0, 9557
2, 15350, Pitch_bend_c, 0, 9557
2, 15355, Pitch_bend_c, 0, 9557
2, 15360, Pitch_bend_c, 0, 9557
2, 15365, Pitch_bend_c, 0, 9557
2, 15370, Pitch_bend_c, 0, 9557
2, 15376, Pitch_bend_c, 0, 9557
2, 15381, Pitch_bend_c, 0, 9557
2, 15386, Pitch_bend_c, 0, 8192
2, 15391, Pitch_bend_c, 0, 8192
2, 15396, Pitch_bend_c, 0, 8192
2, 15401, Pitch_bend_c, 0, 9557
2, 15406, Pitch_bend_c, 0, 9557
2, 15411, Pitch_bend_c, 0, 9557
2, 15416, Pitch_bend_c, 0, 9557
2, 15422, Pitch_bend_c, 0, 9557
2, 15427, Pitch_bend_c, 0, 9557
2, 15432, Pitch_bend_c, 0, 9557
2, 15437, Pitch_bend_c, 0, 9557
2, 15442, Pitch_bend_c, 0, 9557
2, 15447, Pitch_bend_c, 0, 9557
2, 15452, Pitch_bend_c, 0, 9557
2, 15457, Pitch_bend_c, 0, 9557
2, 15462, Pitch_bend_c, 0, 9557
2, 15468, Pitch_bend_c, 0, 10923
2, 15473, Pitch_bend_c, 0, 10923
2, 15478, Pitch_bend_c, 0, 9557
2, 15483, Pitch_bend_c, 0, 9557
2, 15488, Pitch_bend_c, 0, 9557
2, 15493, Pitch_bend_c, 0, 9557
2, 15498, Pitch_bend_c, 0, 9557
2, 15503, Pitch_bend_c, 0, 9557
2, 15508, Pitch_bend_c, 0, 9557
2, 15514, Pitch_bend_c, 0, 9557
2, 15514, Note_on_c, 0, 62, 0
2, 15892, Pitch_bend_c, 0, 9557
2, 15892, Note_on_c, 0, 65, 78
2, 15897, Pitch_bend_c, 0, 9557
2, 15902, Pitch_bend_c, 0, 9557
2, 15908, Pitch_bend_c, 0, 9557
2, 15913, Pitch_bend_c, 0, 9557
2, 15918, Pitch_bend_c, 0, 9557
2, 15923, Pitch_bend_c, 0, 9557
2, 15928, Pitch_bend_c, 0, 9557
2, 15933, Pitch_bend_c, 0, 9557
2, 15939, Pitch_bend_c, 0, 9557
2, 15944, Pitch_bend_c, 0, 9557
2, 15949, Pitch_bend_c, 0, 9557
2, 15954, Pitch_bend_c, 0, 9557
2, 15959, Pitch_bend_c, 0, 9557
2, 15964, Pitch_bend_c, 0, 9557
2, 15970, Pitch_bend_c, 0, 9557
2, 15975, Pitch_bend_c, 0, 9557
2, 15980, Pitch_bend_c, 0, 9557
2, 15985, Pitch_bend_c, 0, 9557
2, 15990, Pitch_bend_c, 0, 9557
2, 15995, Pitch_bend_c, 0, 9557
2, 16001, Pitch_bend_c, 0, 9557
2, 16006, Pitch_bend_c, 0, 9557
2, 16011, Pitch_bend_c, 0, 9557
2, 16016, Pitch_bend_c, 0, 9557
2, 16021, Pitch_bend_c, 0, 9557
2, 16026, Pitch_bend_c, 0, 9557
2, 16031, Pitch_bend_c, 0, 9557
2, 16037, Pitch_bend_c, 0, 9557
2, 16042, Pitch_bend_c, 0, 9557
2, 16047, Pitch_bend_c, 0, 9557
2, 16052, Pitch_bend_c, 0, 9557
2, 16057, Pitch_bend_c, 0, 9557
2, 16062, Pitch_bend_c, 0, 9557
2, 16068, Pitch_bend_c, 0, 10923
2, 16073, Pitch_bend_c, 0, 10923
2, 16078, Pitch_bend_c, 0, 10923
2, 16083, Pitch_bend_c, 0, 10923
2, 16088, Pitch_bend_c, 0, 10923
2, 16093, Pitch_bend_c, 0, 6827
2, 16099, Pitch_bend_c, 0, 6827
2, 16104, Pitch_bend_c, 0, 6827
2, 16109, Pitch_bend_c, 0, 6827
2, 16114, Pitch_bend_c, 0, 8192
2, 16119, Pitch_bend_c, 0, 8192
2, 16124, Pitch_bend_c, 0, 9557
2, 16130, Pitch_bend_c, 0, 12288
2, 16135, Pitch_bend_c, 0, 12288
2, 16140, Pitch_bend_c, 0, 12288
2, 16145, Pitch_bend_c, 0, 12288
2, 16150, Pitch_bend_c, 0, 12288
2, 16155, Pitch_bend_c, 0, 8192
2, 16160, Pitch_bend_c, 0, 8192
2, 16166, Pitch_bend_c, 0, 8192
2, 16171, Pitch_bend_c, 0, 8192
2, 16176, Pitch_bend_c, 0, 8192
2, 16181, Pitch_bend_c, 0, 8192
2, 16186, Pitch_bend_c, 0, 10923
2, 16191, Pitch_bend_c, 0, 10923
2, 16197, Pitch_bend_c, 0, 10923
2, 16202, Pitch_bend_c, 0, 10923
2, 16207, Pitch_bend_c, 0, 10923
2, 16212, Pitch_bend_c, 0, 10923
2, 16217, Pitch_bend_c, 0, 10923
2, 16222, Pitch_bend_c, 0, 10923
2, 16228, Pitch_bend_c, 0, 10923
2, 16233, Pitch_bend_c, 0, 10923
2, 16238, Pitch_bend_c, 0, 10923
2, 16243, Pitch_bend_c, 0, 10923
2, 16248, Pitch_bend_c, 0, 10923
2, 16253, Pitch_bend_c, 0, 12288
2, 16259, Pitch_bend_c, 0, 12288
2, 16264, Pitch_bend_c, 0, 10923
2, 16269, Pitch_bend_c, 0, 10923
2, 16274, Pitch_bend_c, 0, 10923
2, 16279, Pitch_bend_c, 0, 6827
2, 16284, Pitch_bend_c, 0, 6827
2, 16290, Pitch_bend_c, 0, 8192
2, 16295, Pitch_bend_c, 0, 8192
2, 16300, Pitch_bend_c, 0, 8192
2, 16305, Pitch_bend_c, 0, 10923
2, 16310, Pitch_bend_c, 0, 10923
2, 16315, Pitch_bend_c, 0, 10923
2, 16320, Pitch_bend_c, 0, 10923
2, 16326, Pitch_bend_c, 0, 10923
2, 16331, Pitch_bend_c, 0, 9557
2, 16336, Pitch_bend_c, 0, 9557
2, 16341, Pitch_bend_c, 0, 9557
2, 16346, Pitch_bend_c, 0, 9557
2, 16351, Pitch_bend_c, 0, 9557
2, 16357, Pitch_bend_c, 0, 9557
2, 16362, Pitch_bend_c, 0, 9557
2, 16367, Pitch_bend_c, 0, 9557
2, 16372, Pitch_bend_c, 0, 9557
2, 16377, Pitch_bend_c, 0, 9557
2, 16382, Pitch_bend_c, 0, 9557
2, 16388, Pitch_bend_c, 0, 9557
2, 16393, Pitch_bend_c, 0, 9557
2, 16398, Pitch_bend_c, 0, 9557
2, 16398, Note_on_c, 0, 65, 0
2, 16505, Pitch_bend_c, 0, 9557
2, 16505, Note_on_c, 0, 67, 73
2, 16510, Pitch_bend_c, 0, 9557
2, 16515, Pitch_bend_c, 0, 9557
2, 16521, Pitch_bend_c, 0, 9557
2, 16526, Pitch_bend_c, 0, 9557
2, 16531, Pitch_bend_c, 0, 9557
2, 16536, Pitch_bend_c, 0, 8192
2, 16541, Pitch_bend_c, 0, 8192
2, 16546, Pitch_bend_c, 0, 8192
2, 16551, Pitch_bend_c, 0, 9557
2, 16556, Pitch_bend_c, 0, 9557
2, 16561, Pitch_bend_c, 0, 9557
2, 16567, Pitch_bend_c, 0, 9557
2, 16572, Pitch_bend_c, 0, 9557
2, 16577, Pitch_bend_c, 0, 9557
2, 16582, Pitch_bend_c, 0, 9557
2, 16587, Pitch_bend_c, 0, 9557
2, 16592, Pitch_bend_c, 0, 9557
2, 16597, Pitch_bend_c, 0, 9557
2, 16602, Pitch_bend_c, 0, 9557
2, 16608, Pitch_bend_c, 0, 9557
2, 16613, Pitch_bend_c, 0, 9557
2, 16618, Pitch_bend_c, 0, 9557
2, 16623, Pitch_bend_c, 0, 9557
2, 16628, Pitch_bend_c, 0, 9557
2, 16633, Pitch_bend_c, 0, 9557
2, 16638, Pitch_bend_c, 0, 15019
2, 16643, Pitch_bend_c, 0, 15019
2, 16648, Pitch_bend_c, 0, 9557
2, 16654, Pitch_bend_c, 0, 9557
2, 16659, Pitch_bend_c, 0, 10923
2, 16664, Pitch_bend_c, 0, 10923
2, 16669, Pitch_bend_c, 0, 9557
2, 16674, Pitch_bend_c, 0, 9557
2, 16679, Pitch_bend_c, 0, 9557
2, 16684, Pitch_bend_c, 0, 10923
2, 16689, Pitch_bend_c, 0, 10923
2, 16695, Pitch_bend_c, 0, 10923
2, 16700, Pitch_bend_c, 0, 10923
2, 16705, Pitch_bend_c, 0, 9557
2, 16710, Pitch_bend_c, 0, 9557
2, 16715, Pitch_bend_c, 0, 9557
2, 16720, Pitch_bend_c, 0, 9557
2, 16725, Pitch_bend_c, 0, 9557
2, 16730, Pitch_bend_c, 0, 9557
2, 16736, Pitch_bend_c, 0, 9557
2, 16741, Pitch_bend_c, 0, 9557
2, 16746, Pitch_bend_c, 0, 9557
2, 16751, Pitch_bend_c, 0, 9557
2, 16756, Pitch_bend_c, 0, 9557
2, 16761, Pitch_bend_c, 0, 9557
2, 16766, Pitch_bend_c, 0, 9557
2, 16771, Pitch_bend_c, 0, 9557
2, 16776, Pitch_bend_c, 0, 9557
2, 16782, Pitch_bend_c, 0, 9557
2, 16782, Note_on_c, 0, 67, 0
2, 16879, Pitch_bend_c, 0, 9557
2, 16879, Note_on_c, 0, 69, 93
2, 16884, Pitch_bend_c, 0, 9557
2, 16889, Pitch_bend_c, 0, 9557
2, 16894, Pitch_bend_c, 0, 9557
2, 16900, Pitch_bend_c, 0, 9557
2, 16905, Pitch_bend_c, 0, 9557
2, 16910, Pitch_bend_c, 0, 9557
2, 16915, Pitch_bend_c, 0, 8192
2, 16921, Pitch_bend_c, 0, 8192
2, 16926, Pitch_bend_c, 0, 9557
2, 16931, Pitch_bend_c, 0, 9557
2, 16936, Pitch_bend_c, 0, 9557
2, 16942, Pitch_bend_c, 0, 9557
2, 16947, Pitch_bend_c, 0, 9557
2, 16952, Pitch_bend_c, 0, 9557
2, 16957, Pitch_bend_c, 0, 9557
2, 16963, Pitch_bend_c, 0, 9557
2, 16968, Pitch_bend_c, 0, 9557
2, 16973, Pitch_bend_c, 0, 9557
2, 16978, Pitch_bend_c, 0, 9557
2, 16984, Pitch_bend_c, 0, 9557
2, 16989, Pitch_bend_c, 0, 9557
2, 16994, Pitch_bend_c, 0, 9557
2, 16999, Pitch_bend_c, 0, 9557
2, 17005, Pitch_bend_c, 0, 9557
2, 17010, Pitch_bend_c, 0, 9557
2, 17015, Pitch_bend_c, 0, 9557
2, 17020, Pitch_bend_c, 0, 9557
2, 17026, Pitch_bend_c, 0, 9557
2, 17031, Pitch_bend_c, 0, 9557
2, 17036, Pitch_bend_c, 0, 9557
2, 17041, Pitch_bend_c, 0, 8192
2, 17047, Pitch_bend_c, 0, 8192
2, 17052, Pitch_bend_c, 0, 8192
2, 17057, Pitch_bend_c, 0, 8192
2, 17062, Pitch_bend_c, 0, 6827
2, 17068, Pitch_bend_c, 0, 6827
2, 17073, Pitch_bend_c, 0, 6827
2, 17073, Note_on_c, 0, 69, 0
2, 17400, Pitch_bend_c, 0, 10923
2, 17400, Note_on_c, 0, 65, 79
2, 17405, Pitch_bend_c, 0, 10923
2, 17410, Pitch_bend_c, 0, 10923
2, 17415, Pitch_bend_c, 0, 10923
2, 17420, Pitch_bend_c, 0, 8192
2, 17425, Pitch_bend_c, 0, 8192
2, 17431, Pitch_bend_c, 0, 8192
2, 17436, Pitch_bend_c, 0, 8192
2, 17441, Pitch_bend_c, 0, 9557
2, 17446, Pitch_bend_c, 0, 9557
2, 17451, Pitch_bend_c, 0, 9557
2, 17456, Pitch_bend_c, 0, 9557
2, 17461, Pitch_bend_c, 0, 9557
2, 17466, Pitch_bend_c, 0, 9557
2, 17472, Pitch_bend_c, 0, 9557
2, 17477, Pitch_bend_c, 0, 9557
2, 17482, Pitch_bend_c, 0, 9557
2, 17487, Pitch_bend_c, 0, 9557
2, 17492, Pitch_bend_c, 0, 9557
2, 17497, Pitch_bend_c, 0, 9557
2, 17502, Pitch_bend_c, 0, 9557
2, 17508, Pitch_bend_c, 0, 9557
2, 17508, Pitch_bend_c, 0, 9557
2, 17508, Note_on_c, 0, 65, 0
2, 17508, Note_on_c, 0, 65, 78
2, 17513, Pitch_bend_c, 0, 9557
2, 17518, Pitch_bend_c, 0, 9557
2, 17523, Pitch_bend_c, 0, 9557
2, 17529, Pitch_bend_c, 0, 9557
2, 17534, Pitch_bend_c, 0, 9557
2, 17539, Pitch_bend_c, 0, 9557
2, 17545, Pitch_bend_c, 0, 9557
2, 17550, Pitch_bend_c, 0, 9557
2, 17555, Pitch_bend_c, 0, 9557
2, 17561, Pitch_bend_c, 0, 9557
2, 17566, Pitch_bend_c, 0, 9557
2, 17571, Pitch_bend_c, 0, 9557
2, 17576, Pitch_bend_c, 0, 9557
2, 17582, Pitch_bend_c, 0, 9557
2, 17587, Pitch_bend_c, 0, 9557
2, 17592, Pitch_bend_c, 0, 5461
2, 17598, Pitch_bend_c, 0, 5461
2, 17603, Pitch_bend_c, 0, 5461
2, 17608, Pitch_bend_c, 0, 9557
2, 17613, Pitch_bend_c, 0, 10923
2, 17619, Pitch_bend_c, 0, 10923
2, 17624, Pitch_bend_c, 0, 10923
2, 17629, Pitch_bend_c, 0, 10923
2, 17635, Pitch_bend_c, 0, 10923
2, 17640, Pitch_bend_c, 0, 9557
2, 17645, Pitch_bend_c, 0, 5461
2, 17651, Pitch_bend_c, 0, 5461
2, 17651, Pitch_bend_c, 0, 6827
2, 17651, Note_on_c, 0, 65, 0
2, 17651, Note_on_c, 0, 65, 79
2, 17656, Pitch_bend_c, 0, 8192
2, 17661, Pitch_bend_c, 0, 9557
2, 17666, Pitch_bend_c, 0, 9557
2, 17671, Pitch_bend_c, 0, 10923
2, 17676, Pitch_bend_c, 0, 10923
2, 17682, Pitch_bend_c, 0, 10923
2, 17687, Pitch_bend_c, 0, 10923
2, 17692, Pitch_bend_c, 0, 8192
2, 17697, Pitch_bend_c, 0, 8192
2, 17702, Pitch_bend_c, 0, 8192
2, 17708, Pitch_bend_c, 0, 8192
2, 17713, Pitch_bend_c, 0, 8192
2, 17718, Pitch_bend_c, 0, 10923
2, 17723, Pitch_bend_c, 0, 10923
2, 17728, Pitch_bend_c, 0, 10923
2, 17733, Pitch_bend_c, 0, 10923
2, 17739, Pitch_bend_c, 0, 10923
2, 17744, Pitch_bend_c, 0, 9557
2, 17749, Pitch_bend_c, 0, 9557
2, 17754, Pitch_bend_c, 0, 9557
2, 17759, Pitch_bend_c, 0, 9557
2, 17764, Pitch_bend_c, 0, 9557
2, 17770, Pitch_bend_c, 0, 9557
2, 17775, Pitch_bend_c, 0, 10923
2, 17780, Pitch_bend_c, 0, 10923
2, 17785, Pitch_bend_c, 0, 10923
2, 17790, Pitch_bend_c, 0, 10923
2, 17796, Pitch_bend_c, 0, 10923
2, 17801, Pitch_bend_c, 0, 10923
2, 17806, Pitch_bend_c, 0, 9557
2, 17811, Pitch_bend_c, 0, 9557
2, 17816, Pitch_bend_c, 0, 8192
2, 17821, Pitch_bend_c, 0, 8192
2, 17827, Pitch_bend_c, 0, 8192
2, 17832, Pitch_bend_c, 0, 10923
2, 17837, Pitch_bend_c, 0, 10923
2, 17842, Pitch_bend_c, 0, 10923
2, 17847, Pitch_bend_c, 0, 10923
2, 17853, Pitch_bend_c, 0, 10923
2, 17858, Pitch_bend_c, 0, 12288
2, 17863, Pitch_bend_c, 0, 10923
2, 17868, Pitch_bend_c, 0, 8192
2, 17873, Pitch_bend_c, 0, 8192
2, 17878, Pitch_bend_c, 0, 9557
2, 17884, Pitch_bend_c, 0, 9557
2, 17889, Pitch_bend_c, 0, 9557
2, 17894, Pitch_bend_c, 0, 9557
2, 17899, Pitch_bend_c, 0, 9557
2, 17904, Pitch_bend_c, 0, 9557
2, 17909, Pitch_bend_c, 0, 9557
2, 17915, Pitch_bend_c, 0, 9557
2, 17920, Pitch_bend_c, 0, 9557
2, 17925, Pitch_bend_c, 0, 9557
2, 17930, Pitch_bend_c, 0, 9557
2, 17935, Pitch_bend_c, 0, 9557
2, 17941, Pitch_bend_c, 0, 9557
2, 17946, Pitch_bend_c, 0, 9557
2, 17951, Pitch_bend_c, 0, 9557
2, 17956, Pitch_bend_c, 0, 9557
2, 17961, Pitch_bend_c, 0, 9557
2, 17966, Pitch_bend_c, 0, 9557
2, 17972, Pitch_bend_c, 0, 9557
2, 17977, Pitch_bend_c, 0, 9557
2, 17982, Pitch_bend_c, 0, 10923
2, 17987, Pitch_bend_c, 0, 10923
2, 17992, Pitch_bend_c, 0, 10923
2, 17998, Pitch_bend_c, 0, 9557
2, 18003, Pitch_bend_c, 0, 9557
2, 18008, Pitch_bend_c, 0, 9557
2, 18013, Pitch_bend_c, 0, 9557
2, 18018, Pitch_bend_c, 0, 9557
2, 18023, Pitch_bend_c, 0, 9557
2, 18029, Pitch_bend_c, 0, 9557
2, 18029, Note_on_c, 0, 65, 0
2, 18034, Pitch_bend_c, 0, 6827
2, 18034, Note_on_c, 0, 67, 59
2, 18039, Pitch_bend_c, 0, 9557
2, 18044, Pitch_bend_c, 0, 9557
2, 18049, Pitch_bend_c, 0, 9557
2, 18054, Pitch_bend_c, 0, 9557
2, 18060, Pitch_bend_c, 0, 9557
2, 18065, Pitch_bend_c, 0, 9557
2, 18070, Pitch_bend_c, 0, 9557
2, 18075, Pitch_bend_c, 0, 9557
2, 18080, Pitch_bend_c, 0, 9557
2, 18086, Pitch_bend_c, 0, 9557
2, 18091, Pitch_bend_c, 0, 9557
2, 18096, Pitch_bend_c, 0, 9557
2, 18101, Pitch_bend_c, 0, 9557
2, 18106, Pitch_bend_c, 0, 9557
2, 18112, Pitch_bend_c, 0, 9557
2, 18117, Pitch_bend_c, 0, 9557
2, 18122, Pitch_bend_c, 0, 9557
2, 18127, Pitch_bend_c, 0, 9557
2, 18132, Pitch_bend_c, 0, 9557
2, 18138, Pitch_bend_c, 0, 9557
2, 18143, Pitch_bend_c, 0, 9557
2, 18148, Pitch_bend_c, 0, 9557
2, 18153, Pitch_bend_c, 0, 9557
2, 18158, Pitch_bend_c, 0, 9557
2, 18164, Pitch_bend_c, 0, 10923
2, 18169, Pitch_bend_c, 0, 10923
2, 18174, Pitch_bend_c, 0, 10923
2, 18179, Pitch_bend_c, 0, 10923
2, 18184, Pitch_bend_c, 0, 9557
2, 18190, Pitch_bend_c, 0, 9557
2, 18195, Pitch_bend_c, 0, 9557
2, 18200, Pitch_bend_c, 0, 6827
2, 18205, Pitch_bend_c, 0, 6827
2, 18210, Pitch_bend_c, 0, 6827
2, 18216, Pitch_bend_c, 0, 8192
2, 18221, Pitch_bend_c, 0, 8192
2, 18226, Pitch_bend_c, 0, 12288
2, 18231, Pitch_bend_c, 0, 12288
2, 18236, Pitch_bend_c, 0, 12288
2, 18241, Pitch_bend_c, 0, 10923
2, 18247, Pitch_bend_c, 0, 9557
2, 18252, Pitch_bend_c, 0, 9557
2, 18257, Pitch_bend_c, 0, 6827
2, 18262, Pitch_bend_c, 0, 6827
2, 18267, Pitch_bend_c, 0, 8192
2, 18273, Pitch_bend_c, 0, 9557
2, 18278, Pitch_bend_c, 0, 9557
2, 18283, Pitch_bend_c, 0, 9557
2, 18288, Pitch_bend_c, 0, 9557
2, 18293, Pitch_bend_c, 0, 9557
2, 18299, Pitch_bend_c, 0, 9557
2, 18304, Pitch_bend_c, 0, 9557
2, 18309, Pitch_bend_c, 0, 9557
2, 18314, Pitch_bend_c, 0, 9557
2, 18319, Pitch_bend_c, 0, 9557
2, 18325, Pitch_bend_c, 0, 9557
2, 18330, Pitch_bend_c, 0, 9557
2, 18335, Pitch_bend_c, 0, 9557
2, 18340, Pitch_bend_c, 0, 9557
2, 18340, Note_on_c, 0, 67, 0
2, 18407, Pitch_bend_c, 0, 8192
2, 18407, Note_on_c, 0, 69, 105
2, 18412, Pitch_bend_c, 0, 9557
2, 18417, Pitch_bend_c, 0, 9557
2, 18422, Pitch_bend_c, 0, 9557
2, 18428, Pitch_bend_c, 0, 9557
2, 18433, Pitch_bend_c, 0, 9557
2, 18438, Pitch_bend_c, 0, 9557
2, 18443, Pitch_bend_c, 0, 9557
2, 18448, Pitch_bend_c, 0, 9557
2, 18453, Pitch_bend_c, 0, 9557
2, 18458, Pitch_bend_c, 0, 9557
2, 18463, Pitch_bend_c, 0, 9557
2, 18468, Pitch_bend_c, 0, 9557
2, 18473, Pitch_bend_c, 0, 9557
2, 18479, Pitch_bend_c, 0, 9557
2, 18484, Pitch_bend_c, 0, 9557
2, 18489, Pitch_bend_c, 0, 9557
2, 18494, Pitch_bend_c, 0, 9557
2, 18499, Pitch_bend_c, 0, 9557
2, 18504, Pitch_bend_c, 0, 9557
2, 18509, Pitch_bend_c, 0, 9557
2, 18514, Pitch_bend_c, 0, 9557
2, 18519, Pitch_bend_c, 0, 9557
2, 18524, Pitch_bend_c, 0, 9557
2, 18530, Pitch_bend_c, 0, 9557
2, 18535, Pitch_bend_c, 0, 9557
2, 18540, Pitch_bend_c, 0, 9557
2, 18545, Pitch_bend_c, 0, 9557
2, 18550, Pitch_bend_c, 0, 9557
2, 18555, Pitch_bend_c, 0, 9557
2, 18560, Pitch_bend_c, 0, 9557
2, 18565, Pitch_bend_c, 0, 9557
2, 18570, Pitch_bend_c, 0, 9557
2, 18575, Pitch_bend_c, 0, 9557
2, 18580, Pitch_bend_c, 0, 9557
2, 18586, Pitch_bend_c, 0, 9557
2, 18591, Pitch_bend_c, 0, 9557
2, 18596, Pitch_bend_c, 0, 9557
2, 18601, Pitch_bend_c, 0, 9557
2, 18606, Pitch_bend_c, 0, 9557
2, 18611, Pitch_bend_c, 0, 9557
2, 18616, Pitch_bend_c, 0, 9557
2, 18621, Pitch_bend_c, 0, 9557
2, 18626, Pitch_bend_c, 0, 9557
2, 18631, Pitch_bend_c, 0, 9557
2, 18637, Pitch_bend_c, 0, 9557
2, 18642, Pitch_bend_c, 0, 9557
2, 18647, Pitch_bend_c, 0, 9557
2, 18652, Pitch_bend_c, 0, 9557
2, 18657, Pitch_bend_c, 0, 9557
2, 18662, Pitch_bend_c, 0, 9557
2, 18667, Pitch_bend_c, 0, 9557
2, 18672, Pitch_bend_c, 0, 9557
2, 18677, Pitch_bend_c, 0, 9557
2, 18682, Pitch_bend_c, 0, 9557
2, 18688, Pitch_bend_c, 0, 9557
2, 18693, Pitch_bend_c, 0, 9557
2, 18698, Pitch_bend_c, 0, 9557
2, 18703, Pitch_bend_c, 0, 9557
2, 18708, Pitch_bend_c, 0, 9557
2, 18713, Pitch_bend_c, 0, 9557
2, 18718, Pitch_bend_c, 0, 9557
2, 18723, Pitch_bend_c, 0, 9557
2, 18728, Pitch_bend_c, 0, 9557
2, 18733, Pitch_bend_c, 0, 9557
2, 18739, Pitch_bend_c, 0, 9557
2, 18744, Pitch_bend_c, 0, 9557
2, 18749, Pitch_bend_c, 0, 9557
2, 18754, Pitch_bend_c, 0, 9557
2, 18759, Pitch_bend_c, 0, 9557
2, 18764, Pitch_bend_c, 0, 9557
2, 18769, Pitch_bend_c, 0, 9557
2, 18774, Pitch_bend_c, 0, 9557
2, 18779, Pitch_bend_c, 0, 9557
2, 18784, Pitch_bend_c, 0, 9557
2, 18789, Pitch_bend_c, 0, 9557
2, 18795, Pitch_bend_c, 0, 9557
2, 18800, Pitch_bend_c, 0, 9557
2, 18805, Pitch_bend_c, 0, 9557
2, 18810, Pitch_bend_c, 0, 9557
2, 18815, Pitch_bend_c, 0, 9557
2, 18820, Pitch_bend_c, 0, 9557
2, 18825, Pitch_bend_c, 0, 9557
2, 18830, Pitch_bend_c, 0, 9557
2, 18835, Pitch_bend_c, 0, 9557
2, 18840, Pitch_bend_c, 0, 9557
2, 18846, Pitch_bend_c, 0, 9557
2, 18851, Pitch_bend_c, 0, 9557
2, 18856, Pitch_bend_c, 0, 9557
2, 18861, Pitch_bend_c, 0, 9557
2, 18866, Pitch_bend_c, 0, 9557
2, 18871, Pitch_bend_c, 0, 9557
2, 18876, Pitch_bend_c, 0, 9557
2, 18881, Pitch_bend_c, 0, 9557
2, 18886, Pitch_bend_c, 0, 9557
2, 18891, Pitch_bend_c, 0, 9557
2, 18897, Pitch_bend_c, 0, 9557
2, 18902, Pitch_bend_c, 0, 9557
2, 18907, Pitch_bend_c, 0, 9557
2, 18912, Pitch_bend_c, 0, 9557
2, 18917, Pitch_bend_c, 0, 9557
2, 18922, Pitch_bend_c, 0, 9557
2, 18927, Pitch_bend_c, 0, 9557
2, 18932, Pitch_bend_c, 0, 9557
2, 18937, Pitch_bend_c, 0, 9557
2, 18942, Pitch_bend_c, 0, 9557
2, 18947, Pitch_bend_c, 0, 9557
2, 18953, Pitch_bend_c, 0, 9557
2, 18958, Pitch_bend_c, 0, 9557
2, 18963, Pitch_bend_c, 0, 9557
2, 18968, Pitch_bend_c, 0, 9557
2, 18973, Pitch_bend_c, 0, 9557
2, 18978, Pitch_bend_c, 0, 9557
2, 18983, Pitch_bend_c, 0, 9557
2, 18988, Pitch_bend_c, 0, 9557
2, 18993, Pitch_bend_c, 0, 9557
2, 18998, Pitch_bend_c, 0, 9557
2, 19004, Pitch_bend_c, 0, 9557
2, 19009, Pitch_bend_c, 0, 9557
2, 19014, Pitch_bend_c, 0, 9557
2, 19019, Pitch_bend_c, 0, 9557
2, 19024, Pitch_bend_c, 0, 9557
2, 19029, Pitch_bend_c, 0, 9557
2, 19034, Pitch_bend_c, 0, 9557
2, 19039, Pitch_bend_c, 0, 9557
2, 19044, Pitch_bend_c, 0, 9557
2, 19049, Pitch_bend_c, 0, 9557
2, 19055, Pitch_bend_c, 0, 9557
2, 19060, Pitch_bend_c, 0, 9557
2, 19065, Pitch_bend_c, 0, 9557
2, 19070, Pitch_bend_c, 0, 9557
2, 19075, Pitch_bend_c, 0, 9557
2, 19080, Pitch_bend_c, 0, 9557
2, 19085, Pitch_bend_c, 0, 9557
2, 19090, Pitch_bend_c, 0, 9557
2, 19095, Pitch_bend_c, 0, 9557
2, 19100, Pitch_bend_c, 0, 9557
2, 19106, Pitch_bend_c, 0, 9557
2, 19111, Pitch_bend_c, 0, 9557
2, 19116, Pitch_bend_c, 0, 9557
2, 19121, Pitch_bend_c, 0, 9557
2, 19126, Pitch_bend_c, 0, 9557
2, 19131, Pitch_bend_c, 0, 9557
2, 19136, Pitch_bend_c, 0, 9557
2, 19141, Pitch_bend_c, 0, 9557
2, 19146, Pitch_bend_c, 0, 9557
2, 19151, Pitch_bend_c, 0, 9557
2, 19156, Pitch_bend_c, 0, 9557
2, 19162, Pitch_bend_c, 0, 9557
2, 19167, Pitch_bend_c, 0, 9557
2, 19172, Pitch_bend_c, 0, 9557
2, 19177, Pitch_bend_c, 0, 9557
2, 19182, Pitch_bend_c, 0, 9557
2, 19187, Pitch_bend_c, 0, 9557
2, 19192, Pitch_bend_c, 0, 9557
2, 19197, Pitch_bend_c, 0, 9557
2, 19202, Pitch_bend_c, 0, 9557
2, 19207, Pitch_bend_c, 0, 9557
2, 19213, Pitch_bend_c, 0, 9557
2, 19218, Pitch_bend_c, 0, 9557
2, 19223, Pitch_bend_c, 0, 9557
2, 19228, Pitch_bend_c, 0, 9557
2, 19233, Pitch_bend_c, 0, 9557
2, 19238, Pitch_bend_c, 0, 9557
2, 19243, Pitch_bend_c, 0, 9557
2, 19248, Pitch_bend_c, 0, 9557
2, 19253, Pitch_bend_c, 0, 9557
2, 19258, Pitch_bend_c, 0, 9557
2, 19264, Pitch_bend_c, 0, 9557
2, 19269, Pitch_bend_c, 0, 9557
2, 19274, Pitch_bend_c, 0, 9557
2, 19279, Pitch_bend_c, 0, 9557
2, 19284, Pitch_bend_c, 0, 9557
2, 19289, Pitch_bend_c, 0, 9557
2, 19294, Pitch_bend_c, 0, 9557
2, 19299, Pitch_bend_c, 0, 9557
2, 19304, Pitch_bend_c, 0, 9557
2, 19309, Pitch_bend_c, 0, 9557
2, 19315, Pitch_bend_c, 0, 9557
2, 19320, Pitch_bend_c, 0, 9557
2, 19325, Pitch_bend_c, 0, 9557
2, 19330, Pitch_bend_c, 0, 9557
2, 19335, Pitch_bend_c, 0, 9557
2, 19340, Pitch_bend_c, 0, 9557
2, 19345, Pitch_bend_c, 0, 9557
2, 19350, Pitch_bend_c, 0, 9557
2, 19355, Pitch_bend_c, 0, 9557
2, 19360, Pitch_bend_c, 0, 9557
2, 19365, Pitch_bend_c, 0, 9557
2, 19371, Pitch_bend_c, 0, 9557
2, 19376, Pitch_bend_c, 0, 9557
2, 19381, Pitch_bend_c, 0, 9557
2, 19386, Pitch_bend_c, 0, 9557
2, 19391, Pitch_bend_c, 0, 9557
2, 19396, Pitch_bend_c, 0, 9557
2, 19401, Pitch_bend_c, 0, 9557
2, 19406, Pitch_bend_c, 0, 9557
2, 19411, Pitch_bend_c, 0, 9557
2, 19416, Pitch_bend_c, 0, 9557
2, 19422, Pitch_bend_c, 0, 9557
2, 19427, Pitch_bend_c, 0, 9557
2, 19432, Pitch_bend_c, 0, 9557
2, 19437, Pitch_bend_c, 0, 9557
2, 19442, Pitch_bend_c, 0, 9557
2, 19447, Pitch_bend_c, 0, 9557
2, 19452, Pitch_bend_c, 0, 9557
2, 19457, Pitch_bend_c, 0, 9557
2, 19462, Pitch_bend_c, 0, 9557
2, 19467, Pitch_bend_c, 0, 9557
2, 19473, Pitch_bend_c, 0, 9557
2, 19478, Pitch_bend_c, 0, 9557
2, 19483, Pitch_bend_c, 0, 9557
2, 19488, Pitch_bend_c, 0, 9557
2, 19493, Pitch_bend_c, 0, 9557
2, 19498, Pitch_bend_c, 0, 9557
2, 19503, Pitch_bend_c, 0, 9557
2, 19508, Pitch_bend_c, 0, 9557
2, 19513, Pitch_bend_c, 0, 9557
2, 19518, Pitch_bend_c, 0, 9557
2, 19523, Pitch_bend_c, 0, 9557
2, 19529, Pitch_bend_c, 0, 9557
2, 19534, Pitch_bend_c, 0, 9557
2, 19539, Pitch_bend_c, 0, 9557
2, 19544, Pitch_bend_c, 0, 9557
2, 19549, Pitch_bend_c, 0, 9557
2, 19554, Pitch_bend_c, 0, 9557
2, 19559, Pitch_bend_c, 0, 9557
2, 19564, Pitch_bend_c, 0, 9557
2, 19569, Pitch_bend_c, 0, 9557
2, 19574, Pitch_bend_c, 0, 9557
2, 19580, Pitch_bend_c, 0, 9557
2, 19585, Pitch_bend_c, 0, 9557
2, 19590, Pitch_bend_c, 0, 9557
2, 19595, Pitch_bend_c, 0, 9557
2, 19600, Pitch_bend_c, 0, 9557
2, 19605, Pitch_bend_c, 0, 9557
2, 19610, Pitch_bend_c, 0, 9557
2, 19615, Pitch_bend_c, 0, 9557
2, 19620, Pitch_bend_c, 0, 9557
2, 19625, Pitch_bend_c, 0, 9557
2, 19631, Pitch_bend_c, 0, 9557
2, 19636, Pitch_bend_c, 0, 9557
2, 19641, Pitch_bend_c, 0, 9557
2, 19646, Pitch_bend_c, 0, 9557
2, 19651, Pitch_bend_c, 0, 9557
2, 19656, Pitch_bend_c, 0, 9557
2, 19661, Pitch_bend_c, 0, 9557
2, 19666, Pitch_bend_c, 0, 9557
2, 19671, Pitch_bend_c, 0, 9557
2, 19676, Pitch_bend_c, 0, 9557
2, 19682, Pitch_bend_c, 0, 9557
2, 19687, Pitch_bend_c, 0, 9557
2, 19692, Pitch_bend_c, 0, 9557
2, 19697, Pitch_bend_c, 0, 9557
2, 19702, Pitch_bend_c, 0, 9557
2, 19707, Pitch_bend_c, 0, 9557
2, 19712, Pitch_bend_c, 0, 9557
2, 19717, Pitch_bend_c, 0, 9557
2, 19722, Pitch_bend_c, 0, 9557
2, 19727, Pitch_bend_c, 0, 9557
2, 19732, Pitch_bend_c, 0, 9557
2, 19738, Pitch_bend_c, 0, 9557
2, 19743, Pitch_bend_c, 0, 9557
2, 19748, Pitch_bend_c, 0, 9557
2, 19753, Pitch_bend_c, 0, 9557
2, 19758, Pitch_bend_c, 0, 9557
2, 19763, Pitch_bend_c, 0, 9557
2, 19768, Pitch_bend_c, 0, 9557
2, 19773, Pitch_bend_c, 0, 9557
2, 19778, Pitch_bend_c, 0, 9557
2, 19783, Pitch_bend_c, 0, 9557
2, 19789, Pitch_bend_c, 0, 9557
2, 19794, Pitch_bend_c, 0, 9557
2, 19799, Pitch_bend_c, 0, 9557
2, 19804, Pitch_bend_c, 0, 9557
2, 19809, Pitch_bend_c, 0, 9557
2, 19814, Pitch_bend_c, 0, 9557
2, 19819, Pitch_bend_c, 0, 9557
2, 19824, Pitch_bend_c, 0, 9557
2, 19829, Pitch_bend_c, 0, 9557
2, 19834, Pitch_bend_c, 0, 9557
2, 19840, Pitch_bend_c, 0, 9557
2, 19845, Pitch_bend_c, 0, 9557
2, 19850, Pitch_bend_c, 0, 9557
2, 19855, Pitch_bend_c, 0, 9557
2, 19860, Pitch_bend_c, 0, 9557
2, 19865, Pitch_bend_c, 0, 9557
2, 19870, Pitch_bend_c, 0, 9557
2, 19875, Pitch_bend_c, 0, 9557
2, 19880, Pitch_bend_c, 0, 9557
2, 19885, Pitch_bend_c, 0, 9557
2, 19891, Pitch_bend_c, 0, 9557
2, 19896, Pitch_bend_c, 0, 9557
2, 19901, Pitch_bend_c, 0, 9557
2, 19906, Pitch_bend_c, 0, 9557
2, 19911, Pitch_bend_c, 0, 9557
2, 19916, Pitch_bend_c, 0, 9557
2, 19921, Pitch_bend_c, 0, 9557
2, 19926, Pitch_bend_c, 0, 9557
2, 19931, Pitch_bend_c, 0, 9557
2, 19936, Pitch_bend_c, 0, 9557
2, 19941, Pitch_bend_c, 0, 9557
2, 19947, Pitch_bend_c, 0, 9557
2, 19952, Pitch_bend_c, 0, 9557
2, 19957, Pitch_bend_c, 0, 9557
2, 19962, Pitch_bend_c, 0, 9557
2, 19967, Pitch_bend_c, 0, 9557
2, 19972, Pitch_bend_c, 0, 9557
2, 19977, Pitch_bend_c, 0, 9557
2, 19982, Pitch_bend_c, 0, 9557
2, 19987, Pitch_bend_c, 0, 9557
2, 19992, Pitch_bend_c, 0, 9557
2, 19998, Pitch_bend_c, 0, 9557
2, 20003, Pitch_bend_c, 0, 9557
2, 20008, Pitch_bend_c, 0, 9557
2, 20013, Pitch_bend_c, 0, 9557
2, 20018, Pitch_bend_c, 0, 9557
2, 20023, Pitch_bend_c, 0, 9557
2, 20028, Pitch_bend_c, 0, 9557
2, 20033, Pitch_bend_c, 0, 9557
2, 20038, Pitch_bend_c, 0, 9557
2, 20043, Pitch_bend_c, 0, 9557
2, 20049, Pitch_bend_c, 0, 9557
2, 20054, Pitch_bend_c, 0, 9557
2, 20059, Pitch_bend_c, 0, 9557
2, 20064, Pitch_bend_c, 0, 9557
2, 20069, Pitch_bend_c, 0, 9557
2, 20074, Pitch_bend_c, 0, 9557
2, 20079, Pitch_bend_c, 0, 9557
2, 20084, Pitch_bend_c, 0, 9557
2, 20089, Pitch_bend_c, 0, 9557
2, 20094, Pitch_bend_c, 0, 9557
2, 20100, Pitch_bend_c, 0, 9557
2, 20105, Pitch_bend_c, 0, 9557
2, 20110, Pitch_bend_c, 0, 9557
2, 20115, Pitch_bend_c, 0, 9557
2, 20120, Pitch_bend_c, 0, 10923
2, 20125, Pitch_bend_c, 0, 10923
2, 20130, Pitch_bend_c, 0, 10923
2, 20135, Pitch_bend_c, 0, 10923
2, 20140, Pitch_bend_c, 0, 9557
2, 20145, Pitch_bend_c, 0, 8192
2, 20150, Pitch_bend_c, 0, 8192
2, 20156, Pitch_bend_c, 0, 8192
2, 20161, Pitch_bend_c, 0, 8192
2, 20166, Pitch_bend_c, 0, 8192
2, 20171, Pitch_bend_c, 0, 9557
2, 20176, Pitch_bend_c, 0, 9557
2, 20181, Pitch_bend_c, 0, 9557
2, 20186, Pitch_bend_c, 0, 9557
2, 20191, Pitch_bend_c, 0, 9557
2, 20196, Pitch_bend_c, 0, 9557
2, 20201, Pitch_bend_c, 0, 9557
2, 20207, Pitch_bend_c, 0, 9557
2, 20212, Pitch_bend_c, 0, 9557
2, 20217, Pitch_bend_c, 0, 9557
2, 20222, Pitch_bend_c, 0, 9557
2, 20227, Pitch_bend_c, 0, 8192
2, 20232, Pitch_bend_c, 0, 8192
2, 20237, Pitch_bend_c, 0, 9557
2, 20242, Pitch_bend_c, 0, 9557
2, 20247, Pitch_bend_c, 0, 9557
2, 20247, Note_on_c, 0, 69, 0
2, 20288, Note_on_c, 0, 72, 74
2, 20298, Note_on_c, 0, 84, 45
2, 20370, Note_on_c, 0, 84, 0
2, 20385, Note_on_c, 0, 72, 0
2, 20416, Note_on_c, 0, 86, 76
2, 20426, Note_on_c, 0, 74, 69
2, 21597, Note_on_c, 0, 86, 0
2, 21637, Note_on_c, 0, 74, 0
2, 22174, Pitch_bend_c, 0, 10923
2, 22174, Note_on_c, 0, 72, 75
2, 22180, Pitch_bend_c, 0, 10923
2, 22185, Pitch_bend_c, 0, 10923
2, 22191, Pitch_bend_c, 0, 10923
2, 22196, Pitch_bend_c, 0, 10923
2, 22201, Pitch_bend_c, 0, 9557
2, 22207, Pitch_bend_c, 0, 9557
2, 22212, Pitch_bend_c, 0, 9557
2, 22218, Pitch_bend_c, 0, 9557
2, 22223, Pitch_bend_c, 0, 9557
2, 22228, Pitch_bend_c, 0, 9557
2, 22234, Pitch_bend_c, 0, 9557
2, 22239, Pitch_bend_c, 0, 9557
2, 22245, Pitch_bend_c, 0, 9557
2, 22250, Pitch_bend_c, 0, 9557
2, 22255, Pitch_bend_c, 0, 9557
2, 22261, Pitch_bend_c, 0, 9557
2, 22266, Pitch_bend_c, 0, 9557
2, 22266, Note_on_c, 0, 72, 0
2, 22287, Pitch_bend_c, 0, 8192
2, 22287, Note_on_c, 0, 74, 76
2, 22292, Pitch_bend_c, 0, 8192
2, 22297, Pitch_bend_c, 0, 8192
2, 22302, Pitch_bend_c, 0, 8192
2, 22308, Pitch_bend_c, 0, 8192
2, 22313, Pitch_bend_c, 0, 8192
2, 22318, Pitch_bend_c, 0, 9557
2, 22323, Pitch_bend_c, 0, 9557
2, 22329, Pitch_bend_c, 0, 10923
2, 22334, Pitch_bend_c, 0, 10923
2, 22339, Pitch_bend_c, 0, 10923
2, 22344, Pitch_bend_c, 0, 10923
2, 22350, Pitch_bend_c, 0, 8192
2, 22355, Pitch_bend_c, 0, 8192
2, 22360, Pitch_bend_c, 0, 8192
2, 22365, Pitch_bend_c, 0, 8192
2, 22371, Pitch_bend_c, 0, 9557
2, 22376, Pitch_bend_c, 0, 8192
2, 22381, Pitch_bend_c, 0, 10923
2, 22386, Pitch_bend_c, 0, 10923
2, 22392, Pitch_bend_c, 0, 10923
2, 22397, Pitch_bend_c, 0, 10923
2, 22402, Pitch_bend_c, 0, 10923
2, 22407, Pitch_bend_c, 0, 8192
2, 22413, Pitch_bend_c, 0, 8192
2, 22418, Pitch_bend_c, 0, 8192
2, 22423, Pitch_bend_c, 0, 8192
2, 22428, Pitch_bend_c, 0, 8192
2, 22434, Pitch_bend_c, 0, 9557
2, 22439, Pitch_bend_c, 0, 10923
2, 22444, Pitch_bend_c, 0, 10923
2, 22449, Pitch_bend_c, 0, 10923
2, 22455, Pitch_bend_c, 0, 9557
2, 22460, Pitch_bend_c, 0, 9557
2, 22465, Pitch_bend_c, 0, 8192
2, 22470, Pitch_bend_c, 0, 8192
2, 22476, Pitch_bend_c, 0, 8192
2, 22476, Note_on_c, 0, 74, 0
2, 22639, Note_on_c, 0, 74, 58
2, 22644, Note_on_c, 0, 86, 60
2, 22870, Note_on_c, 0, 86, 0
2, 22905, Note_on_c, 0, 74, 0
2, 23411, Pitch_bend_c, 0, 6827
2, 23411, Note_on_c, 0, 77, 88
2, 23416, Pitch_bend_c, 0, 6827
2, 23421, Pitch_bend_c, 0, 8192
2, 23426, Pitch_bend_c, 0, 8192
2, 23432, Pitch_bend_c, 0, 8192
2, 23437, Pitch_bend_c, 0, 9557
2, 23442, Pitch_bend_c, 0, 9557
2, 23447, Pitch_bend_c, 0, 9557
2, 23452, Pitch_bend_c, 0, 9557
2, 23457, Pitch_bend_c, 0, 9557
2, 23462, Pitch_bend_c, 0, 9557
2, 23467, Pitch_bend_c, 0, 9557
2, 23472, Pitch_bend_c, 0, 9557
2, 23478, Pitch_bend_c, 0, 9557
2, 23483, Pitch_bend_c, 0, 9557
2, 23488, Pitch_bend_c, 0, 9557
2, 23493, Pitch_bend_c, 0, 9557
2, 23498, Pitch_bend_c, 0, 9557
2, 23503, Pitch_bend_c, 0, 9557
2, 23508, Pitch_bend_c, 0, 9557
2, 23513, Pitch_bend_c, 0, 9557
2, 23519, Pitch_bend_c, 0, 9557
2, 23524, Pitch_bend_c, 0, 9557
2, 23529, Pitch_bend_c, 0, 9557
2, 23534, Pitch_bend_c, 0, 9557
2, 23539, Pitch_bend_c, 0, 9557
2, 23544, Pitch_bend_c, 0, 9557
2, 23549, Pitch_bend_c, 0, 9557
2, 23554, Pitch_bend_c, 0, 9557
2, 23559, Pitch_bend_c, 0, 9557
2, 23565, Pitch_bend_c, 0, 9557
2, 23570, Pitch_bend_c, 0, 9557
2, 23575, Pitch_bend_c, 0, 9557
2, 23580, Pitch_bend_c, 0, 9557
2, 23585, Pitch_bend_c, 0, 9557
2, 23590, Pitch_bend_c, 0, 9557
2, 23595, Pitch_bend_c, 0, 9557
2, 23600, Pitch_bend_c, 0, 9557
2, 23605, Pitch_bend_c, 0, 9557
2, 23611, Pitch_bend_c, 0, 9557
2, 23616, Pitch_bend_c, 0, 9557
2, 23621, Pitch_bend_c, 0, 9557
2, 23626, Pitch_bend_c, 0, 9557
2, 23631, Pitch_bend_c, 0, 9557
2, 23636, Pitch_bend_c, 0, 9557
2, 23641, Pitch_bend_c, 0, 9557
2, 23646, Pitch_bend_c, 0, 9557
2, 23652, Pitch_bend_c, 0, 9557
2, 23657, Pitch_bend_c, 0, 9557
2, 23662, Pitch_bend_c, 0, 9557
2, 23667, Pitch_bend_c, 0, 9557
2, 23672, Pitch_bend_c, 0, 9557
2, 23677, Pitch_bend_c, 0, 9557
2, 23682, Pitch_bend_c, 0, 9557
2, 23687, Pitch_bend_c, 0, 9557
2, 23692, Pitch_bend_c, 0, 9557
2, 23698, Pitch_bend_c, 0, 9557
2, 23703, Pitch_bend_c, 0, 9557
2, 23708, Pitch_bend_c, 0, 9557
2, 23713, Pitch_bend_c, 0, 9557
2, 23718, Pitch_bend_c, 0, 9557
2, 23723, Pitch_bend_c, 0, 9557
2, 23728, Pitch_bend_c, 0, 9557
2, 23733, Pitch_bend_c, 0, 9557
2, 23738, Pitch_bend_c, 0, 9557
2, 23744, Pitch_bend_c, 0, 9557
2, 23749, Pitch_bend_c, 0, 9557
2, 23754, Pitch_bend_c, 0, 9557
2, 23759, Pitch_bend_c, 0, 9557
2, 23764, Pitch_bend_c, 0, 9557
2, 23769, Pitch_bend_c, 0, 9557
2, 23774, Pitch_bend_c, 0, 9557
2, 23779, Pitch_bend_c, 0, 9557
2, 23785, Pitch_bend_c, 0, 9557
2, 23790, Pitch_bend_c, 0, 9557
2, 23795, Pitch_bend_c, 0, 9557
2, 23800, Pitch_bend_c, 0, 9557
2, 23805, Pitch_bend_c, 0, 8192
2, 23810, Pitch_bend_c, 0, 8192
2, 23815, Pitch_bend_c, 0, 8192
2, 23820, Pitch_bend_c, 0, 8192
2, 23825, Pitch_bend_c, 0, 8192
2, 23831, Pitch_bend_c, 0, 6827
2, 23836, Pitch_bend_c, 0, 6827
2, 23841, Pitch_bend_c, 0, 6827
2, 23841, Note_on_c, 0, 77, 0
2, 23846, Pitch_bend_c, 0, 10923
2, 23846, Note_on_c, 0, 76, 72
2, 23851, Pitch_bend_c, 0, 10923
2, 23857, Pitch_bend_c, 0, 9557
2, 23862, Pitch_bend_c, 0, 9557
2, 23868, Pitch_bend_c, 0, 9557
2, 23874, Pitch_bend_c, 0, 9557
2, 23879, Pitch_bend_c, 0, 9557
2, 23885, Pitch_bend_c, 0, 9557
2, 23890, Pitch_bend_c, 0, 9557
2, 23896, Pitch_bend_c, 0, 9557
2, 23901, Pitch_bend_c, 0, 9557
2, 23907, Pitch_bend_c, 0, 9557
2, 23912, Pitch_bend_c, 0, 9557
2, 23912, Pitch_bend_c, 0, 10923
2, 23912, Note_on_c, 0, 76, 0
2, 23912, Note_on_c, 0, 76, 97
2, 23918, Pitch_bend_c, 0, 10923
2, 23923, Pitch_bend_c, 0, 10923
2, 23928, Pitch_bend_c, 0, 10923
2, 23934, Pitch_bend_c, 0, 9557
2, 23939, Pitch_bend_c, 0, 9557
2, 23944, Pitch_bend_c, 0, 8192
2, 23950, Pitch_bend_c, 0, 8192
2, 23955, Pitch_bend_c, 0, 8192
2, 23961, Pitch_bend_c, 0, 8192
2, 23966, Pitch_bend_c, 0, 8192
2, 23971, Pitch_bend_c, 0, 8192
2, 23977, Pitch_bend_c, 0, 8192
2, 23982, Pitch_bend_c, 0, 9557
2, 23987, Pitch_bend_c, 0, 9557
2, 23993, Pitch_bend_c, 0, 9557
2, 23998, Pitch_bend_c, 0, 9557
2, 24003, Pitch_bend_c, 0, 9557
2, 24009, Pitch_bend_c, 0, 9557
2, 24014, Pitch_bend_c, 0, 9557
2, 24020, Pitch_bend_c, 0, 9557
2, 24020, Pitch_bend_c, 0, 9557
2, 24020, Note_on_c, 0, 76, 0
2, 24020, Note_on_c, 0, 76, 94
2, 24025, Pitch_bend_c, 0, 9557
2, 24030, Pitch_bend_c, 0, 9557
2, 24035, Pitch_bend_c, 0, 9557
2, 24040, Pitch_bend_c, 0, 9557
2, 24045, Pitch_bend_c, 0, 9557
2, 24050, Pitch_bend_c, 0, 9557
2, 24055, Pitch_bend_c, 0, 9557
2, 24060, Pitch_bend_c, 0, 9557
2, 24066, Pitch_bend_c, 0, 9557
2, 24071, Pitch_bend_c, 0, 9557
2, 24076, Pitch_bend_c, 0, 9557
2, 24081, Pitch_bend_c, 0, 9557
2, 24086, Pitch_bend_c, 0, 9557
2, 24091, Pitch_bend_c, 0, 9557
2, 24096, Pitch_bend_c, 0, 9557
2, 24101, Pitch_bend_c, 0, 9557
2, 24106, Pitch_bend_c, 0, 9557
2, 24112, Pitch_bend_c, 0, 9557
2, 24117, Pitch_bend_c, 0, 9557
2, 24122, Pitch_bend_c, 0, 9557
2, 24127, Pitch_bend_c, 0, 9557
2, 24132, Pitch_bend_c, 0, 9557
2, 24137, Pitch_bend_c, 0, 9557
2, 24142, Pitch_bend_c, 0, 9557
2, 24147, Pitch_bend_c, 0, 9557
2, 24153, Pitch_bend_c, 0, 9557
2, 24158, Pitch_bend_c, 0, 9557
2, 24163, Pitch_bend_c, 0, 9557
2, 24168, Pitch_bend_c, 0, 9557
2, 24173, Pitch_bend_c, 0, 9557
2, 24178, Pitch_bend_c, 0, 9557
2, 24183, Pitch_bend_c, 0, 9557
2, 24188, Pitch_bend_c, 0, 8192
2, 24193, Pitch_bend_c, 0, 8192
2, 24199, Pitch_bend_c, 0, 9557
2, 24204, Pitch_bend_c, 0, 9557
2, 24209, Pitch_bend_c, 0, 10923
2, 24214, Pitch_bend_c, 0, 10923
2, 24219, Pitch_bend_c, 0, 10923
2, 24224, Pitch_bend_c, 0, 10923
2, 24229, Pitch_bend_c, 0, 10923
2, 24234, Pitch_bend_c, 0, 10923
2, 24239, Pitch_bend_c, 0, 10923
2, 24245, Pitch_bend_c, 0, 9557
2, 24250, Pitch_bend_c, 0, 9557
2, 24255, Pitch_bend_c, 0, 9557
2, 24260, Pitch_bend_c, 0, 9557
2, 24265, Pitch_bend_c, 0, 9557
2, 24270, Pitch_bend_c, 0, 9557
2, 24275, Pitch_bend_c, 0, 9557
2, 24280, Pitch_bend_c, 0, 10923
2, 24285, Pitch_bend_c, 0, 10923
2, 24291, Pitch_bend_c, 0, 10923
2, 24296, Pitch_bend_c, 0, 12288
2, 24301, Pitch_bend_c, 0, 10923
2, 24306, Pitch_bend_c, 0, 10923
2, 24311, Pitch_bend_c, 0, 10923
2, 24316, Pitch_bend_c, 0, 10923
2, 24321, Pitch_bend_c, 0, 8192
2, 24326, Pitch_bend_c, 0, 8192
2, 24331, Pitch_bend_c, 0, 6827
2, 24337, Pitch_bend_c, 0, 6827
2, 24342, Pitch_bend_c, 0, 6827
2, 24347, Pitch_bend_c, 0, 10923
2, 24352, Pitch_bend_c, 0, 10923
2, 24357, Pitch_bend_c, 0, 10923
2, 24362, Pitch_bend_c, 0, 10923
2, 24367, Pitch_bend_c, 0, 10923
2, 24372, Pitch_bend_c, 0, 10923
2, 24377, Pitch_bend_c, 0, 10923
2, 24383, Pitch_bend_c, 0, 9557
2, 24388, Pitch_bend_c, 0, 9557
2, 24393, Pitch_bend_c, 0, 9557
2, 24398, Pitch_bend_c, 0, 9557
2, 24403, Pitch_bend_c, 0, 9557
2, 24408, Pitch_bend_c, 0, 9557
2, 24413, Pitch_bend_c, 0, 9557
2, 24418, Pitch_bend_c, 0, 9557
2, 24423, Pitch_bend_c, 0, 9557
2, 24429, Pitch_bend_c, 0, 9557
2, 24434, Pitch_bend_c, 0, 9557
2, 24439, Pitch_bend_c, 0, 9557
2, 24444, Pitch_bend_c, 0, 9557
2, 24449, Pitch_bend_c, 0, 9557
2, 24454, Pitch_bend_c, 0, 9557
2, 24459, Pitch_bend_c, 0, 9557
2, 24464, Pitch_bend_c, 0, 9557
2, 24469, Pitch_bend_c, 0, 9557
2, 24475, Pitch_bend_c, 0, 9557
2, 24480, Pitch_bend_c, 0, 9557
2, 24485, Pitch_bend_c, 0, 10923
2, 24490, Pitch_bend_c, 0, 10923
2, 24495, Pitch_bend_c, 0, 10923
2, 24500, Pitch_bend_c, 0, 10923
2, 24505, Pitch_bend_c, 0, 10923
2, 24510, Pitch_bend_c, 0, 10923
2, 24515, Pitch_bend_c, 0, 9557
2, 24521, Pitch_bend_c, 0, 9557
2, 24526, Pitch_bend_c, 0, 9557
2, 24531, Pitch_bend_c, 0, 9557
2, 24536, Pitch_bend_c, 0, 9557
2, 24541, Pitch_bend_c, 0, 9557
2, 24546, Pitch_bend_c, 0, 9557
2, 24551, Pitch_bend_c, 0, 9557
2, 24556, Pitch_bend_c, 0, 9557
2, 24562, Pitch_bend_c, 0, 9557
2, 24567, Pitch_bend_c, 0, 9557
2, 24572, Pitch_bend_c, 0, 9557
2, 24577, Pitch_bend_c, 0, 9557
2, 24582, Pitch_bend_c, 0, 9557
2, 24587, Pitch_bend_c, 0, 9557
2, 24592, Pitch_bend_c, 0, 9557
2, 24597, Pitch_bend_c, 0, 9557
2, 24602, Pitch_bend_c, 0, 9557
2, 24608, Pitch_bend_c, 0, 9557
2, 24613, Pitch_bend_c, 0, 9557
2, 24618, Pitch_bend_c, 0, 9557
2, 24623, Pitch_bend_c, 0, 9557
2, 24628, Pitch_bend_c, 0, 9557
2, 24633, Pitch_bend_c, 0, 9557
2, 24638, Pitch_bend_c, 0, 9557
2, 24643, Pitch_bend_c, 0, 9557
2, 24648, Pitch_bend_c, 0, 9557
2, 24654, Pitch_bend_c, 0, 9557
2, 24659, Pitch_bend_c, 0, 9557
2, 24664, Pitch_bend_c, 0, 9557
2, 24669, Pitch_bend_c, 0, 9557
2, 24674, Pitch_bend_c, 0, 9557
2, 24679, Pitch_bend_c, 0, 9557
2, 24684, Pitch_bend_c, 0, 9557
2, 24689, Pitch_bend_c, 0, 9557
2, 24694, Pitch_bend_c, 0, 8192
2, 24700, Pitch_bend_c, 0, 8192
2, 24705, Pitch_bend_c, 0, 8192
2, 24710, Pitch_bend_c, 0, 8192
2, 24715, Pitch_bend_c, 0, 8192
2, 24720, Pitch_bend_c, 0, 5461
2, 24720, Note_on_c, 0, 76, 0
2, 24746, Pitch_bend_c, 0, 12288
2, 24746, Note_on_c, 0, 74, 76
2, 24751, Pitch_bend_c, 0, 10923
2, 24756, Pitch_bend_c, 0, 9557
2, 24762, Pitch_bend_c, 0, 9557
2, 24767, Pitch_bend_c, 0, 9557
2, 24772, Pitch_bend_c, 0, 9557
2, 24778, Pitch_bend_c, 0, 9557
2, 24783, Pitch_bend_c, 0, 8192
2, 24788, Pitch_bend_c, 0, 8192
2, 24794, Pitch_bend_c, 0, 8192
2, 24799, Pitch_bend_c, 0, 9557
2, 24804, Pitch_bend_c, 0, 9557
2, 24810, Pitch_bend_c, 0, 9557
2, 24815, Pitch_bend_c, 0, 9557
2, 24820, Pitch_bend_c, 0, 9557
2, 24826, Pitch_bend_c, 0, 9557
2, 24831, Pitch_bend_c, 0, 9557
2, 24837, Pitch_bend_c, 0, 9557
2, 24842, Pitch_bend_c, 0, 9557
2, 24847, Pitch_bend_c, 0, 9557
2, 24853, Pitch_bend_c, 0, 10923
2, 24858, Pitch_bend_c, 0, 9557
2, 24858, Note_on_c, 0, 74, 0
2, 25175, Pitch_bend_c, 0, 6827
2, 25175, Note_on_c, 0, 72, 82
2, 25180, Pitch_bend_c, 0, 9557
2, 25186, Pitch_bend_c, 0, 9557
2, 25191, Pitch_bend_c, 0, 9557
2, 25197, Pitch_bend_c, 0, 9557
2, 25203, Pitch_bend_c, 0, 9557
2, 25208, Pitch_bend_c, 0, 9557
2, 25214, Pitch_bend_c, 0, 6827
2, 25219, Pitch_bend_c, 0, 5461
2, 25225, Pitch_bend_c, 0, 5461
2, 25230, Pitch_bend_c, 0, 5461
2, 25236, Pitch_bend_c, 0, 5461
2, 25236, Pitch_bend_c, 0, 5461
2, 25236, Note_on_c, 0, 72, 0
2, 25236, Note_on_c, 0, 72, 87
2, 25241, Pitch_bend_c, 0, 9557
2, 25246, Pitch_bend_c, 0, 9557
2, 25251, Pitch_bend_c, 0, 9557
2, 25256, Pitch_bend_c, 0, 9557
2, 25262, Pitch_bend_c, 0, 9557
2, 25267, Pitch_bend_c, 0, 9557
2, 25272, Pitch_bend_c, 0, 9557
2, 25277, Pitch_bend_c, 0, 9557
2, 25282, Pitch_bend_c, 0, 9557
2, 25287, Pitch_bend_c, 0, 9557
2, 25292, Pitch_bend_c, 0, 9557
2, 25298, Pitch_bend_c, 0, 9557
2, 25303, Pitch_bend_c, 0, 9557
2, 25308, Pitch_bend_c, 0, 9557
2, 25313, Pitch_bend_c, 0, 9557
2, 25318, Pitch_bend_c, 0, 9557
2, 25323, Pitch_bend_c, 0, 9557
2, 25328, Pitch_bend_c, 0, 9557
2, 25333, Pitch_bend_c, 0, 8192
2, 25339, Pitch_bend_c, 0, 6827
2, 25344, Pitch_bend_c, 0, 6827
2, 25349, Pitch_bend_c, 0, 8192
2, 25354, Pitch_bend_c, 0, 5461
2, 25354, Pitch_bend_c, 0, 9557
2, 25354, Note_on_c, 0, 72, 0
2, 25354, Note_on_c, 0, 74, 78
2, 25359, Pitch_bend_c, 0, 9557
2, 25365, Pitch_bend_c, 0, 9557
2, 25370, Pitch_bend_c, 0, 9557
2, 25375, Pitch_bend_c, 0, 9557
2, 25380, Pitch_bend_c, 0, 8192
2, 25386, Pitch_bend_c, 0, 8192
2, 25391, Pitch_bend_c, 0, 8192
2, 25396, Pitch_bend_c, 0, 8192
2, 25401, Pitch_bend_c, 0, 9557
2, 25407, Pitch_bend_c, 0, 9557
2, 25412, Pitch_bend_c, 0, 10923
2, 25417, Pitch_bend_c, 0, 10923
2, 25422, Pitch_bend_c, 0, 10923
2, 25428, Pitch_bend_c, 0, 10923
2, 25433, Pitch_bend_c, 0, 9557
2, 25438, Pitch_bend_c, 0, 9557
2, 25443, Pitch_bend_c, 0, 8192
2, 25449, Pitch_bend_c, 0, 8192
2, 25454, Pitch_bend_c, 0, 8192
2, 25459, Pitch_bend_c, 0, 8192
2, 25464, Pitch_bend_c, 0, 8192
2, 25470, Pitch_bend_c, 0, 9557
2, 25475, Pitch_bend_c, 0, 10923
2, 25480, Pitch_bend_c, 0, 10923
2, 25485, Pitch_bend_c, 0, 10923
2, 25491, Pitch_bend_c, 0, 10923
2, 25496, Pitch_bend_c, 0, 9557
2, 25501, Pitch_bend_c, 0, 8192
2, 25506, Pitch_bend_c, 0, 8192
2, 25512, Pitch_bend_c, 0, 8192
2, 25517, Pitch_bend_c, 0, 8192
2, 25522, Pitch_bend_c, 0, 9557
2, 25528, Pitch_bend_c, 0, 12288
2, 25533, Pitch_bend_c, 0, 12288
2, 25533, Note_on_c, 0, 74, 0
2, 25701, Note_on_c, 0, 74, 82
2, 25727, Note_on_c, 0, 86, 53
2, 25844, Note_on_c, 0, 86, 0
2, 25890, Note_on_c, 0, 74, 0
2, 26192, Pitch_bend_c, 0, 9557
2, 26192, Note_on_c, 0, 74, 57
2, 26197, Pitch_bend_c, 0, 9557
2, 26202, Pitch_bend_c, 0, 9557
2, 26207, Pitch_bend_c, 0, 9557
2, 26212, Pitch_bend_c, 0, 9557
2, 26217, Pitch_bend_c, 0, 9557
2, 26223, Pitch_bend_c, 0, 9557
2, 26228, Pitch_bend_c, 0, 9557
2, 26233, Pitch_bend_c, 0, 9557
2, 26238, Pitch_bend_c, 0, 9557
2, 26243, Pitch_bend_c, 0, 10923
2, 26248, Pitch_bend_c, 0, 12288
2, 26253, Pitch_bend_c, 0, 12288
2, 26258, Pitch_bend_c, 0, 9557
2, 26263, Pitch_bend_c, 0, 9557
2, 26269, Pitch_bend_c, 0, 9557
2, 26274, Pitch_bend_c, 0, 8192
2, 26279, Pitch_bend_c, 0, 9557
2, 26284, Pitch_bend_c, 0, 13653
2, 26289, Pitch_bend_c, 0, 13653
2, 26294, Pitch_bend_c, 0, 9557
2, 26299, Pitch_bend_c, 0, 9557
2, 26304, Pitch_bend_c, 0, 9557
2, 26310, Pitch_bend_c, 0, 9557
2, 26315, Pitch_bend_c, 0, 9557
2, 26320, Pitch_bend_c, 0, 9557
2, 26325, Pitch_bend_c, 0, 9557
2, 26330, Pitch_bend_c, 0, 9557
2, 26335, Pitch_bend_c, 0, 9557
2, 26340, Pitch_bend_c, 0, 10923
2, 26345, Pitch_bend_c, 0, 9557
2, 26351, Pitch_bend_c, 0, 9557
2, 26356, Pitch_bend_c, 0, 9557
2, 26361, Pitch_bend_c, 0, 9557
2, 26366, Pitch_bend_c, 0, 9557
2, 26371, Pitch_bend_c, 0, 9557
2, 26376, Pitch_bend_c, 0, 9557
2, 26381, Pitch_bend_c, 0, 9557
2, 26386, Pitch_bend_c, 0, 9557
2, 26392, Pitch_bend_c, 0, 9557
2, 26392, Note_on_c, 0, 74, 0
2, 26458, Note_on_c, 0, 77, 87
2, 26504, Note_on_c, 0, 74, 57
2, 26739, Note_on_c, 0, 74, 0
2, 26836, Note_on_c, 0, 77, 0
2, 26908, Pitch_bend_c, 0, 9557
2, 26908, Note_on_c, 0, 76, 36
2, 26913, Pitch_bend_c, 0, 9557
2, 26918, Pitch_bend_c, 0, 9557
2, 26924, Pitch_bend_c, 0, 9557
2, 26929, Pitch_bend_c, 0, 9557
2, 26935, Pitch_bend_c, 0, 8192
2, 26940, Pitch_bend_c, 0, 8192
2, 26946, Pitch_bend_c, 0, 8192
2, 26951, Pitch_bend_c, 0, 8192
2, 26957, Pitch_bend_c, 0, 8192
2, 26962, Pitch_bend_c, 0, 6827
2, 26968, Pitch_bend_c, 0, 10923
2, 26973, Pitch_bend_c, 0, 10923
2, 26979, Pitch_bend_c, 0, 13653
2, 26984, Pitch_bend_c, 0, 13653
2, 26984, Note_on_c, 0, 76, 0
2, 26989, Pitch_bend_c, 0, 10923
2, 26989, Note_on_c, 0, 76, 86
2, 26995, Pitch_bend_c, 0, 10923
2, 27000, Pitch_bend_c, 0, 9557
2, 27006, Pitch_bend_c, 0, 9557
2, 27011, Pitch_bend_c, 0, 9557
2, 27017, Pitch_bend_c, 0, 9557
2, 27022, Pitch_bend_c, 0, 9557
2, 27028, Pitch_bend_c, 0, 9557
2, 27033, Pitch_bend_c, 0, 9557
2, 27039, Pitch_bend_c, 0, 9557
2, 27044, Pitch_bend_c, 0, 9557
2, 27049, Pitch_bend_c, 0, 9557
2, 27055, Pitch_bend_c, 0, 9557
2, 27060, Pitch_bend_c, 0, 9557
2, 27066, Pitch_bend_c, 0, 9557
2, 27066, Note_on_c, 0, 76, 0
2, 27158, Pitch_bend_c, 0, 10923
2, 27158, Note_on_c, 0, 76, 85
2, 27164, Pitch_bend_c, 0, 9557
2, 27169, Pitch_bend_c, 0, 9557
2, 27174, Pitch_bend_c, 0, 9557
2, 27179, Pitch_bend_c, 0, 9557
2, 27184, Pitch_bend_c, 0, 9557
2, 27189, Pitch_bend_c, 0, 9557
2, 27194, Pitch_bend_c, 0, 9557
2, 27200, Pitch_bend_c, 0, 9557
2, 27205, Pitch_bend_c, 0, 9557
2, 27210, Pitch_bend_c, 0, 9557
2, 27215, Pitch_bend_c, 0, 9557
2, 27220, Pitch_bend_c, 0, 9557
2, 27225, Pitch_bend_c, 0, 9557
2, 27230, Pitch_bend_c, 0, 9557
2, 27236, Pitch_bend_c, 0, 9557
2, 27241, Pitch_bend_c, 0, 9557
2, 27246, Pitch_bend_c, 0, 9557
2, 27251, Pitch_bend_c, 0, 9557
2, 27256, Pitch_bend_c, 0, 9557
2, 27261, Pitch_bend_c, 0, 9557
2, 27266, Pitch_bend_c, 0, 9557
2, 27272, Pitch_bend_c, 0, 9557
2, 27277, Pitch_bend_c, 0, 9557
2, 27282, Pitch_bend_c, 0, 9557
2, 27287, Pitch_bend_c, 0, 9557
2, 27292, Pitch_bend_c, 0, 9557
2, 27297, Pitch_bend_c, 0, 9557
2, 27302, Pitch_bend_c, 0, 9557
2, 27308, Pitch_bend_c, 0, 9557
2, 27313, Pitch_bend_c, 0, 9557
2, 27318, Pitch_bend_c, 0, 9557
2, 27323, Pitch_bend_c, 0, 9557
2, 27328, Pitch_bend_c, 0, 9557
2, 27333, Pitch_bend_c, 0, 9557
2, 27339, Pitch_bend_c, 0, 9557
2, 27344, Pitch_bend_c, 0, 9557
2, 27349, Pitch_bend_c, 0, 9557
2, 27354, Pitch_bend_c, 0, 9557
2, 27359, Pitch_bend_c, 0, 9557
2, 27364, Pitch_bend_c, 0, 9557
2, 27369, Pitch_bend_c, 0, 9557
2, 27375, Pitch_bend_c, 0, 9557
2, 27380, Pitch_bend_c, 0, 9557
2, 27385, Pitch_bend_c, 0, 9557
2, 27390, Pitch_bend_c, 0, 9557
2, 27395, Pitch_bend_c, 0, 9557
2, 27400, Pitch_bend_c, 0, 8192
2, 27405, Pitch_bend_c, 0, 9557
2, 27411, Pitch_bend_c, 0, 9557
2, 27416, Pitch_bend_c, 0, 9557
2, 27421, Pitch_bend_c, 0, 9557
2, 27426, Pitch_bend_c, 0, 9557
2, 27431, Pitch_bend_c, 0, 10923
2, 27436, Pitch_bend_c, 0, 10923
2, 27441, Pitch_bend_c, 0, 10923
2, 27447, Pitch_bend_c, 0, 10923
2, 27452, Pitch_bend_c, 0, 10923
2, 27457, Pitch_bend_c, 0, 10923
2, 27462, Pitch_bend_c, 0, 10923
2, 27467, Pitch_bend_c, 0, 9557
2, 27472, Pitch_bend_c, 0, 9557
2, 27477, Pitch_bend_c, 0, 9557
2, 27483, Pitch_bend_c, 0, 8192
2, 27488, Pitch_bend_c, 0, 8192
2, 27493, Pitch_bend_c, 0, 8192
2, 27498, Pitch_bend_c, 0, 9557
2, 27503, Pitch_bend_c, 0, 9557
2, 27508, Pitch_bend_c, 0, 9557
2, 27513, Pitch_bend_c, 0, 9557
2, 27519, Pitch_bend_c, 0, 10923
2, 27524, Pitch_bend_c, 0, 10923
2, 27529, Pitch_bend_c, 0, 10923
2, 27534, Pitch_bend_c, 0, 10923
2, 27539, Pitch_bend_c, 0, 10923
2, 27544, Pitch_bend_c, 0, 9557
2, 27550, Pitch_bend_c, 0, 9557
2, 27555, Pitch_bend_c, 0, 9557
2, 27560, Pitch_bend_c, 0, 9557
2, 27565, Pitch_bend_c, 0, 9557
2, 27570, Pitch_bend_c, 0, 9557
2, 27575, Pitch_bend_c, 0, 9557
2, 27580, Pitch_bend_c, 0, 9557
2, 27586, Pitch_bend_c, 0, 9557
2, 27591, Pitch_bend_c, 0, 9557
2, 27596, Pitch_bend_c, 0, 9557
2, 27601, Pitch_bend_c, 0, 9557
2, 27606, Pitch_bend_c, 0, 9557
2, 27611, Pitch_bend_c, 0, 8192
2, 27616, Pitch_bend_c, 0, 8192
2, 27622, Pitch_bend_c, 0, 9557
2, 27627, Pitch_bend_c, 0, 9557
2, 27632, Pitch_bend_c, 0, 9557
2, 27637, Pitch_bend_c, 0, 9557
2, 27642, Pitch_bend_c, 0, 9557
2, 27647, Pitch_bend_c, 0, 10923
2, 27652, Pitch_bend_c, 0, 10923
2, 27658, Pitch_bend_c, 0, 10923
2, 27663, Pitch_bend_c, 0, 9557
2, 27668, Pitch_bend_c, 0, 9557
2, 27673, Pitch_bend_c, 0, 9557
2, 27678, Pitch_bend_c, 0, 9557
2, 27683, Pitch_bend_c, 0, 9557
2, 27688, Pitch_bend_c, 0, 9557
2, 27694, Pitch_bend_c, 0, 9557
2, 27699, Pitch_bend_c, 0, 9557
2, 27704, Pitch_bend_c, 0, 9557
2, 27709, Pitch_bend_c, 0, 9557
2, 27714, Pitch_bend_c, 0, 9557
2, 27719, Pitch_bend_c, 0, 9557
2, 27724, Pitch_bend_c, 0, 9557
2, 27730, Pitch_bend_c, 0, 9557
2, 27735, Pitch_bend_c, 0, 9557
2, 27740, Pitch_bend_c, 0, 9557
2, 27745, Pitch_bend_c, 0, 9557
2, 27750, Pitch_bend_c, 0, 9557
2, 27755, Pitch_bend_c, 0, 9557
2, 27760, Pitch_bend_c, 0, 9557
2, 27766, Pitch_bend_c, 0, 9557
2, 27771, Pitch_bend_c, 0, 9557
2, 27776, Pitch_bend_c, 0, 9557
2, 27781, Pitch_bend_c, 0, 9557
2, 27786, Pitch_bend_c, 0, 9557
2, 27791, Pitch_bend_c, 0, 8192
2, 27797, Pitch_bend_c, 0, 8192
2, 27802, Pitch_bend_c, 0, 8192
2, 27807, Pitch_bend_c, 0, 8192
2, 27812, Pitch_bend_c, 0, 8192
2, 27817, Pitch_bend_c, 0, 8192
2, 27822, Pitch_bend_c, 0, 8192
2, 27827, Pitch_bend_c, 0, 8192
2, 27833, Pitch_bend_c, 0, 8192
2, 27838, Pitch_bend_c, 0, 8192
2, 27843, Pitch_bend_c, 0, 8192
2, 27848, Pitch_bend_c, 0, 6827
2, 27853, Pitch_bend_c, 0, 6827
2, 27853, Pitch_bend_c, 0, 10923
2, 27853, Note_on_c, 0, 75, 87
2, 27853, Note_on_c, 0, 76, 0
2, 27859, Pitch_bend_c, 0, 10923
2, 27864, Pitch_bend_c, 0, 10923
2, 27869, Pitch_bend_c, 0, 10923
2, 27875, Pitch_bend_c, 0, 9557
2, 27880, Pitch_bend_c, 0, 9557
2, 27886, Pitch_bend_c, 0, 9557
2, 27891, Pitch_bend_c, 0, 8192
2, 27896, Pitch_bend_c, 0, 8192
2, 27902, Pitch_bend_c, 0, 8192
2, 27907, Pitch_bend_c, 0, 8192
2, 27913, Pitch_bend_c, 0, 9557
2, 27918, Pitch_bend_c, 0, 9557
2, 27923, Pitch_bend_c, 0, 9557
2, 27929, Pitch_bend_c, 0, 9557
2, 27934, Pitch_bend_c, 0, 9557
2, 27940, Pitch_bend_c, 0, 9557
2, 27945, Pitch_bend_c, 0, 9557
2, 27945, Note_on_c, 0, 75, 0
2, 28002, Pitch_bend_c, 0, 8192
2, 28002, Note_on_c, 0, 76, 47
2, 28007, Pitch_bend_c, 0, 9557
2, 28012, Pitch_bend_c, 0, 9557
2, 28018, Pitch_bend_c, 0, 9557
2, 28023, Pitch_bend_c, 0, 9557
2, 28028, Pitch_bend_c, 0, 9557
2, 28033, Pitch_bend_c, 0, 9557
2, 28038, Pitch_bend_c, 0, 9557
2, 28044, Pitch_bend_c, 0, 9557
2, 28049, Pitch_bend_c, 0, 5461
2, 28054, Pitch_bend_c, 0, 5461
2, 28059, Pitch_bend_c, 0, 5461
2, 28065, Pitch_bend_c, 0, 5461
2, 28070, Pitch_bend_c, 0, 9557
2, 28075, Pitch_bend_c, 0, 9557
2, 28080, Pitch_bend_c, 0, 9557
2, 28086, Pitch_bend_c, 0, 9557
2, 28091, Pitch_bend_c, 0, 9557
2, 28096, Pitch_bend_c, 0, 9557
2, 28101, Pitch_bend_c, 0, 9557
2, 28106, Pitch_bend_c, 0, 9557
2, 28112, Pitch_bend_c, 0, 9557
2, 28117, Pitch_bend_c, 0, 9557
2, 28122, Pitch_bend_c, 0, 9557
2, 28127, Pitch_bend_c, 0, 9557
2, 28133, Pitch_bend_c, 0, 9557
2, 28138, Pitch_bend_c, 0, 9557
2, 28143, Pitch_bend_c, 0, 9557
2, 28148, Pitch_bend_c, 0, 9557
2, 28154, Pitch_bend_c, 0, 9557
2, 28159, Pitch_bend_c, 0, 9557
2, 28164, Pitch_bend_c, 0, 9557
2, 28169, Pitch_bend_c, 0, 9557
2, 28174, Pitch_bend_c, 0, 9557
2, 28180, Pitch_bend_c, 0, 9557
2, 28185, Pitch_bend_c, 0, 9557
2, 28190, Pitch_bend_c, 0, 9557
2, 28195, Pitch_bend_c, 0, 9557
2, 28201, Pitch_bend_c, 0, 9557
2, 28206, Pitch_bend_c, 0, 9557
2, 28211, Pitch_bend_c, 0, 9557
2, 28216, Pitch_bend_c, 0, 8192
2, 28221, Pitch_bend_c, 0, 9557
2, 28221, Note_on_c, 0, 76, 0
2, 28319, Pitch_bend_c, 0, 9557
2, 28319, Note_on_c, 0, 72, 75
2, 28324, Pitch_bend_c, 0, 9557
2, 28329, Pitch_bend_c, 0, 9557
2, 28335, Pitch_bend_c, 0, 9557
2, 28340, Pitch_bend_c, 0, 9557
2, 28346, Pitch_bend_c, 0, 9557
2, 28351, Pitch_bend_c, 0, 9557
2, 28357, Pitch_bend_c, 0, 9557
2, 28362, Pitch_bend_c, 0, 9557
2, 28368, Pitch_bend_c, 0, 9557
2, 28373, Pitch_bend_c, 0, 9557
2, 28378, Pitch_bend_c, 0, 9557
2, 28384, Pitch_bend_c, 0, 9557
2, 28389, Pitch_bend_c, 0, 9557
2, 28395, Pitch_bend_c, 0, 9557
2, 28400, Pitch_bend_c, 0, 10923
2, 28400, Note_on_c, 0, 72, 0
2, 28702, Note_on_c, 0, 74, 74
2, 28978, Note_on_c, 0, 86, 40
2, 28999, Note_on_c, 0, 74, 0
2, 29039, Note_on_c, 0, 81, 63
2, 29075, Note_on_c, 0, 86, 0
2, 29193, Note_on_c, 0, 86, 47
2, 29264, Note_on_c, 0, 86, 0
2, 29274, Note_on_c, 0, 74, 85
2, 29504, Note_on_c, 0, 74, 0
2, 29504, Note_on_c, 0, 74, 89
2, 29622, Note_on_c, 0, 81, 0
2, 29806, Note_on_c, 0, 82, 99
2, 29811, Note_on_c, 0, 74, 0
2, 29908, Note_on_c, 0, 74, 49
2, 30026, Note_on_c, 0, 81, 82
2, 30026, Note_on_c, 0, 82, 0
2, 30159, Note_on_c, 0, 74, 0
2, 30414, Note_on_c, 0, 69, 96
2, 30470, Note_on_c, 0, 81, 0
2, 30516, Pitch_bend_c, 0, 9557
2, 30516, Note_on_c, 0, 69, 0
2, 30516, Note_on_c, 0, 69, 86
2, 30521, Pitch_bend_c, 0, 9557
2, 30527, Pitch_bend_c, 0, 9557
2, 30532, Pitch_bend_c, 0, 9557
2, 30537, Pitch_bend_c, 0, 8192
2, 30542, Pitch_bend_c, 0, 8192
2, 30547, Pitch_bend_c, 0, 8192
2, 30552, Pitch_bend_c, 0, 9557
2, 30557, Pitch_bend_c, 0, 9557
2, 30562, Pitch_bend_c, 0, 9557
2, 30568, Pitch_bend_c, 0, 9557
2, 30573, Pitch_bend_c, 0, 9557
2, 30578, Pitch_bend_c, 0, 9557
2, 30583, Pitch_bend_c, 0, 9557
2, 30588, Pitch_bend_c, 0, 9557
2, 30593, Pitch_bend_c, 0, 9557
2, 30598, Pitch_bend_c, 0, 9557
2, 30603, Pitch_bend_c, 0, 9557
2, 30609, Pitch_bend_c, 0, 9557
2, 30614, Pitch_bend_c, 0, 9557
2, 30619, Pitch_bend_c, 0, 9557
2, 30624, Pitch_bend_c, 0, 9557
2, 30629, Pitch_bend_c, 0, 9557
2, 30634, Pitch_bend_c, 0, 9557
2, 30639, Pitch_bend_c, 0, 9557
2, 30644, Pitch_bend_c, 0, 9557
2, 30650, Pitch_bend_c, 0, 9557
2, 30655, Pitch_bend_c, 0, 9557
2, 30660, Pitch_bend_c, 0, 9557
2, 30665, Pitch_bend_c, 0, 9557
2, 30670, Pitch_bend_c, 0, 9557
2, 30675, Pitch_bend_c, 0, 9557
2, 30680, Pitch_bend_c, 0, 9557
2, 30685, Pitch_bend_c, 0, 9557
2, 30691, Pitch_bend_c, 0, 9557
2, 30696, Pitch_bend_c, 0, 9557
2, 30701, Pitch_bend_c, 0, 9557
2, 30701, Pitch_bend_c, 0, 9557
2, 30701, Note_on_c, 0, 69, 0
2, 30701, Note_on_c, 0, 69, 78
2, 30706, Pitch_bend_c, 0, 9557
2, 30711, Pitch_bend_c, 0, 10923
2, 30716, Pitch_bend_c, 0, 10923
2, 30721, Pitch_bend_c, 0, 9557
2, 30727, Pitch_bend_c, 0, 8192
2, 30732, Pitch_bend_c, 0, 8192
2, 30737, Pitch_bend_c, 0, 6827
2, 30742, Pitch_bend_c, 0, 6827
2, 30747, Pitch_bend_c, 0, 6827
2, 30752, Pitch_bend_c, 0, 8192
2, 30757, Pitch_bend_c, 0, 9557
2, 30763, Pitch_bend_c, 0, 10923
2, 30768, Pitch_bend_c, 0, 10923
2, 30773, Pitch_bend_c, 0, 10923
2, 30778, Pitch_bend_c, 0, 10923
2, 30783, Pitch_bend_c, 0, 10923
2, 30788, Pitch_bend_c, 0, 9557
2, 30794, Pitch_bend_c, 0, 9557
2, 30799, Pitch_bend_c, 0, 8192
2, 30804, Pitch_bend_c, 0, 8192
2, 30809, Pitch_bend_c, 0, 8192
2, 30814, Pitch_bend_c, 0, 9557
2, 30819, Pitch_bend_c, 0, 10923
2, 30824, Pitch_bend_c, 0, 10923
2, 30830, Pitch_bend_c, 0, 10923
2, 30835, Pitch_bend_c, 0, 10923
2, 30840, Pitch_bend_c, 0, 10923
2, 30845, Pitch_bend_c, 0, 10923
2, 30850, Pitch_bend_c, 0, 10923
2, 30855, Pitch_bend_c, 0, 9557
2, 30860, Pitch_bend_c, 0, 8192
2, 30866, Pitch_bend_c, 0, 8192
2, 30871, Pitch_bend_c, 0, 9557
2, 30876, Pitch_bend_c, 0, 9557
2, 30881, Pitch_bend_c, 0, 10923
2, 30886, Pitch_bend_c, 0, 10923
2, 30891, Pitch_bend_c, 0, 10923
2, 30897, Pitch_bend_c, 0, 10923
2, 30902, Pitch_bend_c, 0, 10923
2, 30907, Pitch_bend_c, 0, 10923
2, 30912, Pitch_bend_c, 0, 10923
2, 30917, Pitch_bend_c, 0, 10923
2, 30922, Pitch_bend_c, 0, 9557
2, 30927, Pitch_bend_c, 0, 8192
2, 30933, Pitch_bend_c, 0, 10923
2, 30938, Pitch_bend_c, 0, 10923
2, 30943, Pitch_bend_c, 0, 10923
2, 30948, Pitch_bend_c, 0, 10923
2, 30953, Pitch_bend_c, 0, 10923
2, 30958, Pitch_bend_c, 0, 10923
2, 30964, Pitch_bend_c, 0, 10923
2, 30969, Pitch_bend_c, 0, 10923
2, 30974, Pitch_bend_c, 0, 10923
2, 30979, Pitch_bend_c, 0, 6827
2, 30984, Pitch_bend_c, 0, 6827
2, 30989, Pitch_bend_c, 0, 10923
2, 30994, Pitch_bend_c, 0, 12288
2, 31000, Pitch_bend_c, 0, 12288
2, 31005, Pitch_bend_c, 0, 12288
2, 31010, Pitch_bend_c, 0, 10923
2, 31015, Pitch_bend_c, 0, 8192
2, 31020, Pitch_bend_c, 0, 8192
2, 31025, Pitch_bend_c, 0, 8192
2, 31031, Pitch_bend_c, 0, 9557
2, 31036, Pitch_bend_c, 0, 9557
2, 31041, Pitch_bend_c, 0, 9557
2, 31046, Pitch_bend_c, 0, 9557
2, 31051, Pitch_bend_c, 0, 9557
2, 31056, Pitch_bend_c, 0, 9557
2, 31061, Pitch_bend_c, 0, 9557
2, 31067, Pitch_bend_c, 0, 9557
2, 31072, Pitch_bend_c, 0, 9557
2, 31077, Pitch_bend_c, 0, 9557
2, 31082, Pitch_bend_c, 0, 9557
2, 31087, Pitch_bend_c, 0, 9557
2, 31092, Pitch_bend_c, 0, 9557
2, 31097, Pitch_bend_c, 0, 9557
2, 31103, Pitch_bend_c, 0, 9557
2, 31108, Pitch_bend_c, 0, 9557
2, 31113, Pitch_bend_c, 0, 9557
2, 31118, Pitch_bend_c, 0, 9557
2, 31123, Pitch_bend_c, 0, 9557
2, 31128, Pitch_bend_c, 0, 9557
2, 31134, Pitch_bend_c, 0, 9557
2, 31139, Pitch_bend_c, 0, 9557
2, 31144, Pitch_bend_c, 0, 9557
2, 31149, Pitch_bend_c, 0, 9557
2, 31154, Pitch_bend_c, 0, 9557
2, 31159, Pitch_bend_c, 0, 9557
2, 31164, Pitch_bend_c, 0, 9557
2, 31170, Pitch_bend_c, 0, 9557
2, 31175, Pitch_bend_c, 0, 9557
2, 31180, Pitch_bend_c, 0, 9557
2, 31185, Pitch_bend_c, 0, 9557
2, 31190, Pitch_bend_c, 0, 9557
2, 31195, Pitch_bend_c, 0, 9557
2, 31201, Pitch_bend_c, 0, 9557
2, 31206, Pitch_bend_c, 0, 9557
2, 31211, Pitch_bend_c, 0, 9557
2, 31216, Pitch_bend_c, 0, 9557
2, 31221, Pitch_bend_c, 0, 9557
2, 31226, Pitch_bend_c, 0, 9557
2, 31231, Pitch_bend_c, 0, 9557
2, 31237, Pitch_bend_c, 0, 9557
2, 31242, Pitch_bend_c, 0, 9557
2, 31247, Pitch_bend_c, 0, 9557
2, 31252, Pitch_bend_c, 0, 9557
2, 31257, Pitch_bend_c, 0, 9557
2, 31262, Pitch_bend_c, 0, 9557
2, 31268, Pitch_bend_c, 0, 9557
2, 31273, Pitch_bend_c, 0, 9557
2, 31278, Pitch_bend_c, 0, 9557
2, 31283, Pitch_bend_c, 0, 9557
2, 31288, Pitch_bend_c, 0, 9557
2, 31293, Pitch_bend_c, 0, 9557
2, 31298, Pitch_bend_c, 0, 9557
2, 31298, Note_on_c, 0, 69, 0
2, 31416, Pitch_bend_c, 0, 9557
2, 31416, Note_on_c, 0, 69, 43
2, 31421, Pitch_bend_c, 0, 9557
2, 31426, Pitch_bend_c, 0, 9557
2, 31431, Pitch_bend_c, 0, 9557
2, 31437, Pitch_bend_c, 0, 9557
2, 31442, Pitch_bend_c, 0, 9557
2, 31447, Pitch_bend_c, 0, 9557
2, 31452, Pitch_bend_c, 0, 9557
2, 31457, Pitch_bend_c, 0, 9557
2, 31462, Pitch_bend_c, 0, 9557
2, 31467, Pitch_bend_c, 0, 9557
2, 31472, Pitch_bend_c, 0, 9557
2, 31478, Pitch_bend_c, 0, 9557
2, 31483, Pitch_bend_c, 0, 9557
2, 31488, Pitch_bend_c, 0, 9557
2, 31493, Pitch_bend_c, 0, 9557
2, 31498, Pitch_bend_c, 0, 9557
2, 31503, Pitch_bend_c, 0, 9557
2, 31503, Note_on_c, 0, 69, 0
2, 31651, Pitch_bend_c, 0, 10923
2, 31651, Note_on_c, 0, 74, 93
2, 31657, Pitch_bend_c, 0, 10923
2, 31662, Pitch_bend_c, 0, 9557
2, 31668, Pitch_bend_c, 0, 9557
2, 31673, Pitch_bend_c, 0, 9557
2, 31679, Pitch_bend_c, 0, 9557
2, 31684, Pitch_bend_c, 0, 9557
2, 31689, Pitch_bend_c, 0, 8192
2, 31695, Pitch_bend_c, 0, 8192
2, 31700, Pitch_bend_c, 0, 8192
2, 31706, Pitch_bend_c, 0, 8192
2, 31711, Pitch_bend_c, 0, 8192
2, 31717, Pitch_bend_c, 0, 8192
2, 31722, Pitch_bend_c, 0, 8192
2, 31727, Pitch_bend_c, 0, 8192
2, 31733, Pitch_bend_c, 0, 8192
2, 31738, Pitch_bend_c, 0, 8192
2, 31738, Note_on_c, 0, 74, 0
2, 31738, Note_on_c, 0, 74, 74
2, 32101, Note_on_c, 0, 81, 62
2, 32167, Note_on_c, 0, 74, 0
2, 32331, Note_on_c, 0, 74, 84
2, 32561, Note_on_c, 0, 74, 0
2, 32561, Note_on_c, 0, 74, 68
2, 32853, Note_on_c, 0, 81, 0
2, 32858, Note_on_c, 0, 82, 84
2, 33174, Note_on_c, 0, 81, 69
2, 33174, Note_on_c, 0, 82, 0
2, 33231, Note_on_c, 0, 74, 0
2, 33466, Note_on_c, 0, 69, 91
2, 33686, Note_on_c, 0, 81, 0
2, 33798, Pitch_bend_c, 0, 6827
2, 33798, Note_on_c, 0, 69, 0
2, 33798, Note_on_c, 0, 69, 92
2, 33803, Pitch_bend_c, 0, 8192
2, 33809, Pitch_bend_c, 0, 8192
2, 33814, Pitch_bend_c, 0, 10923
2, 33819, Pitch_bend_c, 0, 10923
2, 33825, Pitch_bend_c, 0, 10923
2, 33830, Pitch_bend_c, 0, 10923
2, 33835, Pitch_bend_c, 0, 10923
2, 33840, Pitch_bend_c, 0, 10923
2, 33846, Pitch_bend_c, 0, 10923
2, 33851, Pitch_bend_c, 0, 9557
2, 33856, Pitch_bend_c, 0, 8192
2, 33862, Pitch_bend_c, 0, 9557
2, 33867, Pitch_bend_c, 0, 9557
2, 33872, Pitch_bend_c, 0, 9557
2, 33877, Pitch_bend_c, 0, 9557
2, 33883, Pitch_bend_c, 0, 9557
2, 33888, Pitch_bend_c, 0, 9557
2, 33893, Pitch_bend_c, 0, 9557
2, 33899, Pitch_bend_c, 0, 9557
2, 33904, Pitch_bend_c, 0, 9557
2, 33909, Pitch_bend_c, 0, 9557
2, 33914, Pitch_bend_c, 0, 9557
2, 33920, Pitch_bend_c, 0, 8192
2, 33925, Pitch_bend_c, 0, 8192
2, 33930, Pitch_bend_c, 0, 8192
2, 33936, Pitch_bend_c, 0, 8192
2, 33941, Pitch_bend_c, 0, 12288
2, 33946, Pitch_bend_c, 0, 12288
2, 33951, Pitch_bend_c, 0, 10923
2, 33951, Pitch_bend_c, 0, 12288
2, 33951, Note_on_c, 0, 69, 0
2, 33951, Note_on_c, 0, 70, 72
2, 33957, Pitch_bend_c, 0, 12288
2, 33962, Pitch_bend_c, 0, 12288
2, 33968, Pitch_bend_c, 0, 12288
2, 33973, Pitch_bend_c, 0, 9557
2, 33979, Pitch_bend_c, 0, 9557
2, 33984, Pitch_bend_c, 0, 9557
2, 33990, Pitch_bend_c, 0, 9557
2, 33995, Pitch_bend_c, 0, 9557
2, 34000, Pitch_bend_c, 0, 9557
2, 34006, Pitch_bend_c, 0, 9557
2, 34011, Pitch_bend_c, 0, 9557
2, 34017, Pitch_bend_c, 0, 9557
2, 34022, Pitch_bend_c, 0, 9557
2, 34028, Pitch_bend_c, 0, 9557
2, 34033, Pitch_bend_c, 0, 9557
2, 34033, Note_on_c, 0, 70, 0
2, 34038, Pitch_bend_c, 0, 13653
2, 34038, Note_on_c, 0, 69, 90
2, 34043, Pitch_bend_c, 0, 9557
2, 34048, Pitch_bend_c, 0, 9557
2, 34054, Pitch_bend_c, 0, 9557
2, 34059, Pitch_bend_c, 0, 8192
2, 34064, Pitch_bend_c, 0, 8192
2, 34069, Pitch_bend_c, 0, 9557
2, 34074, Pitch_bend_c, 0, 9557
2, 34079, Pitch_bend_c, 0, 9557
2, 34084, Pitch_bend_c, 0, 9557
2, 34090, Pitch_bend_c, 0, 9557
2, 34095, Pitch_bend_c, 0, 9557
2, 34100, Pitch_bend_c, 0, 9557
2, 34105, Pitch_bend_c, 0, 9557
2, 34110, Pitch_bend_c, 0, 9557
2, 34115, Pitch_bend_c, 0, 9557
2, 34120, Pitch_bend_c, 0, 9557
2, 34125, Pitch_bend_c, 0, 9557
2, 34131, Pitch_bend_c, 0, 9557
2, 34136, Pitch_bend_c, 0, 9557
2, 34141, Pitch_bend_c, 0, 9557
2, 34146, Pitch_bend_c, 0, 9557
2, 34151, Pitch_bend_c, 0, 9557
2, 34156, Pitch_bend_c, 0, 9557
2, 34161, Pitch_bend_c, 0, 9557
2, 34166, Pitch_bend_c, 0, 8192
2, 34172, Pitch_bend_c, 0, 8192
2, 34177, Pitch_bend_c, 0, 8192
2, 34182, Pitch_bend_c, 0, 8192
2, 34187, Pitch_bend_c, 0, 8192
2, 34187, Pitch_bend_c, 0, 8192
2, 34187, Note_on_c, 0, 69, 0
2, 34187, Note_on_c, 0, 69, 79
2, 34192, Pitch_bend_c, 0, 8192
2, 34197, Pitch_bend_c, 0, 9557
2, 34202, Pitch_bend_c, 0, 9557
2, 34208, Pitch_bend_c, 0, 10923
2, 34213, Pitch_bend_c, 0, 10923
2, 34218, Pitch_bend_c, 0, 10923
2, 34223, Pitch_bend_c, 0, 10923
2, 34228, Pitch_bend_c, 0, 8192
2, 34233, Pitch_bend_c, 0, 8192
2, 34239, Pitch_bend_c, 0, 8192
2, 34244, Pitch_bend_c, 0, 8192
2, 34249, Pitch_bend_c, 0, 8192
2, 34254, Pitch_bend_c, 0, 8192
2, 34259, Pitch_bend_c, 0, 9557
2, 34264, Pitch_bend_c, 0, 9557
2, 34270, Pitch_bend_c, 0, 9557
2, 34275, Pitch_bend_c, 0, 9557
2, 34280, Pitch_bend_c, 0, 9557
2, 34285, Pitch_bend_c, 0, 9557
2, 34290, Pitch_bend_c, 0, 9557
2, 34295, Pitch_bend_c, 0, 9557
2, 34301, Pitch_bend_c, 0, 9557
2, 34306, Pitch_bend_c, 0, 9557
2, 34311, Pitch_bend_c, 0, 9557
2, 34316, Pitch_bend_c, 0, 9557
2, 34321, Pitch_bend_c, 0, 9557
2, 34326, Pitch_bend_c, 0, 9557
2, 34332, Pitch_bend_c, 0, 9557
2, 34337, Pitch_bend_c, 0, 9557
2, 34342, Pitch_bend_c, 0, 9557
2, 34347, Pitch_bend_c, 0, 9557
2, 34352, Pitch_bend_c, 0, 9557
2, 34357, Pitch_bend_c, 0, 9557
2, 34363, Pitch_bend_c, 0, 8192
2, 34368, Pitch_bend_c, 0, 8192
2, 34373, Pitch_bend_c, 0, 8192
2, 34378, Pitch_bend_c, 0, 8192
2, 34383, Pitch_bend_c, 0, 8192
2, 34388, Pitch_bend_c, 0, 9557
2, 34394, Pitch_bend_c, 0, 9557
2, 34399, Pitch_bend_c, 0, 9557
2, 34404, Pitch_bend_c, 0, 9557
2, 34409, Pitch_bend_c, 0, 12288
2, 34414, Pitch_bend_c, 0, 12288
2, 34419, Pitch_bend_c, 0, 12288
2, 34425, Pitch_bend_c, 0, 12288
2, 34430, Pitch_bend_c, 0, 12288
2, 34435, Pitch_bend_c, 0, 12288
2, 34440, Pitch_bend_c, 0, 12288
2, 34445, Pitch_bend_c, 0, 12288
2, 34450, Pitch_bend_c, 0, 10923
2, 34456, Pitch_bend_c, 0, 9557
2, 34461, Pitch_bend_c, 0, 9557
2, 34466, Pitch_bend_c, 0, 9557
2, 34471, Pitch_bend_c, 0, 9557
2, 34476, Pitch_bend_c, 0, 9557
2, 34481, Pitch_bend_c, 0, 9557
2, 34487, Pitch_bend_c, 0, 9557
2, 34492, Pitch_bend_c, 0, 9557
2, 34497, Pitch_bend_c, 0, 9557
2, 34502, Pitch_bend_c, 0, 9557
2, 34507, Pitch_bend_c, 0, 9557
2, 34512, Pitch_bend_c, 0, 9557
2, 34518, Pitch_bend_c, 0, 9557
2, 34523, Pitch_bend_c, 0, 9557
2, 34528, Pitch_bend_c, 0, 9557
2, 34533, Pitch_bend_c, 0, 9557
2, 34538, Pitch_bend_c, 0, 9557
2, 34543, Pitch_bend_c, 0, 9557
2, 34549, Pitch_bend_c, 0, 9557
2, 34554, Pitch_bend_c, 0, 9557
2, 34559, Pitch_bend_c, 0, 9557
2, 34564, Pitch_bend_c, 0, 9557
2, 34569, Pitch_bend_c, 0, 9557
2, 34574, Pitch_bend_c, 0, 9557
2, 34580, Pitch_bend_c, 0, 9557
2, 34585, Pitch_bend_c, 0, 9557
2, 34590, Pitch_bend_c, 0, 9557
2, 34595, Pitch_bend_c, 0, 9557
2, 34600, Pitch_bend_c, 0, 9557
2, 34605, Pitch_bend_c, 0, 9557
2, 34611, Pitch_bend_c, 0, 9557
2, 34616, Pitch_bend_c, 0, 9557
2, 34621, Pitch_bend_c, 0, 9557
2, 34626, Pitch_bend_c, 0, 9557
2, 34631, Pitch_bend_c, 0, 9557
2, 34636, Pitch_bend_c, 0, 5461
2, 34636, Note_on_c, 0, 69, 0
2, 34693, Pitch_bend_c, 0, 9557
2, 34693, Note_on_c, 0, 69, 49
2, 34698, Pitch_bend_c, 0, 9557
2, 34704, Pitch_bend_c, 0, 9557
2, 34709, Pitch_bend_c, 0, 9557
2, 34715, Pitch_bend_c, 0, 9557
2, 34720, Pitch_bend_c, 0, 9557
2, 34726, Pitch_bend_c, 0, 9557
2, 34731, Pitch_bend_c, 0, 9557
2, 34736, Pitch_bend_c, 0, 9557
2, 34742, Pitch_bend_c, 0, 9557
2, 34747, Pitch_bend_c, 0, 9557
2, 34753, Pitch_bend_c, 0, 9557
2, 34758, Pitch_bend_c, 0, 9557
2, 34764, Pitch_bend_c, 0, 9557
2, 34769, Pitch_bend_c, 0, 9557
2, 34769, Note_on_c, 0, 69, 0
2, 34790, Pitch_bend_c, 0, 9557
2, 34790, Note_on_c, 0, 69, 38
2, 34795, Pitch_bend_c, 0, 9557
2, 34800, Pitch_bend_c, 0, 9557
2, 34806, Pitch_bend_c, 0, 9557
2, 34811, Pitch_bend_c, 0, 9557
2, 34816, Pitch_bend_c, 0, 9557
2, 34822, Pitch_bend_c, 0, 13653
2, 34827, Pitch_bend_c, 0, 9557
2, 34832, Pitch_bend_c, 0, 9557
2, 34837, Pitch_bend_c, 0, 9557
2, 34843, Pitch_bend_c, 0, 9557
2, 34848, Pitch_bend_c, 0, 9557
2, 34853, Pitch_bend_c, 0, 9557
2, 34859, Pitch_bend_c, 0, 9557
2, 34864, Pitch_bend_c, 0, 9557
2, 34869, Pitch_bend_c, 0, 9557
2, 34875, Pitch_bend_c, 0, 9557
2, 34880, Pitch_bend_c, 0, 8192
2, 34885, Pitch_bend_c, 0, 8192
2, 34891, Pitch_bend_c, 0, 9557
2, 34896, Pitch_bend_c, 0, 9557
2, 34901, Pitch_bend_c, 0, 9557
2, 34906, Pitch_bend_c, 0, 10923
2, 34912, Pitch_bend_c, 0, 9557
2, 34917, Pitch_bend_c, 0, 9557
2, 34922, Pitch_bend_c, 0, 9557
2, 34928, Pitch_bend_c, 0, 9557
2, 34928, Note_on_c, 0, 69, 0
2, 35362, Pitch_bend_c, 0, 10923
2, 35362, Note_on_c, 0, 69, 50
2, 35368, Pitch_bend_c, 0, 10923
2, 35374, Pitch_bend_c, 0, 10923
2, 35379, Pitch_bend_c, 0, 10923
2, 35385, Pitch_bend_c, 0, 10923
2, 35390, Pitch_bend_c, 0, 10923
2, 35396, Pitch_bend_c, 0, 10923
2, 35401, Pitch_bend_c, 0, 10923
2, 35407, Pitch_bend_c, 0, 10923
2, 35412, Pitch_bend_c, 0, 9557
2, 35418, Pitch_bend_c, 0, 9557
2, 35423, Pitch_bend_c, 0, 9557
2, 35429, Pitch_bend_c, 0, 10923
2, 35429, Note_on_c, 0, 69, 0
2, 36441, Pitch_bend_c, 0, 10923
2, 36441, Note_on_c, 0, 62, 80
2, 36446, Pitch_bend_c, 0, 10923
2, 36452, Pitch_bend_c, 0, 10923
2, 36457, Pitch_bend_c, 0, 10923
2, 36463, Pitch_bend_c, 0, 10923
2, 36468, Pitch_bend_c, 0, 10923
2, 36474, Pitch_bend_c, 0, 10923
2, 36479, Pitch_bend_c, 0, 9557
2, 36485, Pitch_bend_c, 0, 9557
2, 36490, Pitch_bend_c, 0, 9557
2, 36496, Pitch_bend_c, 0, 9557
2, 36501, Pitch_bend_c, 0, 9557
2, 36507, Pitch_bend_c, 0, 6827
2, 36512, Pitch_bend_c, 0, 6827
2, 36512, Note_on_c, 0, 62, 0
2, 36584, Note_on_c, 0, 69, 52
2, 36594, Note_on_c, 0, 62, 43
2, 36666, Note_on_c, 0, 62, 0
2, 36707, Note_on_c, 0, 69, 0
2, 36707, Note_on_c, 0, 69, 65
2, 36860, Note_on_c, 0, 62, 85
2, 36957, Note_on_c, 0, 69, 0
2, 36978, Pitch_bend_c, 0, 10923
2, 36978, Note_on_c, 0, 60, 56
2, 36978, Note_on_c, 0, 62, 0
2, 36983, Pitch_bend_c, 0, 9557
2, 36989, Pitch_bend_c, 0, 9557
2, 36994, Pitch_bend_c, 0, 9557
2, 36999, Pitch_bend_c, 0, 9557
2, 37005, Pitch_bend_c, 0, 9557
2, 37010, Pitch_bend_c, 0, 9557
2, 37016, Pitch_bend_c, 0, 9557
2, 37021, Pitch_bend_c, 0, 9557
2, 37026, Pitch_bend_c, 0, 9557
2, 37032, Pitch_bend_c, 0, 9557
2, 37037, Pitch_bend_c, 0, 9557
2, 37043, Pitch_bend_c, 0, 6827
2, 37048, Pitch_bend_c, 0, 5461
2, 37054, Pitch_bend_c, 0, 5461
2, 37059, Pitch_bend_c, 0, 5461
2, 37064, Pitch_bend_c, 0, 5461
2, 37070, Pitch_bend_c, 0, 5461
2, 37070, Pitch_bend_c, 0, 9557
2, 37070, Note_on_c, 0, 60, 0
2, 37070, Note_on_c, 0, 60, 85
2, 37075, Pitch_bend_c, 0, 9557
2, 37080, Pitch_bend_c, 0, 9557
2, 37085, Pitch_bend_c, 0, 9557
2, 37091, Pitch_bend_c, 0, 9557
2, 37096, Pitch_bend_c, 0, 9557
2, 37101, Pitch_bend_c, 0, 8192
2, 37106, Pitch_bend_c, 0, 8192
2, 37112, Pitch_bend_c, 0, 8192
2, 37117, Pitch_bend_c, 0, 9557
2, 37122, Pitch_bend_c, 0, 9557
2, 37127, Pitch_bend_c, 0, 9557
2, 37132, Pitch_bend_c, 0, 9557
2, 37138, Pitch_bend_c, 0, 9557
2, 37143, Pitch_bend_c, 0, 9557
2, 37148, Pitch_bend_c, 0, 9557
2, 37153, Pitch_bend_c, 0, 9557
2, 37159, Pitch_bend_c, 0, 9557
2, 37164, Pitch_bend_c, 0, 9557
2, 37169, Pitch_bend_c, 0, 9557
2, 37174, Pitch_bend_c, 0, 9557
2, 37179, Pitch_bend_c, 0, 9557
2, 37185, Pitch_bend_c, 0, 9557
2, 37190, Pitch_bend_c, 0, 9557
2, 37195, Pitch_bend_c, 0, 9557
2, 37200, Pitch_bend_c, 0, 9557
2, 37206, Pitch_bend_c, 0, 9557
2, 37211, Pitch_bend_c, 0, 9557
2, 37216, Pitch_bend_c, 0, 9557
2, 37221, Pitch_bend_c, 0, 9557
2, 37226, Pitch_bend_c, 0, 9557
2, 37232, Pitch_bend_c, 0, 9557
2, 37237, Pitch_bend_c, 0, 9557
2, 37242, Pitch_bend_c, 0, 9557
2, 37247, Pitch_bend_c, 0, 9557
2, 37253, Pitch_bend_c, 0, 9557
2, 37258, Pitch_bend_c, 0, 9557
2, 37263, Pitch_bend_c, 0, 9557
2, 37268, Pitch_bend_c, 0, 9557
2, 37273, Pitch_bend_c, 0, 9557
2, 37279, Pitch_bend_c, 0, 9557
2, 37284, Pitch_bend_c, 0, 9557
2, 37289, Pitch_bend_c, 0, 9557
2, 37294, Pitch_bend_c, 0, 9557
2, 37300, Pitch_bend_c, 0, 9557
2, 37305, Pitch_bend_c, 0, 9557
2, 37305, Note_on_c, 0, 60, 0
2, 37305, Note_on_c, 0, 60, 77
2, 37371, Note_on_c, 0, 62, 83
2, 37417, Note_on_c, 0, 60, 0
2, 37484, Pitch_bend_c, 0, 9557
2, 37484, Note_on_c, 0, 62, 0
2, 37484, Note_on_c, 0, 62, 97
2, 37489, Pitch_bend_c, 0, 9557
2, 37494, Pitch_bend_c, 0, 9557
2, 37499, Pitch_bend_c, 0, 9557
2, 37504, Pitch_bend_c, 0, 8192
2, 37509, Pitch_bend_c, 0, 8192
2, 37514, Pitch_bend_c, 0, 8192
2, 37519, Pitch_bend_c, 0, 8192
2, 37525, Pitch_bend_c, 0, 8192
2, 37530, Pitch_bend_c, 0, 8192
2, 37535, Pitch_bend_c, 0, 8192
2, 37540, Pitch_bend_c, 0, 9557
2, 37545, Pitch_bend_c, 0, 9557
2, 37550, Pitch_bend_c, 0, 9557
2, 37555, Pitch_bend_c, 0, 9557
2, 37560, Pitch_bend_c, 0, 9557
2, 37566, Pitch_bend_c, 0, 9557
2, 37571, Pitch_bend_c, 0, 10923
2, 37576, Pitch_bend_c, 0, 10923
2, 37581, Pitch_bend_c, 0, 8192
2, 37586, Pitch_bend_c, 0, 8192
2, 37591, Pitch_bend_c, 0, 8192
2, 37596, Pitch_bend_c, 0, 8192
2, 37601, Pitch_bend_c, 0, 9557
2, 37607, Pitch_bend_c, 0, 9557
2, 37612, Pitch_bend_c, 0, 9557
2, 37617, Pitch_bend_c, 0, 9557
2, 37622, Pitch_bend_c, 0, 9557
2, 37627, Pitch_bend_c, 0, 9557
2, 37632, Pitch_bend_c, 0, 9557
2, 37637, Pitch_bend_c, 0, 9557
2, 37642, Pitch_bend_c, 0, 9557
2, 37648, Pitch_bend_c, 0, 8192
2, 37653, Pitch_bend_c, 0, 8192
2, 37658, Pitch_bend_c, 0, 8192
2, 37663, Pitch_bend_c, 0, 8192
2, 37668, Pitch_bend_c, 0, 5461
2, 37668, Pitch_bend_c, 0, 8192
2, 37668, Note_on_c, 0, 62, 0
2, 37668, Note_on_c, 0, 63, 38
2, 37673, Pitch_bend_c, 0, 8192
2, 37679, Pitch_bend_c, 0, 8192
2, 37684, Pitch_bend_c, 0, 8192
2, 37690, Pitch_bend_c, 0, 8192
2, 37695, Pitch_bend_c, 0, 8192
2, 37701, Pitch_bend_c, 0, 8192
2, 37706, Pitch_bend_c, 0, 4096
2, 37711, Pitch_bend_c, 0, 4096
2, 37717, Pitch_bend_c, 0, 4096
2, 37722, Pitch_bend_c, 0, 4096
2, 37728, Pitch_bend_c, 0, 4096
2, 37733, Pitch_bend_c, 0, 4096
2, 37739, Pitch_bend_c, 0, 4096
2, 37744, Pitch_bend_c, 0, 6827
2, 37749, Pitch_bend_c, 0, 6827
2, 37755, Pitch_bend_c, 0, 8192
2, 37755, Pitch_bend_c, 0, 10923
2, 37755, Note_on_c, 0, 62, 80
2, 37755, Note_on_c, 0, 63, 0
2, 37760, Pitch_bend_c, 0, 10923
2, 37765, Pitch_bend_c, 0, 9557
2, 37770, Pitch_bend_c, 0, 6827
2, 37775, Pitch_bend_c, 0, 6827
2, 37780, Pitch_bend_c, 0, 8192
2, 37786, Pitch_bend_c, 0, 8192
2, 37791, Pitch_bend_c, 0, 9557
2, 37796, Pitch_bend_c, 0, 10923
2, 37801, Pitch_bend_c, 0, 10923
2, 37806, Pitch_bend_c, 0, 10923
2, 37811, Pitch_bend_c, 0, 10923
2, 37816, Pitch_bend_c, 0, 10923
2, 37821, Pitch_bend_c, 0, 9557
2, 37826, Pitch_bend_c, 0, 9557
2, 37832, Pitch_bend_c, 0, 8192
2, 37837, Pitch_bend_c, 0, 8192
2, 37842, Pitch_bend_c, 0, 8192
2, 37847, Pitch_bend_c, 0, 8192
2, 37852, Pitch_bend_c, 0, 9557
2, 37857, Pitch_bend_c, 0, 9557
2, 37862, Pitch_bend_c, 0, 10923
2, 37867, Pitch_bend_c, 0, 10923
2, 37872, Pitch_bend_c, 0, 10923
2, 37878, Pitch_bend_c, 0, 10923
2, 37883, Pitch_bend_c, 0, 10923
2, 37888, Pitch_bend_c, 0, 10923
2, 37893, Pitch_bend_c, 0, 8192
2, 37898, Pitch_bend_c, 0, 8192
2, 37903, Pitch_bend_c, 0, 9557
2, 37908, Pitch_bend_c, 0, 9557
2, 37913, Pitch_bend_c, 0, 9557
2, 37918, Pitch_bend_c, 0, 9557
2, 37924, Pitch_bend_c, 0, 9557
2, 37929, Pitch_bend_c, 0, 9557
2, 37934, Pitch_bend_c, 0, 9557
2, 37939, Pitch_bend_c, 0, 9557
2, 37944, Pitch_bend_c, 0, 10923
2, 37949, Pitch_bend_c, 0, 10923
2, 37954, Pitch_bend_c, 0, 10923
2, 37959, Pitch_bend_c, 0, 10923
2, 37964, Pitch_bend_c, 0, 10923
2, 37970, Pitch_bend_c, 0, 10923
2, 37975, Pitch_bend_c, 0, 10923
2, 37980, Pitch_bend_c, 0, 10923
2, 37985, Pitch_bend_c, 0, 9557
2, 37990, Pitch_bend_c, 0, 9557
2, 37995, Pitch_bend_c, 0, 9557
2, 38000, Pitch_bend_c, 0, 9557
2, 38005, Pitch_bend_c, 0, 9557
2, 38010, Pitch_bend_c, 0, 9557
2, 38016, Pitch_bend_c, 0, 9557
2, 38021, Pitch_bend_c, 0, 9557
2, 38026, Pitch_bend_c, 0, 6827
2, 38031, Pitch_bend_c, 0, 6827
2, 38036, Pitch_bend_c, 0, 6827
2, 38041, Pitch_bend_c, 0, 10923
2, 38046, Pitch_bend_c, 0, 10923
2, 38051, Pitch_bend_c, 0, 12288
2, 38056, Pitch_bend_c, 0, 12288
2, 38062, Pitch_bend_c, 0, 12288
2, 38067, Pitch_bend_c, 0, 12288
2, 38072, Pitch_bend_c, 0, 12288
2, 38077, Pitch_bend_c, 0, 10923
2, 38082, Pitch_bend_c, 0, 10923
2, 38087, Pitch_bend_c, 0, 10923
2, 38092, Pitch_bend_c, 0, 10923
2, 38097, Pitch_bend_c, 0, 10923
2, 38102, Pitch_bend_c, 0, 10923
2, 38108, Pitch_bend_c, 0, 10923
2, 38113, Pitch_bend_c, 0, 10923
2, 38118, Pitch_bend_c, 0, 10923
2, 38123, Pitch_bend_c, 0, 9557
2, 38128, Pitch_bend_c, 0, 9557
2, 38133, Pitch_bend_c, 0, 9557
2, 38138, Pitch_bend_c, 0, 9557
2, 38143, Pitch_bend_c, 0, 8192
2, 38148, Pitch_bend_c, 0, 8192
2, 38154, Pitch_bend_c, 0, 8192
2, 38159, Pitch_bend_c, 0, 8192
2, 38164, Pitch_bend_c, 0, 10923
2, 38169, Pitch_bend_c, 0, 10923
2, 38174, Pitch_bend_c, 0, 10923
2, 38179, Pitch_bend_c, 0, 10923
2, 38184, Pitch_bend_c, 0, 10923
2, 38189, Pitch_bend_c, 0, 10923
2, 38194, Pitch_bend_c, 0, 10923
2, 38199, Pitch_bend_c, 0, 10923
2, 38205, Pitch_bend_c, 0, 10923
2, 38210, Pitch_bend_c, 0, 9557
2, 38215, Pitch_bend_c, 0, 9557
2, 38220, Pitch_bend_c, 0, 9557
2, 38225, Pitch_bend_c, 0, 9557
2, 38230, Pitch_bend_c, 0, 9557
2, 38235, Pitch_bend_c, 0, 9557
2, 38240, Pitch_bend_c, 0, 9557
2, 38245, Pitch_bend_c, 0, 10923
2, 38251, Pitch_bend_c, 0, 10923
2, 38256, Pitch_bend_c, 0, 10923
2, 38261, Pitch_bend_c, 0, 10923
2, 38266, Pitch_bend_c, 0, 10923
2, 38271, Pitch_bend_c, 0, 10923
2, 38276, Pitch_bend_c, 0, 8192
2, 38281, Pitch_bend_c, 0, 8192
2, 38286, Pitch_bend_c, 0, 8192
2, 38291, Pitch_bend_c, 0, 8192
2, 38297, Pitch_bend_c, 0, 8192
2, 38302, Pitch_bend_c, 0, 8192
2, 38307, Pitch_bend_c, 0, 8192
2, 38312, Pitch_bend_c, 0, 9557
2, 38317, Pitch_bend_c, 0, 9557
2, 38322, Pitch_bend_c, 0, 9557
2, 38327, Pitch_bend_c, 0, 9557
2, 38332, Pitch_bend_c, 0, 9557
2, 38337, Pitch_bend_c, 0, 9557
2, 38343, Pitch_bend_c, 0, 8192
2, 38348, Pitch_bend_c, 0, 8192
2, 38353, Pitch_bend_c, 0, 10923
2, 38358, Pitch_bend_c, 0, 10923
2, 38363, Pitch_bend_c, 0, 10923
2, 38368, Pitch_bend_c, 0, 10923
2, 38373, Pitch_bend_c, 0, 10923
2, 38378, Pitch_bend_c, 0, 10923
2, 38383, Pitch_bend_c, 0, 10923
2, 38389, Pitch_bend_c, 0, 10923
2, 38394, Pitch_bend_c, 0, 9557
2, 38399, Pitch_bend_c, 0, 9557
2, 38404, Pitch_bend_c, 0, 9557
2, 38409, Pitch_bend_c, 0, 9557
2, 38414, Pitch_bend_c, 0, 9557
2, 38419, Pitch_bend_c, 0, 9557
2, 38424, Pitch_bend_c, 0, 9557
2, 38429, Pitch_bend_c, 0, 9557
2, 38435, Pitch_bend_c, 0, 9557
2, 38440, Pitch_bend_c, 0, 10923
2, 38445, Pitch_bend_c, 0, 10923
2, 38450, Pitch_bend_c, 0, 10923
2, 38455, Pitch_bend_c, 0, 12288
2, 38460, Pitch_bend_c, 0, 10923
2, 38465, Pitch_bend_c, 0, 10923
2, 38470, Pitch_bend_c, 0, 10923
2, 38475, Pitch_bend_c, 0, 8192
2, 38481, Pitch_bend_c, 0, 8192
2, 38486, Pitch_bend_c, 0, 8192
2, 38491, Pitch_bend_c, 0, 8192
2, 38496, Pitch_bend_c, 0, 8192
2, 38501, Pitch_bend_c, 0, 10923
2, 38506, Pitch_bend_c, 0, 10923
2, 38511, Pitch_bend_c, 0, 10923
2, 38516, Pitch_bend_c, 0, 10923
2, 38521, Pitch_bend_c, 0, 10923
2, 38527, Pitch_bend_c, 0, 10923
2, 38532, Pitch_bend_c, 0, 10923
2, 38537, Pitch_bend_c, 0, 10923
2, 38542, Pitch_bend_c, 0, 6827
2, 38547, Pitch_bend_c, 0, 6827
2, 38552, Pitch_bend_c, 0, 6827
2, 38557, Pitch_bend_c, 0, 6827
2, 38562, Pitch_bend_c, 0, 6827
2, 38567, Pitch_bend_c, 0, 8192
2, 38573, Pitch_bend_c, 0, 8192
2, 38578, Pitch_bend_c, 0, 8192
2, 38583, Pitch_bend_c, 0, 9557
2, 38588, Pitch_bend_c, 0, 9557
2, 38593, Pitch_bend_c, 0, 9557
2, 38598, Pitch_bend_c, 0, 9557
2, 38603, Pitch_bend_c, 0, 9557
2, 38608, Pitch_bend_c, 0, 9557
2, 38613, Pitch_bend_c, 0, 9557
2, 38619, Pitch_bend_c, 0, 9557
2, 38624, Pitch_bend_c, 0, 9557
2, 38629, Pitch_bend_c, 0, 9557
2, 38634, Pitch_bend_c, 0, 9557
2, 38639, Pitch_bend_c, 0, 9557
2, 38644, Pitch_bend_c, 0, 9557
2, 38649, Pitch_bend_c, 0, 8192
2, 38654, Pitch_bend_c, 0, 8192
2, 38659, Pitch_bend_c, 0, 8192
2, 38665, Pitch_bend_c, 0, 8192
2, 38670, Pitch_bend_c, 0, 8192
2, 38675, Pitch_bend_c, 0, 8192
2, 38680, Pitch_bend_c, 0, 8192
2, 38685, Pitch_bend_c, 0, 8192
2, 38690, Pitch_bend_c, 0, 9557
2, 38695, Pitch_bend_c, 0, 9557
2, 38700, Pitch_bend_c, 0, 9557
2, 38705, Pitch_bend_c, 0, 9557
2, 38711, Pitch_bend_c, 0, 9557
2, 38716, Pitch_bend_c, 0, 9557
2, 38721, Pitch_bend_c, 0, 9557
2, 38726, Pitch_bend_c, 0, 9557
2, 38731, Pitch_bend_c, 0, 9557
2, 38736, Pitch_bend_c, 0, 9557
2, 38741, Pitch_bend_c, 0, 9557
2, 38746, Pitch_bend_c, 0, 9557
2, 38751, Pitch_bend_c, 0, 9557
2, 38757, Pitch_bend_c, 0, 10923
2, 38762, Pitch_bend_c, 0, 10923
2, 38767, Pitch_bend_c, 0, 10923
2, 38772, Pitch_bend_c, 0, 10923
2, 38777, Pitch_bend_c, 0, 10923
2, 38782, Pitch_bend_c, 0, 9557
2, 38787, Pitch_bend_c, 0, 9557
2, 38792, Pitch_bend_c, 0, 9557
2, 38797, Pitch_bend_c, 0, 9557
2, 38803, Pitch_bend_c, 0, 9557
2, 38808, Pitch_bend_c, 0, 9557
2, 38813, Pitch_bend_c, 0, 9557
2, 38818, Pitch_bend_c, 0, 12288
2, 38823, Pitch_bend_c, 0, 12288
2, 38828, Pitch_bend_c, 0, 12288
2, 38833, Pitch_bend_c, 0, 12288
2, 38838, Pitch_bend_c, 0, 12288
2, 38843, Pitch_bend_c, 0, 12288
2, 38849, Pitch_bend_c, 0, 9557
2, 38854, Pitch_bend_c, 0, 9557
2, 38859, Pitch_bend_c, 0, 9557
2, 38864, Pitch_bend_c, 0, 9557
2, 38869, Pitch_bend_c, 0, 9557
2, 38874, Pitch_bend_c, 0, 9557
2, 38879, Pitch_bend_c, 0, 9557
2, 38884, Pitch_bend_c, 0, 9557
2, 38889, Pitch_bend_c, 0, 10923
2, 38895, Pitch_bend_c, 0, 10923
2, 38900, Pitch_bend_c, 0, 10923
2, 38905, Pitch_bend_c, 0, 10923
2, 38910, Pitch_bend_c, 0, 10923
2, 38915, Pitch_bend_c, 0, 10923
2, 38920, Pitch_bend_c, 0, 10923
2, 38925, Pitch_bend_c, 0, 6827
2, 38930, Pitch_bend_c, 0, 6827
2, 38935, Pitch_bend_c, 0, 8192
2, 38941, Pitch_bend_c, 0, 8192
2, 38946, Pitch_bend_c, 0, 8192
2, 38951, Pitch_bend_c, 0, 8192
2, 38956, Pitch_bend_c, 0, 8192
2, 38961, Pitch_bend_c, 0, 9557
2, 38966, Pitch_bend_c, 0, 9557
2, 38966, Note_on_c, 0, 62, 0
2, 39503, Pitch_bend_c, 0, 10923
2, 39503, Note_on_c, 0, 62, 65
2, 39509, Pitch_bend_c, 0, 10923
2, 39514, Pitch_bend_c, 0, 9557
2, 39520, Pitch_bend_c, 0, 9557
2, 39525, Pitch_bend_c, 0, 9557
2, 39531, Pitch_bend_c, 0, 9557
2, 39536, Pitch_bend_c, 0, 9557
2, 39542, Pitch_bend_c, 0, 9557
2, 39548, Pitch_bend_c, 0, 9557
2, 39553, Pitch_bend_c, 0, 9557
2, 39559, Pitch_bend_c, 0, 9557
2, 39564, Pitch_bend_c, 0, 9557
2, 39564, Note_on_c, 0, 62, 0
2, 39636, Pitch_bend_c, 0, 4096
2, 39636, Note_on_c, 0, 69, 53
2, 39641, Pitch_bend_c, 0, 8192
2, 39647, Pitch_bend_c, 0, 9557
2, 39652, Pitch_bend_c, 0, 10923
2, 39658, Pitch_bend_c, 0, 10923
2, 39663, Pitch_bend_c, 0, 10923
2, 39669, Pitch_bend_c, 0, 9557
2, 39674, Pitch_bend_c, 0, 9557
2, 39679, Pitch_bend_c, 0, 9557
2, 39685, Pitch_bend_c, 0, 9557
2, 39690, Pitch_bend_c, 0, 9557
2, 39696, Pitch_bend_c, 0, 9557
2, 39701, Pitch_bend_c, 0, 9557
2, 39707, Pitch_bend_c, 0, 9557
2, 39712, Pitch_bend_c, 0, 8192
2, 39718, Pitch_bend_c, 0, 8192
2, 39718, Pitch_bend_c, 0, 8192
2, 39718, Note_on_c, 0, 69, 0
2, 39718, Note_on_c, 0, 69, 94
2, 39723, Pitch_bend_c, 0, 8192
2, 39729, Pitch_bend_c, 0, 9557
2, 39734, Pitch_bend_c, 0, 9557
2, 39740, Pitch_bend_c, 0, 9557
2, 39745, Pitch_bend_c, 0, 9557
2, 39750, Pitch_bend_c, 0, 9557
2, 39756, Pitch_bend_c, 0, 9557
2, 39761, Pitch_bend_c, 0, 8192
2, 39767, Pitch_bend_c, 0, 8192
2, 39772, Pitch_bend_c, 0, 8192
2, 39778, Pitch_bend_c, 0, 8192
2, 39783, Pitch_bend_c, 0, 9557
2, 39789, Pitch_bend_c, 0, 9557
2, 39794, Pitch_bend_c, 0, 9557
2, 39794, Note_on_c, 0, 69, 0
2, 39794, Note_on_c, 0, 69, 58
2, 39942, Note_on_c, 0, 62, 78
2, 40014, Note_on_c, 0, 69, 0
2, 40029, Note_on_c, 0, 62, 0
2, 40075, Pitch_bend_c, 0, 9557
2, 40075, Note_on_c, 0, 69, 57
2, 40081, Pitch_bend_c, 0, 9557
2, 40086, Pitch_bend_c, 0, 9557
2, 40091, Pitch_bend_c, 0, 9557
2, 40097, Pitch_bend_c, 0, 9557
2, 40102, Pitch_bend_c, 0, 9557
2, 40108, Pitch_bend_c, 0, 9557
2, 40113, Pitch_bend_c, 0, 9557
2, 40118, Pitch_bend_c, 0, 9557
2, 40124, Pitch_bend_c, 0, 9557
2, 40129, Pitch_bend_c, 0, 9557
2, 40135, Pitch_bend_c, 0, 9557
2, 40140, Pitch_bend_c, 0, 9557
2, 40145, Pitch_bend_c, 0, 9557
2, 40151, Pitch_bend_c, 0, 9557
2, 40156, Pitch_bend_c, 0, 9557
2, 40161, Pitch_bend_c, 0, 9557
2, 40167, Pitch_bend_c, 0, 9557
2, 40172, Pitch_bend_c, 0, 9557
2, 40172, Note_on_c, 0, 69, 0
2, 40193, Pitch_bend_c, 0, 10923
2, 40193, Note_on_c, 0, 60, 75
2, 40198, Pitch_bend_c, 0, 9557
2, 40203, Pitch_bend_c, 0, 8192
2, 40208, Pitch_bend_c, 0, 8192
2, 40213, Pitch_bend_c, 0, 9557
2, 40218, Pitch_bend_c, 0, 9557
2, 40223, Pitch_bend_c, 0, 9557
2, 40229, Pitch_bend_c, 0, 9557
2, 40234, Pitch_bend_c, 0, 9557
2, 40239, Pitch_bend_c, 0, 9557
2, 40244, Pitch_bend_c, 0, 9557
2, 40249, Pitch_bend_c, 0, 9557
2, 40254, Pitch_bend_c, 0, 9557
2, 40259, Pitch_bend_c, 0, 9557
2, 40264, Pitch_bend_c, 0, 9557
2, 40270, Pitch_bend_c, 0, 9557
2, 40275, Pitch_bend_c, 0, 9557
2, 40280, Pitch_bend_c, 0, 9557
2, 40285, Pitch_bend_c, 0, 9557
2, 40290, Pitch_bend_c, 0, 9557
2, 40295, Pitch_bend_c, 0, 9557
2, 40300, Pitch_bend_c, 0, 9557
2, 40305, Pitch_bend_c, 0, 9557
2, 40311, Pitch_bend_c, 0, 9557
2, 40316, Pitch_bend_c, 0, 9557
2, 40321, Pitch_bend_c, 0, 9557
2, 40326, Pitch_bend_c, 0, 9557
2, 40331, Pitch_bend_c, 0, 9557
2, 40336, Pitch_bend_c, 0, 9557
2, 40341, Pitch_bend_c, 0, 9557
2, 40346, Pitch_bend_c, 0, 9557
2, 40352, Pitch_bend_c, 0, 9557
2, 40357, Pitch_bend_c, 0, 9557
2, 40362, Pitch_bend_c, 0, 9557
2, 40367, Pitch_bend_c, 0, 9557
2, 40367, Pitch_bend_c, 0, 9557
2, 40367, Note_on_c, 0, 60, 0
2, 40367, Note_on_c, 0, 60, 67
2, 40372, Pitch_bend_c, 0, 9557
2, 40378, Pitch_bend_c, 0, 9557
2, 40383, Pitch_bend_c, 0, 9557
2, 40388, Pitch_bend_c, 0, 9557
2, 40394, Pitch_bend_c, 0, 9557
2, 40399, Pitch_bend_c, 0, 9557
2, 40404, Pitch_bend_c, 0, 9557
2, 40410, Pitch_bend_c, 0, 9557
2, 40415, Pitch_bend_c, 0, 9557
2, 40420, Pitch_bend_c, 0, 12288
2, 40426, Pitch_bend_c, 0, 9557
2, 40431, Pitch_bend_c, 0, 9557
2, 40436, Pitch_bend_c, 0, 9557
2, 40442, Pitch_bend_c, 0, 9557
2, 40447, Pitch_bend_c, 0, 9557
2, 40452, Pitch_bend_c, 0, 9557
2, 40458, Pitch_bend_c, 0, 9557
2, 40463, Pitch_bend_c, 0, 9557
2, 40468, Pitch_bend_c, 0, 9557
2, 40474, Pitch_bend_c, 0, 9557
2, 40479, Pitch_bend_c, 0, 9557
2, 40484, Pitch_bend_c, 0, 9557
2, 40484, Note_on_c, 0, 60, 0
2, 40581, Note_on_c, 0, 62, 82
2, 40592, Note_on_c, 0, 74, 48
2, 40776, Note_on_c, 0, 74, 0
2, 40816, Note_on_c, 0, 62, 0
2, 40898, Note_on_c, 0, 74, 44
2, 40934, Note_on_c, 0, 57, 84
2, 40960, Note_on_c, 0, 74, 0
2, 40995, Note_on_c, 0, 62, 52
2, 41093, Note_on_c, 0, 62, 0
2, 41333, Note_on_c, 0, 74, 53
2, 41359, Note_on_c, 0, 62, 53
2, 41394, Note_on_c, 0, 74, 0
2, 41558, Note_on_c, 0, 62, 0
2, 41680, Note_on_c, 0, 74, 44
2, 41757, Note_on_c, 0, 62, 48
2, 41762, Note_on_c, 0, 74, 0
2, 41793, Note_on_c, 0, 57, 0
2, 41854, Pitch_bend_c, 0, 10923
2, 41854, Note_on_c, 0, 57, 40
2, 41854, Note_on_c, 0, 62, 0
2, 41859, Pitch_bend_c, 0, 10923
2, 41864, Pitch_bend_c, 0, 9557
2, 41869, Pitch_bend_c, 0, 9557
2, 41875, Pitch_bend_c, 0, 9557
2, 41880, Pitch_bend_c, 0, 9557
2, 41885, Pitch_bend_c, 0, 9557
2, 41890, Pitch_bend_c, 0, 9557
2, 41895, Pitch_bend_c, 0, 9557
2, 41900, Pitch_bend_c, 0, 9557
2, 41905, Pitch_bend_c, 0, 9557
2, 41910, Pitch_bend_c, 0, 9557
2, 41916, Pitch_bend_c, 0, 9557
2, 41921, Pitch_bend_c, 0, 9557
2, 41926, Pitch_bend_c, 0, 9557
2, 41931, Pitch_bend_c, 0, 9557
2, 41936, Pitch_bend_c, 0, 9557
2, 41941, Pitch_bend_c, 0, 9557
2, 41946, Pitch_bend_c, 0, 9557
2, 41951, Pitch_bend_c, 0, 9557
2, 41957, Pitch_bend_c, 0, 9557
2, 41962, Pitch_bend_c, 0, 10923
2, 41967, Pitch_bend_c, 0, 10923
2, 41972, Pitch_bend_c, 0, 10923
2, 41977, Pitch_bend_c, 0, 10923
2, 41982, Pitch_bend_c, 0, 10923
2, 41987, Pitch_bend_c, 0, 10923
2, 41992, Pitch_bend_c, 0, 10923
2, 41998, Pitch_bend_c, 0, 10923
2, 42003, Pitch_bend_c, 0, 10923
2, 42008, Pitch_bend_c, 0, 10923
2, 42008, Note_on_c, 0, 57, 0
2, 42146, Note_on_c, 0, 69, 42
2, 42151, Note_on_c, 0, 60, 86
2, 42212, Note_on_c, 0, 69, 0
2, 42274, Note_on_c, 0, 62, 84
2, 42279, Note_on_c, 0, 60, 0
2, 42350, Note_on_c, 0, 62, 0
2, 42350, Note_on_c, 0, 62, 43
2, 42468, Note_on_c, 0, 65, 94
2, 42498, Note_on_c, 0, 62, 0
2, 42667, Note_on_c, 0, 65, 0
2, 42718, Pitch_bend_c, 0, 6827
2, 42718, Note_on_c, 0, 69, 87
2, 42723, Pitch_bend_c, 0, 8192
2, 42729, Pitch_bend_c, 0, 9557
2, 42734, Pitch_bend_c, 0, 9557
2, 42740, Pitch_bend_c, 0, 9557
2, 42745, Pitch_bend_c, 0, 9557
2, 42751, Pitch_bend_c, 0, 9557
2, 42756, Pitch_bend_c, 0, 9557
2, 42762, Pitch_bend_c, 0, 9557
2, 42767, Pitch_bend_c, 0, 9557
2, 42773, Pitch_bend_c, 0, 9557
2, 42778, Pitch_bend_c, 0, 9557
2, 42784, Pitch_bend_c, 0, 9557
2, 42789, Pitch_bend_c, 0, 10923
2, 42795, Pitch_bend_c, 0, 2731
2, 42795, Note_on_c, 0, 69, 0
2, 42867, Pitch_bend_c, 0, 9557
2, 42867, Note_on_c, 0, 69, 79
2, 42872, Pitch_bend_c, 0, 9557
2, 42878, Pitch_bend_c, 0, 8192
2, 42883, Pitch_bend_c, 0, 8192
2, 42889, Pitch_bend_c, 0, 9557
2, 42894, Pitch_bend_c, 0, 9557
2, 42900, Pitch_bend_c, 0, 9557
2, 42905, Pitch_bend_c, 0, 9557
2, 42911, Pitch_bend_c, 0, 8192
2, 42916, Pitch_bend_c, 0, 8192
2, 42922, Pitch_bend_c, 0, 8192
2, 42928, Pitch_bend_c, 0, 8192
2, 42933, Pitch_bend_c, 0, 8192
2, 42933, Note_on_c, 0, 69, 0
2, 43061, Pitch_bend_c, 0, 9557
2, 43061, Note_on_c, 0, 65, 80
2, 43066, Pitch_bend_c, 0, 9557
2, 43072, Pitch_bend_c, 0, 9557
2, 43077, Pitch_bend_c, 0, 9557
2, 43083, Pitch_bend_c, 0, 9557
2, 43088, Pitch_bend_c, 0, 9557
2, 43094, Pitch_bend_c, 0, 9557
2, 43099, Pitch_bend_c, 0, 9557
2, 43105, Pitch_bend_c, 0, 9557
2, 43110, Pitch_bend_c, 0, 9557
2, 43115, Pitch_bend_c, 0, 9557
2, 43121, Pitch_bend_c, 0, 9557
2, 43126, Pitch_bend_c, 0, 9557
2, 43132, Pitch_bend_c, 0, 9557
2, 43137, Pitch_bend_c, 0, 9557
2, 43137, Note_on_c, 0, 65, 0
2, 43286, Pitch_bend_c, 0, 5461
2, 43286, Note_on_c, 0, 72, 82
2, 43291, Pitch_bend_c, 0, 9557
2, 43296, Pitch_bend_c, 0, 9557
2, 43302, Pitch_bend_c, 0, 9557
2, 43307, Pitch_bend_c, 0, 9557
2, 43313, Pitch_bend_c, 0, 9557
2, 43318, Pitch_bend_c, 0, 9557
2, 43324, Pitch_bend_c, 0, 9557
2, 43329, Pitch_bend_c, 0, 9557
2, 43335, Pitch_bend_c, 0, 9557
2, 43340, Pitch_bend_c, 0, 9557
2, 43345, Pitch_bend_c, 0, 9557
2, 43351, Pitch_bend_c, 0, 9557
2, 43356, Pitch_bend_c, 0, 9557
2, 43362, Pitch_bend_c, 0, 9557
2, 43367, Pitch_bend_c, 0, 9557
2, 43367, Note_on_c, 0, 72, 0
2, 43490, Pitch_bend_c, 0, 13653
2, 43490, Note_on_c, 0, 69, 88
2, 43495, Pitch_bend_c, 0, 13653
2, 43501, Pitch_bend_c, 0, 9557
2, 43506, Pitch_bend_c, 0, 9557
2, 43511, Pitch_bend_c, 0, 9557
2, 43517, Pitch_bend_c, 0, 9557
2, 43522, Pitch_bend_c, 0, 9557
2, 43527, Pitch_bend_c, 0, 9557
2, 43533, Pitch_bend_c, 0, 9557
2, 43538, Pitch_bend_c, 0, 9557
2, 43543, Pitch_bend_c, 0, 9557
2, 43549, Pitch_bend_c, 0, 9557
2, 43554, Pitch_bend_c, 0, 9557
2, 43559, Pitch_bend_c, 0, 9557
2, 43565, Pitch_bend_c, 0, 9557
2, 43570, Pitch_bend_c, 0, 9557
2, 43575, Pitch_bend_c, 0, 9557
2, 43581, Pitch_bend_c, 0, 9557
2, 43586, Pitch_bend_c, 0, 9557
2, 43592, Pitch_bend_c, 0, 9557
2, 43597, Pitch_bend_c, 0, 10923
2, 43602, Pitch_bend_c, 0, 10923
2, 43602, Note_on_c, 0, 69, 0
2, 43607, Pitch_bend_c, 0, 9557
2, 43607, Note_on_c, 0, 70, 80
2, 43613, Pitch_bend_c, 0, 9557
2, 43618, Pitch_bend_c, 0, 9557
2, 43624, Pitch_bend_c, 0, 9557
2, 43629, Pitch_bend_c, 0, 9557
2, 43635, Pitch_bend_c, 0, 9557
2, 43640, Pitch_bend_c, 0, 9557
2, 43645, Pitch_bend_c, 0, 9557
2, 43651, Pitch_bend_c, 0, 9557
2, 43656, Pitch_bend_c, 0, 9557
2, 43662, Pitch_bend_c, 0, 9557
2, 43667, Pitch_bend_c, 0, 9557
2, 43673, Pitch_bend_c, 0, 9557
2, 43678, Pitch_bend_c, 0, 9557
2, 43684, Pitch_bend_c, 0, 9557
2, 43689, Pitch_bend_c, 0, 9557
2, 43689, Note_on_c, 0, 69, 82
2, 43689, Note_on_c, 0, 70, 0
2, 43704, Note_on_c, 0, 81, 62
2, 44727, Note_on_c, 0, 81, 0
2, 44850, Note_on_c, 0, 69, 0
2, 44932, Note_on_c, 0, 69, 39
2, 45044, Note_on_c, 0, 81, 46
2, 45110, Note_on_c, 0, 69, 0
2, 45121, Note_on_c, 0, 81, 0
2, 45545, Note_on_c, 0, 62, 67
2, 45760, Note_on_c, 0, 69, 60
2, 45770, Note_on_c, 0, 62, 0
2, 45979, Note_on_c, 0, 69, 0
2, 46046, Note_on_c, 0, 69, 47
2, 46112, Note_on_c, 0, 62, 84
2, 46184, Note_on_c, 0, 60, 88
2, 46194, Note_on_c, 0, 62, 0
2, 46286, Note_on_c, 0, 69, 0
2, 46306, Pitch_bend_c, 0, 9557
2, 46306, Note_on_c, 0, 60, 0
2, 46306, Note_on_c, 0, 60, 57
2, 46311, Pitch_bend_c, 0, 9557
2, 46317, Pitch_bend_c, 0, 9557
2, 46322, Pitch_bend_c, 0, 9557
2, 46327, Pitch_bend_c, 0, 9557
2, 46332, Pitch_bend_c, 0, 9557
2, 46337, Pitch_bend_c, 0, 9557
2, 46342, Pitch_bend_c, 0, 9557
2, 46347, Pitch_bend_c, 0, 9557
2, 46352, Pitch_bend_c, 0, 9557
2, 46357, Pitch_bend_c, 0, 9557
2, 46363, Pitch_bend_c, 0, 10923
2, 46368, Pitch_bend_c, 0, 10923
2, 46373, Pitch_bend_c, 0, 10923
2, 46378, Pitch_bend_c, 0, 10923
2, 46383, Pitch_bend_c, 0, 9557
2, 46388, Pitch_bend_c, 0, 9557
2, 46393, Pitch_bend_c, 0, 8192
2, 46398, Pitch_bend_c, 0, 8192
2, 46404, Pitch_bend_c, 0, 9557
2, 46409, Pitch_bend_c, 0, 10923
2, 46414, Pitch_bend_c, 0, 10923
2, 46419, Pitch_bend_c, 0, 10923
2, 46424, Pitch_bend_c, 0, 10923
2, 46429, Pitch_bend_c, 0, 10923
2, 46434, Pitch_bend_c, 0, 9557
2, 46439, Pitch_bend_c, 0, 9557
2, 46445, Pitch_bend_c, 0, 8192
2, 46450, Pitch_bend_c, 0, 8192
2, 46455, Pitch_bend_c, 0, 8192
2, 46460, Pitch_bend_c, 0, 8192
2, 46465, Pitch_bend_c, 0, 8192
2, 46470, Pitch_bend_c, 0, 8192
2, 46475, Pitch_bend_c, 0, 9557
2, 46480, Pitch_bend_c, 0, 9557
2, 46486, Pitch_bend_c, 0, 9557
2, 46491, Pitch_bend_c, 0, 9557
2, 46496, Pitch_bend_c, 0, 6827
2, 46501, Pitch_bend_c, 0, 6827
2, 46506, Pitch_bend_c, 0, 6827
2, 46511, Pitch_bend_c, 0, 6827
2, 46516, Pitch_bend_c, 0, 9557
2, 46521, Pitch_bend_c, 0, 9557
2, 46526, Pitch_bend_c, 0, 9557
2, 46532, Pitch_bend_c, 0, 9557
2, 46537, Pitch_bend_c, 0, 9557
2, 46537, Note_on_c, 0, 60, 0
2, 46552, Pitch_bend_c, 0, 8192
2, 46552, Note_on_c, 0, 62, 75
2, 46558, Pitch_bend_c, 0, 9557
2, 46563, Pitch_bend_c, 0, 9557
2, 46569, Pitch_bend_c, 0, 9557
2, 46574, Pitch_bend_c, 0, 9557
2, 46580, Pitch_bend_c, 0, 9557
2, 46585, Pitch_bend_c, 0, 9557
2, 46591, Pitch_bend_c, 0, 9557
2, 46596, Pitch_bend_c, 0, 9557
2, 46602, Pitch_bend_c, 0, 9557
2, 46607, Pitch_bend_c, 0, 9557
2, 46613, Pitch_bend_c, 0, 9557
2, 46618, Pitch_bend_c, 0, 9557
2, 46624, Pitch_bend_c, 0, 8192
2, 46624, Note_on_c, 0, 62, 0
2, 46690, Pitch_bend_c, 0, 9557
2, 46690, Note_on_c, 0, 62, 45
2, 46695, Pitch_bend_c, 0, 10923
2, 46701, Pitch_bend_c, 0, 10923
2, 46706, Pitch_bend_c, 0, 8192
2, 46712, Pitch_bend_c, 0, 8192
2, 46717, Pitch_bend_c, 0, 8192
2, 46723, Pitch_bend_c, 0, 8192
2, 46728, Pitch_bend_c, 0, 8192
2, 46733, Pitch_bend_c, 0, 8192
2, 46739, Pitch_bend_c, 0, 8192
2, 46744, Pitch_bend_c, 0, 9557
2, 46750, Pitch_bend_c, 0, 9557
2, 46755, Pitch_bend_c, 0, 10923
2, 46761, Pitch_bend_c, 0, 10923
2, 46766, Pitch_bend_c, 0, 10923
2, 46771, Pitch_bend_c, 0, 10923
2, 46777, Pitch_bend_c, 0, 10923
2, 46777, Note_on_c, 0, 62, 0
2, 46843, Pitch_bend_c, 0, 8192
2, 46843, Note_on_c, 0, 62, 63
2, 46849, Pitch_bend_c, 0, 8192
2, 46854, Pitch_bend_c, 0, 8192
2, 46859, Pitch_bend_c, 0, 9557
2, 46864, Pitch_bend_c, 0, 9557
2, 46870, Pitch_bend_c, 0, 9557
2, 46875, Pitch_bend_c, 0, 9557
2, 46880, Pitch_bend_c, 0, 10923
2, 46886, Pitch_bend_c, 0, 10923
2, 46891, Pitch_bend_c, 0, 10923
2, 46896, Pitch_bend_c, 0, 10923
2, 46902, Pitch_bend_c, 0, 8192
2, 46907, Pitch_bend_c, 0, 8192
2, 46912, Pitch_bend_c, 0, 8192
2, 46917, Pitch_bend_c, 0, 8192
2, 46923, Pitch_bend_c, 0, 8192
2, 46928, Pitch_bend_c, 0, 10923
2, 46933, Pitch_bend_c, 0, 10923
2, 46939, Pitch_bend_c, 0, 10923
2, 46944, Pitch_bend_c, 0, 10923
2, 46949, Pitch_bend_c, 0, 9557
2, 46955, Pitch_bend_c, 0, 9557
2, 46960, Pitch_bend_c, 0, 9557
2, 46965, Pitch_bend_c, 0, 9557
2, 46971, Pitch_bend_c, 0, 9557
2, 46976, Pitch_bend_c, 0, 9557
2, 46981, Pitch_bend_c, 0, 8192
2, 46981, Note_on_c, 0, 62, 0
2, 47906, Pitch_bend_c, 0, 10923
2, 47906, Note_on_c, 0, 81, 40
2, 47912, Pitch_bend_c, 0, 10923
2, 47917, Pitch_bend_c, 0, 10923
2, 47922, Pitch_bend_c, 0, 8192
2, 47928, Pitch_bend_c, 0, 8192
2, 47933, Pitch_bend_c, 0, 8192
2, 47938, Pitch_bend_c, 0, 8192
2, 47943, Pitch_bend_c, 0, 8192
2, 47949, Pitch_bend_c, 0, 10923
2, 47954, Pitch_bend_c, 0, 10923
2, 47959, Pitch_bend_c, 0, 10923
2, 47965, Pitch_bend_c, 0, 10923
2, 47970, Pitch_bend_c, 0, 10923
2, 47975, Pitch_bend_c, 0, 10923
2, 47980, Pitch_bend_c, 0, 10923
2, 47986, Pitch_bend_c, 0, 9557
2, 47991, Pitch_bend_c, 0, 9557
2, 47996, Pitch_bend_c, 0, 8192
2, 48002, Pitch_bend_c, 0, 8192
2, 48007, Pitch_bend_c, 0, 8192
2, 48012, Pitch_bend_c, 0, 8192
2, 48017, Pitch_bend_c, 0, 8192
2, 48023, Pitch_bend_c, 0, 9557
2, 48028, Pitch_bend_c, 0, 9557
2, 48033, Pitch_bend_c, 0, 9557
2, 48039, Pitch_bend_c, 0, 9557
2, 48044, Pitch_bend_c, 0, 9557
2, 48049, Pitch_bend_c, 0, 9557
2, 48054, Pitch_bend_c, 0, 9557
2, 48054, Note_on_c, 0, 81, 0
2, 48275, Pitch_bend_c, 0, 10923
2, 48275, Note_on_c, 0, 69, 54
2, 48280, Pitch_bend_c, 0, 10923
2, 48285, Pitch_bend_c, 0, 10923
2, 48290, Pitch_bend_c, 0, 10923
2, 48296, Pitch_bend_c, 0, 10923
2, 48301, Pitch_bend_c, 0, 10923
2, 48306, Pitch_bend_c, 0, 10923
2, 48312, Pitch_bend_c, 0, 10923
2, 48317, Pitch_bend_c, 0, 10923
2, 48322, Pitch_bend_c, 0, 10923
2, 48327, Pitch_bend_c, 0, 10923
2, 48333, Pitch_bend_c, 0, 10923
2, 48338, Pitch_bend_c, 0, 10923
2, 48343, Pitch_bend_c, 0, 10923
2, 48348, Pitch_bend_c, 0, 10923
2, 48354, Pitch_bend_c, 0, 10923
2, 48359, Pitch_bend_c, 0, 10923
2, 48364, Pitch_bend_c, 0, 10923
2, 48369, Pitch_bend_c, 0, 10923
2, 48375, Pitch_bend_c, 0, 8192
2, 48380, Pitch_bend_c, 0, 8192
2, 48385, Pitch_bend_c, 0, 8192
2, 48390, Pitch_bend_c, 0, 9557
2, 48396, Pitch_bend_c, 0, 9557
2, 48401, Pitch_bend_c, 0, 10923
2, 48406, Pitch_bend_c, 0, 10923
2, 48412, Pitch_bend_c, 0, 10923
2, 48417, Pitch_bend_c, 0, 10923
2, 48422, Pitch_bend_c, 0, 10923
2, 48427, Pitch_bend_c, 0, 10923
2, 48433, Pitch_bend_c, 0, 10923
2, 48438, Pitch_bend_c, 0, 10923
2, 48443, Pitch_bend_c, 0, 10923
2, 48448, Pitch_bend_c, 0, 10923
2, 48448, Note_on_c, 0, 69, 0
2, 48786, Pitch_bend_c, 0, 9557
2, 48786, Note_on_c, 0, 65, 70
2, 48791, Pitch_bend_c, 0, 9557
2, 48796, Pitch_bend_c, 0, 9557
2, 48802, Pitch_bend_c, 0, 9557
2, 48807, Pitch_bend_c, 0, 9557
2, 48812, Pitch_bend_c, 0, 9557
2, 48818, Pitch_bend_c, 0, 9557
2, 48823, Pitch_bend_c, 0, 9557
2, 48828, Pitch_bend_c, 0, 9557
2, 48834, Pitch_bend_c, 0, 9557
2, 48839, Pitch_bend_c, 0, 8192
2, 48844, Pitch_bend_c, 0, 8192
2, 48850, Pitch_bend_c, 0, 8192
2, 48855, Pitch_bend_c, 0, 8192
2, 48860, Pitch_bend_c, 0, 8192
2, 48866, Pitch_bend_c, 0, 8192
2, 48871, Pitch_bend_c, 0, 8192
2, 48877, Pitch_bend_c, 0, 8192
2, 48882, Pitch_bend_c, 0, 9557
2, 48887, Pitch_bend_c, 0, 9557
2, 48893, Pitch_bend_c, 0, 9557
2, 48898, Pitch_bend_c, 0, 8192
2, 48898, Note_on_c, 0, 65, 0
2, 48955, Pitch_bend_c, 0, 9557
2, 48955, Note_on_c, 0, 65, 43
2, 48960, Pitch_bend_c, 0, 10923
2, 48965, Pitch_bend_c, 0, 10923
2, 48970, Pitch_bend_c, 0, 10923
2, 48976, Pitch_bend_c, 0, 10923
2, 48981, Pitch_bend_c, 0, 10923
2, 48986, Pitch_bend_c, 0, 10923
2, 48991, Pitch_bend_c, 0, 9557
2, 48997, Pitch_bend_c, 0, 8192
2, 49002, Pitch_bend_c, 0, 6827
2, 49007, Pitch_bend_c, 0, 8192
2, 49012, Pitch_bend_c, 0, 8192
2, 49018, Pitch_bend_c, 0, 10923
2, 49023, Pitch_bend_c, 0, 10923
2, 49028, Pitch_bend_c, 0, 12288
2, 49033, Pitch_bend_c, 0, 12288
2, 49039, Pitch_bend_c, 0, 12288
2, 49044, Pitch_bend_c, 0, 12288
2, 49049, Pitch_bend_c, 0, 9557
2, 49054, Pitch_bend_c, 0, 8192
2, 49060, Pitch_bend_c, 0, 8192
2, 49065, Pitch_bend_c, 0, 8192
2, 49070, Pitch_bend_c, 0, 8192
2, 49075, Pitch_bend_c, 0, 8192
2, 49081, Pitch_bend_c, 0, 8192
2, 49086, Pitch_bend_c, 0, 8192
2, 49091, Pitch_bend_c, 0, 8192
2, 49096, Pitch_bend_c, 0, 8192
2, 49101, Pitch_bend_c, 0, 8192
2, 49107, Pitch_bend_c, 0, 8192
2, 49112, Pitch_bend_c, 0, 8192
2, 49117, Pitch_bend_c, 0, 8192
2, 49122, Pitch_bend_c, 0, 8192
2, 49128, Pitch_bend_c, 0, 8192
2, 49133, Pitch_bend_c, 0, 8192
2, 49138, Pitch_bend_c, 0, 9557
2, 49143, Pitch_bend_c, 0, 9557
2, 49149, Pitch_bend_c, 0, 9557
2, 49154, Pitch_bend_c, 0, 9557
2, 49154, Pitch_bend_c, 0, 10923
2, 49154, Note_on_c, 0, 65, 0
2, 49154, Note_on_c, 0, 65, 43
2, 49159, Pitch_bend_c, 0, 10923
2, 49165, Pitch_bend_c, 0, 10923
2, 49170, Pitch_bend_c, 0, 10923
2, 49175, Pitch_bend_c, 0, 10923
2, 49181, Pitch_bend_c, 0, 9557
2, 49186, Pitch_bend_c, 0, 6827
2, 49191, Pitch_bend_c, 0, 8192
2, 49197, Pitch_bend_c, 0, 9557
2, 49202, Pitch_bend_c, 0, 9557
2, 49207, Pitch_bend_c, 0, 10923
2, 49213, Pitch_bend_c, 0, 10923
2, 49218, Pitch_bend_c, 0, 12288
2, 49223, Pitch_bend_c, 0, 12288
2, 49229, Pitch_bend_c, 0, 12288
2, 49234, Pitch_bend_c, 0, 12288
2, 49239, Pitch_bend_c, 0, 6827
2, 49245, Pitch_bend_c, 0, 6827
2, 49250, Pitch_bend_c, 0, 6827
2, 49255, Pitch_bend_c, 0, 10923
2, 49261, Pitch_bend_c, 0, 10923
2, 49266, Pitch_bend_c, 0, 10923
2, 49271, Pitch_bend_c, 0, 8192
2, 49271, Note_on_c, 0, 65, 0
2, 49409, Pitch_bend_c, 0, 9557
2, 49409, Note_on_c, 0, 67, 71
2, 49415, Pitch_bend_c, 0, 9557
2, 49420, Pitch_bend_c, 0, 9557
2, 49425, Pitch_bend_c, 0, 9557
2, 49431, Pitch_bend_c, 0, 9557
2, 49436, Pitch_bend_c, 0, 9557
2, 49441, Pitch_bend_c, 0, 9557
2, 49447, Pitch_bend_c, 0, 9557
2, 49452, Pitch_bend_c, 0, 9557
2, 49457, Pitch_bend_c, 0, 9557
2, 49462, Pitch_bend_c, 0, 9557
2, 49468, Pitch_bend_c, 0, 9557
2, 49473, Pitch_bend_c, 0, 9557
2, 49478, Pitch_bend_c, 0, 9557
2, 49484, Pitch_bend_c, 0, 9557
2, 49489, Pitch_bend_c, 0, 9557
2, 49494, Pitch_bend_c, 0, 9557
2, 49500, Pitch_bend_c, 0, 9557
2, 49505, Pitch_bend_c, 0, 9557
2, 49510, Pitch_bend_c, 0, 9557
2, 49516, Pitch_bend_c, 0, 9557
2, 49521, Pitch_bend_c, 0, 8192
2, 49526, Pitch_bend_c, 0, 9557
2, 49532, Pitch_bend_c, 0, 9557
2, 49537, Pitch_bend_c, 0, 9557
2, 49542, Pitch_bend_c, 0, 9557
2, 49542, Pitch_bend_c, 0, 10923
2, 49542, Note_on_c, 0, 67, 0
2, 49542, Note_on_c, 0, 67, 70
2, 49547, Pitch_bend_c, 0, 10923
2, 49553, Pitch_bend_c, 0, 10923
2, 49558, Pitch_bend_c, 0, 9557
2, 49563, Pitch_bend_c, 0, 9557
2, 49568, Pitch_bend_c, 0, 8192
2, 49574, Pitch_bend_c, 0, 8192
2, 49579, Pitch_bend_c, 0, 8192
2, 49584, Pitch_bend_c, 0, 9557
2, 49589, Pitch_bend_c, 0, 9557
2, 49595, Pitch_bend_c, 0, 10923
2, 49600, Pitch_bend_c, 0, 12288
2, 49605, Pitch_bend_c, 0, 12288
2, 49610, Pitch_bend_c, 0, 9557
2, 49616, Pitch_bend_c, 0, 9557
2, 49621, Pitch_bend_c, 0, 9557
2, 49626, Pitch_bend_c, 0, 9557
2, 49631, Pitch_bend_c, 0, 9557
2, 49637, Pitch_bend_c, 0, 9557
2, 49642, Pitch_bend_c, 0, 9557
2, 49647, Pitch_bend_c, 0, 9557
2, 49652, Pitch_bend_c, 0, 9557
2, 49658, Pitch_bend_c, 0, 9557
2, 49663, Pitch_bend_c, 0, 9557
2, 49668, Pitch_bend_c, 0, 9557
2, 49673, Pitch_bend_c, 0, 9557
2, 49679, Pitch_bend_c, 0, 9557
2, 49684, Pitch_bend_c, 0, 9557
2, 49689, Pitch_bend_c, 0, 9557
2, 49694, Pitch_bend_c, 0, 9557
2, 49700, Pitch_bend_c, 0, 9557
2, 49705, Pitch_bend_c, 0, 9557
2, 49710, Pitch_bend_c, 0, 9557
2, 49715, Pitch_bend_c, 0, 10923
2, 49721, Pitch_bend_c, 0, 10923
2, 49726, Pitch_bend_c, 0, 10923
2, 49731, Pitch_bend_c, 0, 9557
2, 49731, Note_on_c, 0, 67, 0
2, 49731, Note_on_c, 0, 67, 46
2, 49792, Note_on_c, 0, 69, 95
2, 49865, Note_on_c, 0, 67, 0
2, 50033, Note_on_c, 0, 69, 0
2, 50324, Pitch_bend_c, 0, 9557
2, 50324, Note_on_c, 0, 65, 30
2, 50330, Pitch_bend_c, 0, 9557
2, 50335, Pitch_bend_c, 0, 9557
2, 50341, Pitch_bend_c, 0, 10923
2, 50346, Pitch_bend_c, 0, 10923
2, 50352, Pitch_bend_c, 0, 10923
2, 50358, Pitch_bend_c, 0, 9557
2, 50363, Pitch_bend_c, 0, 9557
2, 50369, Pitch_bend_c, 0, 9557
2, 50374, Pitch_bend_c, 0, 8192
2, 50380, Pitch_bend_c, 0, 10923
2, 50385, Pitch_bend_c, 0, 10923
2, 50391, Pitch_bend_c, 0, 9557
2, 50391, Note_on_c, 0, 65, 0
2, 50396, Pitch_bend_c, 0, 9557
2, 50396, Note_on_c, 0, 65, 60
2, 50401, Pitch_bend_c, 0, 10923
2, 50407, Pitch_bend_c, 0, 10923
2, 50412, Pitch_bend_c, 0, 9557
2, 50417, Pitch_bend_c, 0, 9557
2, 50423, Pitch_bend_c, 0, 9557
2, 50428, Pitch_bend_c, 0, 9557
2, 50433, Pitch_bend_c, 0, 9557
2, 50439, Pitch_bend_c, 0, 9557
2, 50444, Pitch_bend_c, 0, 9557
2, 50449, Pitch_bend_c, 0, 9557
2, 50455, Pitch_bend_c, 0, 9557
2, 50460, Pitch_bend_c, 0, 9557
2, 50466, Pitch_bend_c, 0, 9557
2, 50471, Pitch_bend_c, 0, 9557
2, 50476, Pitch_bend_c, 0, 8192
2, 50482, Pitch_bend_c, 0, 8192
2, 50487, Pitch_bend_c, 0, 9557
2, 50492, Pitch_bend_c, 0, 9557
2, 50498, Pitch_bend_c, 0, 9557
2, 50503, Pitch_bend_c, 0, 10923
2, 50503, Pitch_bend_c, 0, 10923
2, 50503, Note_on_c, 0, 65, 0
2, 50503, Note_on_c, 0, 65, 62
2, 50508, Pitch_bend_c, 0, 10923
2, 50514, Pitch_bend_c, 0, 10923
2, 50519, Pitch_bend_c, 0, 10923
2, 50524, Pitch_bend_c, 0, 10923
2, 50530, Pitch_bend_c, 0, 10923
2, 50535, Pitch_bend_c, 0, 10923
2, 50540, Pitch_bend_c, 0, 8192
2, 50545, Pitch_bend_c, 0, 9557
2, 50551, Pitch_bend_c, 0, 9557
2, 50556, Pitch_bend_c, 0, 10923
2, 50561, Pitch_bend_c, 0, 10923
2, 50567, Pitch_bend_c, 0, 10923
2, 50572, Pitch_bend_c, 0, 10923
2, 50577, Pitch_bend_c, 0, 10923
2, 50582, Pitch_bend_c, 0, 10923
2, 50588, Pitch_bend_c, 0, 10923
2, 50593, Pitch_bend_c, 0, 9557
2, 50598, Pitch_bend_c, 0, 9557
2, 50604, Pitch_bend_c, 0, 9557
2, 50609, Pitch_bend_c, 0, 9557
2, 50614, Pitch_bend_c, 0, 10923
2, 50619, Pitch_bend_c, 0, 10923
2, 50625, Pitch_bend_c, 0, 10923
2, 50630, Pitch_bend_c, 0, 10923
2, 50635, Pitch_bend_c, 0, 10923
2, 50641, Pitch_bend_c, 0, 9557
2, 50646, Pitch_bend_c, 0, 8192
2, 50651, Pitch_bend_c, 0, 8192
2, 50651, Note_on_c, 0, 65, 0
2, 50651, Note_on_c, 0, 65, 76
2, 50928, Note_on_c, 0, 67, 85
2, 50933, Note_on_c, 0, 65, 0
2, 51076, Note_on_c, 0, 67, 0
2, 51076, Note_on_c, 0, 67, 56
2, 51316, Note_on_c, 0, 69, 102
2, 51393, Note_on_c, 0, 67, 0
2, 53151, Note_on_c, 0, 69, 0
2, 53233, Note_on_c, 0, 69, 46
2, 53243, Note_on_c, 0, 86, 52
2, 53248, Note_on_c, 0, 74, 74
2, 53341, Note_on_c, 0, 69, 0
2, 54132, Note_on_c, 0, 74, 0
2, 54215, Note_on_c, 0, 69, 52
2, 54271, Note_on_c, 0, 86, 0
2, 54276, Note_on_c, 0, 69, 0
2, 54332, Pitch_bend_c, 0, 5461
2, 54332, Note_on_c, 0, 72, 75
2, 54338, Pitch_bend_c, 0, 9557
2, 54343, Pitch_bend_c, 0, 9557
2, 54349, Pitch_bend_c, 0, 9557
2, 54354, Pitch_bend_c, 0, 9557
2, 54360, Pitch_bend_c, 0, 9557
2, 54365, Pitch_bend_c, 0, 9557
2, 54371, Pitch_bend_c, 0, 9557
2, 54376, Pitch_bend_c, 0, 9557
2, 54382, Pitch_bend_c, 0, 9557
2, 54387, Pitch_bend_c, 0, 9557
2, 54393, Pitch_bend_c, 0, 9557
2, 54398, Pitch_bend_c, 0, 9557
2, 54404, Pitch_bend_c, 0, 9557
2, 54404, Note_on_c, 0, 72, 0
2, 54429, Pitch_bend_c, 0, 9557
2, 54429, Note_on_c, 0, 74, 88
2, 54434, Pitch_bend_c, 0, 13653
2, 54440, Pitch_bend_c, 0, 13653
2, 54445, Pitch_bend_c, 0, 9557
2, 54450, Pitch_bend_c, 0, 9557
2, 54455, Pitch_bend_c, 0, 9557
2, 54461, Pitch_bend_c, 0, 9557
2, 54466, Pitch_bend_c, 0, 9557
2, 54471, Pitch_bend_c, 0, 9557
2, 54476, Pitch_bend_c, 0, 9557
2, 54481, Pitch_bend_c, 0, 10923
2, 54487, Pitch_bend_c, 0, 10923
2, 54492, Pitch_bend_c, 0, 9557
2, 54497, Pitch_bend_c, 0, 8192
2, 54502, Pitch_bend_c, 0, 8192
2, 54508, Pitch_bend_c, 0, 8192
2, 54513, Pitch_bend_c, 0, 9557
2, 54518, Pitch_bend_c, 0, 9557
2, 54523, Pitch_bend_c, 0, 9557
2, 54529, Pitch_bend_c, 0, 10923
2, 54534, Pitch_bend_c, 0, 10923
2, 54539, Pitch_bend_c, 0, 10923
2, 54544, Pitch_bend_c, 0, 10923
2, 54549, Pitch_bend_c, 0, 8192
2, 54555, Pitch_bend_c, 0, 8192
2, 54560, Pitch_bend_c, 0, 9557
2, 54565, Pitch_bend_c, 0, 9557
2, 54570, Pitch_bend_c, 0, 9557
2, 54576, Pitch_bend_c, 0, 9557
2, 54581, Pitch_bend_c, 0, 9557
2, 54586, Pitch_bend_c, 0, 9557
2, 54591, Pitch_bend_c, 0, 9557
2, 54597, Pitch_bend_c, 0, 9557
2, 54602, Pitch_bend_c, 0, 9557
2, 54607, Pitch_bend_c, 0, 9557
2, 54612, Pitch_bend_c, 0, 10923
2, 54617, Pitch_bend_c, 0, 10923
2, 54623, Pitch_bend_c, 0, 10923
2, 54628, Pitch_bend_c, 0, 10923
2, 54633, Pitch_bend_c, 0, 9557
2, 54638, Pitch_bend_c, 0, 9557
2, 54644, Pitch_bend_c, 0, 9557
2, 54649, Pitch_bend_c, 0, 9557
2, 54649, Note_on_c, 0, 74, 0
2, 54700, Pitch_bend_c, 0, 9557
2, 54700, Note_on_c, 0, 85, 39
2, 54705, Pitch_bend_c, 0, 9557
2, 54711, Pitch_bend_c, 0, 9557
2, 54717, Pitch_bend_c, 0, 8192
2, 54722, Pitch_bend_c, 0, 8192
2, 54728, Pitch_bend_c, 0, 8192
2, 54733, Pitch_bend_c, 0, 8192
2, 54739, Pitch_bend_c, 0, 8192
2, 54744, Pitch_bend_c, 0, 6827
2, 54750, Pitch_bend_c, 0, 6827
2, 54755, Pitch_bend_c, 0, 6827
2, 54761, Pitch_bend_c, 0, 6827
2, 54766, Pitch_bend_c, 0, 9557
2, 54766, Note_on_c, 0, 85, 0
2, 54771, Note_on_c, 0, 74, 82
2, 54782, Note_on_c, 0, 86, 50
2, 54955, Note_on_c, 0, 86, 0
2, 54971, Note_on_c, 0, 74, 0
2, 55268, Note_on_c, 0, 86, 53
2, 55283, Note_on_c, 0, 74, 56
2, 55329, Note_on_c, 0, 86, 0
2, 55446, Note_on_c, 0, 74, 0
2, 55548, Pitch_bend_c, 0, 6827
2, 55548, Note_on_c, 0, 77, 91
2, 55554, Pitch_bend_c, 0, 6827
2, 55559, Pitch_bend_c, 0, 8192
2, 55564, Pitch_bend_c, 0, 9557
2, 55569, Pitch_bend_c, 0, 9557
2, 55574, Pitch_bend_c, 0, 9557
2, 55579, Pitch_bend_c, 0, 9557
2, 55584, Pitch_bend_c, 0, 9557
2, 55589, Pitch_bend_c, 0, 9557
2, 55594, Pitch_bend_c, 0, 9557
2, 55600, Pitch_bend_c, 0, 9557
2, 55605, Pitch_bend_c, 0, 9557
2, 55610, Pitch_bend_c, 0, 9557
2, 55615, Pitch_bend_c, 0, 9557
2, 55620, Pitch_bend_c, 0, 9557
2, 55625, Pitch_bend_c, 0, 9557
2, 55630, Pitch_bend_c, 0, 9557
2, 55635, Pitch_bend_c, 0, 9557
2, 55641, Pitch_bend_c, 0, 9557
2, 55646, Pitch_bend_c, 0, 9557
2, 55651, Pitch_bend_c, 0, 9557
2, 55656, Pitch_bend_c, 0, 9557
2, 55661, Pitch_bend_c, 0, 9557
2, 55666, Pitch_bend_c, 0, 9557
2, 55671, Pitch_bend_c, 0, 9557
2, 55676, Pitch_bend_c, 0, 9557
2, 55681, Pitch_bend_c, 0, 9557
2, 55687, Pitch_bend_c, 0, 9557
2, 55692, Pitch_bend_c, 0, 9557
2, 55697, Pitch_bend_c, 0, 9557
2, 55702, Pitch_bend_c, 0, 9557
2, 55707, Pitch_bend_c, 0, 9557
2, 55712, Pitch_bend_c, 0, 9557
2, 55717, Pitch_bend_c, 0, 9557
2, 55722, Pitch_bend_c, 0, 9557
2, 55727, Pitch_bend_c, 0, 9557
2, 55733, Pitch_bend_c, 0, 9557
2, 55738, Pitch_bend_c, 0, 9557
2, 55743, Pitch_bend_c, 0, 9557
2, 55748, Pitch_bend_c, 0, 9557
2, 55753, Pitch_bend_c, 0, 9557
2, 55758, Pitch_bend_c, 0, 9557
2, 55763, Pitch_bend_c, 0, 9557
2, 55768, Pitch_bend_c, 0, 9557
2, 55774, Pitch_bend_c, 0, 9557
2, 55779, Pitch_bend_c, 0, 9557
2, 55784, Pitch_bend_c, 0, 9557
2, 55789, Pitch_bend_c, 0, 9557
2, 55794, Pitch_bend_c, 0, 9557
2, 55799, Pitch_bend_c, 0, 9557
2, 55804, Pitch_bend_c, 0, 9557
2, 55809, Pitch_bend_c, 0, 9557
2, 55814, Pitch_bend_c, 0, 9557
2, 55820, Pitch_bend_c, 0, 9557
2, 55825, Pitch_bend_c, 0, 9557
2, 55830, Pitch_bend_c, 0, 9557
2, 55835, Pitch_bend_c, 0, 9557
2, 55840, Pitch_bend_c, 0, 9557
2, 55845, Pitch_bend_c, 0, 9557
2, 55850, Pitch_bend_c, 0, 9557
2, 55855, Pitch_bend_c, 0, 9557
2, 55860, Pitch_bend_c, 0, 9557
2, 55866, Pitch_bend_c, 0, 9557
2, 55871, Pitch_bend_c, 0, 9557
2, 55876, Pitch_bend_c, 0, 9557
2, 55881, Pitch_bend_c, 0, 9557
2, 55886, Pitch_bend_c, 0, 9557
2, 55891, Pitch_bend_c, 0, 9557
2, 55896, Pitch_bend_c, 0, 9557
2, 55901, Pitch_bend_c, 0, 9557
2, 55907, Pitch_bend_c, 0, 9557
2, 55912, Pitch_bend_c, 0, 9557
2, 55917, Pitch_bend_c, 0, 9557
2, 55922, Pitch_bend_c, 0, 9557
2, 55927, Pitch_bend_c, 0, 9557
2, 55932, Pitch_bend_c, 0, 9557
2, 55937, Pitch_bend_c, 0, 9557
2, 55942, Pitch_bend_c, 0, 9557
2, 55947, Pitch_bend_c, 0, 9557
2, 55953, Pitch_bend_c, 0, 9557
2, 55958, Pitch_bend_c, 0, 9557
2, 55963, Pitch_bend_c, 0, 9557
2, 55968, Pitch_bend_c, 0, 9557
2, 55973, Pitch_bend_c, 0, 9557
2, 55978, Pitch_bend_c, 0, 9557
2, 55983, Pitch_bend_c, 0, 9557
2, 55988, Pitch_bend_c, 0, 9557
2, 55988, Note_on_c, 0, 77, 0
2, 56050, Note_on_c, 0, 76, 91
2, 56898, Note_on_c, 0, 74, 79
2, 56960, Note_on_c, 0, 74, 0
2, 57307, Note_on_c, 0, 72, 95
2, 57373, Note_on_c, 0, 76, 0
2, 57491, Note_on_c, 0, 72, 0
2, 57547, Pitch_bend_c, 0, 6827
2, 57547, Note_on_c, 0, 74, 59
2, 57552, Pitch_bend_c, 0, 6827
2, 57558, Pitch_bend_c, 0, 9557
2, 57563, Pitch_bend_c, 0, 9557
2, 57568, Pitch_bend_c, 0, 10923
2, 57574, Pitch_bend_c, 0, 10923
2, 57579, Pitch_bend_c, 0, 10923
2, 57585, Pitch_bend_c, 0, 10923
2, 57590, Pitch_bend_c, 0, 9557
2, 57595, Pitch_bend_c, 0, 6827
2, 57601, Pitch_bend_c, 0, 8192
2, 57606, Pitch_bend_c, 0, 8192
2, 57612, Pitch_bend_c, 0, 8192
2, 57617, Pitch_bend_c, 0, 9557
2, 57622, Pitch_bend_c, 0, 9557
2, 57628, Pitch_bend_c, 0, 9557
2, 57633, Pitch_bend_c, 0, 10923
2, 57638, Pitch_bend_c, 0, 10923
2, 57644, Pitch_bend_c, 0, 9557
2, 57649, Pitch_bend_c, 0, 6827
2, 57649, Note_on_c, 0, 74, 0
2, 57818, Note_on_c, 0, 86, 39
2, 57823, Note_on_c, 0, 74, 72
2, 57885, Note_on_c, 0, 86, 0
2, 58023, Note_on_c, 0, 74, 0
2, 58247, Pitch_bend_c, 0, 9557
2, 58247, Note_on_c, 0, 74, 48
2, 58253, Pitch_bend_c, 0, 9557
2, 58258, Pitch_bend_c, 0, 9557
2, 58264, Pitch_bend_c, 0, 9557
2, 58269, Pitch_bend_c, 0, 9557
2, 58275, Pitch_bend_c, 0, 9557
2, 58280, Pitch_bend_c, 0, 9557
2, 58285, Pitch_bend_c, 0, 8192
2, 58291, Pitch_bend_c, 0, 8192
2, 58296, Pitch_bend_c, 0, 8192
2, 58302, Pitch_bend_c, 0, 8192
2, 58307, Pitch_bend_c, 0, 8192
2, 58313, Pitch_bend_c, 0, 8192
2, 58318, Pitch_bend_c, 0, 8192
2, 58323, Pitch_bend_c, 0, 8192
2, 58329, Pitch_bend_c, 0, 9557
2, 58334, Pitch_bend_c, 0, 9557
2, 58334, Note_on_c, 0, 74, 0
2, 58339, Pitch_bend_c, 0, 5461
2, 58339, Note_on_c, 0, 74, 60
2, 58345, Pitch_bend_c, 0, 9557
2, 58350, Pitch_bend_c, 0, 9557
2, 58355, Pitch_bend_c, 0, 9557
2, 58360, Pitch_bend_c, 0, 9557
2, 58366, Pitch_bend_c, 0, 9557
2, 58371, Pitch_bend_c, 0, 9557
2, 58376, Pitch_bend_c, 0, 9557
2, 58382, Pitch_bend_c, 0, 9557
2, 58387, Pitch_bend_c, 0, 9557
2, 58392, Pitch_bend_c, 0, 9557
2, 58397, Pitch_bend_c, 0, 9557
2, 58403, Pitch_bend_c, 0, 9557
2, 58408, Pitch_bend_c, 0, 8192
2, 58413, Pitch_bend_c, 0, 8192
2, 58419, Pitch_bend_c, 0, 8192
2, 58424, Pitch_bend_c, 0, 8192
2, 58429, Pitch_bend_c, 0, 8192
2, 58434, Pitch_bend_c, 0, 8192
2, 58440, Pitch_bend_c, 0, 9557
2, 58445, Pitch_bend_c, 0, 9557
2, 58450, Pitch_bend_c, 0, 9557
2, 58456, Pitch_bend_c, 0, 9557
2, 58461, Pitch_bend_c, 0, 9557
2, 58466, Pitch_bend_c, 0, 9557
2, 58471, Pitch_bend_c, 0, 9557
2, 58477, Pitch_bend_c, 0, 9557
2, 58482, Pitch_bend_c, 0, 8192
2, 58487, Pitch_bend_c, 0, 8192
2, 58493, Pitch_bend_c, 0, 8192
2, 58493, Note_on_c, 0, 74, 0
2, 58590, Note_on_c, 0, 74, 51
2, 58600, Note_on_c, 0, 77, 96
2, 58759, Note_on_c, 0, 74, 0
2, 58841, Note_on_c, 0, 74, 58
2, 58984, Note_on_c, 0, 74, 0
2, 59019, Pitch_bend_c, 0, 10923
2, 59019, Note_on_c, 0, 76, 88
2, 59019, Note_on_c, 0, 77, 0
2, 59025, Pitch_bend_c, 0, 9557
2, 59030, Pitch_bend_c, 0, 9557
2, 59035, Pitch_bend_c, 0, 9557
2, 59041, Pitch_bend_c, 0, 9557
2, 59046, Pitch_bend_c, 0, 9557
2, 59052, Pitch_bend_c, 0, 9557
2, 59057, Pitch_bend_c, 0, 9557
2, 59062, Pitch_bend_c, 0, 9557
2, 59068, Pitch_bend_c, 0, 9557
2, 59073, Pitch_bend_c, 0, 9557
2, 59079, Pitch_bend_c, 0, 9557
2, 59084, Pitch_bend_c, 0, 9557
2, 59089, Pitch_bend_c, 0, 9557
2, 59095, Pitch_bend_c, 0, 9557
2, 59100, Pitch_bend_c, 0, 9557
2, 59106, Pitch_bend_c, 0, 9557
2, 59111, Pitch_bend_c, 0, 9557
2, 59116, Pitch_bend_c, 0, 9557
2, 59116, Pitch_bend_c, 0, 9557
2, 59116, Note_on_c, 0, 76, 0
2, 59116, Note_on_c, 0, 76, 69
2, 59122, Pitch_bend_c, 0, 9557
2, 59127, Pitch_bend_c, 0, 9557
2, 59132, Pitch_bend_c, 0, 9557
2, 59137, Pitch_bend_c, 0, 9557
2, 59143, Pitch_bend_c, 0, 9557
2, 59148, Pitch_bend_c, 0, 9557
2, 59153, Pitch_bend_c, 0, 9557
2, 59159, Pitch_bend_c, 0, 9557
2, 59164, Pitch_bend_c, 0, 9557
2, 59169, Pitch_bend_c, 0, 9557
2, 59174, Pitch_bend_c, 0, 9557
2, 59180, Pitch_bend_c, 0, 9557
2, 59185, Pitch_bend_c, 0, 9557
2, 59190, Pitch_bend_c, 0, 13653
2, 59196, Pitch_bend_c, 0, 13653
2, 59201, Pitch_bend_c, 0, 9557
2, 59206, Pitch_bend_c, 0, 9557
2, 59211, Pitch_bend_c, 0, 9557
2, 59217, Pitch_bend_c, 0, 13653
2, 59222, Pitch_bend_c, 0, 13653
2, 59227, Pitch_bend_c, 0, 9557
2, 59233, Pitch_bend_c, 0, 9557
2, 59238, Pitch_bend_c, 0, 9557
2, 59243, Pitch_bend_c, 0, 9557
2, 59248, Pitch_bend_c, 0, 9557
2, 59254, Pitch_bend_c, 0, 9557
2, 59259, Pitch_bend_c, 0, 9557
2, 59264, Pitch_bend_c, 0, 10923
2, 59269, Pitch_bend_c, 0, 10923
2, 59275, Pitch_bend_c, 0, 10923
2, 59275, Pitch_bend_c, 0, 10923
2, 59275, Note_on_c, 0, 76, 0
2, 59275, Note_on_c, 0, 76, 98
2, 59280, Pitch_bend_c, 0, 9557
2, 59285, Pitch_bend_c, 0, 9557
2, 59290, Pitch_bend_c, 0, 9557
2, 59295, Pitch_bend_c, 0, 9557
2, 59300, Pitch_bend_c, 0, 9557
2, 59305, Pitch_bend_c, 0, 9557
2, 59311, Pitch_bend_c, 0, 9557
2, 59316, Pitch_bend_c, 0, 9557
2, 59321, Pitch_bend_c, 0, 9557
2, 59326, Pitch_bend_c, 0, 9557
2, 59331, Pitch_bend_c, 0, 9557
2, 59336, Pitch_bend_c, 0, 9557
2, 59341, Pitch_bend_c, 0, 9557
2, 59346, Pitch_bend_c, 0, 9557
2, 59351, Pitch_bend_c, 0, 9557
2, 59357, Pitch_bend_c, 0, 9557
2, 59362, Pitch_bend_c, 0, 9557
2, 59367, Pitch_bend_c, 0, 9557
2, 59372, Pitch_bend_c, 0, 9557
2, 59377, Pitch_bend_c, 0, 9557
2, 59382, Pitch_bend_c, 0, 10923
2, 59387, Pitch_bend_c, 0, 10923
2, 59392, Pitch_bend_c, 0, 10923
2, 59397, Pitch_bend_c, 0, 10923
2, 59403, Pitch_bend_c, 0, 10923
2, 59408, Pitch_bend_c, 0, 9557
2, 59413, Pitch_bend_c, 0, 9557
2, 59418, Pitch_bend_c, 0, 9557
2, 59423, Pitch_bend_c, 0, 9557
2, 59428, Pitch_bend_c, 0, 9557
2, 59433, Pitch_bend_c, 0, 9557
2, 59438, Pitch_bend_c, 0, 9557
2, 59443, Pitch_bend_c, 0, 9557
2, 59449, Pitch_bend_c, 0, 9557
2, 59454, Pitch_bend_c, 0, 9557
2, 59459, Pitch_bend_c, 0, 9557
2, 59464, Pitch_bend_c, 0, 9557
2, 59469, Pitch_bend_c, 0, 9557
2, 59474, Pitch_bend_c, 0, 9557
2, 59479, Pitch_bend_c, 0, 9557
2, 59484, Pitch_bend_c, 0, 9557
2, 59489, Pitch_bend_c, 0, 9557
2, 59495, Pitch_bend_c, 0, 9557
2, 59500, Pitch_bend_c, 0, 9557
2, 59505, Pitch_bend_c, 0, 9557
2, 59510, Pitch_bend_c, 0, 9557
2, 59515, Pitch_bend_c, 0, 9557
2, 59520, Pitch_bend_c, 0, 9557
2, 59525, Pitch_bend_c, 0, 9557
2, 59530, Pitch_bend_c, 0, 9557
2, 59535, Pitch_bend_c, 0, 9557
2, 59541, Pitch_bend_c, 0, 9557
2, 59546, Pitch_bend_c, 0, 9557
2, 59551, Pitch_bend_c, 0, 9557
2, 59556, Pitch_bend_c, 0, 9557
2, 59561, Pitch_bend_c, 0, 9557
2, 59566, Pitch_bend_c, 0, 9557
2, 59571, Pitch_bend_c, 0, 9557
2, 59576, Pitch_bend_c, 0, 9557
2, 59581, Pitch_bend_c, 0, 9557
2, 59587, Pitch_bend_c, 0, 9557
2, 59592, Pitch_bend_c, 0, 9557
2, 59597, Pitch_bend_c, 0, 9557
2, 59602, Pitch_bend_c, 0, 9557
2, 59607, Pitch_bend_c, 0, 9557
2, 59612, Pitch_bend_c, 0, 9557
2, 59617, Pitch_bend_c, 0, 9557
2, 59622, Pitch_bend_c, 0, 8192
2, 59627, Pitch_bend_c, 0, 8192
2, 59633, Pitch_bend_c, 0, 9557
2, 59638, Pitch_bend_c, 0, 9557
2, 59643, Pitch_bend_c, 0, 10923
2, 59648, Pitch_bend_c, 0, 10923
2, 59653, Pitch_bend_c, 0, 10923
2, 59658, Pitch_bend_c, 0, 10923
2, 59663, Pitch_bend_c, 0, 9557
2, 59668, Pitch_bend_c, 0, 9557
2, 59673, Pitch_bend_c, 0, 9557
2, 59679, Pitch_bend_c, 0, 9557
2, 59684, Pitch_bend_c, 0, 9557
2, 59689, Pitch_bend_c, 0, 9557
2, 59694, Pitch_bend_c, 0, 9557
2, 59699, Pitch_bend_c, 0, 9557
2, 59704, Pitch_bend_c, 0, 9557
2, 59709, Pitch_bend_c, 0, 9557
2, 59714, Pitch_bend_c, 0, 9557
2, 59719, Pitch_bend_c, 0, 9557
2, 59725, Pitch_bend_c, 0, 9557
2, 59730, Pitch_bend_c, 0, 9557
2, 59735, Pitch_bend_c, 0, 9557
2, 59740, Pitch_bend_c, 0, 9557
2, 59745, Pitch_bend_c, 0, 9557
2, 59750, Pitch_bend_c, 0, 9557
2, 59755, Pitch_bend_c, 0, 9557
2, 59760, Pitch_bend_c, 0, 9557
2, 59765, Pitch_bend_c, 0, 9557
2, 59771, Pitch_bend_c, 0, 9557
2, 59776, Pitch_bend_c, 0, 9557
2, 59781, Pitch_bend_c, 0, 9557
2, 59786, Pitch_bend_c, 0, 9557
2, 59791, Pitch_bend_c, 0, 10923
2, 59796, Pitch_bend_c, 0, 10923
2, 59801, Pitch_bend_c, 0, 10923
2, 59806, Pitch_bend_c, 0, 10923
2, 59811, Pitch_bend_c, 0, 9557
2, 59817, Pitch_bend_c, 0, 9557
2, 59822, Pitch_bend_c, 0, 9557
2, 59827, Pitch_bend_c, 0, 9557
2, 59832, Pitch_bend_c, 0, 9557
2, 59837, Pitch_bend_c, 0, 9557
2, 59842, Pitch_bend_c, 0, 9557
2, 59847, Pitch_bend_c, 0, 9557
2, 59852, Pitch_bend_c, 0, 9557
2, 59858, Pitch_bend_c, 0, 9557
2, 59863, Pitch_bend_c, 0, 9557
2, 59868, Pitch_bend_c, 0, 9557
2, 59873, Pitch_bend_c, 0, 9557
2, 59878, Pitch_bend_c, 0, 9557
2, 59883, Pitch_bend_c, 0, 9557
2, 59888, Pitch_bend_c, 0, 9557
2, 59893, Pitch_bend_c, 0, 9557
2, 59898, Pitch_bend_c, 0, 9557
2, 59904, Pitch_bend_c, 0, 9557
2, 59909, Pitch_bend_c, 0, 9557
2, 59914, Pitch_bend_c, 0, 9557
2, 59919, Pitch_bend_c, 0, 9557
2, 59924, Pitch_bend_c, 0, 9557
2, 59929, Pitch_bend_c, 0, 9557
2, 59934, Pitch_bend_c, 0, 9557
2, 59939, Pitch_bend_c, 0, 9557
2, 59944, Pitch_bend_c, 0, 9557
2, 59950, Pitch_bend_c, 0, 9557
2, 59955, Pitch_bend_c, 0, 9557
2, 59960, Pitch_bend_c, 0, 9557
2, 59965, Pitch_bend_c, 0, 9557
2, 59970, Pitch_bend_c, 0, 9557
2, 59975, Pitch_bend_c, 0, 9557
2, 59980, Pitch_bend_c, 0, 9557
2, 59985, Pitch_bend_c, 0, 8192
2, 59990, Pitch_bend_c, 0, 8192
2, 59996, Pitch_bend_c, 0, 8192
2, 60001, Pitch_bend_c, 0, 8192
2, 60006, Pitch_bend_c, 0, 8192
2, 60011, Pitch_bend_c, 0, 8192
2, 60016, Pitch_bend_c, 0, 8192
2, 60021, Pitch_bend_c, 0, 8192
2, 60026, Pitch_bend_c, 0, 8192
2, 60031, Pitch_bend_c, 0, 4096
2, 60036, Pitch_bend_c, 0, 4096
2, 60042, Pitch_bend_c, 0, 4096
2, 60047, Pitch_bend_c, 0, 4096
2, 60052, Pitch_bend_c, 0, 4096
2, 60057, Pitch_bend_c, 0, 4096
2, 60062, Pitch_bend_c, 0, 9557
2, 60067, Pitch_bend_c, 0, 9557
2, 60072, Pitch_bend_c, 0, 9557
2, 60077, Pitch_bend_c, 0, 9557
2, 60082, Pitch_bend_c, 0, 9557
2, 60082, Note_on_c, 0, 76, 0
2, 60174, Pitch_bend_c, 0, 10923
2, 60174, Note_on_c, 0, 76, 56
2, 60180, Pitch_bend_c, 0, 9557
2, 60185, Pitch_bend_c, 0, 9557
2, 60191, Pitch_bend_c, 0, 9557
2, 60196, Pitch_bend_c, 0, 9557
2, 60202, Pitch_bend_c, 0, 9557
2, 60207, Pitch_bend_c, 0, 9557
2, 60213, Pitch_bend_c, 0, 9557
2, 60218, Pitch_bend_c, 0, 10923
2, 60223, Pitch_bend_c, 0, 10923
2, 60229, Pitch_bend_c, 0, 10923
2, 60234, Pitch_bend_c, 0, 9557
2, 60240, Pitch_bend_c, 0, 9557
2, 60245, Pitch_bend_c, 0, 9557
2, 60251, Pitch_bend_c, 0, 9557
2, 60256, Pitch_bend_c, 0, 9557
2, 60256, Note_on_c, 0, 76, 0
2, 60446, Pitch_bend_c, 0, 6827
2, 60446, Note_on_c, 0, 72, 69
2, 60451, Pitch_bend_c, 0, 9557
2, 60456, Pitch_bend_c, 0, 9557
2, 60462, Pitch_bend_c, 0, 9557
2, 60467, Pitch_bend_c, 0, 9557
2, 60472, Pitch_bend_c, 0, 9557
2, 60477, Pitch_bend_c, 0, 9557
2, 60483, Pitch_bend_c, 0, 9557
2, 60488, Pitch_bend_c, 0, 9557
2, 60493, Pitch_bend_c, 0, 9557
2, 60499, Pitch_bend_c, 0, 9557
2, 60504, Pitch_bend_c, 0, 9557
2, 60509, Pitch_bend_c, 0, 9557
2, 60514, Pitch_bend_c, 0, 9557
2, 60520, Pitch_bend_c, 0, 9557
2, 60525, Pitch_bend_c, 0, 9557
2, 60530, Pitch_bend_c, 0, 9557
2, 60536, Pitch_bend_c, 0, 9557
2, 60541, Pitch_bend_c, 0, 9557
2, 60546, Pitch_bend_c, 0, 9557
2, 60552, Pitch_bend_c, 0, 9557
2, 60557, Pitch_bend_c, 0, 9557
2, 60562, Pitch_bend_c, 0, 9557
2, 60567, Pitch_bend_c, 0, 9557
2, 60573, Pitch_bend_c, 0, 9557
2, 60578, Pitch_bend_c, 0, 9557
2, 60583, Pitch_bend_c, 0, 9557
2, 60589, Pitch_bend_c, 0, 9557
2, 60594, Pitch_bend_c, 0, 9557
2, 60594, Note_on_c, 0, 72, 0
2, 60650, Pitch_bend_c, 0, 8192
2, 60650, Note_on_c, 0, 74, 51
2, 60656, Pitch_bend_c, 0, 10923
2, 60661, Pitch_bend_c, 0, 10923
2, 60667, Pitch_bend_c, 0, 10923
2, 60672, Pitch_bend_c, 0, 8192
2, 60678, Pitch_bend_c, 0, 9557
2, 60683, Pitch_bend_c, 0, 9557
2, 60689, Pitch_bend_c, 0, 9557
2, 60694, Pitch_bend_c, 0, 10923
2, 60700, Pitch_bend_c, 0, 10923
2, 60705, Pitch_bend_c, 0, 10923
2, 60711, Pitch_bend_c, 0, 10923
2, 60716, Pitch_bend_c, 0, 8192
2, 60722, Pitch_bend_c, 0, 8192
2, 60722, Note_on_c, 0, 74, 0
2, 60829, Pitch_bend_c, 0, 8192
2, 60829, Note_on_c, 0, 74, 83
2, 60834, Pitch_bend_c, 0, 9557
2, 60839, Pitch_bend_c, 0, 9557
2, 60844, Pitch_bend_c, 0, 9557
2, 60850, Pitch_bend_c, 0, 9557
2, 60855, Pitch_bend_c, 0, 9557
2, 60860, Pitch_bend_c, 0, 9557
2, 60865, Pitch_bend_c, 0, 8192
2, 60870, Pitch_bend_c, 0, 8192
2, 60876, Pitch_bend_c, 0, 8192
2, 60881, Pitch_bend_c, 0, 9557
2, 60886, Pitch_bend_c, 0, 9557
2, 60891, Pitch_bend_c, 0, 9557
2, 60896, Pitch_bend_c, 0, 10923
2, 60902, Pitch_bend_c, 0, 10923
2, 60907, Pitch_bend_c, 0, 10923
2, 60912, Pitch_bend_c, 0, 9557
2, 60917, Pitch_bend_c, 0, 9557
2, 60922, Pitch_bend_c, 0, 9557
2, 60928, Pitch_bend_c, 0, 9557
2, 60933, Pitch_bend_c, 0, 9557
2, 60938, Pitch_bend_c, 0, 6827
2, 60943, Pitch_bend_c, 0, 8192
2, 60948, Pitch_bend_c, 0, 9557
2, 60953, Pitch_bend_c, 0, 9557
2, 60959, Pitch_bend_c, 0, 9557
2, 60964, Pitch_bend_c, 0, 10923
2, 60969, Pitch_bend_c, 0, 10923
2, 60974, Pitch_bend_c, 0, 10923
2, 60979, Pitch_bend_c, 0, 10923
2, 60985, Pitch_bend_c, 0, 9557
2, 60990, Pitch_bend_c, 0, 9557
2, 60995, Pitch_bend_c, 0, 8192
2, 61000, Pitch_bend_c, 0, 8192
2, 61005, Pitch_bend_c, 0, 8192
2, 61011, Pitch_bend_c, 0, 8192
2, 61016, Pitch_bend_c, 0, 9557
2, 61021, Pitch_bend_c, 0, 9557
2, 61026, Pitch_bend_c, 0, 9557
2, 61031, Pitch_bend_c, 0, 9557
2, 61037, Pitch_bend_c, 0, 9557
2, 61042, Pitch_bend_c, 0, 9557
2, 61047, Pitch_bend_c, 0, 9557
2, 61052, Pitch_bend_c, 0, 9557
2, 61057, Pitch_bend_c, 0, 9557
2, 61063, Pitch_bend_c, 0, 9557
2, 61068, Pitch_bend_c, 0, 9557
2, 61073, Pitch_bend_c, 0, 10923
2, 61078, Pitch_bend_c, 0, 10923
2, 61083, Pitch_bend_c, 0, 10923
2, 61089, Pitch_bend_c, 0, 10923
2, 61094, Pitch_bend_c, 0, 9557
2, 61099, Pitch_bend_c, 0, 9557
2, 61104, Pitch_bend_c, 0, 9557
2, 61109, Pitch_bend_c, 0, 9557
2, 61115, Pitch_bend_c, 0, 9557
2, 61120, Pitch_bend_c, 0, 9557
2, 61125, Pitch_bend_c, 0, 9557
2, 61130, Pitch_bend_c, 0, 9557
2, 61135, Pitch_bend_c, 0, 9557
2, 61135, Note_on_c, 0, 74, 0
2, 61181, Note_on_c, 0, 81, 78
2, 61422, Note_on_c, 0, 74, 81
2, 61621, Note_on_c, 0, 81, 0
2, 61642, Note_on_c, 0, 74, 0
2, 61642, Note_on_c, 0, 74, 64
2, 61677, Note_on_c, 0, 81, 48
2, 61815, Note_on_c, 0, 81, 0
2, 61948, Note_on_c, 0, 82, 96
2, 62173, Note_on_c, 0, 82, 0
2, 62179, Note_on_c, 0, 81, 90
2, 62362, Note_on_c, 0, 74, 0
2, 62444, Pitch_bend_c, 0, 9557
2, 62444, Note_on_c, 0, 81, 0
2, 62444, Note_on_c, 0, 81, 64
2, 62450, Pitch_bend_c, 0, 9557
2, 62455, Pitch_bend_c, 0, 9557
2, 62460, Pitch_bend_c, 0, 9557
2, 62466, Pitch_bend_c, 0, 10923
2, 62471, Pitch_bend_c, 0, 10923
2, 62477, Pitch_bend_c, 0, 10923
2, 62482, Pitch_bend_c, 0, 9557
2, 62487, Pitch_bend_c, 0, 9557
2, 62493, Pitch_bend_c, 0, 9557
2, 62498, Pitch_bend_c, 0, 9557
2, 62504, Pitch_bend_c, 0, 9557
2, 62509, Pitch_bend_c, 0, 8192
2, 62514, Pitch_bend_c, 0, 9557
2, 62520, Pitch_bend_c, 0, 9557
2, 62525, Pitch_bend_c, 0, 9557
2, 62530, Pitch_bend_c, 0, 9557
2, 62536, Pitch_bend_c, 0, 9557
2, 62541, Pitch_bend_c, 0, 9557
2, 62541, Note_on_c, 0, 81, 0
2, 62567, Note_on_c, 0, 69, 77
2, 63160, Note_on_c, 0, 81, 54
2, 63277, Note_on_c, 0, 81, 0
2, 63298, Note_on_c, 0, 69, 0
2, 63809, Note_on_c, 0, 81, 48
2, 63819, Note_on_c, 0, 74, 88
2, 63932, Note_on_c, 0, 81, 0
2, 64192, Note_on_c, 0, 74, 0
2, 64243, Note_on_c, 0, 81, 64
2, 64254, Note_on_c, 0, 74, 67
2, 64259, Note_on_c, 0, 93, 56
2, 64427, Note_on_c, 0, 93, 0
2, 64694, Note_on_c, 0, 74, 0
2, 64699, Note_on_c, 0, 74, 97
2, 64775, Note_on_c, 0, 81, 0
2, 64837, Note_on_c, 0, 81, 40
2, 64964, Note_on_c, 0, 74, 0
2, 64990, Note_on_c, 0, 81, 0
2, 64995, Note_on_c, 0, 82, 99
2, 65061, Note_on_c, 0, 74, 55
2, 65235, Note_on_c, 0, 81, 88
2, 65235, Note_on_c, 0, 82, 0
2, 65563, Note_on_c, 0, 81, 0
2, 65573, Note_on_c, 0, 74, 0
2, 65614, Pitch_bend_c, 0, 10923
2, 65614, Note_on_c, 0, 69, 87
2, 65619, Pitch_bend_c, 0, 10923
2, 65624, Pitch_bend_c, 0, 10923
2, 65629, Pitch_bend_c, 0, 9557
2, 65635, Pitch_bend_c, 0, 9557
2, 65640, Pitch_bend_c, 0, 9557
2, 65645, Pitch_bend_c, 0, 9557
2, 65650, Pitch_bend_c, 0, 9557
2, 65656, Pitch_bend_c, 0, 9557
2, 65661, Pitch_bend_c, 0, 9557
2, 65666, Pitch_bend_c, 0, 9557
2, 65671, Pitch_bend_c, 0, 9557
2, 65677, Pitch_bend_c, 0, 9557
2, 65682, Pitch_bend_c, 0, 9557
2, 65687, Pitch_bend_c, 0, 9557
2, 65692, Pitch_bend_c, 0, 9557
2, 65698, Pitch_bend_c, 0, 9557
2, 65703, Pitch_bend_c, 0, 10923
2, 65708, Pitch_bend_c, 0, 10923
2, 65713, Pitch_bend_c, 0, 10923
2, 65719, Pitch_bend_c, 0, 10923
2, 65724, Pitch_bend_c, 0, 10923
2, 65729, Pitch_bend_c, 0, 10923
2, 65734, Pitch_bend_c, 0, 9557
2, 65739, Pitch_bend_c, 0, 9557
2, 65745, Pitch_bend_c, 0, 9557
2, 65750, Pitch_bend_c, 0, 9557
2, 65755, Pitch_bend_c, 0, 9557
2, 65760, Pitch_bend_c, 0, 9557
2, 65766, Pitch_bend_c, 0, 9557
2, 65771, Pitch_bend_c, 0, 10923
2, 65776, Pitch_bend_c, 0, 10923
2, 65781, Pitch_bend_c, 0, 10923
2, 65787, Pitch_bend_c, 0, 10923
2, 65792, Pitch_bend_c, 0, 10923
2, 65797, Pitch_bend_c, 0, 10923
2, 65802, Pitch_bend_c, 0, 10923
2, 65808, Pitch_bend_c, 0, 10923
2, 65813, Pitch_bend_c, 0, 10923
2, 65813, Note_on_c, 0, 69, 0
2, 65895, Pitch_bend_c, 0, 12288
2, 65895, Note_on_c, 0, 69, 90
2, 65900, Pitch_bend_c, 0, 12288
2, 65905, Pitch_bend_c, 0, 12288
2, 65910, Pitch_bend_c, 0, 13653
2, 65916, Pitch_bend_c, 0, 9557
2, 65921, Pitch_bend_c, 0, 9557
2, 65926, Pitch_bend_c, 0, 9557
2, 65931, Pitch_bend_c, 0, 9557
2, 65937, Pitch_bend_c, 0, 8192
2, 65942, Pitch_bend_c, 0, 8192
2, 65947, Pitch_bend_c, 0, 8192
2, 65952, Pitch_bend_c, 0, 9557
2, 65958, Pitch_bend_c, 0, 9557
2, 65963, Pitch_bend_c, 0, 10923
2, 65968, Pitch_bend_c, 0, 10923
2, 65973, Pitch_bend_c, 0, 10923
2, 65979, Pitch_bend_c, 0, 10923
2, 65984, Pitch_bend_c, 0, 10923
2, 65989, Pitch_bend_c, 0, 8192
2, 65994, Pitch_bend_c, 0, 8192
2, 65999, Pitch_bend_c, 0, 8192
2, 66005, Pitch_bend_c, 0, 8192
2, 66010, Pitch_bend_c, 0, 9557
2, 66015, Pitch_bend_c, 0, 9557
2, 66020, Pitch_bend_c, 0, 9557
2, 66026, Pitch_bend_c, 0, 9557
2, 66031, Pitch_bend_c, 0, 9557
2, 66036, Pitch_bend_c, 0, 9557
2, 66041, Pitch_bend_c, 0, 9557
2, 66047, Pitch_bend_c, 0, 9557
2, 66052, Pitch_bend_c, 0, 9557
2, 66057, Pitch_bend_c, 0, 9557
2, 66062, Pitch_bend_c, 0, 9557
2, 66068, Pitch_bend_c, 0, 9557
2, 66073, Pitch_bend_c, 0, 9557
2, 66078, Pitch_bend_c, 0, 9557
2, 66083, Pitch_bend_c, 0, 9557
2, 66089, Pitch_bend_c, 0, 9557
2, 66094, Pitch_bend_c, 0, 10923
2, 66094, Note_on_c, 0, 69, 0
2, 66099, Pitch_bend_c, 0, 10923
2, 66099, Note_on_c, 0, 69, 96
2, 66104, Pitch_bend_c, 0, 10923
2, 66109, Pitch_bend_c, 0, 9557
2, 66114, Pitch_bend_c, 0, 9557
2, 66119, Pitch_bend_c, 0, 9557
2, 66125, Pitch_bend_c, 0, 9557
2, 66130, Pitch_bend_c, 0, 9557
2, 66135, Pitch_bend_c, 0, 9557
2, 66140, Pitch_bend_c, 0, 9557
2, 66145, Pitch_bend_c, 0, 9557
2, 66150, Pitch_bend_c, 0, 9557
2, 66155, Pitch_bend_c, 0, 9557
2, 66160, Pitch_bend_c, 0, 9557
2, 66165, Pitch_bend_c, 0, 9557
2, 66171, Pitch_bend_c, 0, 9557
2, 66176, Pitch_bend_c, 0, 9557
2, 66181, Pitch_bend_c, 0, 9557
2, 66186, Pitch_bend_c, 0, 9557
2, 66191, Pitch_bend_c, 0, 9557
2, 66196, Pitch_bend_c, 0, 9557
2, 66201, Pitch_bend_c, 0, 9557
2, 66206, Pitch_bend_c, 0, 10923
2, 66212, Pitch_bend_c, 0, 10923
2, 66217, Pitch_bend_c, 0, 10923
2, 66222, Pitch_bend_c, 0, 10923
2, 66227, Pitch_bend_c, 0, 9557
2, 66232, Pitch_bend_c, 0, 9557
2, 66237, Pitch_bend_c, 0, 9557
2, 66242, Pitch_bend_c, 0, 9557
2, 66247, Pitch_bend_c, 0, 9557
2, 66252, Pitch_bend_c, 0, 8192
2, 66258, Pitch_bend_c, 0, 9557
2, 66263, Pitch_bend_c, 0, 9557
2, 66268, Pitch_bend_c, 0, 10923
2, 66273, Pitch_bend_c, 0, 10923
2, 66278, Pitch_bend_c, 0, 10923
2, 66283, Pitch_bend_c, 0, 10923
2, 66288, Pitch_bend_c, 0, 10923
2, 66293, Pitch_bend_c, 0, 10923
2, 66299, Pitch_bend_c, 0, 9557
2, 66304, Pitch_bend_c, 0, 9557
2, 66309, Pitch_bend_c, 0, 8192
2, 66314, Pitch_bend_c, 0, 8192
2, 66319, Pitch_bend_c, 0, 9557
2, 66324, Pitch_bend_c, 0, 9557
2, 66329, Pitch_bend_c, 0, 9557
2, 66334, Pitch_bend_c, 0, 9557
2, 66339, Pitch_bend_c, 0, 10923
2, 66345, Pitch_bend_c, 0, 10923
2, 66350, Pitch_bend_c, 0, 10923
2, 66355, Pitch_bend_c, 0, 10923
2, 66360, Pitch_bend_c, 0, 10923
2, 66365, Pitch_bend_c, 0, 10923
2, 66370, Pitch_bend_c, 0, 10923
2, 66375, Pitch_bend_c, 0, 9557
2, 66380, Pitch_bend_c, 0, 9557
2, 66386, Pitch_bend_c, 0, 9557
2, 66391, Pitch_bend_c, 0, 9557
2, 66396, Pitch_bend_c, 0, 9557
2, 66401, Pitch_bend_c, 0, 10923
2, 66406, Pitch_bend_c, 0, 10923
2, 66411, Pitch_bend_c, 0, 10923
2, 66416, Pitch_bend_c, 0, 10923
2, 66421, Pitch_bend_c, 0, 10923
2, 66426, Pitch_bend_c, 0, 9557
2, 66432, Pitch_bend_c, 0, 8192
2, 66437, Pitch_bend_c, 0, 8192
2, 66437, Note_on_c, 0, 69, 0
2, 66437, Note_on_c, 0, 69, 62
2, 66575, Note_on_c, 0, 81, 39
2, 66677, Note_on_c, 0, 81, 0
2, 66932, Note_on_c, 0, 69, 0
2, 67091, Pitch_bend_c, 0, 9557
2, 67091, Note_on_c, 0, 69, 49
2, 67096, Pitch_bend_c, 0, 9557
2, 67101, Pitch_bend_c, 0, 9557
2, 67106, Pitch_bend_c, 0, 9557
2, 67111, Pitch_bend_c, 0, 9557
2, 67116, Pitch_bend_c, 0, 9557
2, 67121, Pitch_bend_c, 0, 9557
2, 67126, Pitch_bend_c, 0, 9557
2, 67132, Pitch_bend_c, 0, 10923
2, 67137, Pitch_bend_c, 0, 10923
2, 67142, Pitch_bend_c, 0, 5461
2, 67147, Pitch_bend_c, 0, 5461
2, 67152, Pitch_bend_c, 0, 8192
2, 67157, Pitch_bend_c, 0, 8192
2, 67162, Pitch_bend_c, 0, 8192
2, 67167, Pitch_bend_c, 0, 8192
2, 67172, Pitch_bend_c, 0, 8192
2, 67178, Pitch_bend_c, 0, 8192
2, 67183, Pitch_bend_c, 0, 8192
2, 67188, Pitch_bend_c, 0, 10923
2, 67193, Pitch_bend_c, 0, 10923
2, 67198, Pitch_bend_c, 0, 10923
2, 67203, Pitch_bend_c, 0, 10923
2, 67208, Pitch_bend_c, 0, 8192
2, 67213, Pitch_bend_c, 0, 10923
2, 67219, Pitch_bend_c, 0, 9557
2, 67224, Pitch_bend_c, 0, 9557
2, 67229, Pitch_bend_c, 0, 9557
2, 67234, Pitch_bend_c, 0, 8192
2, 67239, Pitch_bend_c, 0, 9557
2, 67244, Pitch_bend_c, 0, 9557
2, 67249, Pitch_bend_c, 0, 9557
2, 67254, Pitch_bend_c, 0, 10923
2, 67260, Pitch_bend_c, 0, 10923
2, 67265, Pitch_bend_c, 0, 9557
2, 67270, Pitch_bend_c, 0, 9557
2, 67275, Pitch_bend_c, 0, 9557
2, 67280, Pitch_bend_c, 0, 9557
2, 67285, Pitch_bend_c, 0, 9557
2, 67290, Pitch_bend_c, 0, 9557
2, 67295, Pitch_bend_c, 0, 9557
2, 67300, Pitch_bend_c, 0, 9557
2, 67306, Pitch_bend_c, 0, 10923
2, 67311, Pitch_bend_c, 0, 10923
2, 67316, Pitch_bend_c, 0, 10923
2, 67321, Pitch_bend_c, 0, 9557
2, 67326, Pitch_bend_c, 0, 9557
2, 67331, Pitch_bend_c, 0, 9557
2, 67336, Pitch_bend_c, 0, 9557
2, 67336, Note_on_c, 0, 69, 0
2, 68471, Pitch_bend_c, 0, 9557
2, 68471, Note_on_c, 0, 62, 92
2, 68476, Pitch_bend_c, 0, 8192
2, 68481, Pitch_bend_c, 0, 8192
2, 68486, Pitch_bend_c, 0, 8192
2, 68492, Pitch_bend_c, 0, 8192
2, 68497, Pitch_bend_c, 0, 8192
2, 68502, Pitch_bend_c, 0, 8192
2, 68507, Pitch_bend_c, 0, 8192
2, 68512, Pitch_bend_c, 0, 9557
2, 68518, Pitch_bend_c, 0, 9557
2, 68523, Pitch_bend_c, 0, 9557
2, 68528, Pitch_bend_c, 0, 9557
2, 68533, Pitch_bend_c, 0, 9557
2, 68538, Pitch_bend_c, 0, 9557
2, 68543, Pitch_bend_c, 0, 9557
2, 68549, Pitch_bend_c, 0, 9557
2, 68554, Pitch_bend_c, 0, 9557
2, 68559, Pitch_bend_c, 0, 9557
2, 68564, Pitch_bend_c, 0, 9557
2, 68569, Pitch_bend_c, 0, 9557
2, 68575, Pitch_bend_c, 0, 10923
2, 68580, Pitch_bend_c, 0, 10923
2, 68585, Pitch_bend_c, 0, 9557
2, 68590, Pitch_bend_c, 0, 9557
2, 68595, Pitch_bend_c, 0, 9557
2, 68600, Pitch_bend_c, 0, 9557
2, 68606, Pitch_bend_c, 0, 9557
2, 68611, Pitch_bend_c, 0, 8192
2, 68616, Pitch_bend_c, 0, 8192
2, 68621, Pitch_bend_c, 0, 8192
2, 68626, Pitch_bend_c, 0, 8192
2, 68631, Pitch_bend_c, 0, 8192
2, 68637, Pitch_bend_c, 0, 8192
2, 68642, Pitch_bend_c, 0, 8192
2, 68647, Pitch_bend_c, 0, 8192
2, 68652, Pitch_bend_c, 0, 9557
2, 68657, Pitch_bend_c, 0, 9557
2, 68663, Pitch_bend_c, 0, 9557
2, 68668, Pitch_bend_c, 0, 9557
2, 68673, Pitch_bend_c, 0, 9557
2, 68678, Pitch_bend_c, 0, 9557
2, 68683, Pitch_bend_c, 0, 9557
2, 68688, Pitch_bend_c, 0, 9557
2, 68694, Pitch_bend_c, 0, 9557
2, 68699, Pitch_bend_c, 0, 9557
2, 68704, Pitch_bend_c, 0, 9557
2, 68709, Pitch_bend_c, 0, 9557
2, 68714, Pitch_bend_c, 0, 9557
2, 68720, Pitch_bend_c, 0, 9557
2, 68725, Pitch_bend_c, 0, 9557
2, 68730, Pitch_bend_c, 0, 9557
2, 68735, Pitch_bend_c, 0, 9557
2, 68740, Pitch_bend_c, 0, 9557
2, 68745, Pitch_bend_c, 0, 9557
2, 68751, Pitch_bend_c, 0, 9557
2, 68756, Pitch_bend_c, 0, 9557
2, 68761, Pitch_bend_c, 0, 9557
2, 68766, Pitch_bend_c, 0, 10923
2, 68771, Pitch_bend_c, 0, 12288
2, 68776, Pitch_bend_c, 0, 12288
2, 68782, Pitch_bend_c, 0, 9557
2, 68787, Pitch_bend_c, 0, 8192
2, 68792, Pitch_bend_c, 0, 8192
2, 68797, Pitch_bend_c, 0, 8192
2, 68802, Pitch_bend_c, 0, 8192
2, 68808, Pitch_bend_c, 0, 8192
2, 68813, Pitch_bend_c, 0, 8192
2, 68818, Pitch_bend_c, 0, 8192
2, 68823, Pitch_bend_c, 0, 9557
2, 68828, Pitch_bend_c, 0, 9557
2, 68833, Pitch_bend_c, 0, 9557
2, 68839, Pitch_bend_c, 0, 9557
2, 68844, Pitch_bend_c, 0, 9557
2, 68849, Pitch_bend_c, 0, 9557
2, 68849, Note_on_c, 0, 62, 0
2, 68869, Note_on_c, 0, 69, 76
2, 69079, Note_on_c, 0, 62, 70
2, 69166, Note_on_c, 0, 69, 0
2, 69243, Note_on_c, 0, 69, 46
2, 69289, Note_on_c, 0, 62, 0
2, 69289, Note_on_c, 0, 62, 100
2, 69452, Note_on_c, 0, 69, 0
2, 69544, Note_on_c, 0, 62, 0
2, 69631, Note_on_c, 0, 70, 88
2, 69692, Note_on_c, 0, 82, 40
2, 69789, Note_on_c, 0, 82, 0
2, 69846, Note_on_c, 0, 69, 92
2, 69846, Note_on_c, 0, 70, 0
2, 70056, Note_on_c, 0, 81, 42
2, 70280, Note_on_c, 0, 81, 0
2, 70669, Note_on_c, 0, 81, 46
2, 70802, Note_on_c, 0, 81, 0
2, 71395, Note_on_c, 0, 69, 0
2, 71553, Pitch_bend_c, 0, 9557
2, 71553, Note_on_c, 0, 62, 104
2, 71558, Pitch_bend_c, 0, 9557
2, 71563, Pitch_bend_c, 0, 9557
2, 71568, Pitch_bend_c, 0, 9557
2, 71573, Pitch_bend_c, 0, 9557
2, 71579, Pitch_bend_c, 0, 9557
2, 71584, Pitch_bend_c, 0, 9557
2, 71589, Pitch_bend_c, 0, 9557
2, 71594, Pitch_bend_c, 0, 9557
2, 71599, Pitch_bend_c, 0, 9557
2, 71604, Pitch_bend_c, 0, 9557
2, 71609, Pitch_bend_c, 0, 9557
2, 71614, Pitch_bend_c, 0, 9557
2, 71620, Pitch_bend_c, 0, 9557
2, 71625, Pitch_bend_c, 0, 9557
2, 71630, Pitch_bend_c, 0, 10923
2, 71635, Pitch_bend_c, 0, 10923
2, 71640, Pitch_bend_c, 0, 10923
2, 71645, Pitch_bend_c, 0, 10923
2, 71650, Pitch_bend_c, 0, 10923
2, 71655, Pitch_bend_c, 0, 10923
2, 71661, Pitch_bend_c, 0, 10923
2, 71666, Pitch_bend_c, 0, 9557
2, 71671, Pitch_bend_c, 0, 9557
2, 71676, Pitch_bend_c, 0, 9557
2, 71681, Pitch_bend_c, 0, 9557
2, 71686, Pitch_bend_c, 0, 9557
2, 71691, Pitch_bend_c, 0, 9557
2, 71696, Pitch_bend_c, 0, 9557
2, 71701, Pitch_bend_c, 0, 9557
2, 71707, Pitch_bend_c, 0, 9557
2, 71712, Pitch_bend_c, 0, 9557
2, 71717, Pitch_bend_c, 0, 9557
2, 71722, Pitch_bend_c, 0, 9557
2, 71727, Pitch_bend_c, 0, 9557
2, 71732, Pitch_bend_c, 0, 9557
2, 71737, Pitch_bend_c, 0, 9557
2, 71742, Pitch_bend_c, 0, 9557
2, 71748, Pitch_bend_c, 0, 9557
2, 71753, Pitch_bend_c, 0, 9557
2, 71758, Pitch_bend_c, 0, 9557
2, 71763, Pitch_bend_c, 0, 9557
2, 71768, Pitch_bend_c, 0, 9557
2, 71773, Pitch_bend_c, 0, 9557
2, 71778, Pitch_bend_c, 0, 9557
2, 71783, Pitch_bend_c, 0, 9557
2, 71788, Pitch_bend_c, 0, 9557
2, 71794, Pitch_bend_c, 0, 9557
2, 71799, Pitch_bend_c, 0, 10923
2, 71804, Pitch_bend_c, 0, 10923
2, 71809, Pitch_bend_c, 0, 12288
2, 71814, Pitch_bend_c, 0, 12288
2, 71814, Note_on_c, 0, 62, 0
2, 71835, Note_on_c, 0, 67, 83
2, 71896, Note_on_c, 0, 69, 74
2, 71901, Note_on_c, 0, 67, 0
2, 72182, Note_on_c, 0, 62, 75
2, 72279, Note_on_c, 0, 69, 0
2, 72356, Note_on_c, 0, 62, 0
2, 72356, Note_on_c, 0, 62, 97
2, 72366, Note_on_c, 0, 69, 48
2, 72555, Note_on_c, 0, 69, 0
2, 72586, Note_on_c, 0, 62, 0
2, 72658, Note_on_c, 0, 70, 100
2, 72790, Note_on_c, 0, 82, 39
2, 72852, Note_on_c, 0, 82, 0
2, 72903, Pitch_bend_c, 0, 10923
2, 72903, Note_on_c, 0, 69, 79
2, 72903, Note_on_c, 0, 70, 0
2, 72908, Pitch_bend_c, 0, 9557
2, 72913, Pitch_bend_c, 0, 9557
2, 72918, Pitch_bend_c, 0, 9557
2, 72923, Pitch_bend_c, 0, 9557
2, 72928, Pitch_bend_c, 0, 9557
2, 72933, Pitch_bend_c, 0, 9557
2, 72938, Pitch_bend_c, 0, 9557
2, 72943, Pitch_bend_c, 0, 9557
2, 72949, Pitch_bend_c, 0, 9557
2, 72954, Pitch_bend_c, 0, 9557
2, 72959, Pitch_bend_c, 0, 9557
2, 72964, Pitch_bend_c, 0, 9557
2, 72969, Pitch_bend_c, 0, 9557
2, 72974, Pitch_bend_c, 0, 9557
2, 72979, Pitch_bend_c, 0, 9557
2, 72984, Pitch_bend_c, 0, 9557
2, 72989, Pitch_bend_c, 0, 9557
2, 72994, Pitch_bend_c, 0, 9557
2, 73000, Pitch_bend_c, 0, 9557
2, 73005, Pitch_bend_c, 0, 9557
2, 73010, Pitch_bend_c, 0, 9557
2, 73015, Pitch_bend_c, 0, 9557
2, 73020, Pitch_bend_c, 0, 9557
2, 73025, Pitch_bend_c, 0, 9557
2, 73030, Pitch_bend_c, 0, 9557
2, 73035, Pitch_bend_c, 0, 9557
2, 73040, Pitch_bend_c, 0, 9557
2, 73045, Pitch_bend_c, 0, 9557
2, 73050, Pitch_bend_c, 0, 9557
2, 73056, Pitch_bend_c, 0, 9557
2, 73061, Pitch_bend_c, 0, 9557
2, 73066, Pitch_bend_c, 0, 9557
2, 73071, Pitch_bend_c, 0, 9557
2, 73076, Pitch_bend_c, 0, 9557
2, 73081, Pitch_bend_c, 0, 9557
2, 73086, Pitch_bend_c, 0, 9557
2, 73091, Pitch_bend_c, 0, 9557
2, 73096, Pitch_bend_c, 0, 9557
2, 73101, Pitch_bend_c, 0, 9557
2, 73107, Pitch_bend_c, 0, 9557
2, 73112, Pitch_bend_c, 0, 9557
2, 73117, Pitch_bend_c, 0, 9557
2, 73122, Pitch_bend_c, 0, 9557
2, 73127, Pitch_bend_c, 0, 9557
2, 73132, Pitch_bend_c, 0, 9557
2, 73137, Pitch_bend_c, 0, 9557
2, 73142, Pitch_bend_c, 0, 9557
2, 73147, Pitch_bend_c, 0, 9557
2, 73152, Pitch_bend_c, 0, 9557
2, 73157, Pitch_bend_c, 0, 9557
2, 73163, Pitch_bend_c, 0, 9557
2, 73168, Pitch_bend_c, 0, 9557
2, 73173, Pitch_bend_c, 0, 9557
2, 73178, Pitch_bend_c, 0, 9557
2, 73183, Pitch_bend_c, 0, 9557
2, 73188, Pitch_bend_c, 0, 9557
2, 73193, Pitch_bend_c, 0, 9557
2, 73198, Pitch_bend_c, 0, 9557
2, 73203, Pitch_bend_c, 0, 9557
2, 73208, Pitch_bend_c, 0, 9557
2, 73213, Pitch_bend_c, 0, 9557
2, 73219, Pitch_bend_c, 0, 9557
2, 73224, Pitch_bend_c, 0, 9557
2, 73229, Pitch_bend_c, 0, 9557
2, 73234, Pitch_bend_c, 0, 9557
2, 73239, Pitch_bend_c, 0, 9557
2, 73244, Pitch_bend_c, 0, 9557
2, 73249, Pitch_bend_c, 0, 9557
2, 73254, Pitch_bend_c, 0, 9557
2, 73259, Pitch_bend_c, 0, 9557
2, 73264, Pitch_bend_c, 0, 9557
2, 73270, Pitch_bend_c, 0, 9557
2, 73275, Pitch_bend_c, 0, 9557
2, 73280, Pitch_bend_c, 0, 9557
2, 73285, Pitch_bend_c, 0, 9557
2, 73290, Pitch_bend_c, 0, 9557
2, 73295, Pitch_bend_c, 0, 9557
2, 73300, Pitch_bend_c, 0, 9557
2, 73305, Pitch_bend_c, 0, 9557
2, 73310, Pitch_bend_c, 0, 9557
2, 73315, Pitch_bend_c, 0, 9557
2, 73320, Pitch_bend_c, 0, 9557
2, 73326, Pitch_bend_c, 0, 9557
2, 73331, Pitch_bend_c, 0, 9557
2, 73336, Pitch_bend_c, 0, 9557
2, 73341, Pitch_bend_c, 0, 9557
2, 73346, Pitch_bend_c, 0, 9557
2, 73351, Pitch_bend_c, 0, 9557
2, 73356, Pitch_bend_c, 0, 9557
2, 73361, Pitch_bend_c, 0, 9557
2, 73366, Pitch_bend_c, 0, 9557
2, 73371, Pitch_bend_c, 0, 9557
2, 73376, Pitch_bend_c, 0, 9557
2, 73382, Pitch_bend_c, 0, 9557
2, 73387, Pitch_bend_c, 0, 9557
2, 73392, Pitch_bend_c, 0, 9557
2, 73397, Pitch_bend_c, 0, 9557
2, 73402, Pitch_bend_c, 0, 9557
2, 73407, Pitch_bend_c, 0, 9557
2, 73412, Pitch_bend_c, 0, 9557
2, 73417, Pitch_bend_c, 0, 9557
2, 73422, Pitch_bend_c, 0, 9557
2, 73427, Pitch_bend_c, 0, 9557
2, 73433, Pitch_bend_c, 0, 9557
2, 73438, Pitch_bend_c, 0, 9557
2, 73443, Pitch_bend_c, 0, 9557
2, 73448, Pitch_bend_c, 0, 9557
2, 73453, Pitch_bend_c, 0, 9557
2, 73458, Pitch_bend_c, 0, 9557
2, 73463, Pitch_bend_c, 0, 9557
2, 73468, Pitch_bend_c, 0, 9557
2, 73473, Pitch_bend_c, 0, 9557
2, 73478, Pitch_bend_c, 0, 9557
2, 73483, Pitch_bend_c, 0, 9557
2, 73489, Pitch_bend_c, 0, 9557
2, 73494, Pitch_bend_c, 0, 9557
2, 73499, Pitch_bend_c, 0, 9557
2, 73504, Pitch_bend_c, 0, 9557
2, 73509, Pitch_bend_c, 0, 9557
2, 73514, Pitch_bend_c, 0, 9557
2, 73519, Pitch_bend_c, 0, 9557
2, 73524, Pitch_bend_c, 0, 9557
2, 73529, Pitch_bend_c, 0, 8192
2, 73534, Pitch_bend_c, 0, 8192
2, 73539, Pitch_bend_c, 0, 9557
2, 73545, Pitch_bend_c, 0, 9557
2, 73550, Pitch_bend_c, 0, 9557
2, 73555, Pitch_bend_c, 0, 9557
2, 73560, Pitch_bend_c, 0, 9557
2, 73565, Pitch_bend_c, 0, 10923
2, 73570, Pitch_bend_c, 0, 10923
2, 73575, Pitch_bend_c, 0, 10923
2, 73580, Pitch_bend_c, 0, 10923
2, 73585, Pitch_bend_c, 0, 10923
2, 73590, Pitch_bend_c, 0, 10923
2, 73596, Pitch_bend_c, 0, 9557
2, 73601, Pitch_bend_c, 0, 8192
2, 73606, Pitch_bend_c, 0, 8192
2, 73611, Pitch_bend_c, 0, 6827
2, 73616, Pitch_bend_c, 0, 6827
2, 73621, Pitch_bend_c, 0, 6827
2, 73626, Pitch_bend_c, 0, 9557
2, 73631, Pitch_bend_c, 0, 9557
2, 73636, Pitch_bend_c, 0, 10923
2, 73641, Pitch_bend_c, 0, 10923
2, 73646, Pitch_bend_c, 0, 10923
2, 73652, Pitch_bend_c, 0, 9557
2, 73657, Pitch_bend_c, 0, 9557
2, 73662, Pitch_bend_c, 0, 9557
2, 73667, Pitch_bend_c, 0, 9557
2, 73672, Pitch_bend_c, 0, 9557
2, 73677, Pitch_bend_c, 0, 9557
2, 73682, Pitch_bend_c, 0, 8192
2, 73687, Pitch_bend_c, 0, 8192
2, 73692, Pitch_bend_c, 0, 9557
2, 73697, Pitch_bend_c, 0, 9557
2, 73702, Pitch_bend_c, 0, 9557
2, 73708, Pitch_bend_c, 0, 9557
2, 73713, Pitch_bend_c, 0, 10923
2, 73718, Pitch_bend_c, 0, 10923
2, 73723, Pitch_bend_c, 0, 10923
2, 73728, Pitch_bend_c, 0, 10923
2, 73733, Pitch_bend_c, 0, 10923
2, 73738, Pitch_bend_c, 0, 8192
2, 73743, Pitch_bend_c, 0, 8192
2, 73748, Pitch_bend_c, 0, 8192
2, 73753, Pitch_bend_c, 0, 6827
2, 73759, Pitch_bend_c, 0, 6827
2, 73764, Pitch_bend_c, 0, 8192
2, 73769, Pitch_bend_c, 0, 9557
2, 73774, Pitch_bend_c, 0, 10923
2, 73779, Pitch_bend_c, 0, 10923
2, 73784, Pitch_bend_c, 0, 10923
2, 73789, Pitch_bend_c, 0, 10923
2, 73794, Pitch_bend_c, 0, 10923
2, 73799, Pitch_bend_c, 0, 10923
2, 73804, Pitch_bend_c, 0, 10923
2, 73809, Pitch_bend_c, 0, 10923
2, 73815, Pitch_bend_c, 0, 8192
2, 73820, Pitch_bend_c, 0, 8192
2, 73825, Pitch_bend_c, 0, 6827
2, 73830, Pitch_bend_c, 0, 9557
2, 73835, Pitch_bend_c, 0, 9557
2, 73840, Pitch_bend_c, 0, 10923
2, 73845, Pitch_bend_c, 0, 10923
2, 73850, Pitch_bend_c, 0, 10923
2, 73855, Pitch_bend_c, 0, 10923
2, 73860, Pitch_bend_c, 0, 10923
2, 73865, Pitch_bend_c, 0, 10923
2, 73871, Pitch_bend_c, 0, 10923
2, 73876, Pitch_bend_c, 0, 10923
2, 73881, Pitch_bend_c, 0, 10923
2, 73886, Pitch_bend_c, 0, 10923
2, 73891, Pitch_bend_c, 0, 10923
2, 73896, Pitch_bend_c, 0, 10923
2, 73901, Pitch_bend_c, 0, 10923
2, 73906, Pitch_bend_c, 0, 10923
2, 73911, Pitch_bend_c, 0, 10923
2, 73916, Pitch_bend_c, 0, 10923
2, 73922, Pitch_bend_c, 0, 10923
2, 73927, Pitch_bend_c, 0, 10923
2, 73932, Pitch_bend_c, 0, 10923
2, 73937, Pitch_bend_c, 0, 10923
2, 73942, Pitch_bend_c, 0, 10923
2, 73947, Pitch_bend_c, 0, 10923
2, 73952, Pitch_bend_c, 0, 10923
2, 73957, Pitch_bend_c, 0, 10923
2, 73962, Pitch_bend_c, 0, 10923
2, 73967, Pitch_bend_c, 0, 10923
2, 73972, Pitch_bend_c, 0, 10923
2, 73978, Pitch_bend_c, 0, 10923
2, 73983, Pitch_bend_c, 0, 10923
2, 73988, Pitch_bend_c, 0, 10923
2, 73993, Pitch_bend_c, 0, 10923
2, 73998, Pitch_bend_c, 0, 10923
2, 74003, Pitch_bend_c, 0, 10923
2, 74008, Pitch_bend_c, 0, 10923
2, 74013, Pitch_bend_c, 0, 10923
2, 74018, Pitch_bend_c, 0, 10923
2, 74023, Pitch_bend_c, 0, 10923
2, 74029, Pitch_bend_c, 0, 10923
2, 74034, Pitch_bend_c, 0, 10923
2, 74039, Pitch_bend_c, 0, 10923
2, 74044, Pitch_bend_c, 0, 10923
2, 74049, Pitch_bend_c, 0, 10923
2, 74054, Pitch_bend_c, 0, 10923
2, 74059, Pitch_bend_c, 0, 10923
2, 74064, Pitch_bend_c, 0, 10923
2, 74069, Pitch_bend_c, 0, 10923
2, 74074, Pitch_bend_c, 0, 10923
2, 74079, Pitch_bend_c, 0, 10923
2, 74085, Pitch_bend_c, 0, 10923
2, 74090, Pitch_bend_c, 0, 10923
2, 74095, Pitch_bend_c, 0, 10923
2, 74100, Pitch_bend_c, 0, 10923
2, 74105, Pitch_bend_c, 0, 10923
2, 74110, Pitch_bend_c, 0, 10923
2, 74115, Pitch_bend_c, 0, 10923
2, 74120, Pitch_bend_c, 0, 10923
2, 74125, Pitch_bend_c, 0, 10923
2, 74130, Pitch_bend_c, 0, 10923
2, 74135, Pitch_bend_c, 0, 10923
2, 74141, Pitch_bend_c, 0, 10923
2, 74146, Pitch_bend_c, 0, 10923
2, 74151, Pitch_bend_c, 0, 10923
2, 74156, Pitch_bend_c, 0, 10923
2, 74161, Pitch_bend_c, 0, 10923
2, 74166, Pitch_bend_c, 0, 10923
2, 74171, Pitch_bend_c, 0, 10923
2, 74176, Pitch_bend_c, 0, 10923
2, 74181, Pitch_bend_c, 0, 10923
2, 74186, Pitch_bend_c, 0, 10923
2, 74192, Pitch_bend_c, 0, 10923
2, 74197, Pitch_bend_c, 0, 10923
2, 74202, Pitch_bend_c, 0, 10923
2, 74207, Pitch_bend_c, 0, 10923
2, 74212, Pitch_bend_c, 0, 10923
2, 74217, Pitch_bend_c, 0, 10923
2, 74222, Pitch_bend_c, 0, 10923
2, 74227, Pitch_bend_c, 0, 10923
2, 74232, Pitch_bend_c, 0, 10923
2, 74237, Pitch_bend_c, 0, 10923
2, 74242, Pitch_bend_c, 0, 10923
2, 74248, Pitch_bend_c, 0, 10923
2, 74253, Pitch_bend_c, 0, 10923
2, 74258, Pitch_bend_c, 0, 10923
2, 74263, Pitch_bend_c, 0, 10923
2, 74268, Pitch_bend_c, 0, 10923
2, 74273, Pitch_bend_c, 0, 10923
2, 74278, Pitch_bend_c, 0, 10923
2, 74283, Pitch_bend_c, 0, 8192
2, 74288, Pitch_bend_c, 0, 8192
2, 74293, Pitch_bend_c, 0, 10923
2, 74298, Pitch_bend_c, 0, 10923
2, 74304, Pitch_bend_c, 0, 10923
2, 74304, Note_on_c, 0, 69, 0
2, 74620, Pitch_bend_c, 0, 10923
2, 74620, Note_on_c, 0, 72, 77
2, 74626, Pitch_bend_c, 0, 10923
2, 74631, Pitch_bend_c, 0, 10923
2, 74637, Pitch_bend_c, 0, 10923
2, 74642, Pitch_bend_c, 0, 10923
2, 74648, Pitch_bend_c, 0, 10923
2, 74653, Pitch_bend_c, 0, 10923
2, 74659, Pitch_bend_c, 0, 10923
2, 74664, Pitch_bend_c, 0, 10923
2, 74670, Pitch_bend_c, 0, 10923
2, 74675, Pitch_bend_c, 0, 9557
2, 74681, Pitch_bend_c, 0, 9557
2, 74686, Pitch_bend_c, 0, 9557
2, 74692, Pitch_bend_c, 0, 9557
2, 74692, Note_on_c, 0, 72, 0
2, 74702, Note_on_c, 0, 86, 53
2, 74707, Note_on_c, 0, 74, 75
2, 75003, Note_on_c, 0, 74, 0
2, 75024, Note_on_c, 0, 69, 76
2, 75024, Note_on_c, 0, 86, 0
2, 75116, Note_on_c, 0, 81, 46
2, 75229, Note_on_c, 0, 81, 0
2, 75234, Note_on_c, 0, 81, 58
2, 75356, Note_on_c, 0, 81, 0
2, 75367, Note_on_c, 0, 69, 0
2, 75448, Note_on_c, 0, 84, 55
2, 75459, Note_on_c, 0, 72, 78
2, 75719, Note_on_c, 0, 84, 0
2, 75729, Note_on_c, 0, 72, 0
2, 75750, Note_on_c, 0, 70, 77
2, 75760, Note_on_c, 0, 82, 47
2, 75995, Note_on_c, 0, 70, 0
2, 76005, Note_on_c, 0, 82, 0
2, 76052, Note_on_c, 0, 69, 83
2, 76062, Note_on_c, 0, 81, 48
2, 77135, Note_on_c, 0, 81, 0
2, 77197, Note_on_c, 0, 69, 0
2, 77738, Note_on_c, 0, 74, 75
2, 77743, Note_on_c, 0, 86, 66
2, 78459, Note_on_c, 0, 86, 0
2, 78474, Note_on_c, 0, 74, 0
2, 78490, Pitch_bend_c, 0, 9557
2, 78490, Note_on_c, 0, 76, 94
2, 78495, Pitch_bend_c, 0, 9557
2, 78500, Pitch_bend_c, 0, 9557
2, 78505, Pitch_bend_c, 0, 9557
2, 78510, Pitch_bend_c, 0, 9557
2, 78515, Pitch_bend_c, 0, 9557
2, 78520, Pitch_bend_c, 0, 9557
2, 78525, Pitch_bend_c, 0, 9557
2, 78531, Pitch_bend_c, 0, 9557
2, 78536, Pitch_bend_c, 0, 9557
2, 78541, Pitch_bend_c, 0, 9557
2, 78546, Pitch_bend_c, 0, 9557
2, 78551, Pitch_bend_c, 0, 9557
2, 78556, Pitch_bend_c, 0, 9557
2, 78561, Pitch_bend_c, 0, 9557
2, 78566, Pitch_bend_c, 0, 9557
2, 78571, Pitch_bend_c, 0, 9557
2, 78577, Pitch_bend_c, 0, 9557
2, 78582, Pitch_bend_c, 0, 9557
2, 78587, Pitch_bend_c, 0, 9557
2, 78592, Pitch_bend_c, 0, 9557
2, 78597, Pitch_bend_c, 0, 9557
2, 78602, Pitch_bend_c, 0, 9557
2, 78607, Pitch_bend_c, 0, 9557
2, 78612, Pitch_bend_c, 0, 9557
2, 78617, Pitch_bend_c, 0, 9557
2, 78623, Pitch_bend_c, 0, 9557
2, 78628, Pitch_bend_c, 0, 9557
2, 78633, Pitch_bend_c, 0, 9557
2, 78638, Pitch_bend_c, 0, 9557
2, 78643, Pitch_bend_c, 0, 9557
2, 78648, Pitch_bend_c, 0, 9557
2, 78653, Pitch_bend_c, 0, 9557
2, 78658, Pitch_bend_c, 0, 9557
2, 78663, Pitch_bend_c, 0, 9557
2, 78669, Pitch_bend_c, 0, 9557
2, 78674, Pitch_bend_c, 0, 9557
2, 78679, Pitch_bend_c, 0, 9557
2, 78684, Pitch_bend_c, 0, 9557
2, 78689, Pitch_bend_c, 0, 9557
2, 78694, Pitch_bend_c, 0, 9557
2, 78699, Pitch_bend_c, 0, 9557
2, 78704, Pitch_bend_c, 0, 9557
2, 78709, Pitch_bend_c, 0, 9557
2, 78715, Pitch_bend_c, 0, 9557
2, 78720, Pitch_bend_c, 0, 9557
2, 78725, Pitch_bend_c, 0, 9557
2, 78730, Pitch_bend_c, 0, 9557
2, 78735, Pitch_bend_c, 0, 9557
2, 78740, Pitch_bend_c, 0, 9557
2, 78745, Pitch_bend_c, 0, 9557
2, 78750, Pitch_bend_c, 0, 9557
2, 78755, Pitch_bend_c, 0, 9557
2, 78761, Pitch_bend_c, 0, 9557
2, 78766, Pitch_bend_c, 0, 9557
2, 78771, Pitch_bend_c, 0, 9557
2, 78776, Pitch_bend_c, 0, 9557
2, 78781, Pitch_bend_c, 0, 9557
2, 78786, Pitch_bend_c, 0, 9557
2, 78791, Pitch_bend_c, 0, 9557
2, 78796, Pitch_bend_c, 0, 9557
2, 78801, Pitch_bend_c, 0, 9557
2, 78807, Pitch_bend_c, 0, 9557
2, 78812, Pitch_bend_c, 0, 9557
2, 78817, Pitch_bend_c, 0, 9557
2, 78822, Pitch_bend_c, 0, 9557
2, 78827, Pitch_bend_c, 0, 9557
2, 78832, Pitch_bend_c, 0, 9557
2, 78837, Pitch_bend_c, 0, 9557
2, 78842, Pitch_bend_c, 0, 9557
2, 78848, Pitch_bend_c, 0, 9557
2, 78853, Pitch_bend_c, 0, 9557
2, 78858, Pitch_bend_c, 0, 9557
2, 78863, Pitch_bend_c, 0, 9557
2, 78868, Pitch_bend_c, 0, 9557
2, 78873, Pitch_bend_c, 0, 9557
2, 78878, Pitch_bend_c, 0, 9557
2, 78883, Pitch_bend_c, 0, 9557
2, 78888, Pitch_bend_c, 0, 9557
2, 78894, Pitch_bend_c, 0, 9557
2, 78899, Pitch_bend_c, 0, 9557
2, 78904, Pitch_bend_c, 0, 9557
2, 78909, Pitch_bend_c, 0, 9557
2, 78914, Pitch_bend_c, 0, 9557
2, 78919, Pitch_bend_c, 0, 9557
2, 78924, Pitch_bend_c, 0, 9557
2, 78929, Pitch_bend_c, 0, 9557
2, 78934, Pitch_bend_c, 0, 9557
2, 78940, Pitch_bend_c, 0, 9557
2, 78945, Pitch_bend_c, 0, 9557
2, 78950, Pitch_bend_c, 0, 9557
2, 78955, Pitch_bend_c, 0, 9557
2, 78960, Pitch_bend_c, 0, 9557
2, 78965, Pitch_bend_c, 0, 9557
2, 78970, Pitch_bend_c, 0, 9557
2, 78975, Pitch_bend_c, 0, 9557
2, 78980, Pitch_bend_c, 0, 9557
2, 78986, Pitch_bend_c, 0, 9557
2, 78991, Pitch_bend_c, 0, 9557
2, 78996, Pitch_bend_c, 0, 9557
2, 79001, Pitch_bend_c, 0, 9557
2, 79006, Pitch_bend_c, 0, 9557
2, 79011, Pitch_bend_c, 0, 9557
2, 79016, Pitch_bend_c, 0, 9557
2, 79021, Pitch_bend_c, 0, 9557
2, 79026, Pitch_bend_c, 0, 9557
2, 79032, Pitch_bend_c, 0, 9557
2, 79037, Pitch_bend_c, 0, 9557
2, 79042, Pitch_bend_c, 0, 9557
2, 79047, Pitch_bend_c, 0, 9557
2, 79052, Pitch_bend_c, 0, 9557
2, 79057, Pitch_bend_c, 0, 9557
2, 79062, Pitch_bend_c, 0, 8192
2, 79067, Pitch_bend_c, 0, 8192
2, 79072, Pitch_bend_c, 0, 8192
2, 79078, Pitch_bend_c, 0, 8192
2, 79083, Pitch_bend_c, 0, 8192
2, 79088, Pitch_bend_c, 0, 8192
2, 79093, Pitch_bend_c, 0, 8192
2, 79098, Pitch_bend_c, 0, 8192
2, 79103, Pitch_bend_c, 0, 8192
2, 79108, Pitch_bend_c, 0, 6827
2, 79113, Pitch_bend_c, 0, 6827
2, 79119, Pitch_bend_c, 0, 6827
2, 79119, Note_on_c, 0, 76, 0
2, 79175, Note_on_c, 0, 74, 84
2, 79272, Note_on_c, 0, 86, 49
2, 80018, Note_on_c, 0, 86, 0
2, 80171, Note_on_c, 0, 86, 38
2, 80309, Note_on_c, 0, 86, 0
2, 80381, Note_on_c, 0, 86, 55
2, 80519, Note_on_c, 0, 86, 0
2, 80555, Note_on_c, 0, 74, 0
2, 81010, Pitch_bend_c, 0, 8192
2, 81010, Note_on_c, 0, 69, 72
2, 81015, Pitch_bend_c, 0, 8192
2, 81021, Pitch_bend_c, 0, 8192
2, 81026, Pitch_bend_c, 0, 9557
2, 81032, Pitch_bend_c, 0, 9557
2, 81037, Pitch_bend_c, 0, 9557
2, 81043, Pitch_bend_c, 0, 9557
2, 81048, Pitch_bend_c, 0, 9557
2, 81054, Pitch_bend_c, 0, 9557
2, 81060, Pitch_bend_c, 0, 9557
2, 81065, Pitch_bend_c, 0, 9557
2, 81071, Pitch_bend_c, 0, 9557
2, 81076, Pitch_bend_c, 0, 8192
2, 81076, Note_on_c, 0, 69, 0
2, 81127, Pitch_bend_c, 0, 8192
2, 81127, Note_on_c, 0, 72, 67
2, 81133, Pitch_bend_c, 0, 8192
2, 81138, Pitch_bend_c, 0, 8192
2, 81144, Pitch_bend_c, 0, 8192
2, 81149, Pitch_bend_c, 0, 8192
2, 81155, Pitch_bend_c, 0, 8192
2, 81160, Pitch_bend_c, 0, 9557
2, 81166, Pitch_bend_c, 0, 9557
2, 81172, Pitch_bend_c, 0, 9557
2, 81177, Pitch_bend_c, 0, 9557
2, 81183, Pitch_bend_c, 0, 9557
2, 81188, Pitch_bend_c, 0, 9557
2, 81194, Pitch_bend_c, 0, 8192
2, 81194, Note_on_c, 0, 72, 0
2, 81219, Pitch_bend_c, 0, 10923
2, 81219, Note_on_c, 0, 74, 84
2, 81224, Pitch_bend_c, 0, 10923
2, 81229, Pitch_bend_c, 0, 10923
2, 81235, Pitch_bend_c, 0, 9557
2, 81240, Pitch_bend_c, 0, 9557
2, 81245, Pitch_bend_c, 0, 9557
2, 81250, Pitch_bend_c, 0, 9557
2, 81255, Pitch_bend_c, 0, 9557
2, 81260, Pitch_bend_c, 0, 10923
2, 81265, Pitch_bend_c, 0, 10923
2, 81270, Pitch_bend_c, 0, 10923
2, 81276, Pitch_bend_c, 0, 9557
2, 81281, Pitch_bend_c, 0, 9557
2, 81286, Pitch_bend_c, 0, 9557
2, 81291, Pitch_bend_c, 0, 9557
2, 81296, Pitch_bend_c, 0, 9557
2, 81301, Pitch_bend_c, 0, 9557
2, 81306, Pitch_bend_c, 0, 9557
2, 81311, Pitch_bend_c, 0, 9557
2, 81316, Pitch_bend_c, 0, 10923
2, 81322, Pitch_bend_c, 0, 10923
2, 81327, Pitch_bend_c, 0, 10923
2, 81332, Pitch_bend_c, 0, 10923
2, 81337, Pitch_bend_c, 0, 10923
2, 81342, Pitch_bend_c, 0, 10923
2, 81347, Pitch_bend_c, 0, 9557
2, 81352, Pitch_bend_c, 0, 9557
2, 81357, Pitch_bend_c, 0, 9557
2, 81363, Pitch_bend_c, 0, 9557
2, 81368, Pitch_bend_c, 0, 9557
2, 81373, Pitch_bend_c, 0, 10923
2, 81378, Pitch_bend_c, 0, 9557
2, 81383, Pitch_bend_c, 0, 9557
2, 81388, Pitch_bend_c, 0, 9557
2, 81393, Pitch_bend_c, 0, 9557
2, 81398, Pitch_bend_c, 0, 9557
2, 81404, Pitch_bend_c, 0, 9557
2, 81409, Pitch_bend_c, 0, 9557
2, 81414, Pitch_bend_c, 0, 9557
2, 81419, Pitch_bend_c, 0, 9557
2, 81424, Pitch_bend_c, 0, 10923
2, 81429, Pitch_bend_c, 0, 9557
2, 81434, Pitch_bend_c, 0, 9557
2, 81439, Pitch_bend_c, 0, 8192
2, 81444, Pitch_bend_c, 0, 8192
2, 81450, Pitch_bend_c, 0, 8192
2, 81455, Pitch_bend_c, 0, 8192
2, 81455, Note_on_c, 0, 74, 0
2, 81577, Note_on_c, 0, 74, 75
2, 81577, Note_on_c, 0, 86, 65
2, 81771, Note_on_c, 0, 86, 0
2, 81787, Note_on_c, 0, 74, 0
2, 82068, Pitch_bend_c, 0, 9557
2, 82068, Note_on_c, 0, 74, 76
2, 82073, Pitch_bend_c, 0, 10923
2, 82079, Pitch_bend_c, 0, 10923
2, 82084, Pitch_bend_c, 0, 10923
2, 82090, Pitch_bend_c, 0, 10923
2, 82095, Pitch_bend_c, 0, 10923
2, 82100, Pitch_bend_c, 0, 9557
2, 82106, Pitch_bend_c, 0, 9557
2, 82111, Pitch_bend_c, 0, 9557
2, 82117, Pitch_bend_c, 0, 9557
2, 82122, Pitch_bend_c, 0, 9557
2, 82128, Pitch_bend_c, 0, 9557
2, 82133, Pitch_bend_c, 0, 10923
2, 82139, Pitch_bend_c, 0, 10923
2, 82144, Pitch_bend_c, 0, 10923
2, 82149, Pitch_bend_c, 0, 9557
2, 82149, Note_on_c, 0, 74, 0
2, 82268, Pitch_bend_c, 0, 9557
2, 82268, Note_on_c, 0, 75, 74
2, 82273, Pitch_bend_c, 0, 9557
2, 82279, Pitch_bend_c, 0, 9557
2, 82284, Pitch_bend_c, 0, 9557
2, 82290, Pitch_bend_c, 0, 9557
2, 82295, Pitch_bend_c, 0, 9557
2, 82301, Pitch_bend_c, 0, 9557
2, 82307, Pitch_bend_c, 0, 9557
2, 82312, Pitch_bend_c, 0, 9557
2, 82318, Pitch_bend_c, 0, 8192
2, 82323, Pitch_bend_c, 0, 8192
2, 82329, Pitch_bend_c, 0, 8192
2, 82329, Note_on_c, 0, 75, 0
2, 82344, Pitch_bend_c, 0, 5461
2, 82344, Note_on_c, 0, 77, 85
2, 82349, Pitch_bend_c, 0, 10923
2, 82354, Pitch_bend_c, 0, 10923
2, 82360, Pitch_bend_c, 0, 10923
2, 82365, Pitch_bend_c, 0, 9557
2, 82370, Pitch_bend_c, 0, 9557
2, 82375, Pitch_bend_c, 0, 9557
2, 82380, Pitch_bend_c, 0, 9557
2, 82386, Pitch_bend_c, 0, 9557
2, 82391, Pitch_bend_c, 0, 9557
2, 82396, Pitch_bend_c, 0, 9557
2, 82401, Pitch_bend_c, 0, 9557
2, 82406, Pitch_bend_c, 0, 9557
2, 82411, Pitch_bend_c, 0, 9557
2, 82417, Pitch_bend_c, 0, 9557
2, 82422, Pitch_bend_c, 0, 9557
2, 82427, Pitch_bend_c, 0, 9557
2, 82432, Pitch_bend_c, 0, 9557
2, 82437, Pitch_bend_c, 0, 9557
2, 82442, Pitch_bend_c, 0, 9557
2, 82448, Pitch_bend_c, 0, 9557
2, 82453, Pitch_bend_c, 0, 9557
2, 82458, Pitch_bend_c, 0, 9557
2, 82463, Pitch_bend_c, 0, 9557
2, 82468, Pitch_bend_c, 0, 9557
2, 82473, Pitch_bend_c, 0, 9557
2, 82479, Pitch_bend_c, 0, 10923
2, 82484, Pitch_bend_c, 0, 9557
2, 82489, Pitch_bend_c, 0, 9557
2, 82494, Pitch_bend_c, 0, 9557
2, 82499, Pitch_bend_c, 0, 9557
2, 82504, Pitch_bend_c, 0, 9557
2, 82510, Pitch_bend_c, 0, 9557
2, 82515, Pitch_bend_c, 0, 9557
2, 82520, Pitch_bend_c, 0, 9557
2, 82525, Pitch_bend_c, 0, 9557
2, 82530, Pitch_bend_c, 0, 9557
2, 82535, Pitch_bend_c, 0, 9557
2, 82541, Pitch_bend_c, 0, 9557
2, 82546, Pitch_bend_c, 0, 9557
2, 82551, Pitch_bend_c, 0, 9557
2, 82556, Pitch_bend_c, 0, 9557
2, 82561, Pitch_bend_c, 0, 9557
2, 82566, Pitch_bend_c, 0, 9557
2, 82572, Pitch_bend_c, 0, 9557
2, 82577, Pitch_bend_c, 0, 9557
2, 82582, Pitch_bend_c, 0, 9557
2, 82587, Pitch_bend_c, 0, 9557
2, 82592, Pitch_bend_c, 0, 9557
2, 82598, Pitch_bend_c, 0, 9557
2, 82603, Pitch_bend_c, 0, 9557
2, 82608, Pitch_bend_c, 0, 9557
2, 82613, Pitch_bend_c, 0, 9557
2, 82618, Pitch_bend_c, 0, 9557
2, 82623, Pitch_bend_c, 0, 9557
2, 82629, Pitch_bend_c, 0, 9557
2, 82634, Pitch_bend_c, 0, 9557
2, 82639, Pitch_bend_c, 0, 9557
2, 82644, Pitch_bend_c, 0, 9557
2, 82649, Pitch_bend_c, 0, 9557
2, 82654, Pitch_bend_c, 0, 9557
2, 82660, Pitch_bend_c, 0, 9557
2, 82665, Pitch_bend_c, 0, 9557
2, 82670, Pitch_bend_c, 0, 9557
2, 82675, Pitch_bend_c, 0, 9557
2, 82680, Pitch_bend_c, 0, 9557
2, 82685, Pitch_bend_c, 0, 9557
2, 82691, Pitch_bend_c, 0, 9557
2, 82696, Pitch_bend_c, 0, 9557
2, 82701, Pitch_bend_c, 0, 9557
2, 82706, Pitch_bend_c, 0, 9557
2, 82711, Pitch_bend_c, 0, 9557
2, 82716, Pitch_bend_c, 0, 9557
2, 82722, Pitch_bend_c, 0, 9557
2, 82727, Pitch_bend_c, 0, 9557
2, 82732, Pitch_bend_c, 0, 9557
2, 82737, Pitch_bend_c, 0, 9557
2, 82742, Pitch_bend_c, 0, 9557
2, 82747, Pitch_bend_c, 0, 9557
2, 82753, Pitch_bend_c, 0, 9557
2, 82758, Pitch_bend_c, 0, 8192
2, 82763, Pitch_bend_c, 0, 8192
2, 82768, Pitch_bend_c, 0, 8192
2, 82768, Pitch_bend_c, 0, 10923
2, 82768, Note_on_c, 0, 76, 76
2, 82768, Note_on_c, 0, 77, 0
2, 82774, Pitch_bend_c, 0, 10923
2, 82779, Pitch_bend_c, 0, 9557
2, 82785, Pitch_bend_c, 0, 9557
2, 82790, Pitch_bend_c, 0, 9557
2, 82795, Pitch_bend_c, 0, 9557
2, 82801, Pitch_bend_c, 0, 9557
2, 82806, Pitch_bend_c, 0, 9557
2, 82812, Pitch_bend_c, 0, 9557
2, 82817, Pitch_bend_c, 0, 9557
2, 82823, Pitch_bend_c, 0, 9557
2, 82828, Pitch_bend_c, 0, 9557
2, 82834, Pitch_bend_c, 0, 9557
2, 82839, Pitch_bend_c, 0, 9557
2, 82844, Pitch_bend_c, 0, 9557
2, 82850, Pitch_bend_c, 0, 9557
2, 82850, Note_on_c, 0, 76, 0
2, 82855, Pitch_bend_c, 0, 9557
2, 82855, Note_on_c, 0, 76, 101
2, 82860, Pitch_bend_c, 0, 9557
2, 82865, Pitch_bend_c, 0, 9557
2, 82870, Pitch_bend_c, 0, 9557
2, 82875, Pitch_bend_c, 0, 9557
2, 82881, Pitch_bend_c, 0, 9557
2, 82886, Pitch_bend_c, 0, 9557
2, 82891, Pitch_bend_c, 0, 9557
2, 82896, Pitch_bend_c, 0, 9557
2, 82901, Pitch_bend_c, 0, 9557
2, 82906, Pitch_bend_c, 0, 9557
2, 82911, Pitch_bend_c, 0, 9557
2, 82916, Pitch_bend_c, 0, 9557
2, 82921, Pitch_bend_c, 0, 9557
2, 82927, Pitch_bend_c, 0, 9557
2, 82932, Pitch_bend_c, 0, 9557
2, 82937, Pitch_bend_c, 0, 10923
2, 82942, Pitch_bend_c, 0, 10923
2, 82947, Pitch_bend_c, 0, 10923
2, 82952, Pitch_bend_c, 0, 10923
2, 82957, Pitch_bend_c, 0, 10923
2, 82962, Pitch_bend_c, 0, 9557
2, 82967, Pitch_bend_c, 0, 9557
2, 82973, Pitch_bend_c, 0, 9557
2, 82978, Pitch_bend_c, 0, 9557
2, 82983, Pitch_bend_c, 0, 9557
2, 82988, Pitch_bend_c, 0, 9557
2, 82993, Pitch_bend_c, 0, 9557
2, 82998, Pitch_bend_c, 0, 9557
2, 83003, Pitch_bend_c, 0, 9557
2, 83008, Pitch_bend_c, 0, 9557
2, 83013, Pitch_bend_c, 0, 9557
2, 83019, Pitch_bend_c, 0, 9557
2, 83024, Pitch_bend_c, 0, 9557
2, 83029, Pitch_bend_c, 0, 9557
2, 83034, Pitch_bend_c, 0, 9557
2, 83039, Pitch_bend_c, 0, 9557
2, 83044, Pitch_bend_c, 0, 9557
2, 83049, Pitch_bend_c, 0, 9557
2, 83054, Pitch_bend_c, 0, 9557
2, 83059, Pitch_bend_c, 0, 9557
2, 83065, Pitch_bend_c, 0, 9557
2, 83070, Pitch_bend_c, 0, 9557
2, 83075, Pitch_bend_c, 0, 9557
2, 83080, Pitch_bend_c, 0, 9557
2, 83085, Pitch_bend_c, 0, 10923
2, 83090, Pitch_bend_c, 0, 10923
2, 83095, Pitch_bend_c, 0, 10923
2, 83100, Pitch_bend_c, 0, 10923
2, 83105, Pitch_bend_c, 0, 10923
2, 83111, Pitch_bend_c, 0, 10923
2, 83116, Pitch_bend_c, 0, 9557
2, 83121, Pitch_bend_c, 0, 9557
2, 83126, Pitch_bend_c, 0, 8192
2, 83131, Pitch_bend_c, 0, 8192
2, 83136, Pitch_bend_c, 0, 9557
2, 83141, Pitch_bend_c, 0, 9557
2, 83146, Pitch_bend_c, 0, 10923
2, 83151, Pitch_bend_c, 0, 10923
2, 83157, Pitch_bend_c, 0, 10923
2, 83162, Pitch_bend_c, 0, 10923
2, 83167, Pitch_bend_c, 0, 10923
2, 83172, Pitch_bend_c, 0, 10923
2, 83177, Pitch_bend_c, 0, 9557
2, 83182, Pitch_bend_c, 0, 9557
2, 83187, Pitch_bend_c, 0, 9557
2, 83192, Pitch_bend_c, 0, 8192
2, 83198, Pitch_bend_c, 0, 8192
2, 83203, Pitch_bend_c, 0, 9557
2, 83208, Pitch_bend_c, 0, 9557
2, 83213, Pitch_bend_c, 0, 9557
2, 83218, Pitch_bend_c, 0, 9557
2, 83223, Pitch_bend_c, 0, 10923
2, 83228, Pitch_bend_c, 0, 10923
2, 83233, Pitch_bend_c, 0, 10923
2, 83238, Pitch_bend_c, 0, 10923
2, 83244, Pitch_bend_c, 0, 9557
2, 83249, Pitch_bend_c, 0, 9557
2, 83254, Pitch_bend_c, 0, 9557
2, 83259, Pitch_bend_c, 0, 9557
2, 83264, Pitch_bend_c, 0, 9557
2, 83269, Pitch_bend_c, 0, 9557
2, 83274, Pitch_bend_c, 0, 9557
2, 83279, Pitch_bend_c, 0, 9557
2, 83284, Pitch_bend_c, 0, 9557
2, 83290, Pitch_bend_c, 0, 10923
2, 83295, Pitch_bend_c, 0, 10923
2, 83300, Pitch_bend_c, 0, 10923
2, 83305, Pitch_bend_c, 0, 10923
2, 83310, Pitch_bend_c, 0, 10923
2, 83315, Pitch_bend_c, 0, 10923
2, 83320, Pitch_bend_c, 0, 9557
2, 83325, Pitch_bend_c, 0, 9557
2, 83330, Pitch_bend_c, 0, 8192
2, 83336, Pitch_bend_c, 0, 8192
2, 83341, Pitch_bend_c, 0, 8192
2, 83346, Pitch_bend_c, 0, 8192
2, 83351, Pitch_bend_c, 0, 9557
2, 83356, Pitch_bend_c, 0, 9557
2, 83361, Pitch_bend_c, 0, 10923
2, 83366, Pitch_bend_c, 0, 10923
2, 83371, Pitch_bend_c, 0, 10923
2, 83376, Pitch_bend_c, 0, 10923
2, 83382, Pitch_bend_c, 0, 10923
2, 83387, Pitch_bend_c, 0, 9557
2, 83392, Pitch_bend_c, 0, 9557
2, 83397, Pitch_bend_c, 0, 9557
2, 83402, Pitch_bend_c, 0, 9557
2, 83407, Pitch_bend_c, 0, 9557
2, 83412, Pitch_bend_c, 0, 9557
2, 83417, Pitch_bend_c, 0, 9557
2, 83422, Pitch_bend_c, 0, 9557
2, 83428, Pitch_bend_c, 0, 9557
2, 83433, Pitch_bend_c, 0, 9557
2, 83438, Pitch_bend_c, 0, 9557
2, 83443, Pitch_bend_c, 0, 9557
2, 83448, Pitch_bend_c, 0, 9557
2, 83453, Pitch_bend_c, 0, 9557
2, 83458, Pitch_bend_c, 0, 9557
2, 83463, Pitch_bend_c, 0, 9557
2, 83468, Pitch_bend_c, 0, 9557
2, 83474, Pitch_bend_c, 0, 9557
2, 83479, Pitch_bend_c, 0, 9557
2, 83484, Pitch_bend_c, 0, 9557
2, 83489, Pitch_bend_c, 0, 9557
2, 83494, Pitch_bend_c, 0, 9557
2, 83499, Pitch_bend_c, 0, 9557
2, 83504, Pitch_bend_c, 0, 9557
2, 83509, Pitch_bend_c, 0, 9557
2, 83514, Pitch_bend_c, 0, 9557
2, 83520, Pitch_bend_c, 0, 9557
2, 83525, Pitch_bend_c, 0, 9557
2, 83530, Pitch_bend_c, 0, 9557
2, 83535, Pitch_bend_c, 0, 9557
2, 83540, Pitch_bend_c, 0, 9557
2, 83545, Pitch_bend_c, 0, 9557
2, 83550, Pitch_bend_c, 0, 9557
2, 83555, Pitch_bend_c, 0, 9557
2, 83560, Pitch_bend_c, 0, 9557
2, 83566, Pitch_bend_c, 0, 9557
2, 83571, Pitch_bend_c, 0, 9557
2, 83576, Pitch_bend_c, 0, 9557
2, 83581, Pitch_bend_c, 0, 9557
2, 83586, Pitch_bend_c, 0, 9557
2, 83591, Pitch_bend_c, 0, 9557
2, 83596, Pitch_bend_c, 0, 9557
2, 83601, Pitch_bend_c, 0, 9557
2, 83606, Pitch_bend_c, 0, 9557
2, 83612, Pitch_bend_c, 0, 9557
2, 83617, Pitch_bend_c, 0, 9557
2, 83622, Pitch_bend_c, 0, 9557
2, 83627, Pitch_bend_c, 0, 9557
2, 83632, Pitch_bend_c, 0, 9557
2, 83637, Pitch_bend_c, 0, 8192
2, 83642, Pitch_bend_c, 0, 8192
2, 83647, Pitch_bend_c, 0, 6827
2, 83652, Pitch_bend_c, 0, 6827
2, 83652, Note_on_c, 0, 76, 0
2, 83852, Pitch_bend_c, 0, 9557
2, 83852, Note_on_c, 0, 76, 58
2, 83857, Pitch_bend_c, 0, 9557
2, 83862, Pitch_bend_c, 0, 9557
2, 83867, Pitch_bend_c, 0, 9557
2, 83872, Pitch_bend_c, 0, 9557
2, 83877, Pitch_bend_c, 0, 9557
2, 83882, Pitch_bend_c, 0, 9557
2, 83888, Pitch_bend_c, 0, 9557
2, 83893, Pitch_bend_c, 0, 9557
2, 83898, Pitch_bend_c, 0, 9557
2, 83903, Pitch_bend_c, 0, 9557
2, 83908, Pitch_bend_c, 0, 9557
2, 83913, Pitch_bend_c, 0, 9557
2, 83918, Pitch_bend_c, 0, 9557
2, 83923, Pitch_bend_c, 0, 9557
2, 83929, Pitch_bend_c, 0, 9557
2, 83934, Pitch_bend_c, 0, 9557
2, 83939, Pitch_bend_c, 0, 9557
2, 83944, Pitch_bend_c, 0, 9557
2, 83949, Pitch_bend_c, 0, 9557
2, 83954, Pitch_bend_c, 0, 9557
2, 83959, Pitch_bend_c, 0, 9557
2, 83964, Pitch_bend_c, 0, 9557
2, 83970, Pitch_bend_c, 0, 9557
2, 83975, Pitch_bend_c, 0, 9557
2, 83980, Pitch_bend_c, 0, 9557
2, 83985, Pitch_bend_c, 0, 9557
2, 83990, Pitch_bend_c, 0, 9557
2, 83995, Pitch_bend_c, 0, 9557
2, 84000, Pitch_bend_c, 0, 9557
2, 84005, Pitch_bend_c, 0, 9557
2, 84010, Pitch_bend_c, 0, 9557
2, 84016, Pitch_bend_c, 0, 9557
2, 84021, Pitch_bend_c, 0, 9557
2, 84026, Pitch_bend_c, 0, 9557
2, 84031, Pitch_bend_c, 0, 9557
2, 84036, Pitch_bend_c, 0, 9557
2, 84041, Pitch_bend_c, 0, 9557
2, 84046, Pitch_bend_c, 0, 9557
2, 84051, Pitch_bend_c, 0, 9557
2, 84057, Pitch_bend_c, 0, 9557
2, 84062, Pitch_bend_c, 0, 9557
2, 84062, Note_on_c, 0, 76, 0
2, 84118, Pitch_bend_c, 0, 9557
2, 84118, Note_on_c, 0, 72, 86
2, 84123, Pitch_bend_c, 0, 9557
2, 84128, Pitch_bend_c, 0, 9557
2, 84134, Pitch_bend_c, 0, 9557
2, 84139, Pitch_bend_c, 0, 9557
2, 84144, Pitch_bend_c, 0, 9557
2, 84150, Pitch_bend_c, 0, 9557
2, 84155, Pitch_bend_c, 0, 9557
2, 84160, Pitch_bend_c, 0, 9557
2, 84166, Pitch_bend_c, 0, 9557
2, 84171, Pitch_bend_c, 0, 9557
2, 84176, Pitch_bend_c, 0, 9557
2, 84181, Pitch_bend_c, 0, 10923
2, 84187, Pitch_bend_c, 0, 10923
2, 84192, Pitch_bend_c, 0, 10923
2, 84197, Pitch_bend_c, 0, 9557
2, 84203, Pitch_bend_c, 0, 9557
2, 84208, Pitch_bend_c, 0, 9557
2, 84213, Pitch_bend_c, 0, 9557
2, 84218, Pitch_bend_c, 0, 9557
2, 84224, Pitch_bend_c, 0, 9557
2, 84229, Pitch_bend_c, 0, 9557
2, 84234, Pitch_bend_c, 0, 9557
2, 84240, Pitch_bend_c, 0, 9557
2, 84245, Pitch_bend_c, 0, 9557
2, 84250, Pitch_bend_c, 0, 9557
2, 84255, Pitch_bend_c, 0, 9557
2, 84261, Pitch_bend_c, 0, 9557
2, 84266, Pitch_bend_c, 0, 8192
2, 84266, Note_on_c, 0, 72, 0
2, 84292, Pitch_bend_c, 0, 6827
2, 84292, Note_on_c, 0, 74, 73
2, 84297, Pitch_bend_c, 0, 6827
2, 84302, Pitch_bend_c, 0, 10923
2, 84307, Pitch_bend_c, 0, 10923
2, 84313, Pitch_bend_c, 0, 10923
2, 84318, Pitch_bend_c, 0, 9557
2, 84323, Pitch_bend_c, 0, 8192
2, 84328, Pitch_bend_c, 0, 8192
2, 84334, Pitch_bend_c, 0, 8192
2, 84339, Pitch_bend_c, 0, 9557
2, 84344, Pitch_bend_c, 0, 9557
2, 84349, Pitch_bend_c, 0, 10923
2, 84355, Pitch_bend_c, 0, 10923
2, 84360, Pitch_bend_c, 0, 10923
2, 84365, Pitch_bend_c, 0, 10923
2, 84370, Pitch_bend_c, 0, 10923
2, 84376, Pitch_bend_c, 0, 8192
2, 84381, Pitch_bend_c, 0, 8192
2, 84386, Pitch_bend_c, 0, 8192
2, 84391, Pitch_bend_c, 0, 8192
2, 84397, Pitch_bend_c, 0, 8192
2, 84402, Pitch_bend_c, 0, 9557
2, 84407, Pitch_bend_c, 0, 10923
2, 84412, Pitch_bend_c, 0, 10923
2, 84418, Pitch_bend_c, 0, 10923
2, 84423, Pitch_bend_c, 0, 10923
2, 84428, Pitch_bend_c, 0, 10923
2, 84433, Pitch_bend_c, 0, 10923
2, 84439, Pitch_bend_c, 0, 9557
2, 84444, Pitch_bend_c, 0, 9557
2, 84449, Pitch_bend_c, 0, 8192
2, 84454, Pitch_bend_c, 0, 8192
2, 84460, Pitch_bend_c, 0, 9557
2, 84465, Pitch_bend_c, 0, 9557
2, 84470, Pitch_bend_c, 0, 10923
2, 84475, Pitch_bend_c, 0, 10923
2, 84481, Pitch_bend_c, 0, 10923
2, 84481, Note_on_c, 0, 74, 0
2, 84639, Note_on_c, 0, 74, 86
2, 84649, Note_on_c, 0, 86, 46
2, 84808, Note_on_c, 0, 86, 0
2, 84834, Note_on_c, 0, 74, 0
2, 85140, Pitch_bend_c, 0, 8192
2, 85140, Note_on_c, 0, 74, 57
2, 85146, Pitch_bend_c, 0, 9557
2, 85151, Pitch_bend_c, 0, 9557
2, 85156, Pitch_bend_c, 0, 9557
2, 85162, Pitch_bend_c, 0, 9557
2, 85167, Pitch_bend_c, 0, 9557
2, 85173, Pitch_bend_c, 0, 10923
2, 85178, Pitch_bend_c, 0, 10923
2, 85184, Pitch_bend_c, 0, 10923
2, 85189, Pitch_bend_c, 0, 10923
2, 85195, Pitch_bend_c, 0, 10923
2, 85200, Pitch_bend_c, 0, 10923
2, 85206, Pitch_bend_c, 0, 10923
2, 85211, Pitch_bend_c, 0, 6827
2, 85216, Pitch_bend_c, 0, 8192
2, 85222, Pitch_bend_c, 0, 9557
2, 85222, Note_on_c, 0, 74, 0
2, 85390, Pitch_bend_c, 0, 6827
2, 85390, Note_on_c, 0, 77, 94
2, 85396, Pitch_bend_c, 0, 8192
2, 85401, Pitch_bend_c, 0, 9557
2, 85406, Pitch_bend_c, 0, 9557
2, 85411, Pitch_bend_c, 0, 9557
2, 85416, Pitch_bend_c, 0, 9557
2, 85421, Pitch_bend_c, 0, 9557
2, 85426, Pitch_bend_c, 0, 9557
2, 85431, Pitch_bend_c, 0, 9557
2, 85436, Pitch_bend_c, 0, 9557
2, 85442, Pitch_bend_c, 0, 9557
2, 85447, Pitch_bend_c, 0, 9557
2, 85452, Pitch_bend_c, 0, 9557
2, 85457, Pitch_bend_c, 0, 9557
2, 85462, Pitch_bend_c, 0, 9557
2, 85467, Pitch_bend_c, 0, 9557
2, 85472, Pitch_bend_c, 0, 9557
2, 85477, Pitch_bend_c, 0, 9557
2, 85483, Pitch_bend_c, 0, 9557
2, 85488, Pitch_bend_c, 0, 9557
2, 85493, Pitch_bend_c, 0, 9557
2, 85498, Pitch_bend_c, 0, 9557
2, 85503, Pitch_bend_c, 0, 9557
2, 85508, Pitch_bend_c, 0, 9557
2, 85513, Pitch_bend_c, 0, 9557
2, 85518, Pitch_bend_c, 0, 9557
2, 85523, Pitch_bend_c, 0, 9557
2, 85529, Pitch_bend_c, 0, 9557
2, 85534, Pitch_bend_c, 0, 9557
2, 85539, Pitch_bend_c, 0, 9557
2, 85544, Pitch_bend_c, 0, 9557
2, 85549, Pitch_bend_c, 0, 9557
2, 85554, Pitch_bend_c, 0, 9557
2, 85559, Pitch_bend_c, 0, 9557
2, 85564, Pitch_bend_c, 0, 9557
2, 85569, Pitch_bend_c, 0, 9557
2, 85575, Pitch_bend_c, 0, 9557
2, 85580, Pitch_bend_c, 0, 9557
2, 85585, Pitch_bend_c, 0, 9557
2, 85590, Pitch_bend_c, 0, 9557
2, 85595, Pitch_bend_c, 0, 9557
2, 85600, Pitch_bend_c, 0, 9557
2, 85605, Pitch_bend_c, 0, 9557
2, 85610, Pitch_bend_c, 0, 9557
2, 85615, Pitch_bend_c, 0, 9557
2, 85621, Pitch_bend_c, 0, 9557
2, 85626, Pitch_bend_c, 0, 9557
2, 85631, Pitch_bend_c, 0, 9557
2, 85636, Pitch_bend_c, 0, 9557
2, 85641, Pitch_bend_c, 0, 9557
2, 85646, Pitch_bend_c, 0, 9557
2, 85651, Pitch_bend_c, 0, 9557
2, 85656, Pitch_bend_c, 0, 9557
2, 85662, Pitch_bend_c, 0, 9557
2, 85667, Pitch_bend_c, 0, 9557
2, 85672, Pitch_bend_c, 0, 9557
2, 85677, Pitch_bend_c, 0, 9557
2, 85682, Pitch_bend_c, 0, 9557
2, 85687, Pitch_bend_c, 0, 9557
2, 85692, Pitch_bend_c, 0, 9557
2, 85697, Pitch_bend_c, 0, 9557
2, 85702, Pitch_bend_c, 0, 9557
2, 85708, Pitch_bend_c, 0, 9557
2, 85713, Pitch_bend_c, 0, 9557
2, 85718, Pitch_bend_c, 0, 9557
2, 85723, Pitch_bend_c, 0, 9557
2, 85728, Pitch_bend_c, 0, 9557
2, 85733, Pitch_bend_c, 0, 9557
2, 85738, Pitch_bend_c, 0, 9557
2, 85743, Pitch_bend_c, 0, 9557
2, 85748, Pitch_bend_c, 0, 9557
2, 85754, Pitch_bend_c, 0, 9557
2, 85759, Pitch_bend_c, 0, 9557
2, 85764, Pitch_bend_c, 0, 9557
2, 85769, Pitch_bend_c, 0, 9557
2, 85774, Pitch_bend_c, 0, 9557
2, 85779, Pitch_bend_c, 0, 9557
2, 85784, Pitch_bend_c, 0, 9557
2, 85789, Pitch_bend_c, 0, 9557
2, 85794, Pitch_bend_c, 0, 9557
2, 85800, Pitch_bend_c, 0, 9557
2, 85805, Pitch_bend_c, 0, 9557
2, 85810, Pitch_bend_c, 0, 9557
2, 85815, Pitch_bend_c, 0, 9557
2, 85820, Pitch_bend_c, 0, 9557
2, 85825, Pitch_bend_c, 0, 9557
2, 85830, Pitch_bend_c, 0, 9557
2, 85835, Pitch_bend_c, 0, 9557
2, 85840, Pitch_bend_c, 0, 9557
2, 85846, Pitch_bend_c, 0, 9557
2, 85851, Pitch_bend_c, 0, 9557
2, 85856, Pitch_bend_c, 0, 9557
2, 85861, Pitch_bend_c, 0, 9557
2, 85866, Pitch_bend_c, 0, 9557
2, 85871, Pitch_bend_c, 0, 9557
2, 85876, Pitch_bend_c, 0, 9557
2, 85881, Pitch_bend_c, 0, 9557
2, 85887, Pitch_bend_c, 0, 9557
2, 85892, Pitch_bend_c, 0, 9557
2, 85892, Pitch_bend_c, 0, 9557
2, 85892, Note_on_c, 0, 76, 81
2, 85892, Note_on_c, 0, 77, 0
2, 85897, Pitch_bend_c, 0, 9557
2, 85902, Pitch_bend_c, 0, 9557
2, 85908, Pitch_bend_c, 0, 9557
2, 85913, Pitch_bend_c, 0, 9557
2, 85918, Pitch_bend_c, 0, 9557
2, 85924, Pitch_bend_c, 0, 9557
2, 85929, Pitch_bend_c, 0, 9557
2, 85935, Pitch_bend_c, 0, 9557
2, 85940, Pitch_bend_c, 0, 9557
2, 85945, Pitch_bend_c, 0, 9557
2, 85951, Pitch_bend_c, 0, 9557
2, 85956, Pitch_bend_c, 0, 9557
2, 85961, Pitch_bend_c, 0, 9557
2, 85967, Pitch_bend_c, 0, 9557
2, 85972, Pitch_bend_c, 0, 9557
2, 85977, Pitch_bend_c, 0, 9557
2, 85983, Pitch_bend_c, 0, 9557
2, 85988, Pitch_bend_c, 0, 9557
2, 85994, Pitch_bend_c, 0, 9557
2, 85999, Pitch_bend_c, 0, 9557
2, 85999, Pitch_bend_c, 0, 13653
2, 85999, Note_on_c, 0, 76, 0
2, 85999, Note_on_c, 0, 77, 71
2, 86004, Pitch_bend_c, 0, 9557
2, 86010, Pitch_bend_c, 0, 9557
2, 86016, Pitch_bend_c, 0, 9557
2, 86021, Pitch_bend_c, 0, 9557
2, 86027, Pitch_bend_c, 0, 9557
2, 86032, Pitch_bend_c, 0, 9557
2, 86038, Pitch_bend_c, 0, 9557
2, 86043, Pitch_bend_c, 0, 9557
2, 86049, Pitch_bend_c, 0, 9557
2, 86054, Pitch_bend_c, 0, 9557
2, 86060, Pitch_bend_c, 0, 9557
2, 86065, Pitch_bend_c, 0, 9557
2, 86065, Note_on_c, 0, 77, 0
2, 86070, Pitch_bend_c, 0, 9557
2, 86070, Note_on_c, 0, 76, 97
2, 86076, Pitch_bend_c, 0, 9557
2, 86081, Pitch_bend_c, 0, 9557
2, 86086, Pitch_bend_c, 0, 9557
2, 86091, Pitch_bend_c, 0, 9557
2, 86096, Pitch_bend_c, 0, 9557
2, 86101, Pitch_bend_c, 0, 9557
2, 86106, Pitch_bend_c, 0, 9557
2, 86111, Pitch_bend_c, 0, 9557
2, 86116, Pitch_bend_c, 0, 9557
2, 86122, Pitch_bend_c, 0, 9557
2, 86127, Pitch_bend_c, 0, 9557
2, 86132, Pitch_bend_c, 0, 9557
2, 86137, Pitch_bend_c, 0, 9557
2, 86142, Pitch_bend_c, 0, 9557
2, 86147, Pitch_bend_c, 0, 9557
2, 86152, Pitch_bend_c, 0, 9557
2, 86157, Pitch_bend_c, 0, 9557
2, 86162, Pitch_bend_c, 0, 9557
2, 86168, Pitch_bend_c, 0, 9557
2, 86173, Pitch_bend_c, 0, 9557
2, 86178, Pitch_bend_c, 0, 9557
2, 86183, Pitch_bend_c, 0, 9557
2, 86188, Pitch_bend_c, 0, 9557
2, 86193, Pitch_bend_c, 0, 9557
2, 86198, Pitch_bend_c, 0, 9557
2, 86203, Pitch_bend_c, 0, 9557
2, 86208, Pitch_bend_c, 0, 9557
2, 86214, Pitch_bend_c, 0, 9557
2, 86219, Pitch_bend_c, 0, 9557
2, 86224, Pitch_bend_c, 0, 9557
2, 86229, Pitch_bend_c, 0, 9557
2, 86234, Pitch_bend_c, 0, 9557
2, 86239, Pitch_bend_c, 0, 9557
2, 86244, Pitch_bend_c, 0, 9557
2, 86249, Pitch_bend_c, 0, 9557
2, 86254, Pitch_bend_c, 0, 9557
2, 86260, Pitch_bend_c, 0, 9557
2, 86265, Pitch_bend_c, 0, 9557
2, 86270, Pitch_bend_c, 0, 9557
2, 86275, Pitch_bend_c, 0, 9557
2, 86280, Pitch_bend_c, 0, 9557
2, 86285, Pitch_bend_c, 0, 9557
2, 86290, Pitch_bend_c, 0, 9557
2, 86295, Pitch_bend_c, 0, 9557
2, 86300, Pitch_bend_c, 0, 9557
2, 86306, Pitch_bend_c, 0, 9557
2, 86311, Pitch_bend_c, 0, 9557
2, 86316, Pitch_bend_c, 0, 9557
2, 86321, Pitch_bend_c, 0, 9557
2, 86326, Pitch_bend_c, 0, 9557
2, 86331, Pitch_bend_c, 0, 9557
2, 86336, Pitch_bend_c, 0, 9557
2, 86341, Pitch_bend_c, 0, 9557
2, 86347, Pitch_bend_c, 0, 9557
2, 86352, Pitch_bend_c, 0, 9557
2, 86357, Pitch_bend_c, 0, 9557
2, 86362, Pitch_bend_c, 0, 9557
2, 86367, Pitch_bend_c, 0, 9557
2, 86372, Pitch_bend_c, 0, 9557
2, 86377, Pitch_bend_c, 0, 9557
2, 86382, Pitch_bend_c, 0, 9557
2, 86387, Pitch_bend_c, 0, 10923
2, 86393, Pitch_bend_c, 0, 10923
2, 86398, Pitch_bend_c, 0, 10923
2, 86403, Pitch_bend_c, 0, 9557
2, 86408, Pitch_bend_c, 0, 9557
2, 86413, Pitch_bend_c, 0, 9557
2, 86418, Pitch_bend_c, 0, 9557
2, 86423, Pitch_bend_c, 0, 9557
2, 86428, Pitch_bend_c, 0, 9557
2, 86433, Pitch_bend_c, 0, 9557
2, 86439, Pitch_bend_c, 0, 9557
2, 86444, Pitch_bend_c, 0, 9557
2, 86449, Pitch_bend_c, 0, 9557
2, 86454, Pitch_bend_c, 0, 9557
2, 86459, Pitch_bend_c, 0, 9557
2, 86464, Pitch_bend_c, 0, 9557
2, 86469, Pitch_bend_c, 0, 9557
2, 86474, Pitch_bend_c, 0, 9557
2, 86479, Pitch_bend_c, 0, 9557
2, 86485, Pitch_bend_c, 0, 9557
2, 86490, Pitch_bend_c, 0, 9557
2, 86495, Pitch_bend_c, 0, 9557
2, 86500, Pitch_bend_c, 0, 9557
2, 86505, Pitch_bend_c, 0, 9557
2, 86510, Pitch_bend_c, 0, 9557
2, 86515, Pitch_bend_c, 0, 9557
2, 86520, Pitch_bend_c, 0, 9557
2, 86525, Pitch_bend_c, 0, 9557
2, 86531, Pitch_bend_c, 0, 9557
2, 86536, Pitch_bend_c, 0, 9557
2, 86541, Pitch_bend_c, 0, 9557
2, 86546, Pitch_bend_c, 0, 9557
2, 86551, Pitch_bend_c, 0, 9557
2, 86556, Pitch_bend_c, 0, 9557
2, 86561, Pitch_bend_c, 0, 9557
2, 86566, Pitch_bend_c, 0, 9557
2, 86571, Pitch_bend_c, 0, 9557
2, 86577, Pitch_bend_c, 0, 9557
2, 86582, Pitch_bend_c, 0, 9557
2, 86587, Pitch_bend_c, 0, 9557
2, 86592, Pitch_bend_c, 0, 9557
2, 86597, Pitch_bend_c, 0, 10923
2, 86602, Pitch_bend_c, 0, 10923
2, 86607, Pitch_bend_c, 0, 10923
2, 86612, Pitch_bend_c, 0, 10923
2, 86617, Pitch_bend_c, 0, 9557
2, 86623, Pitch_bend_c, 0, 9557
2, 86628, Pitch_bend_c, 0, 9557
2, 86633, Pitch_bend_c, 0, 9557
2, 86638, Pitch_bend_c, 0, 9557
2, 86643, Pitch_bend_c, 0, 9557
2, 86648, Pitch_bend_c, 0, 9557
2, 86653, Pitch_bend_c, 0, 9557
2, 86658, Pitch_bend_c, 0, 9557
2, 86663, Pitch_bend_c, 0, 9557
2, 86669, Pitch_bend_c, 0, 9557
2, 86674, Pitch_bend_c, 0, 10923
2, 86679, Pitch_bend_c, 0, 10923
2, 86684, Pitch_bend_c, 0, 10923
2, 86689, Pitch_bend_c, 0, 10923
2, 86694, Pitch_bend_c, 0, 9557
2, 86699, Pitch_bend_c, 0, 9557
2, 86704, Pitch_bend_c, 0, 9557
2, 86709, Pitch_bend_c, 0, 9557
2, 86715, Pitch_bend_c, 0, 9557
2, 86720, Pitch_bend_c, 0, 9557
2, 86725, Pitch_bend_c, 0, 9557
2, 86730, Pitch_bend_c, 0, 9557
2, 86735, Pitch_bend_c, 0, 9557
2, 86740, Pitch_bend_c, 0, 9557
2, 86745, Pitch_bend_c, 0, 9557
2, 86750, Pitch_bend_c, 0, 9557
2, 86755, Pitch_bend_c, 0, 9557
2, 86761, Pitch_bend_c, 0, 9557
2, 86766, Pitch_bend_c, 0, 9557
2, 86771, Pitch_bend_c, 0, 9557
2, 86776, Pitch_bend_c, 0, 9557
2, 86781, Pitch_bend_c, 0, 9557
2, 86786, Pitch_bend_c, 0, 9557
2, 86791, Pitch_bend_c, 0, 6827
2, 86796, Pitch_bend_c, 0, 6827
2, 86796, Note_on_c, 0, 76, 0
2, 87277, Pitch_bend_c, 0, 10923
2, 87277, Note_on_c, 0, 72, 86
2, 87282, Pitch_bend_c, 0, 10923
2, 87287, Pitch_bend_c, 0, 10923
2, 87293, Pitch_bend_c, 0, 10923
2, 87298, Pitch_bend_c, 0, 10923
2, 87303, Pitch_bend_c, 0, 10923
2, 87308, Pitch_bend_c, 0, 10923
2, 87314, Pitch_bend_c, 0, 10923
2, 87319, Pitch_bend_c, 0, 10923
2, 87324, Pitch_bend_c, 0, 10923
2, 87330, Pitch_bend_c, 0, 10923
2, 87335, Pitch_bend_c, 0, 10923
2, 87340, Pitch_bend_c, 0, 9557
2, 87346, Pitch_bend_c, 0, 9557
2, 87351, Pitch_bend_c, 0, 9557
2, 87356, Pitch_bend_c, 0, 9557
2, 87362, Pitch_bend_c, 0, 9557
2, 87367, Pitch_bend_c, 0, 9557
2, 87372, Pitch_bend_c, 0, 9557
2, 87378, Pitch_bend_c, 0, 9557
2, 87383, Pitch_bend_c, 0, 9557
2, 87388, Pitch_bend_c, 0, 9557
2, 87393, Pitch_bend_c, 0, 9557
2, 87399, Pitch_bend_c, 0, 9557
2, 87404, Pitch_bend_c, 0, 9557
2, 87409, Pitch_bend_c, 0, 9557
2, 87409, Note_on_c, 0, 72, 0
2, 87461, Pitch_bend_c, 0, 12288
2, 87461, Note_on_c, 0, 74, 65
2, 87466, Pitch_bend_c, 0, 8192
2, 87472, Pitch_bend_c, 0, 8192
2, 87477, Pitch_bend_c, 0, 8192
2, 87483, Pitch_bend_c, 0, 9557
2, 87488, Pitch_bend_c, 0, 9557
2, 87493, Pitch_bend_c, 0, 9557
2, 87499, Pitch_bend_c, 0, 10923
2, 87504, Pitch_bend_c, 0, 10923
2, 87510, Pitch_bend_c, 0, 10923
2, 87515, Pitch_bend_c, 0, 10923
2, 87521, Pitch_bend_c, 0, 10923
2, 87526, Pitch_bend_c, 0, 8192
2, 87531, Pitch_bend_c, 0, 8192
2, 87537, Pitch_bend_c, 0, 9557
2, 87542, Pitch_bend_c, 0, 9557
2, 87548, Pitch_bend_c, 0, 9557
2, 87553, Pitch_bend_c, 0, 9557
2, 87553, Note_on_c, 0, 74, 0
2, 87655, Pitch_bend_c, 0, 9557
2, 87655, Note_on_c, 0, 62, 78
2, 87660, Pitch_bend_c, 0, 9557
2, 87666, Pitch_bend_c, 0, 9557
2, 87671, Pitch_bend_c, 0, 9557
2, 87676, Pitch_bend_c, 0, 9557
2, 87681, Pitch_bend_c, 0, 9557
2, 87686, Pitch_bend_c, 0, 10923
2, 87692, Pitch_bend_c, 0, 10923
2, 87697, Pitch_bend_c, 0, 12288
2, 87702, Pitch_bend_c, 0, 10923
2, 87707, Pitch_bend_c, 0, 9557
2, 87713, Pitch_bend_c, 0, 9557
2, 87718, Pitch_bend_c, 0, 9557
2, 87723, Pitch_bend_c, 0, 8192
2, 87728, Pitch_bend_c, 0, 8192
2, 87733, Pitch_bend_c, 0, 8192
2, 87739, Pitch_bend_c, 0, 8192
2, 87744, Pitch_bend_c, 0, 8192
2, 87749, Pitch_bend_c, 0, 10923
2, 87754, Pitch_bend_c, 0, 10923
2, 87760, Pitch_bend_c, 0, 10923
2, 87765, Pitch_bend_c, 0, 10923
2, 87770, Pitch_bend_c, 0, 10923
2, 87775, Pitch_bend_c, 0, 10923
2, 87780, Pitch_bend_c, 0, 10923
2, 87786, Pitch_bend_c, 0, 9557
2, 87791, Pitch_bend_c, 0, 9557
2, 87796, Pitch_bend_c, 0, 8192
2, 87801, Pitch_bend_c, 0, 8192
2, 87807, Pitch_bend_c, 0, 9557
2, 87812, Pitch_bend_c, 0, 9557
2, 87817, Pitch_bend_c, 0, 9557
2, 87822, Pitch_bend_c, 0, 9557
2, 87827, Pitch_bend_c, 0, 10923
2, 87833, Pitch_bend_c, 0, 9557
2, 87838, Pitch_bend_c, 0, 9557
2, 87843, Pitch_bend_c, 0, 9557
2, 87848, Pitch_bend_c, 0, 9557
2, 87854, Pitch_bend_c, 0, 9557
2, 87859, Pitch_bend_c, 0, 9557
2, 87864, Pitch_bend_c, 0, 9557
2, 87869, Pitch_bend_c, 0, 9557
2, 87874, Pitch_bend_c, 0, 9557
2, 87880, Pitch_bend_c, 0, 9557
2, 87885, Pitch_bend_c, 0, 9557
2, 87890, Pitch_bend_c, 0, 9557
2, 87895, Pitch_bend_c, 0, 9557
2, 87895, Note_on_c, 0, 62, 0
2, 87987, Note_on_c, 0, 69, 86
2, 88079, Note_on_c, 0, 81, 46
2, 88146, Note_on_c, 0, 81, 0
2, 88186, Note_on_c, 0, 69, 0
2, 88227, Note_on_c, 0, 62, 71
2, 88227, Note_on_c, 0, 74, 63
2, 88442, Note_on_c, 0, 62, 0
2, 88442, Note_on_c, 0, 62, 83
2, 88442, Note_on_c, 0, 74, 0
2, 88442, Note_on_c, 0, 74, 70
2, 88662, Note_on_c, 0, 62, 0
2, 88667, Note_on_c, 0, 74, 0
2, 88739, Note_on_c, 0, 70, 86
2, 88739, Note_on_c, 0, 82, 45
2, 88856, Note_on_c, 0, 82, 0
2, 88958, Note_on_c, 0, 69, 74
2, 88958, Note_on_c, 0, 70, 0
2, 88963, Note_on_c, 0, 81, 40
2, 89152, Note_on_c, 0, 81, 0
2, 89189, Note_on_c, 0, 69, 0
2, 89373, Pitch_bend_c, 0, 6827
2, 89373, Note_on_c, 0, 69, 71
2, 89378, Pitch_bend_c, 0, 6827
2, 89384, Pitch_bend_c, 0, 6827
2, 89389, Pitch_bend_c, 0, 9557
2, 89395, Pitch_bend_c, 0, 9557
2, 89400, Pitch_bend_c, 0, 9557
2, 89406, Pitch_bend_c, 0, 9557
2, 89411, Pitch_bend_c, 0, 9557
2, 89417, Pitch_bend_c, 0, 9557
2, 89422, Pitch_bend_c, 0, 9557
2, 89428, Pitch_bend_c, 0, 9557
2, 89433, Pitch_bend_c, 0, 8192
2, 89439, Pitch_bend_c, 0, 8192
2, 89444, Pitch_bend_c, 0, 8192
2, 89444, Note_on_c, 0, 69, 0
2, 89449, Pitch_bend_c, 0, 9557
2, 89449, Note_on_c, 0, 69, 63
2, 89455, Pitch_bend_c, 0, 9557
2, 89460, Pitch_bend_c, 0, 9557
2, 89465, Pitch_bend_c, 0, 9557
2, 89470, Pitch_bend_c, 0, 9557
2, 89476, Pitch_bend_c, 0, 9557
2, 89481, Pitch_bend_c, 0, 9557
2, 89486, Pitch_bend_c, 0, 9557
2, 89491, Pitch_bend_c, 0, 9557
2, 89496, Pitch_bend_c, 0, 9557
2, 89502, Pitch_bend_c, 0, 9557
2, 89507, Pitch_bend_c, 0, 9557
2, 89512, Pitch_bend_c, 0, 9557
2, 89517, Pitch_bend_c, 0, 9557
2, 89523, Pitch_bend_c, 0, 9557
2, 89528, Pitch_bend_c, 0, 9557
2, 89533, Pitch_bend_c, 0, 9557
2, 89538, Pitch_bend_c, 0, 9557
2, 89544, Pitch_bend_c, 0, 9557
2, 89549, Pitch_bend_c, 0, 8192
2, 89554, Pitch_bend_c, 0, 8192
2, 89559, Pitch_bend_c, 0, 8192
2, 89565, Pitch_bend_c, 0, 8192
2, 89570, Pitch_bend_c, 0, 8192
2, 89575, Pitch_bend_c, 0, 8192
2, 89580, Pitch_bend_c, 0, 9557
2, 89585, Pitch_bend_c, 0, 9557
2, 89591, Pitch_bend_c, 0, 9557
2, 89596, Pitch_bend_c, 0, 9557
2, 89601, Pitch_bend_c, 0, 9557
2, 89606, Pitch_bend_c, 0, 9557
2, 89612, Pitch_bend_c, 0, 9557
2, 89617, Pitch_bend_c, 0, 9557
2, 89622, Pitch_bend_c, 0, 9557
2, 89627, Pitch_bend_c, 0, 9557
2, 89633, Pitch_bend_c, 0, 9557
2, 89638, Pitch_bend_c, 0, 9557
2, 89643, Pitch_bend_c, 0, 9557
2, 89648, Pitch_bend_c, 0, 9557
2, 89654, Pitch_bend_c, 0, 12288
2, 89659, Pitch_bend_c, 0, 12288
2, 89659, Pitch_bend_c, 0, 12288
2, 89659, Note_on_c, 0, 69, 0
2, 89659, Note_on_c, 0, 69, 81
2, 89664, Pitch_bend_c, 0, 10923
2, 89669, Pitch_bend_c, 0, 9557
2, 89674, Pitch_bend_c, 0, 8192
2, 89680, Pitch_bend_c, 0, 8192
2, 89685, Pitch_bend_c, 0, 8192
2, 89690, Pitch_bend_c, 0, 8192
2, 89695, Pitch_bend_c, 0, 10923
2, 89701, Pitch_bend_c, 0, 10923
2, 89706, Pitch_bend_c, 0, 10923
2, 89711, Pitch_bend_c, 0, 10923
2, 89716, Pitch_bend_c, 0, 10923
2, 89722, Pitch_bend_c, 0, 10923
2, 89727, Pitch_bend_c, 0, 10923
2, 89732, Pitch_bend_c, 0, 10923
2, 89737, Pitch_bend_c, 0, 10923
2, 89742, Pitch_bend_c, 0, 10923
2, 89748, Pitch_bend_c, 0, 8192
2, 89753, Pitch_bend_c, 0, 8192
2, 89758, Pitch_bend_c, 0, 8192
2, 89763, Pitch_bend_c, 0, 8192
2, 89769, Pitch_bend_c, 0, 10923
2, 89774, Pitch_bend_c, 0, 10923
2, 89779, Pitch_bend_c, 0, 10923
2, 89784, Pitch_bend_c, 0, 10923
2, 89789, Pitch_bend_c, 0, 10923
2, 89795, Pitch_bend_c, 0, 10923
2, 89800, Pitch_bend_c, 0, 8192
2, 89805, Pitch_bend_c, 0, 8192
2, 89810, Pitch_bend_c, 0, 8192
2, 89816, Pitch_bend_c, 0, 8192
2, 89821, Pitch_bend_c, 0, 9557
2, 89826, Pitch_bend_c, 0, 10923
2, 89831, Pitch_bend_c, 0, 10923
2, 89837, Pitch_bend_c, 0, 10923
2, 89842, Pitch_bend_c, 0, 10923
2, 89847, Pitch_bend_c, 0, 10923
2, 89852, Pitch_bend_c, 0, 9557
2, 89857, Pitch_bend_c, 0, 9557
2, 89863, Pitch_bend_c, 0, 9557
2, 89868, Pitch_bend_c, 0, 9557
2, 89873, Pitch_bend_c, 0, 9557
2, 89878, Pitch_bend_c, 0, 9557
2, 89884, Pitch_bend_c, 0, 9557
2, 89884, Note_on_c, 0, 69, 0
2, 89955, Note_on_c, 0, 69, 71
2, 89955, Note_on_c, 0, 81, 47
2, 90109, Note_on_c, 0, 81, 0
2, 90134, Note_on_c, 0, 69, 0
2, 90574, Pitch_bend_c, 0, 9557
2, 90574, Note_on_c, 0, 62, 83
2, 90579, Pitch_bend_c, 0, 9557
2, 90584, Pitch_bend_c, 0, 9557
2, 90589, Pitch_bend_c, 0, 9557
2, 90594, Pitch_bend_c, 0, 9557
2, 90599, Pitch_bend_c, 0, 9557
2, 90604, Pitch_bend_c, 0, 9557
2, 90610, Pitch_bend_c, 0, 9557
2, 90615, Pitch_bend_c, 0, 9557
2, 90620, Pitch_bend_c, 0, 9557
2, 90625, Pitch_bend_c, 0, 9557
2, 90630, Pitch_bend_c, 0, 9557
2, 90635, Pitch_bend_c, 0, 9557
2, 90640, Pitch_bend_c, 0, 9557
2, 90645, Pitch_bend_c, 0, 9557
2, 90650, Pitch_bend_c, 0, 9557
2, 90656, Pitch_bend_c, 0, 9557
2, 90661, Pitch_bend_c, 0, 9557
2, 90666, Pitch_bend_c, 0, 9557
2, 90671, Pitch_bend_c, 0, 9557
2, 90676, Pitch_bend_c, 0, 9557
2, 90681, Pitch_bend_c, 0, 9557
2, 90686, Pitch_bend_c, 0, 10923
2, 90691, Pitch_bend_c, 0, 10923
2, 90697, Pitch_bend_c, 0, 10923
2, 90702, Pitch_bend_c, 0, 10923
2, 90707, Pitch_bend_c, 0, 10923
2, 90712, Pitch_bend_c, 0, 5461
2, 90717, Pitch_bend_c, 0, 5461
2, 90722, Pitch_bend_c, 0, 5461
2, 90727, Pitch_bend_c, 0, 6827
2, 90732, Pitch_bend_c, 0, 6827
2, 90737, Pitch_bend_c, 0, 10923
2, 90743, Pitch_bend_c, 0, 10923
2, 90748, Pitch_bend_c, 0, 10923
2, 90753, Pitch_bend_c, 0, 12288
2, 90758, Pitch_bend_c, 0, 12288
2, 90763, Pitch_bend_c, 0, 10923
2, 90768, Pitch_bend_c, 0, 8192
2, 90773, Pitch_bend_c, 0, 8192
2, 90778, Pitch_bend_c, 0, 8192
2, 90783, Pitch_bend_c, 0, 8192
2, 90789, Pitch_bend_c, 0, 8192
2, 90794, Pitch_bend_c, 0, 8192
2, 90799, Pitch_bend_c, 0, 10923
2, 90804, Pitch_bend_c, 0, 10923
2, 90809, Pitch_bend_c, 0, 12288
2, 90814, Pitch_bend_c, 0, 12288
2, 90819, Pitch_bend_c, 0, 12288
2, 90824, Pitch_bend_c, 0, 10923
2, 90830, Pitch_bend_c, 0, 10923
2, 90835, Pitch_bend_c, 0, 9557
2, 90840, Pitch_bend_c, 0, 8192
2, 90845, Pitch_bend_c, 0, 8192
2, 90850, Pitch_bend_c, 0, 9557
2, 90855, Pitch_bend_c, 0, 10923
2, 90860, Pitch_bend_c, 0, 10923
2, 90865, Pitch_bend_c, 0, 10923
2, 90870, Pitch_bend_c, 0, 12288
2, 90876, Pitch_bend_c, 0, 12288
2, 90881, Pitch_bend_c, 0, 10923
2, 90886, Pitch_bend_c, 0, 8192
2, 90891, Pitch_bend_c, 0, 8192
2, 90896, Pitch_bend_c, 0, 8192
2, 90901, Pitch_bend_c, 0, 9557
2, 90906, Pitch_bend_c, 0, 9557
2, 90911, Pitch_bend_c, 0, 9557
2, 90916, Pitch_bend_c, 0, 9557
2, 90922, Pitch_bend_c, 0, 9557
2, 90927, Pitch_bend_c, 0, 9557
2, 90932, Pitch_bend_c, 0, 9557
2, 90937, Pitch_bend_c, 0, 9557
2, 90942, Pitch_bend_c, 0, 9557
2, 90947, Pitch_bend_c, 0, 9557
2, 90952, Pitch_bend_c, 0, 9557
2, 90957, Pitch_bend_c, 0, 9557
2, 90963, Pitch_bend_c, 0, 9557
2, 90968, Pitch_bend_c, 0, 10923
2, 90973, Pitch_bend_c, 0, 10923
2, 90973, Note_on_c, 0, 62, 0
2, 91044, Note_on_c, 0, 69, 85
2, 91044, Note_on_c, 0, 81, 42
2, 91192, Note_on_c, 0, 81, 0
2, 91249, Note_on_c, 0, 69, 0
2, 91269, Note_on_c, 0, 62, 79
2, 91279, Note_on_c, 0, 74, 55
2, 91427, Note_on_c, 0, 74, 0
2, 91494, Note_on_c, 0, 62, 0
2, 91494, Note_on_c, 0, 62, 88
2, 91499, Note_on_c, 0, 74, 66
2, 91724, Note_on_c, 0, 74, 0
2, 91734, Note_on_c, 0, 62, 0
2, 91796, Note_on_c, 0, 70, 86
2, 91862, Note_on_c, 0, 82, 52
2, 91964, Note_on_c, 0, 70, 0
2, 91975, Note_on_c, 0, 82, 0
2, 92026, Note_on_c, 0, 69, 76
2, 92036, Note_on_c, 0, 81, 47
2, 92184, Note_on_c, 0, 69, 0
2, 92271, Note_on_c, 0, 81, 0
2, 92424, Pitch_bend_c, 0, 12288
2, 92424, Note_on_c, 0, 69, 69
2, 92429, Pitch_bend_c, 0, 9557
2, 92434, Pitch_bend_c, 0, 9557
2, 92439, Pitch_bend_c, 0, 9557
2, 92445, Pitch_bend_c, 0, 9557
2, 92450, Pitch_bend_c, 0, 9557
2, 92455, Pitch_bend_c, 0, 10923
2, 92460, Pitch_bend_c, 0, 10923
2, 92465, Pitch_bend_c, 0, 10923
2, 92470, Pitch_bend_c, 0, 10923
2, 92475, Pitch_bend_c, 0, 10923
2, 92480, Pitch_bend_c, 0, 10923
2, 92486, Pitch_bend_c, 0, 8192
2, 92491, Pitch_bend_c, 0, 8192
2, 92496, Pitch_bend_c, 0, 8192
2, 92501, Pitch_bend_c, 0, 9557
2, 92506, Pitch_bend_c, 0, 9557
2, 92511, Pitch_bend_c, 0, 10923
2, 92516, Pitch_bend_c, 0, 10923
2, 92521, Pitch_bend_c, 0, 10923
2, 92526, Pitch_bend_c, 0, 10923
2, 92532, Pitch_bend_c, 0, 10923
2, 92537, Pitch_bend_c, 0, 10923
2, 92542, Pitch_bend_c, 0, 10923
2, 92547, Pitch_bend_c, 0, 9557
2, 92552, Pitch_bend_c, 0, 9557
2, 92557, Pitch_bend_c, 0, 9557
2, 92562, Pitch_bend_c, 0, 9557
2, 92567, Pitch_bend_c, 0, 9557
2, 92573, Pitch_bend_c, 0, 9557
2, 92578, Pitch_bend_c, 0, 9557
2, 92583, Pitch_bend_c, 0, 9557
2, 92588, Pitch_bend_c, 0, 9557
2, 92593, Pitch_bend_c, 0, 9557
2, 92598, Pitch_bend_c, 0, 9557
2, 92603, Pitch_bend_c, 0, 9557
2, 92608, Pitch_bend_c, 0, 9557
2, 92614, Pitch_bend_c, 0, 9557
2, 92619, Pitch_bend_c, 0, 9557
2, 92624, Pitch_bend_c, 0, 10923
2, 92629, Pitch_bend_c, 0, 10923
2, 92634, Pitch_bend_c, 0, 10923
2, 92639, Pitch_bend_c, 0, 10923
2, 92644, Pitch_bend_c, 0, 10923
2, 92649, Pitch_bend_c, 0, 10923
2, 92654, Pitch_bend_c, 0, 10923
2, 92660, Pitch_bend_c, 0, 10923
2, 92665, Pitch_bend_c, 0, 10923
2, 92670, Pitch_bend_c, 0, 9557
2, 92675, Pitch_bend_c, 0, 9557
2, 92680, Pitch_bend_c, 0, 9557
2, 92685, Pitch_bend_c, 0, 10923
2, 92690, Pitch_bend_c, 0, 10923
2, 92695, Pitch_bend_c, 0, 8192
2, 92701, Pitch_bend_c, 0, 8192
2, 92701, Pitch_bend_c, 0, 9557
2, 92701, Note_on_c, 0, 69, 0
2, 92701, Note_on_c, 0, 69, 87
2, 92706, Pitch_bend_c, 0, 9557
2, 92711, Pitch_bend_c, 0, 9557
2, 92716, Pitch_bend_c, 0, 9557
2, 92722, Pitch_bend_c, 0, 9557
2, 92727, Pitch_bend_c, 0, 8192
2, 92732, Pitch_bend_c, 0, 8192
2, 92737, Pitch_bend_c, 0, 8192
2, 92743, Pitch_bend_c, 0, 9557
2, 92748, Pitch_bend_c, 0, 9557
2, 92753, Pitch_bend_c, 0, 10923
2, 92758, Pitch_bend_c, 0, 10923
2, 92764, Pitch_bend_c, 0, 10923
2, 92769, Pitch_bend_c, 0, 10923
2, 92774, Pitch_bend_c, 0, 10923
2, 92779, Pitch_bend_c, 0, 8192
2, 92785, Pitch_bend_c, 0, 8192
2, 92790, Pitch_bend_c, 0, 8192
2, 92795, Pitch_bend_c, 0, 9557
2, 92800, Pitch_bend_c, 0, 9557
2, 92806, Pitch_bend_c, 0, 9557
2, 92811, Pitch_bend_c, 0, 9557
2, 92816, Pitch_bend_c, 0, 9557
2, 92821, Pitch_bend_c, 0, 9557
2, 92827, Pitch_bend_c, 0, 9557
2, 92832, Pitch_bend_c, 0, 9557
2, 92837, Pitch_bend_c, 0, 9557
2, 92842, Pitch_bend_c, 0, 9557
2, 92848, Pitch_bend_c, 0, 9557
2, 92853, Pitch_bend_c, 0, 9557
2, 92858, Pitch_bend_c, 0, 9557
2, 92863, Pitch_bend_c, 0, 9557
2, 92869, Pitch_bend_c, 0, 9557
2, 92874, Pitch_bend_c, 0, 9557
2, 92879, Pitch_bend_c, 0, 9557
2, 92884, Pitch_bend_c, 0, 9557
2, 92884, Note_on_c, 0, 69, 0
2, 92884, Note_on_c, 0, 69, 95
2, 92956, Note_on_c, 0, 74, 57
2, 92966, Note_on_c, 0, 69, 0
2, 92966, Note_on_c, 0, 69, 90
2, 93365, Note_on_c, 0, 69, 0
2, 93365, Note_on_c, 0, 69, 74
2, 93416, Note_on_c, 0, 86, 40
2, 93431, Note_on_c, 0, 74, 0
2, 93497, Note_on_c, 0, 86, 0
2, 93570, Note_on_c, 0, 69, 0
2, 93723, Note_on_c, 0, 74, 50
2, 93738, Note_on_c, 0, 69, 51
2, 93881, Note_on_c, 0, 69, 0
2, 93958, Note_on_c, 0, 69, 48
2, 94137, Note_on_c, 0, 69, 0
2, 94193, Note_on_c, 0, 74, 0
2, 94536, Pitch_bend_c, 0, 10923
2, 94536, Note_on_c, 0, 69, 60
2, 94541, Pitch_bend_c, 0, 10923
2, 94546, Pitch_bend_c, 0, 8192
2, 94551, Pitch_bend_c, 0, 8192
2, 94556, Pitch_bend_c, 0, 8192
2, 94561, Pitch_bend_c, 0, 8192
2, 94567, Pitch_bend_c, 0, 8192
2, 94572, Pitch_bend_c, 0, 8192
2, 94577, Pitch_bend_c, 0, 8192
2, 94582, Pitch_bend_c, 0, 8192
2, 94587, Pitch_bend_c, 0, 8192
2, 94593, Pitch_bend_c, 0, 9557
2, 94598, Pitch_bend_c, 0, 9557
2, 94603, Pitch_bend_c, 0, 9557
2, 94608, Pitch_bend_c, 0, 9557
2, 94613, Pitch_bend_c, 0, 9557
2, 94619, Pitch_bend_c, 0, 8192
2, 94624, Pitch_bend_c, 0, 8192
2, 94629, Pitch_bend_c, 0, 8192
2, 94634, Pitch_bend_c, 0, 8192
2, 94639, Pitch_bend_c, 0, 8192
2, 94644, Pitch_bend_c, 0, 8192
2, 94650, Pitch_bend_c, 0, 8192
2, 94655, Pitch_bend_c, 0, 10923
2, 94660, Pitch_bend_c, 0, 10923
2, 94665, Pitch_bend_c, 0, 10923
2, 94670, Pitch_bend_c, 0, 10923
2, 94676, Pitch_bend_c, 0, 10923
2, 94681, Pitch_bend_c, 0, 9557
2, 94686, Pitch_bend_c, 0, 9557
2, 94691, Pitch_bend_c, 0, 9557
2, 94696, Pitch_bend_c, 0, 9557
2, 94701, Pitch_bend_c, 0, 9557
2, 94707, Pitch_bend_c, 0, 9557
2, 94712, Pitch_bend_c, 0, 9557
2, 94717, Pitch_bend_c, 0, 9557
2, 94722, Pitch_bend_c, 0, 9557
2, 94727, Pitch_bend_c, 0, 9557
2, 94733, Pitch_bend_c, 0, 9557
2, 94738, Pitch_bend_c, 0, 9557
2, 94743, Pitch_bend_c, 0, 9557
2, 94748, Pitch_bend_c, 0, 9557
2, 94753, Pitch_bend_c, 0, 9557
2, 94758, Pitch_bend_c, 0, 9557
2, 94764, Pitch_bend_c, 0, 9557
2, 94769, Pitch_bend_c, 0, 9557
2, 94774, Pitch_bend_c, 0, 9557
2, 94779, Pitch_bend_c, 0, 9557
2, 94784, Pitch_bend_c, 0, 9557
2, 94790, Pitch_bend_c, 0, 9557
2, 94795, Pitch_bend_c, 0, 9557
2, 94800, Pitch_bend_c, 0, 9557
2, 94805, Pitch_bend_c, 0, 9557
2, 94810, Pitch_bend_c, 0, 9557
2, 94815, Pitch_bend_c, 0, 9557
2, 94821, Pitch_bend_c, 0, 9557
2, 94826, Pitch_bend_c, 0, 9557
2, 94831, Pitch_bend_c, 0, 9557
2, 94836, Pitch_bend_c, 0, 9557
2, 94841, Pitch_bend_c, 0, 9557
2, 94847, Pitch_bend_c, 0, 8192
2, 94852, Pitch_bend_c, 0, 9557
2, 94857, Pitch_bend_c, 0, 9557
2, 94862, Pitch_bend_c, 0, 9557
2, 94867, Pitch_bend_c, 0, 9557
2, 94873, Pitch_bend_c, 0, 9557
2, 94878, Pitch_bend_c, 0, 9557
2, 94883, Pitch_bend_c, 0, 9557
2, 94888, Pitch_bend_c, 0, 9557
2, 94888, Note_on_c, 0, 69, 0
2, 95031, Pitch_bend_c, 0, 10923
2, 95031, Note_on_c, 0, 69, 44
2, 95037, Pitch_bend_c, 0, 10923
2, 95042, Pitch_bend_c, 0, 10923
2, 95048, Pitch_bend_c, 0, 10923
2, 95053, Pitch_bend_c, 0, 10923
2, 95058, Pitch_bend_c, 0, 10923
2, 95064, Pitch_bend_c, 0, 10923
2, 95069, Pitch_bend_c, 0, 9557
2, 95075, Pitch_bend_c, 0, 9557
2, 95080, Pitch_bend_c, 0, 9557
2, 95086, Pitch_bend_c, 0, 9557
2, 95091, Pitch_bend_c, 0, 9557
2, 95097, Pitch_bend_c, 0, 9557
2, 95102, Pitch_bend_c, 0, 10923
2, 95108, Pitch_bend_c, 0, 10923
2, 95108, Note_on_c, 0, 69, 0
2, 95261, Note_on_c, 0, 69, 80
2, 95261, Note_on_c, 0, 74, 50
2, 95399, Note_on_c, 0, 74, 0
2, 95466, Note_on_c, 0, 69, 0
2, 96325, Pitch_bend_c, 0, 9557
2, 96325, Note_on_c, 0, 69, 79
2, 96330, Pitch_bend_c, 0, 9557
2, 96336, Pitch_bend_c, 0, 9557
2, 96341, Pitch_bend_c, 0, 9557
2, 96347, Pitch_bend_c, 0, 9557
2, 96352, Pitch_bend_c, 0, 9557
2, 96358, Pitch_bend_c, 0, 9557
2, 96363, Pitch_bend_c, 0, 9557
2, 96369, Pitch_bend_c, 0, 9557
2, 96374, Pitch_bend_c, 0, 9557
2, 96380, Pitch_bend_c, 0, 9557
2, 96386, Pitch_bend_c, 0, 9557
2, 96391, Pitch_bend_c, 0, 9557
2, 96391, Note_on_c, 0, 69, 0
2, 96432, Pitch_bend_c, 0, 8192
2, 96432, Note_on_c, 0, 72, 65
2, 96437, Pitch_bend_c, 0, 8192
2, 96443, Pitch_bend_c, 0, 8192
2, 96449, Pitch_bend_c, 0, 8192
2, 96454, Pitch_bend_c, 0, 9557
2, 96460, Pitch_bend_c, 0, 9557
2, 96465, Pitch_bend_c, 0, 9557
2, 96471, Pitch_bend_c, 0, 9557
2, 96476, Pitch_bend_c, 0, 9557
2, 96482, Pitch_bend_c, 0, 9557
2, 96487, Pitch_bend_c, 0, 9557
2, 96493, Pitch_bend_c, 0, 9557
2, 96498, Pitch_bend_c, 0, 9557
2, 96498, Note_on_c, 0, 72, 0
2, 96529, Pitch_bend_c, 0, 9557
2, 96529, Note_on_c, 0, 74, 71
2, 96534, Pitch_bend_c, 0, 9557
2, 96539, Pitch_bend_c, 0, 9557
2, 96545, Pitch_bend_c, 0, 10923
2, 96550, Pitch_bend_c, 0, 9557
2, 96555, Pitch_bend_c, 0, 8192
2, 96560, Pitch_bend_c, 0, 8192
2, 96565, Pitch_bend_c, 0, 8192
2, 96571, Pitch_bend_c, 0, 8192
2, 96576, Pitch_bend_c, 0, 8192
2, 96581, Pitch_bend_c, 0, 9557
2, 96586, Pitch_bend_c, 0, 9557
2, 96592, Pitch_bend_c, 0, 9557
2, 96597, Pitch_bend_c, 0, 9557
2, 96602, Pitch_bend_c, 0, 8192
2, 96607, Pitch_bend_c, 0, 8192
2, 96612, Pitch_bend_c, 0, 8192
2, 96618, Pitch_bend_c, 0, 8192
2, 96623, Pitch_bend_c, 0, 9557
2, 96628, Pitch_bend_c, 0, 10923
2, 96633, Pitch_bend_c, 0, 10923
2, 96638, Pitch_bend_c, 0, 10923
2, 96644, Pitch_bend_c, 0, 10923
2, 96649, Pitch_bend_c, 0, 10923
2, 96654, Pitch_bend_c, 0, 8192
2, 96659, Pitch_bend_c, 0, 8192
2, 96665, Pitch_bend_c, 0, 8192
2, 96670, Pitch_bend_c, 0, 8192
2, 96675, Pitch_bend_c, 0, 9557
2, 96680, Pitch_bend_c, 0, 9557
2, 96685, Pitch_bend_c, 0, 9557
2, 96691, Pitch_bend_c, 0, 9557
2, 96696, Pitch_bend_c, 0, 10923
2, 96701, Pitch_bend_c, 0, 10923
2, 96706, Pitch_bend_c, 0, 10923
2, 96711, Pitch_bend_c, 0, 10923
2, 96717, Pitch_bend_c, 0, 10923
2, 96722, Pitch_bend_c, 0, 10923
2, 96727, Pitch_bend_c, 0, 8192
2, 96732, Pitch_bend_c, 0, 8192
2, 96737, Pitch_bend_c, 0, 8192
2, 96743, Pitch_bend_c, 0, 10923
2, 96748, Pitch_bend_c, 0, 12288
2, 96753, Pitch_bend_c, 0, 8192
2, 96758, Pitch_bend_c, 0, 8192
2, 96764, Pitch_bend_c, 0, 8192
2, 96769, Pitch_bend_c, 0, 8192
2, 96774, Pitch_bend_c, 0, 8192
2, 96779, Pitch_bend_c, 0, 10923
2, 96784, Pitch_bend_c, 0, 9557
2, 96784, Note_on_c, 0, 74, 0
2, 96881, Note_on_c, 0, 74, 65
2, 96892, Note_on_c, 0, 86, 55
2, 97025, Note_on_c, 0, 86, 0
2, 97153, Note_on_c, 0, 74, 0
2, 98144, Pitch_bend_c, 0, 9557
2, 98144, Note_on_c, 0, 74, 49
2, 98150, Pitch_bend_c, 0, 9557
2, 98155, Pitch_bend_c, 0, 9557
2, 98161, Pitch_bend_c, 0, 9557
2, 98166, Pitch_bend_c, 0, 9557
2, 98172, Pitch_bend_c, 0, 9557
2, 98177, Pitch_bend_c, 0, 9557
2, 98183, Pitch_bend_c, 0, 9557
2, 98188, Pitch_bend_c, 0, 9557
2, 98194, Pitch_bend_c, 0, 9557
2, 98199, Pitch_bend_c, 0, 9557
2, 98205, Pitch_bend_c, 0, 9557
2, 98210, Pitch_bend_c, 0, 9557
2, 98216, Pitch_bend_c, 0, 9557
2, 98221, Pitch_bend_c, 0, 9557
2, 98221, Note_on_c, 0, 74, 0
2, 98222, End_track
0, 0, End_of_file
